<svg width="378" height="247" viewBox="0 0 378 247" fill="none" xmlns="http://www.w3.org/2000/svg">
<g clip-path="url(#clip0_189:1348)">
<path d="M180.906 190.908C190.691 158.908 189.653 124.575 177.953 93.2246L35.4189 146.419L180.906 190.908Z" fill="url(#paint0_linear_189:1348)"/>
<path d="M180.906 190.908C188.776 165.169 189.678 137.804 183.518 111.603L35.4189 146.419L180.906 190.908Z" fill="url(#paint1_linear_189:1348)"/>
<path d="M180.906 190.908C185.672 175.321 187.902 159.07 187.512 142.775L35.4189 146.419L180.906 190.908Z" fill="url(#paint2_linear_189:1348)"/>
<path d="M263.81 57.8906C264.486 57.8906 265.018 58.0591 265.405 58.396C265.794 58.73 265.989 59.1885 265.989 59.7715C265.989 60.4365 265.777 60.958 265.352 61.3359C264.93 61.7139 264.347 61.9028 263.603 61.9028C262.879 61.9028 262.327 61.7871 261.946 61.5557V60.8525C262.151 60.9844 262.406 61.0884 262.711 61.1646C263.016 61.2378 263.316 61.2744 263.612 61.2744C264.127 61.2744 264.527 61.1528 264.812 60.9097C265.099 60.6665 265.242 60.3149 265.242 59.855C265.242 58.9585 264.693 58.5103 263.594 58.5103C263.316 58.5103 262.944 58.5527 262.478 58.6377L262.1 58.396L262.342 55.3901H265.537V56.0625H262.966L262.803 57.9917C263.14 57.9243 263.476 57.8906 263.81 57.8906Z" fill="white"/>
<path d="M267.576 57.3061C267.576 57.8041 267.63 58.1777 267.738 58.4268C267.847 58.6758 268.022 58.8003 268.266 58.8003C268.746 58.8003 268.986 58.3021 268.986 57.3061C268.986 56.3158 268.746 55.8208 268.266 55.8208C268.022 55.8208 267.847 55.9437 267.738 56.1898C267.63 56.4359 267.576 56.808 267.576 57.3061ZM269.588 57.3061C269.588 57.974 269.476 58.4795 269.25 58.8223C269.027 59.1621 268.699 59.332 268.266 59.332C267.855 59.332 267.536 59.1577 267.308 58.8091C267.082 58.4604 266.969 57.9594 266.969 57.3061C266.969 56.641 267.078 56.1401 267.294 55.8032C267.514 55.4663 267.838 55.2979 268.266 55.2979C268.69 55.2979 269.017 55.4722 269.246 55.8208C269.474 56.1694 269.588 56.6645 269.588 57.3061ZM271.443 59.8813C271.443 60.3823 271.497 60.7573 271.605 61.0063C271.714 61.2524 271.891 61.3755 272.137 61.3755C272.383 61.3755 272.565 61.2539 272.682 61.0107C272.799 60.7646 272.858 60.3882 272.858 59.8813C272.858 59.3804 272.799 59.0098 272.682 58.7695C272.565 58.5264 272.383 58.4048 272.137 58.4048C271.891 58.4048 271.714 58.5264 271.605 58.7695C271.497 59.0098 271.443 59.3804 271.443 59.8813ZM273.46 59.8813C273.46 60.5464 273.347 61.0503 273.122 61.3931C272.899 61.7329 272.571 61.9028 272.137 61.9028C271.721 61.9028 271.4 61.7285 271.175 61.3799C270.952 61.0312 270.841 60.5317 270.841 59.8813C270.841 59.2163 270.949 58.7152 271.166 58.3783C271.386 58.0414 271.709 57.873 272.137 57.873C272.553 57.873 272.877 58.0459 273.108 58.3916C273.343 58.7344 273.46 59.231 273.46 59.8813ZM272.326 55.39L268.762 61.8148H268.116L271.68 55.39H272.326Z" fill="white"/>
<path d="M277.89 59.1431V61.8149H277.143V55.3901H278.905C279.693 55.3901 280.274 55.541 280.649 55.8428C281.027 56.1445 281.216 56.5986 281.216 57.2051C281.216 58.0547 280.786 58.6289 279.924 58.9277L281.669 61.8149H280.786L279.23 59.1431H277.89ZM277.89 58.5015H278.914C279.441 58.5015 279.828 58.3975 280.074 58.1895C280.32 57.9785 280.443 57.6636 280.443 57.2446C280.443 56.8198 280.317 56.5137 280.065 56.3262C279.816 56.1387 279.415 56.0449 278.861 56.0449H277.89V58.5015Z" fill="white"/>
<path d="M284.631 61.9028C283.919 61.9028 283.356 61.686 282.943 61.2524C282.533 60.8188 282.328 60.2168 282.328 59.4463C282.328 58.6699 282.519 58.0532 282.899 57.5962C283.283 57.1392 283.797 56.9106 284.442 56.9106C285.045 56.9106 285.523 57.1099 285.875 57.5083C286.226 57.9038 286.402 58.4268 286.402 59.0771V59.5386H283.084C283.099 60.104 283.241 60.5332 283.51 60.8262C283.783 61.1191 284.165 61.2656 284.657 61.2656C285.176 61.2656 285.688 61.1572 286.195 60.9404V61.5908C285.938 61.7021 285.693 61.7812 285.461 61.8281C285.233 61.8779 284.956 61.9028 284.631 61.9028ZM284.433 57.5215C284.046 57.5215 283.737 57.6475 283.506 57.8994C283.277 58.1514 283.143 58.5 283.102 58.9453H285.62C285.62 58.4854 285.517 58.1338 285.312 57.8906C285.107 57.6445 284.814 57.5215 284.433 57.5215Z" fill="white"/>
<path d="M289.891 61.9028C289.578 61.9028 289.291 61.8457 289.03 61.7314C288.772 61.6143 288.555 61.4355 288.379 61.1953H288.327C288.362 61.4766 288.379 61.7432 288.379 61.9951V63.9771H287.65V56.9985H288.243L288.344 57.6577H288.379C288.567 57.394 288.785 57.2036 289.034 57.0864C289.283 56.9692 289.569 56.9106 289.891 56.9106C290.53 56.9106 291.022 57.1289 291.368 57.5654C291.716 58.002 291.891 58.6143 291.891 59.4023C291.891 60.1934 291.713 60.8086 291.359 61.248C291.007 61.6846 290.518 61.9028 289.891 61.9028ZM289.786 57.5303C289.293 57.5303 288.938 57.6665 288.718 57.939C288.498 58.2114 288.385 58.645 288.379 59.2397V59.4023C288.379 60.0791 288.492 60.564 288.718 60.8569C288.943 61.147 289.305 61.292 289.803 61.292C290.219 61.292 290.544 61.1235 290.779 60.7866C291.016 60.4497 291.135 59.9854 291.135 59.3936C291.135 58.793 291.016 58.333 290.779 58.0137C290.544 57.6914 290.213 57.5303 289.786 57.5303Z" fill="white"/>
<path d="M293.899 61.8148H293.169V54.9771H293.899V61.8148Z" fill="white"/>
<path d="M297.48 61.9028C296.769 61.9028 296.206 61.686 295.793 61.2524C295.383 60.8188 295.178 60.2168 295.178 59.4463C295.178 58.6699 295.368 58.0532 295.749 57.5962C296.133 57.1392 296.647 56.9106 297.292 56.9106C297.895 56.9106 298.373 57.1099 298.724 57.5083C299.076 57.9038 299.251 58.4268 299.251 59.0771V59.5386H295.934C295.948 60.104 296.09 60.5332 296.36 60.8262C296.632 61.1191 297.015 61.2656 297.507 61.2656C298.025 61.2656 298.538 61.1572 299.045 60.9404V61.5908C298.787 61.7021 298.542 61.7812 298.311 61.8281C298.083 61.8779 297.806 61.9028 297.48 61.9028ZM297.283 57.5215C296.896 57.5215 296.587 57.6475 296.355 57.8994C296.127 58.1514 295.992 58.5 295.951 58.9453H298.469C298.469 58.4854 298.367 58.1338 298.162 57.8906C297.957 57.6445 297.664 57.5215 297.283 57.5215Z" fill="white"/>
<path d="M303.795 61.8149V58.6992C303.795 58.3066 303.706 58.0137 303.527 57.8203C303.349 57.627 303.069 57.5303 302.688 57.5303C302.184 57.5303 301.815 57.6665 301.581 57.939C301.346 58.2114 301.229 58.6611 301.229 59.2881V61.8149H300.5V56.9985H301.093L301.211 57.6577H301.247C301.396 57.4204 301.605 57.2373 301.875 57.1084C302.145 56.9766 302.445 56.9106 302.776 56.9106C303.356 56.9106 303.792 57.0513 304.085 57.3325C304.378 57.6108 304.525 58.0576 304.525 58.6729V61.8149H303.795Z" fill="white"/>
<path d="M306.757 61.8149H306.028V56.9985H306.757V61.8149ZM305.966 55.6934C305.966 55.5264 306.007 55.4048 306.089 55.3286C306.171 55.2495 306.274 55.21 306.397 55.21C306.514 55.21 306.615 55.2495 306.7 55.3286C306.785 55.4077 306.828 55.5293 306.828 55.6934C306.828 55.8574 306.785 55.9805 306.7 56.0625C306.615 56.1416 306.514 56.1812 306.397 56.1812C306.274 56.1812 306.171 56.1416 306.089 56.0625C306.007 55.9805 305.966 55.8574 305.966 55.6934Z" fill="white"/>
<path d="M311.411 60.501C311.411 60.9492 311.244 61.2949 310.91 61.5381C310.576 61.7812 310.107 61.9028 309.504 61.9028C308.865 61.9028 308.367 61.8018 308.01 61.5996V60.9229C308.241 61.04 308.489 61.1323 308.752 61.1997C309.019 61.2671 309.275 61.3008 309.521 61.3008C309.902 61.3008 310.195 61.2407 310.4 61.1206C310.605 60.9976 310.708 60.8115 310.708 60.5625C310.708 60.375 310.626 60.2153 310.462 60.0835C310.301 59.9487 309.984 59.7905 309.513 59.6089C309.064 59.4419 308.745 59.2969 308.555 59.1738C308.367 59.0479 308.227 58.9058 308.133 58.7476C308.042 58.5894 307.997 58.4004 307.997 58.1807C307.997 57.7881 308.156 57.479 308.476 57.2534C308.795 57.0249 309.233 56.9106 309.79 56.9106C310.308 56.9106 310.815 57.0161 311.31 57.2271L311.051 57.8203C310.567 57.6211 310.129 57.5215 309.737 57.5215C309.391 57.5215 309.13 57.5757 308.955 57.6841C308.779 57.7925 308.691 57.9419 308.691 58.1323C308.691 58.2612 308.723 58.3711 308.788 58.4619C308.855 58.5527 308.962 58.6392 309.108 58.7212C309.255 58.8032 309.536 58.9219 309.952 59.0771C310.523 59.2852 310.909 59.4946 311.108 59.7056C311.31 59.9165 311.411 60.1816 311.411 60.501Z" fill="white"/>
<path d="M315.898 61.8148V58.6992C315.898 58.3066 315.809 58.0137 315.63 57.8203C315.451 57.627 315.171 57.5303 314.791 57.5303C314.284 57.5303 313.913 57.668 313.679 57.9434C313.447 58.2188 313.332 58.6699 313.332 59.2969V61.8148H312.602V54.9771H313.332V57.0469C313.332 57.2959 313.32 57.5024 313.296 57.6665H313.34C313.484 57.4351 313.688 57.2534 313.951 57.1216C314.218 56.9868 314.521 56.9193 314.861 56.9193C315.45 56.9193 315.891 57.0601 316.184 57.3413C316.479 57.6196 316.627 58.0635 316.627 58.6729V61.8148H315.898Z" fill="white"/>
<path d="M322.024 61.3008C322.153 61.3008 322.277 61.292 322.397 61.2744C322.518 61.2539 322.613 61.2334 322.683 61.2129V61.771C322.604 61.8091 322.487 61.8398 322.332 61.8633C322.179 61.8896 322.042 61.9028 321.918 61.9028C320.987 61.9028 320.521 61.4121 320.521 60.4307V57.5654H319.831V57.2139L320.521 56.9106L320.829 55.8823H321.25V56.9985H322.648V57.5654H321.25V60.3999C321.25 60.6899 321.319 60.9126 321.457 61.0679C321.595 61.2231 321.784 61.3008 322.024 61.3008Z" fill="white"/>
<path d="M326.946 61.8148V58.6992C326.946 58.3066 326.856 58.0137 326.678 57.8203C326.499 57.627 326.219 57.5303 325.838 57.5303C325.332 57.5303 324.961 57.668 324.727 57.9434C324.495 58.2188 324.379 58.6699 324.379 59.2969V61.8148H323.65V54.9771H324.379V57.0469C324.379 57.2959 324.368 57.5024 324.344 57.6665H324.388C324.532 57.4351 324.735 57.2534 324.999 57.1216C325.266 56.9868 325.569 56.9193 325.909 56.9193C326.498 56.9193 326.938 57.0601 327.231 57.3413C327.527 57.6196 327.675 58.0635 327.675 58.6729V61.8148H326.946Z" fill="white"/>
<path d="M331.213 61.9028C330.501 61.9028 329.938 61.686 329.525 61.2524C329.115 60.8188 328.91 60.2168 328.91 59.4463C328.91 58.6699 329.101 58.0532 329.481 57.5962C329.865 57.1392 330.379 56.9106 331.024 56.9106C331.627 56.9106 332.105 57.1099 332.457 57.5083C332.808 57.9038 332.984 58.4268 332.984 59.0771V59.5386H329.666C329.681 60.104 329.823 60.5332 330.092 60.8262C330.365 61.1191 330.747 61.2656 331.239 61.2656C331.758 61.2656 332.271 61.1572 332.777 60.9404V61.5908C332.52 61.7021 332.275 61.7812 332.043 61.8281C331.815 61.8779 331.538 61.9028 331.213 61.9028ZM331.015 57.5215C330.628 57.5215 330.319 57.6475 330.088 57.8994C329.859 58.1514 329.725 58.5 329.684 58.9453H332.202C332.202 58.4854 332.099 58.1338 331.894 57.8906C331.689 57.6445 331.396 57.5215 331.015 57.5215Z" fill="white"/>
<path d="M264.376 68.9194C265.009 68.9194 265.5 69.1362 265.849 69.5698C266.2 70.0005 266.376 70.6113 266.376 71.4023C266.376 72.1934 266.199 72.8086 265.844 73.248C265.493 73.6846 265.003 73.9028 264.376 73.9028C264.063 73.9028 263.776 73.8457 263.515 73.7314C263.257 73.6143 263.041 73.4355 262.865 73.1953H262.812L262.658 73.8149H262.135V66.9771H262.865V68.6382C262.865 69.0103 262.853 69.3442 262.83 69.6401H262.865C263.205 69.1597 263.708 68.9194 264.376 68.9194ZM264.271 69.5303C263.773 69.5303 263.414 69.6738 263.194 69.9609C262.975 70.2451 262.865 70.7256 262.865 71.4023C262.865 72.0791 262.978 72.564 263.203 72.8569C263.429 73.147 263.791 73.292 264.289 73.292C264.737 73.292 265.071 73.1294 265.291 72.8042C265.51 72.4761 265.62 72.0059 265.62 71.3936C265.62 70.7666 265.51 70.2993 265.291 69.9917C265.071 69.6841 264.731 69.5303 264.271 69.5303Z" fill="white"/>
<path d="M268.34 68.9985V72.123C268.34 72.5156 268.43 72.8086 268.608 73.002C268.787 73.1953 269.067 73.292 269.448 73.292C269.952 73.292 270.319 73.1543 270.551 72.8789C270.785 72.6035 270.902 72.1538 270.902 71.5298V68.9985H271.632V73.8149H271.03L270.924 73.1689H270.885C270.735 73.4062 270.527 73.5879 270.261 73.7139C269.997 73.8398 269.695 73.9028 269.355 73.9028C268.77 73.9028 268.33 73.7637 268.037 73.4854C267.747 73.207 267.602 72.7617 267.602 72.1494V68.9985H268.34Z" fill="white"/>
<path d="M275.38 68.9106C275.594 68.9106 275.786 68.9282 275.956 68.9634L275.855 69.6401C275.656 69.5962 275.48 69.5742 275.328 69.5742C274.938 69.5742 274.604 69.7324 274.326 70.0488C274.05 70.3652 273.913 70.7593 273.913 71.231V73.8149H273.183V68.9985H273.785L273.869 69.8906H273.904C274.083 69.5771 274.298 69.3354 274.55 69.1655C274.802 68.9956 275.079 68.9106 275.38 68.9106Z" fill="white"/>
<path d="M280.153 73.8149V70.6992C280.153 70.3066 280.063 70.0137 279.885 69.8203C279.706 69.627 279.426 69.5303 279.045 69.5303C278.542 69.5303 278.172 69.6665 277.938 69.939C277.704 70.2114 277.586 70.6611 277.586 71.2881V73.8149H276.857V68.9985H277.45L277.569 69.6577H277.604C277.753 69.4204 277.963 69.2373 278.232 69.1084C278.502 68.9766 278.802 68.9106 279.133 68.9106C279.713 68.9106 280.15 69.0513 280.443 69.3325C280.736 69.6108 280.882 70.0576 280.882 70.6729V73.8149H280.153Z" fill="white"/>
<path d="M283.115 73.8149H282.385V68.9985H283.115V73.8149ZM282.324 67.6934C282.324 67.5264 282.365 67.4048 282.447 67.3286C282.529 67.2495 282.631 67.21 282.754 67.21C282.872 67.21 282.973 67.2495 283.058 67.3286C283.143 67.4077 283.185 67.5293 283.185 67.6934C283.185 67.8574 283.143 67.9805 283.058 68.0625C282.973 68.1416 282.872 68.1812 282.754 68.1812C282.631 68.1812 282.529 68.1416 282.447 68.0625C282.365 67.9805 282.324 67.8574 282.324 67.6934Z" fill="white"/>
<path d="M287.958 73.8149V70.6992C287.958 70.3066 287.868 70.0137 287.689 69.8203C287.511 69.627 287.231 69.5303 286.85 69.5303C286.346 69.5303 285.977 69.6665 285.743 69.939C285.508 70.2114 285.391 70.6611 285.391 71.2881V73.8149H284.662V68.9985H285.255L285.374 69.6577H285.409C285.558 69.4204 285.768 69.2373 286.037 69.1084C286.307 68.9766 286.607 68.9106 286.938 68.9106C287.518 68.9106 287.955 69.0513 288.248 69.3325C288.541 69.6108 288.687 70.0576 288.687 70.6729V73.8149H287.958Z" fill="white"/>
<path d="M294.132 68.9985V69.46L293.24 69.5654C293.322 69.668 293.395 69.8027 293.459 69.9697C293.524 70.1338 293.556 70.3198 293.556 70.5278C293.556 70.9995 293.395 71.376 293.073 71.6572C292.75 71.9385 292.308 72.0791 291.746 72.0791C291.602 72.0791 291.467 72.0674 291.341 72.0439C291.031 72.208 290.875 72.4146 290.875 72.6636C290.875 72.7954 290.93 72.8936 291.038 72.958C291.146 73.0195 291.333 73.0503 291.596 73.0503H292.449C292.97 73.0503 293.37 73.1602 293.648 73.3799C293.93 73.5996 294.07 73.9189 294.07 74.3379C294.07 74.8711 293.856 75.2769 293.429 75.5552C293.001 75.8364 292.377 75.9771 291.557 75.9771C290.927 75.9771 290.44 75.8599 290.098 75.6255C289.758 75.3911 289.588 75.0601 289.588 74.6323C289.588 74.3394 289.682 74.0859 289.869 73.8721C290.057 73.6582 290.32 73.5132 290.66 73.437C290.537 73.3813 290.433 73.2949 290.348 73.1777C290.266 73.0605 290.225 72.9243 290.225 72.769C290.225 72.5933 290.272 72.4395 290.366 72.3076C290.459 72.1758 290.607 72.0483 290.81 71.9253C290.561 71.8228 290.357 71.6484 290.199 71.4023C290.043 71.1562 289.966 70.875 289.966 70.5586C289.966 70.0312 290.124 69.6255 290.44 69.3413C290.757 69.0542 291.205 68.9106 291.785 68.9106C292.037 68.9106 292.264 68.9399 292.466 68.9985H294.132ZM290.291 74.6235C290.291 74.8843 290.401 75.082 290.621 75.2168C290.84 75.3516 291.155 75.4189 291.565 75.4189C292.178 75.4189 292.63 75.3267 292.923 75.1421C293.219 74.9604 293.367 74.7129 293.367 74.3994C293.367 74.1387 293.287 73.957 293.125 73.8545C292.964 73.7549 292.661 73.7051 292.216 73.7051H291.341C291.01 73.7051 290.752 73.7842 290.568 73.9424C290.383 74.1006 290.291 74.3276 290.291 74.6235ZM290.687 70.541C290.687 70.8779 290.782 71.1328 290.972 71.3057C291.163 71.4785 291.428 71.5649 291.768 71.5649C292.479 71.5649 292.835 71.2192 292.835 70.5278C292.835 69.8042 292.475 69.4424 291.754 69.4424C291.412 69.4424 291.148 69.5347 290.963 69.7192C290.779 69.9038 290.687 70.1777 290.687 70.541Z" fill="white"/>
<path d="M299.7 73.9028C299.386 73.9028 299.099 73.8457 298.838 73.7314C298.581 73.6143 298.364 73.4355 298.188 73.1953H298.135C298.17 73.4766 298.188 73.7432 298.188 73.9951V75.9771H297.458V68.9985H298.052L298.153 69.6577H298.188C298.375 69.394 298.594 69.2036 298.843 69.0864C299.092 68.9692 299.377 68.9106 299.7 68.9106C300.338 68.9106 300.831 69.1289 301.176 69.5654C301.525 70.002 301.699 70.6143 301.699 71.4023C301.699 72.1934 301.522 72.8086 301.167 73.248C300.816 73.6846 300.327 73.9028 299.7 73.9028ZM299.594 69.5303C299.102 69.5303 298.746 69.6665 298.526 69.939C298.307 70.2114 298.194 70.645 298.188 71.2397V71.4023C298.188 72.0791 298.301 72.564 298.526 72.8569C298.752 73.147 299.114 73.292 299.612 73.292C300.028 73.292 300.353 73.1235 300.587 72.7866C300.825 72.4497 300.943 71.9854 300.943 71.3936C300.943 70.793 300.825 70.333 300.587 70.0137C300.353 69.6914 300.022 69.5303 299.594 69.5303Z" fill="white"/>
<path d="M307.135 71.4023C307.135 72.1875 306.938 72.8013 306.542 73.2437C306.146 73.6831 305.6 73.9028 304.903 73.9028C304.472 73.9028 304.09 73.8018 303.756 73.5996C303.422 73.3975 303.164 73.1074 302.982 72.7295C302.801 72.3516 302.71 71.9092 302.71 71.4023C302.71 70.6172 302.906 70.0063 303.299 69.5698C303.691 69.1304 304.236 68.9106 304.934 68.9106C305.607 68.9106 306.142 69.1348 306.538 69.583C306.936 70.0312 307.135 70.6377 307.135 71.4023ZM303.466 71.4023C303.466 72.0176 303.589 72.4863 303.835 72.8086C304.081 73.1309 304.443 73.292 304.92 73.292C305.398 73.292 305.76 73.1323 306.006 72.813C306.255 72.4907 306.379 72.0205 306.379 71.4023C306.379 70.79 306.255 70.3257 306.006 70.0093C305.76 69.6899 305.395 69.5303 304.912 69.5303C304.434 69.5303 304.074 69.687 303.831 70.0005C303.587 70.314 303.466 70.7812 303.466 71.4023Z" fill="white"/>
<path d="M312.576 71.4023C312.576 72.1875 312.378 72.8013 311.982 73.2437C311.587 73.6831 311.041 73.9028 310.343 73.9028C309.913 73.9028 309.53 73.8018 309.196 73.5996C308.862 73.3975 308.604 73.1074 308.423 72.7295C308.241 72.3516 308.15 71.9092 308.15 71.4023C308.15 70.6172 308.347 70.0063 308.739 69.5698C309.132 69.1304 309.677 68.9106 310.374 68.9106C311.048 68.9106 311.583 69.1348 311.978 69.583C312.376 70.0312 312.576 70.6377 312.576 71.4023ZM308.906 71.4023C308.906 72.0176 309.029 72.4863 309.275 72.8086C309.521 73.1309 309.883 73.292 310.361 73.292C310.838 73.292 311.2 73.1323 311.446 72.813C311.695 72.4907 311.82 72.0205 311.82 71.4023C311.82 70.79 311.695 70.3257 311.446 70.0093C311.2 69.6899 310.835 69.5303 310.352 69.5303C309.875 69.5303 309.514 69.687 309.271 70.0005C309.028 70.314 308.906 70.7812 308.906 71.4023Z" fill="white"/>
<path d="M314.588 73.8149H313.859V66.9771H314.588V73.8149Z" fill="white"/>
<path d="M254.379 94.9111C254.379 95.3213 254.263 95.6567 254.032 95.9175C253.803 96.1782 253.478 96.3525 253.056 96.4404V96.4756C253.572 96.54 253.954 96.7041 254.203 96.9678C254.452 97.2314 254.577 97.5771 254.577 98.0049C254.577 98.6172 254.364 99.0889 253.939 99.4199C253.515 99.748 252.911 99.9121 252.129 99.9121C251.789 99.9121 251.477 99.8857 251.193 99.833C250.912 99.7832 250.638 99.6938 250.371 99.5649V98.8706C250.649 99.0083 250.945 99.1138 251.259 99.187C251.575 99.2573 251.874 99.2925 252.155 99.2925C253.266 99.2925 253.821 98.8574 253.821 97.9873C253.821 97.208 253.208 96.8184 251.984 96.8184H251.351V96.1899H251.993C252.494 96.1899 252.891 96.0801 253.184 95.8604C253.477 95.6377 253.623 95.3301 253.623 94.9375C253.623 94.624 253.515 94.3779 253.298 94.1992C253.084 94.0205 252.792 93.9312 252.423 93.9312C252.142 93.9312 251.877 93.9692 251.628 94.0454C251.379 94.1216 251.095 94.2622 250.775 94.4673L250.406 93.9751C250.67 93.7671 250.973 93.6045 251.316 93.4873C251.662 93.3672 252.025 93.3071 252.406 93.3071C253.03 93.3071 253.515 93.4507 253.86 93.7378C254.206 94.022 254.379 94.4131 254.379 94.9111Z" fill="white"/>
<path d="M256.172 95.3154C256.172 95.8135 256.226 96.187 256.334 96.436C256.443 96.6851 256.619 96.8096 256.862 96.8096C257.342 96.8096 257.583 96.3115 257.583 95.3154C257.583 94.3252 257.342 93.8301 256.862 93.8301C256.619 93.8301 256.443 93.9531 256.334 94.1992C256.226 94.4453 256.172 94.8174 256.172 95.3154ZM258.185 95.3154C258.185 95.9834 258.072 96.4888 257.846 96.8315C257.624 97.1714 257.295 97.3413 256.862 97.3413C256.452 97.3413 256.132 97.167 255.904 96.8184C255.678 96.4697 255.565 95.9688 255.565 95.3154C255.565 94.6504 255.674 94.1494 255.891 93.8125C256.11 93.4756 256.434 93.3071 256.862 93.3071C257.287 93.3071 257.613 93.4814 257.842 93.8301C258.07 94.1787 258.185 94.6738 258.185 95.3154ZM260.039 97.8906C260.039 98.3916 260.093 98.7666 260.202 99.0156C260.31 99.2617 260.487 99.3848 260.733 99.3848C260.979 99.3848 261.161 99.2632 261.278 99.02C261.396 98.7739 261.454 98.3975 261.454 97.8906C261.454 97.3896 261.396 97.019 261.278 96.7788C261.161 96.5356 260.979 96.4141 260.733 96.4141C260.487 96.4141 260.31 96.5356 260.202 96.7788C260.093 97.019 260.039 97.3896 260.039 97.8906ZM262.056 97.8906C262.056 98.5557 261.943 99.0596 261.718 99.4023C261.495 99.7422 261.167 99.9121 260.733 99.9121C260.317 99.9121 259.997 99.7378 259.771 99.3892C259.548 99.0405 259.437 98.541 259.437 97.8906C259.437 97.2256 259.545 96.7246 259.762 96.3877C259.982 96.0508 260.306 95.8823 260.733 95.8823C261.149 95.8823 261.473 96.0552 261.705 96.4009C261.939 96.7437 262.056 97.2402 262.056 97.8906ZM260.922 93.3994L257.358 99.8242H256.712L260.276 93.3994H260.922Z" fill="white"/>
<path d="M268.582 99.8242L266.402 94.1289H266.367C266.408 94.5801 266.429 95.1162 266.429 95.7373V99.8242H265.739V93.3994H266.864L268.898 98.6992H268.934L270.986 93.3994H272.102V99.8242H271.355V95.6846C271.355 95.21 271.375 94.6943 271.417 94.1377H271.381L269.184 99.8242H268.582Z" fill="white"/>
<path d="M276.721 99.8242L276.576 99.1387H276.541C276.3 99.4404 276.06 99.6455 275.82 99.7539C275.583 99.8594 275.285 99.9121 274.928 99.9121C274.45 99.9121 274.075 99.7891 273.803 99.543C273.533 99.2969 273.398 98.9468 273.398 98.4927C273.398 97.52 274.176 97.0103 275.732 96.9634L276.549 96.937V96.6382C276.549 96.2603 276.467 95.9819 276.303 95.8032C276.142 95.6216 275.883 95.5308 275.525 95.5308C275.124 95.5308 274.67 95.6538 274.163 95.8999L273.939 95.3418C274.176 95.2129 274.436 95.1118 274.717 95.0386C275.001 94.9653 275.285 94.9287 275.569 94.9287C276.144 94.9287 276.568 95.0562 276.844 95.311C277.122 95.5659 277.261 95.9746 277.261 96.5371V99.8242H276.721ZM275.073 99.3101C275.527 99.3101 275.883 99.1855 276.141 98.9365C276.401 98.6875 276.532 98.3389 276.532 97.8906V97.4556L275.802 97.4863C275.222 97.5068 274.803 97.5977 274.545 97.7588C274.291 97.917 274.163 98.1646 274.163 98.5015C274.163 98.7651 274.242 98.9658 274.4 99.1035C274.562 99.2412 274.786 99.3101 275.073 99.3101Z" fill="white"/>
<path d="M280.966 94.9199C281.18 94.9199 281.372 94.9375 281.542 94.9727L281.44 95.6494C281.241 95.6055 281.065 95.5835 280.913 95.5835C280.523 95.5835 280.189 95.7417 279.911 96.0581C279.636 96.3745 279.498 96.7686 279.498 97.2402V99.8242H278.769V95.0078H279.371L279.454 95.8999H279.489C279.668 95.5864 279.883 95.3447 280.135 95.1748C280.387 95.0049 280.664 94.9199 280.966 94.9199Z" fill="white"/>
<path d="M283.163 97.3589C283.289 97.1802 283.481 96.9458 283.739 96.6558L285.294 95.0078H286.16L284.209 97.0601L286.296 99.8242H285.413L283.712 97.5479L283.163 98.0225V99.8242H282.442V92.9863H283.163V96.6118C283.163 96.7729 283.151 97.022 283.128 97.3589H283.163Z" fill="white"/>
<path d="M289.206 99.9121C288.494 99.9121 287.931 99.6953 287.518 99.2617C287.108 98.8281 286.903 98.2261 286.903 97.4556C286.903 96.6792 287.093 96.0625 287.474 95.6055C287.858 95.1484 288.372 94.9199 289.017 94.9199C289.62 94.9199 290.098 95.1191 290.449 95.5176C290.801 95.9131 290.977 96.436 290.977 97.0864V97.5479H287.659C287.673 98.1133 287.815 98.5425 288.085 98.8354C288.357 99.1284 288.74 99.2749 289.232 99.2749C289.75 99.2749 290.263 99.1665 290.77 98.9497V99.6001C290.512 99.7114 290.268 99.7905 290.036 99.8374C289.808 99.8872 289.531 99.9121 289.206 99.9121ZM289.008 95.5308C288.621 95.5308 288.312 95.6567 288.081 95.9087C287.852 96.1606 287.717 96.5093 287.676 96.9546H290.194C290.194 96.4946 290.092 96.1431 289.887 95.8999C289.682 95.6538 289.389 95.5308 289.008 95.5308Z" fill="white"/>
<path d="M293.78 99.3101C293.909 99.3101 294.034 99.3013 294.154 99.2837C294.274 99.2632 294.369 99.2427 294.439 99.2222V99.7803C294.36 99.8184 294.243 99.8491 294.088 99.8726C293.936 99.8989 293.798 99.9121 293.675 99.9121C292.743 99.9121 292.277 99.4214 292.277 98.4399V95.5747H291.587V95.2231L292.277 94.9199L292.585 93.8916H293.007V95.0078H294.404V95.5747H293.007V98.4092C293.007 98.6992 293.076 98.9219 293.213 99.0771C293.351 99.2324 293.54 99.3101 293.78 99.3101Z" fill="white"/>
<path d="M296.136 99.8242H295.406V95.0078H296.136V99.8242ZM295.345 93.7026C295.345 93.5356 295.386 93.4141 295.468 93.3379C295.55 93.2588 295.652 93.2192 295.775 93.2192C295.893 93.2192 295.994 93.2588 296.079 93.3379C296.164 93.417 296.206 93.5386 296.206 93.7026C296.206 93.8667 296.164 93.9897 296.079 94.0718C295.994 94.1509 295.893 94.1904 295.775 94.1904C295.652 94.1904 295.55 94.1509 295.468 94.0718C295.386 93.9897 295.345 93.8667 295.345 93.7026Z" fill="white"/>
<path d="M300.979 99.8242V96.7085C300.979 96.3159 300.889 96.0229 300.71 95.8296C300.532 95.6362 300.252 95.5396 299.871 95.5396C299.367 95.5396 298.998 95.6758 298.764 95.9482C298.529 96.2207 298.412 96.6704 298.412 97.2974V99.8242H297.683V95.0078H298.276L298.395 95.667H298.43C298.579 95.4297 298.789 95.2466 299.058 95.1177C299.328 94.9858 299.628 94.9199 299.959 94.9199C300.539 94.9199 300.976 95.0605 301.269 95.3418C301.562 95.6201 301.708 96.0669 301.708 96.6821V99.8242H300.979Z" fill="white"/>
<path d="M307.153 95.0078V95.4692L306.261 95.5747C306.343 95.6772 306.416 95.812 306.48 95.979C306.545 96.1431 306.577 96.3291 306.577 96.5371C306.577 97.0088 306.416 97.3853 306.094 97.6665C305.771 97.9478 305.329 98.0884 304.767 98.0884C304.623 98.0884 304.488 98.0767 304.362 98.0532C304.052 98.2173 303.896 98.4238 303.896 98.6729C303.896 98.8047 303.951 98.9028 304.059 98.9673C304.167 99.0288 304.354 99.0596 304.617 99.0596H305.47C305.991 99.0596 306.391 99.1694 306.669 99.3892C306.951 99.6089 307.091 99.9282 307.091 100.347C307.091 100.88 306.877 101.286 306.45 101.564C306.022 101.846 305.398 101.986 304.578 101.986C303.948 101.986 303.461 101.869 303.119 101.635C302.779 101.4 302.609 101.069 302.609 100.642C302.609 100.349 302.703 100.095 302.89 99.8813C303.078 99.6675 303.341 99.5225 303.681 99.4463C303.558 99.3906 303.454 99.3042 303.369 99.187C303.287 99.0698 303.246 98.9336 303.246 98.7783C303.246 98.6025 303.293 98.4487 303.387 98.3169C303.48 98.1851 303.628 98.0576 303.831 97.9346C303.582 97.832 303.378 97.6577 303.22 97.4116C303.064 97.1655 302.987 96.8843 302.987 96.5679C302.987 96.0405 303.145 95.6348 303.461 95.3506C303.778 95.0635 304.226 94.9199 304.806 94.9199C305.058 94.9199 305.285 94.9492 305.487 95.0078H307.153ZM303.312 100.633C303.312 100.894 303.422 101.091 303.642 101.226C303.861 101.361 304.176 101.428 304.586 101.428C305.199 101.428 305.651 101.336 305.944 101.151C306.24 100.97 306.388 100.722 306.388 100.409C306.388 100.148 306.308 99.9663 306.146 99.8638C305.985 99.7642 305.682 99.7144 305.237 99.7144H304.362C304.031 99.7144 303.773 99.7935 303.589 99.9517C303.404 100.11 303.312 100.337 303.312 100.633ZM303.708 96.5503C303.708 96.8872 303.803 97.1421 303.993 97.3149C304.184 97.4878 304.449 97.5742 304.789 97.5742C305.5 97.5742 305.856 97.2285 305.856 96.5371C305.856 95.8135 305.496 95.4517 304.775 95.4517C304.433 95.4517 304.169 95.5439 303.984 95.7285C303.8 95.9131 303.708 96.187 303.708 96.5503Z" fill="white"/>
<path d="M250.821 140.82H246.598V140.191L248.29 138.491C248.805 137.969 249.145 137.597 249.309 137.375C249.473 137.152 249.596 136.935 249.678 136.724C249.76 136.513 249.801 136.286 249.801 136.043C249.801 135.7 249.697 135.429 249.489 135.23C249.281 135.028 248.993 134.927 248.624 134.927C248.357 134.927 248.104 134.971 247.863 135.059C247.626 135.146 247.361 135.306 247.068 135.538L246.681 135.041C247.273 134.549 247.917 134.303 248.615 134.303C249.218 134.303 249.691 134.458 250.034 134.769C250.377 135.076 250.548 135.491 250.548 136.012C250.548 136.419 250.434 136.822 250.206 137.221C249.977 137.619 249.549 138.123 248.922 138.732L247.516 140.108V140.143H250.821V140.82Z" fill="white"/>
<path d="M252.372 136.311C252.372 136.809 252.426 137.183 252.535 137.432C252.643 137.681 252.819 137.805 253.062 137.805C253.542 137.805 253.783 137.307 253.783 136.311C253.783 135.321 253.542 134.826 253.062 134.826C252.819 134.826 252.643 134.949 252.535 135.195C252.426 135.441 252.372 135.813 252.372 136.311ZM254.385 136.311C254.385 136.979 254.272 137.484 254.046 137.827C253.824 138.167 253.496 138.337 253.062 138.337C252.652 138.337 252.333 138.163 252.104 137.814C251.878 137.465 251.766 136.964 251.766 136.311C251.766 135.646 251.874 135.145 252.091 134.808C252.311 134.471 252.634 134.303 253.062 134.303C253.487 134.303 253.813 134.477 254.042 134.826C254.271 135.174 254.385 135.669 254.385 136.311ZM256.239 138.886C256.239 139.387 256.293 139.762 256.402 140.011C256.51 140.257 256.688 140.38 256.934 140.38C257.18 140.38 257.361 140.259 257.479 140.016C257.596 139.77 257.654 139.393 257.654 138.886C257.654 138.385 257.596 138.015 257.479 137.774C257.361 137.531 257.18 137.41 256.934 137.41C256.688 137.41 256.51 137.531 256.402 137.774C256.293 138.015 256.239 138.385 256.239 138.886ZM258.256 138.886C258.256 139.551 258.144 140.055 257.918 140.398C257.695 140.738 257.367 140.908 256.934 140.908C256.518 140.908 256.197 140.733 255.971 140.385C255.749 140.036 255.637 139.537 255.637 138.886C255.637 138.221 255.746 137.72 255.962 137.383C256.182 137.046 256.506 136.878 256.934 136.878C257.35 136.878 257.673 137.051 257.905 137.396C258.139 137.739 258.256 138.236 258.256 138.886ZM257.123 134.395L253.559 140.82H252.913L256.477 134.395H257.123Z" fill="white"/>
<path d="M264.69 134.971C263.984 134.971 263.426 135.207 263.016 135.678C262.608 136.147 262.405 136.79 262.405 137.607C262.405 138.448 262.601 139.099 262.994 139.559C263.389 140.016 263.952 140.244 264.681 140.244C265.129 140.244 265.641 140.164 266.215 140.002V140.657C265.77 140.824 265.22 140.908 264.567 140.908C263.621 140.908 262.89 140.621 262.374 140.046C261.861 139.472 261.605 138.656 261.605 137.599C261.605 136.937 261.728 136.356 261.974 135.858C262.223 135.36 262.581 134.977 263.046 134.707C263.515 134.438 264.066 134.303 264.699 134.303C265.373 134.303 265.961 134.426 266.465 134.672L266.149 135.313C265.663 135.085 265.176 134.971 264.69 134.971Z" fill="white"/>
<path d="M271.664 138.407C271.664 139.192 271.466 139.806 271.071 140.249C270.675 140.688 270.129 140.908 269.432 140.908C269.001 140.908 268.619 140.807 268.285 140.604C267.951 140.402 267.693 140.112 267.511 139.734C267.33 139.356 267.239 138.914 267.239 138.407C267.239 137.622 267.435 137.011 267.828 136.575C268.22 136.135 268.765 135.916 269.462 135.916C270.136 135.916 270.671 136.14 271.066 136.588C271.465 137.036 271.664 137.643 271.664 138.407ZM267.995 138.407C267.995 139.022 268.118 139.491 268.364 139.813C268.61 140.136 268.972 140.297 269.449 140.297C269.927 140.297 270.289 140.137 270.535 139.818C270.784 139.496 270.908 139.025 270.908 138.407C270.908 137.795 270.784 137.331 270.535 137.014C270.289 136.695 269.924 136.535 269.44 136.535C268.963 136.535 268.603 136.692 268.359 137.005C268.116 137.319 267.995 137.786 267.995 138.407Z" fill="white"/>
<path d="M276.243 140.82V137.704C276.243 137.312 276.154 137.019 275.975 136.825C275.796 136.632 275.517 136.535 275.136 136.535C274.632 136.535 274.263 136.671 274.028 136.944C273.794 137.216 273.677 137.666 273.677 138.293V140.82H272.947V136.003H273.541L273.659 136.663H273.694C273.844 136.425 274.053 136.242 274.323 136.113C274.592 135.981 274.893 135.916 275.224 135.916C275.804 135.916 276.24 136.056 276.533 136.337C276.826 136.616 276.973 137.062 276.973 137.678V140.82H276.243Z" fill="white"/>
<path d="M280.031 140.306C280.16 140.306 280.285 140.297 280.405 140.279C280.525 140.259 280.62 140.238 280.69 140.218V140.776C280.611 140.814 280.494 140.845 280.339 140.868C280.187 140.895 280.049 140.908 279.926 140.908C278.994 140.908 278.528 140.417 278.528 139.436V136.57H277.838V136.219L278.528 135.916L278.836 134.887H279.258V136.003H280.655V136.57H279.258V139.405C279.258 139.695 279.327 139.917 279.464 140.073C279.602 140.228 279.791 140.306 280.031 140.306Z" fill="white"/>
<path d="M283.692 140.908C282.98 140.908 282.417 140.691 282.004 140.257C281.594 139.824 281.389 139.222 281.389 138.451C281.389 137.675 281.58 137.058 281.96 136.601C282.344 136.144 282.858 135.916 283.503 135.916C284.106 135.916 284.584 136.115 284.936 136.513C285.287 136.909 285.463 137.432 285.463 138.082V138.543H282.145C282.16 139.109 282.302 139.538 282.571 139.831C282.844 140.124 283.226 140.271 283.718 140.271C284.237 140.271 284.75 140.162 285.256 139.945V140.596C284.999 140.707 284.754 140.786 284.522 140.833C284.294 140.883 284.017 140.908 283.692 140.908ZM283.494 136.526C283.107 136.526 282.798 136.652 282.567 136.904C282.338 137.156 282.204 137.505 282.163 137.95H284.681C284.681 137.49 284.578 137.139 284.373 136.896C284.168 136.649 283.875 136.526 283.494 136.526Z" fill="white"/>
<path d="M289.818 139.506C289.818 139.954 289.651 140.3 289.317 140.543C288.983 140.786 288.514 140.908 287.911 140.908C287.272 140.908 286.774 140.807 286.417 140.604V139.928C286.648 140.045 286.896 140.137 287.159 140.205C287.426 140.272 287.682 140.306 287.928 140.306C288.309 140.306 288.602 140.246 288.807 140.125C289.012 140.002 289.115 139.816 289.115 139.567C289.115 139.38 289.033 139.22 288.869 139.088C288.708 138.954 288.391 138.795 287.919 138.614C287.471 138.447 287.152 138.302 286.961 138.179C286.774 138.053 286.633 137.911 286.54 137.752C286.449 137.594 286.403 137.405 286.403 137.186C286.403 136.793 286.563 136.484 286.882 136.258C287.202 136.03 287.64 135.916 288.196 135.916C288.715 135.916 289.222 136.021 289.717 136.232L289.458 136.825C288.974 136.626 288.536 136.526 288.144 136.526C287.798 136.526 287.537 136.581 287.361 136.689C287.186 136.797 287.098 136.947 287.098 137.137C287.098 137.266 287.13 137.376 287.194 137.467C287.262 137.558 287.369 137.644 287.515 137.726C287.662 137.808 287.943 137.927 288.359 138.082C288.93 138.29 289.315 138.5 289.515 138.71C289.717 138.921 289.818 139.187 289.818 139.506Z" fill="white"/>
<path d="M292.564 140.306C292.693 140.306 292.818 140.297 292.938 140.279C293.058 140.259 293.153 140.238 293.224 140.218V140.776C293.145 140.814 293.027 140.845 292.872 140.868C292.72 140.895 292.582 140.908 292.459 140.908C291.527 140.908 291.062 140.417 291.062 139.436V136.57H290.372V136.219L291.062 135.916L291.369 134.887H291.791V136.003H293.188V136.57H291.791V139.405C291.791 139.695 291.86 139.917 291.998 140.073C292.135 140.228 292.324 140.306 292.564 140.306Z" fill="white"/>
<path d="M297.297 139.506C297.297 139.954 297.13 140.3 296.796 140.543C296.462 140.786 295.994 140.908 295.39 140.908C294.751 140.908 294.253 140.807 293.896 140.604V139.928C294.127 140.045 294.375 140.137 294.639 140.205C294.905 140.272 295.162 140.306 295.408 140.306C295.789 140.306 296.082 140.246 296.287 140.125C296.492 140.002 296.594 139.816 296.594 139.567C296.594 139.38 296.512 139.22 296.348 139.088C296.187 138.954 295.871 138.795 295.399 138.614C294.951 138.447 294.631 138.302 294.441 138.179C294.253 138.053 294.113 137.911 294.019 137.752C293.928 137.594 293.883 137.405 293.883 137.186C293.883 136.793 294.042 136.484 294.362 136.258C294.681 136.03 295.119 135.916 295.676 135.916C296.194 135.916 296.701 136.021 297.196 136.232L296.937 136.825C296.454 136.626 296.016 136.526 295.623 136.526C295.277 136.526 295.017 136.581 294.841 136.689C294.665 136.797 294.577 136.947 294.577 137.137C294.577 137.266 294.609 137.376 294.674 137.467C294.741 137.558 294.848 137.644 294.995 137.726C295.141 137.808 295.422 137.927 295.838 138.082C296.41 138.29 296.795 138.5 296.994 138.71C297.196 138.921 297.297 139.187 297.297 139.506Z" fill="white"/>
<path d="M303.788 140.82L303.643 140.134H303.608C303.368 140.436 303.127 140.641 302.887 140.75C302.65 140.855 302.353 140.908 301.995 140.908C301.518 140.908 301.143 140.785 300.87 140.539C300.601 140.292 300.466 139.942 300.466 139.488C300.466 138.516 301.244 138.006 302.799 137.959L303.617 137.933V137.634C303.617 137.256 303.535 136.978 303.371 136.799C303.209 136.617 302.95 136.526 302.593 136.526C302.191 136.526 301.737 136.649 301.23 136.896L301.006 136.337C301.244 136.208 301.503 136.107 301.784 136.034C302.068 135.961 302.353 135.924 302.637 135.924C303.211 135.924 303.636 136.052 303.911 136.307C304.189 136.562 304.329 136.97 304.329 137.533V140.82H303.788ZM302.14 140.306C302.594 140.306 302.95 140.181 303.208 139.932C303.469 139.683 303.599 139.334 303.599 138.886V138.451L302.87 138.482C302.29 138.502 301.871 138.593 301.613 138.754C301.358 138.913 301.23 139.16 301.23 139.497C301.23 139.761 301.31 139.961 301.468 140.099C301.629 140.237 301.853 140.306 302.14 140.306Z" fill="white"/>
<path d="M309.132 140.82V137.704C309.132 137.312 309.042 137.019 308.864 136.825C308.685 136.632 308.405 136.535 308.024 136.535C307.521 136.535 307.151 136.671 306.917 136.944C306.683 137.216 306.565 137.666 306.565 138.293V140.82H305.836V136.003H306.429L306.548 136.663H306.583C306.732 136.425 306.942 136.242 307.211 136.113C307.481 135.981 307.781 135.916 308.112 135.916C308.692 135.916 309.129 136.056 309.422 136.337C309.715 136.616 309.861 137.062 309.861 137.678V140.82H309.132Z" fill="white"/>
<path d="M314.643 140.174H314.603C314.266 140.663 313.762 140.908 313.091 140.908C312.461 140.908 311.971 140.692 311.619 140.262C311.271 139.831 311.096 139.219 311.096 138.425C311.096 137.631 311.272 137.014 311.624 136.575C311.975 136.135 312.464 135.916 313.091 135.916C313.745 135.916 314.246 136.153 314.594 136.627H314.651L314.621 136.28L314.603 135.942V133.982H315.333V140.82H314.739L314.643 140.174ZM313.184 140.297C313.682 140.297 314.042 140.162 314.265 139.893C314.49 139.62 314.603 139.182 314.603 138.579V138.425C314.603 137.742 314.489 137.256 314.26 136.966C314.035 136.673 313.673 136.526 313.175 136.526C312.747 136.526 312.419 136.693 312.19 137.027C311.965 137.358 311.852 137.827 311.852 138.434C311.852 139.049 311.965 139.513 312.19 139.827C312.416 140.14 312.747 140.297 313.184 140.297Z" fill="white"/>
<path d="M319.951 140.82H319.222V133.982H319.951V140.82Z" fill="white"/>
<path d="M325.655 138.407C325.655 139.192 325.458 139.806 325.062 140.249C324.667 140.688 324.12 140.908 323.423 140.908C322.992 140.908 322.61 140.807 322.276 140.604C321.942 140.402 321.684 140.112 321.502 139.734C321.321 139.356 321.23 138.914 321.23 138.407C321.23 137.622 321.426 137.011 321.819 136.575C322.211 136.135 322.756 135.916 323.454 135.916C324.127 135.916 324.662 136.14 325.058 136.588C325.456 137.036 325.655 137.643 325.655 138.407ZM321.986 138.407C321.986 139.022 322.109 139.491 322.355 139.813C322.601 140.136 322.963 140.297 323.44 140.297C323.918 140.297 324.28 140.137 324.526 139.818C324.775 139.496 324.899 139.025 324.899 138.407C324.899 137.795 324.775 137.331 324.526 137.014C324.28 136.695 323.915 136.535 323.432 136.535C322.954 136.535 322.594 136.692 322.351 137.005C322.107 137.319 321.986 137.786 321.986 138.407Z" fill="white"/>
<path d="M328.494 140.306C328.623 140.306 328.748 140.297 328.868 140.279C328.988 140.259 329.083 140.238 329.153 140.218V140.776C329.074 140.814 328.957 140.845 328.802 140.868C328.649 140.895 328.512 140.908 328.389 140.908C327.457 140.908 326.991 140.417 326.991 139.436V136.57H326.301V136.219L326.991 135.916L327.299 134.887H327.721V136.003H329.118V136.57H327.721V139.405C327.721 139.695 327.79 139.917 327.927 140.073C328.065 140.228 328.254 140.306 328.494 140.306Z" fill="white"/>
<path d="M331.676 140.306C331.805 140.306 331.929 140.297 332.049 140.279C332.169 140.259 332.265 140.238 332.335 140.218V140.776C332.256 140.814 332.139 140.845 331.983 140.868C331.831 140.895 331.693 140.908 331.57 140.908C330.639 140.908 330.173 140.417 330.173 139.436V136.57H329.483V136.219L330.173 135.916L330.48 134.887H330.902V136.003H332.3V136.57H330.902V139.405C330.902 139.695 330.971 139.917 331.109 140.073C331.247 140.228 331.436 140.306 331.676 140.306Z" fill="white"/>
<path d="M335.336 140.908C334.625 140.908 334.062 140.691 333.649 140.257C333.239 139.824 333.034 139.222 333.034 138.451C333.034 137.675 333.224 137.058 333.605 136.601C333.989 136.144 334.503 135.916 335.147 135.916C335.751 135.916 336.229 136.115 336.58 136.513C336.932 136.909 337.107 137.432 337.107 138.082V138.543H333.79C333.804 139.109 333.946 139.538 334.216 139.831C334.488 140.124 334.871 140.271 335.363 140.271C335.881 140.271 336.394 140.162 336.901 139.945V140.596C336.643 140.707 336.398 140.786 336.167 140.833C335.938 140.883 335.662 140.908 335.336 140.908ZM335.139 136.526C334.752 136.526 334.443 136.652 334.211 136.904C333.983 137.156 333.848 137.505 333.807 137.95H336.325C336.325 137.49 336.223 137.139 336.018 136.896C335.812 136.649 335.52 136.526 335.139 136.526Z" fill="white"/>
<path d="M340.553 135.916C340.767 135.916 340.958 135.933 341.128 135.968L341.027 136.645C340.828 136.601 340.652 136.579 340.5 136.579C340.11 136.579 339.776 136.737 339.498 137.054C339.223 137.37 339.085 137.764 339.085 138.236V140.82H338.355V136.003H338.958L339.041 136.896H339.076C339.255 136.582 339.47 136.34 339.722 136.17C339.974 136 340.251 135.916 340.553 135.916Z" fill="white"/>
<path d="M341.265 136.003H342.047L343.102 138.75C343.333 139.377 343.477 139.83 343.532 140.108H343.567C343.605 139.958 343.685 139.704 343.805 139.343C343.928 138.98 344.326 137.867 345 136.003H345.782L343.712 141.488C343.507 142.03 343.267 142.414 342.992 142.639C342.719 142.868 342.384 142.982 341.985 142.982C341.763 142.982 341.543 142.957 341.326 142.907V142.323C341.487 142.358 341.667 142.375 341.867 142.375C342.368 142.375 342.725 142.094 342.939 141.532L343.207 140.846L341.265 136.003Z" fill="white"/>
<path d="M175.777 104.179C175.777 105.961 174.333 107.405 172.552 107.405C170.77 107.405 169.326 105.961 169.326 104.179C169.326 102.398 170.77 100.954 172.552 100.954C174.333 100.954 175.777 102.398 175.777 104.179Z" fill="white"/>
<path d="M181.752 129.315C181.752 131.097 180.308 132.541 178.526 132.541C176.745 132.541 175.301 131.097 175.301 129.315C175.301 127.534 176.745 126.09 178.526 126.09C180.308 126.09 181.752 127.534 181.752 129.315Z" fill="white"/>
<path d="M182.294 163.108C182.294 164.889 180.85 166.333 179.068 166.333C177.287 166.333 175.843 164.889 175.843 163.108C175.843 161.326 177.287 159.882 179.068 159.882C180.85 159.882 182.294 161.326 182.294 163.108Z" fill="white"/>
<path fill-rule="evenodd" clip-rule="evenodd" d="M210.407 65.6182H256.416V66.6182H210.821L172.906 104.533L172.199 103.826L210.407 65.6182Z" fill="white"/>
<path fill-rule="evenodd" clip-rule="evenodd" d="M209.002 98.1973H246.133V99.1973H209.416L178.879 129.758L178.172 129.051L209.002 98.1973Z" fill="white"/>
<path fill-rule="evenodd" clip-rule="evenodd" d="M205.75 137.836H238.289V138.836H206.141L179.407 163.476L178.729 162.74L205.75 137.836Z" fill="white"/>
<path d="M153.192 2.048H150.056V0.199999H158.596V2.048H155.46V10H153.192V2.048ZM162.481 10.112C161.687 10.112 160.973 9.94867 160.339 9.622C159.713 9.286 159.223 8.824 158.869 8.236C158.514 7.648 158.337 6.98067 158.337 6.234C158.337 5.48733 158.514 4.82 158.869 4.232C159.223 3.644 159.713 3.18667 160.339 2.86C160.973 2.524 161.687 2.356 162.481 2.356C163.274 2.356 163.983 2.524 164.609 2.86C165.234 3.18667 165.724 3.644 166.079 4.232C166.433 4.82 166.611 5.48733 166.611 6.234C166.611 6.98067 166.433 7.648 166.079 8.236C165.724 8.824 165.234 9.286 164.609 9.622C163.983 9.94867 163.274 10.112 162.481 10.112ZM162.481 8.32C163.041 8.32 163.498 8.13333 163.853 7.76C164.217 7.37733 164.399 6.86867 164.399 6.234C164.399 5.59933 164.217 5.09533 163.853 4.722C163.498 4.33933 163.041 4.148 162.481 4.148C161.921 4.148 161.459 4.33933 161.095 4.722C160.731 5.09533 160.549 5.59933 160.549 6.234C160.549 6.86867 160.731 7.37733 161.095 7.76C161.459 8.13333 161.921 8.32 162.481 8.32ZM172.929 9.636C172.714 9.79467 172.448 9.916 172.131 10C171.823 10.0747 171.496 10.112 171.151 10.112C170.255 10.112 169.559 9.88333 169.065 9.426C168.579 8.96867 168.337 8.29667 168.337 7.41V4.316H167.175V2.636H168.337V0.802H170.521V2.636H172.397V4.316H170.521V7.382C170.521 7.69933 170.6 7.94667 170.758 8.124C170.927 8.292 171.16 8.376 171.459 8.376C171.804 8.376 172.098 8.28267 172.341 8.096L172.929 9.636ZM177.192 2.356C178.359 2.356 179.255 2.636 179.88 3.196C180.506 3.74667 180.818 4.582 180.818 5.702V10H178.774V9.062C178.364 9.762 177.598 10.112 176.478 10.112C175.9 10.112 175.396 10.014 174.966 9.818C174.546 9.622 174.224 9.35133 174 9.006C173.776 8.66067 173.664 8.26867 173.664 7.83C173.664 7.13 173.926 6.57933 174.448 6.178C174.98 5.77667 175.797 5.576 176.898 5.576H178.634C178.634 5.1 178.49 4.736 178.2 4.484C177.911 4.22267 177.477 4.092 176.898 4.092C176.497 4.092 176.1 4.15733 175.708 4.288C175.326 4.40933 174.999 4.57733 174.728 4.792L173.944 3.266C174.355 2.97667 174.845 2.75267 175.414 2.594C175.993 2.43533 176.586 2.356 177.192 2.356ZM177.024 8.642C177.398 8.642 177.729 8.558 178.018 8.39C178.308 8.21267 178.513 7.956 178.634 7.62V6.85H177.136C176.24 6.85 175.792 7.144 175.792 7.732C175.792 8.012 175.9 8.236 176.114 8.404C176.338 8.56267 176.642 8.642 177.024 8.642ZM182.795 -0.388001H184.979V10H182.795V-0.388001ZM194.345 10.168C193.57 10.168 192.819 10.0653 192.091 9.86C191.372 9.64533 190.794 9.37 190.355 9.034L191.125 7.326C191.545 7.634 192.044 7.88133 192.623 8.068C193.202 8.25467 193.78 8.348 194.359 8.348C195.003 8.348 195.479 8.25467 195.787 8.068C196.095 7.872 196.249 7.61533 196.249 7.298C196.249 7.06467 196.156 6.87333 195.969 6.724C195.792 6.56533 195.558 6.43933 195.269 6.346C194.989 6.25267 194.606 6.15 194.121 6.038C193.374 5.86067 192.763 5.68333 192.287 5.506C191.811 5.32867 191.4 5.044 191.055 4.652C190.719 4.26 190.551 3.73733 190.551 3.084C190.551 2.51467 190.705 2.00133 191.013 1.544C191.321 1.07733 191.783 0.708666 192.399 0.438C193.024 0.167333 193.785 0.0319998 194.681 0.0319998C195.306 0.0319998 195.918 0.106666 196.515 0.255999C197.112 0.405333 197.635 0.62 198.083 0.899999L197.383 2.622C196.478 2.10867 195.572 1.852 194.667 1.852C194.032 1.852 193.561 1.95467 193.253 2.16C192.954 2.36533 192.805 2.636 192.805 2.972C192.805 3.308 192.978 3.56 193.323 3.728C193.678 3.88667 194.214 4.04533 194.933 4.204C195.68 4.38133 196.291 4.55867 196.767 4.736C197.243 4.91333 197.649 5.19333 197.985 5.576C198.33 5.95867 198.503 6.47667 198.503 7.13C198.503 7.69 198.344 8.20333 198.027 8.67C197.719 9.12733 197.252 9.49133 196.627 9.762C196.002 10.0327 195.241 10.168 194.345 10.168ZM207.487 2.468V10H205.415V9.104C205.125 9.43067 204.78 9.68267 204.379 9.86C203.977 10.028 203.543 10.112 203.077 10.112C202.087 10.112 201.303 9.82733 200.725 9.258C200.146 8.68867 199.857 7.844 199.857 6.724V2.468H202.041V6.402C202.041 7.61533 202.549 8.222 203.567 8.222C204.089 8.222 204.509 8.054 204.827 7.718C205.144 7.37267 205.303 6.864 205.303 6.192V2.468H207.487ZM213.962 2.356C214.662 2.356 215.297 2.51933 215.866 2.846C216.445 3.16333 216.897 3.616 217.224 4.204C217.551 4.78267 217.714 5.45933 217.714 6.234C217.714 7.00867 217.551 7.69 217.224 8.278C216.897 8.85667 216.445 9.30933 215.866 9.636C215.297 9.95333 214.662 10.112 213.962 10.112C213.001 10.112 212.245 9.80867 211.694 9.202V12.716H209.51V2.468H211.596V3.336C212.137 2.68267 212.926 2.356 213.962 2.356ZM213.584 8.32C214.144 8.32 214.601 8.13333 214.956 7.76C215.32 7.37733 215.502 6.86867 215.502 6.234C215.502 5.59933 215.32 5.09533 214.956 4.722C214.601 4.33933 214.144 4.148 213.584 4.148C213.024 4.148 212.562 4.33933 212.198 4.722C211.843 5.09533 211.666 5.59933 211.666 6.234C211.666 6.86867 211.843 7.37733 212.198 7.76C212.562 8.13333 213.024 8.32 213.584 8.32ZM223.628 2.356C224.328 2.356 224.963 2.51933 225.532 2.846C226.111 3.16333 226.563 3.616 226.89 4.204C227.217 4.78267 227.38 5.45933 227.38 6.234C227.38 7.00867 227.217 7.69 226.89 8.278C226.563 8.85667 226.111 9.30933 225.532 9.636C224.963 9.95333 224.328 10.112 223.628 10.112C222.667 10.112 221.911 9.80867 221.36 9.202V12.716H219.176V2.468H221.262V3.336C221.803 2.68267 222.592 2.356 223.628 2.356ZM223.25 8.32C223.81 8.32 224.267 8.13333 224.622 7.76C224.986 7.37733 225.168 6.86867 225.168 6.234C225.168 5.59933 224.986 5.09533 224.622 4.722C224.267 4.33933 223.81 4.148 223.25 4.148C222.69 4.148 222.228 4.33933 221.864 4.722C221.509 5.09533 221.332 5.59933 221.332 6.234C221.332 6.86867 221.509 7.37733 221.864 7.76C222.228 8.13333 222.69 8.32 223.25 8.32ZM228.842 -0.388001H231.026V10H228.842V-0.388001ZM240.529 2.468L237.127 10.462C236.782 11.33 236.352 11.9413 235.839 12.296C235.335 12.6507 234.724 12.828 234.005 12.828C233.613 12.828 233.226 12.7673 232.843 12.646C232.46 12.5247 232.148 12.3567 231.905 12.142L232.703 10.588C232.871 10.7373 233.062 10.854 233.277 10.938C233.501 11.022 233.72 11.064 233.935 11.064C234.234 11.064 234.476 10.9893 234.663 10.84C234.85 10.7 235.018 10.462 235.167 10.126L235.195 10.056L231.933 2.468H234.187L236.301 7.578L238.429 2.468H240.529Z" fill="white"/>
</g>
<defs>
<linearGradient id="paint0_linear_189:1348" x1="-80.6711" y1="244.748" x2="151.51" y2="48.0905" gradientUnits="userSpaceOnUse">
<stop stop-color="#48F6F8"/>
<stop offset="0.58125" stop-color="#50FDFF"/>
<stop offset="1" stop-color="#673DDD"/>
</linearGradient>
<linearGradient id="paint1_linear_189:1348" x1="-80.6711" y1="244.748" x2="151.51" y2="48.0905" gradientUnits="userSpaceOnUse">
<stop stop-color="#48F6F8"/>
<stop offset="0.513542" stop-color="#48F6F8"/>
<stop offset="1" stop-color="#8A04FF"/>
</linearGradient>
<linearGradient id="paint2_linear_189:1348" x1="-80.671" y1="244.748" x2="151.51" y2="48.0904" gradientUnits="userSpaceOnUse">
<stop stop-color="#48F6F8"/>
<stop offset="0.534375" stop-color="#48F6F8"/>
<stop offset="1" stop-color="#B33DDD"/>
</linearGradient>
<clipPath id="clip0_189:1348">
<rect width="378" height="247" fill="white"/>
</clipPath>
</defs>
</svg>
