<svg width="471" height="247" viewBox="0 0 471 247" fill="none" xmlns="http://www.w3.org/2000/svg">
<path d="M241.345 139.999C237.415 152.852 229.036 163.884 217.709 171.12C206.383 178.355 192.85 181.32 179.536 179.483C166.222 177.647 153.997 171.128 145.053 161.096C136.109 151.064 131.03 138.175 130.727 124.738C130.423 111.301 134.916 98.1961 143.398 87.7708C151.88 77.3455 163.798 70.2819 177.016 67.8462C190.233 65.4105 203.886 67.7618 215.528 74.4787C227.169 81.1957 236.037 91.8391 240.544 104.501L187.265 123.462L241.345 139.999Z" fill="url(#paint0_linear_189:1271)"/>
<path d="M241.345 139.999C237.646 152.094 230 162.6 219.629 169.838C209.257 177.076 196.758 180.628 184.13 179.927C171.501 179.226 159.473 174.312 149.966 165.97C140.459 157.628 134.023 146.341 131.686 133.911C129.349 121.481 131.246 108.626 137.075 97.4012C142.903 86.1765 152.326 77.2294 163.837 71.99C175.349 66.7505 188.284 65.5211 200.576 68.4983C212.869 71.4754 223.808 78.4872 231.647 88.4131L187.265 123.462L241.345 139.999Z" fill="url(#paint1_linear_189:1271)"/>
<path d="M241.345 139.999C237.884 151.316 230.96 161.263 221.548 168.438C212.135 175.612 200.709 179.653 188.879 179.991C177.049 180.329 165.411 176.947 155.605 170.321C145.798 163.696 138.318 154.16 134.216 143.059C130.115 131.957 129.6 119.849 132.744 108.439C135.888 97.0292 142.532 86.8934 151.741 79.4592C160.949 72.0249 172.258 67.667 184.074 66.9993C195.89 66.3317 207.618 69.3878 217.605 75.7373L187.265 123.462L241.345 139.999Z" fill="url(#paint2_linear_189:1271)"/>
<path d="M263.016 96.5876C268.719 112.741 269.115 130.292 264.149 146.686C259.182 163.08 249.111 177.46 235.403 187.733C221.695 198.005 205.066 203.633 187.937 203.796C170.807 203.96 154.074 198.651 140.172 188.642C126.27 178.633 115.926 164.448 110.648 148.152C105.369 131.856 105.43 114.3 110.823 98.041C116.216 81.7822 126.659 67.6697 140.63 57.7587C154.602 47.8478 171.373 42.6561 188.5 42.9397L187.168 123.364L263.016 96.5876Z" fill="url(#paint3_linear_189:1271)"/>
<path d="M203.126 75.8742C203.126 77.6368 201.697 79.0658 199.935 79.0658C198.172 79.0658 196.743 77.6368 196.743 75.8742C196.743 74.1115 198.172 72.6826 199.935 72.6826C201.697 72.6826 203.126 74.1115 203.126 75.8742Z" fill="white"/>
<path d="M222.149 86.0871C222.149 87.8497 220.72 89.2787 218.957 89.2787C217.195 89.2787 215.766 87.8497 215.766 86.0871C215.766 84.3244 217.195 82.8955 218.957 82.8955C220.72 82.8955 222.149 84.3244 222.149 86.0871Z" fill="white"/>
<path d="M232.49 98.8532C232.49 100.616 231.061 102.045 229.298 102.045C227.535 102.045 226.106 100.616 226.106 98.8532C226.106 97.0905 227.535 95.6616 229.298 95.6616C231.061 95.6616 232.49 97.0905 232.49 98.8532Z" fill="white"/>
<path d="M149.891 162.429C149.891 164.192 148.462 165.621 146.699 165.621C144.937 165.621 143.508 164.192 143.508 162.429C143.508 160.667 144.937 159.238 146.699 159.238C148.462 159.238 149.891 160.667 149.891 162.429Z" fill="white"/>
<path fill-rule="evenodd" clip-rule="evenodd" d="M237.388 37.7134H282.916V38.7134H237.802L200.288 76.2275L199.581 75.5204L237.388 37.7134Z" fill="white"/>
<path fill-rule="evenodd" clip-rule="evenodd" d="M249.11 55.2031H285.853V56.2031H249.525L219.311 86.4403L218.604 85.7335L249.11 55.2031Z" fill="white"/>
<path fill-rule="evenodd" clip-rule="evenodd" d="M116.384 195.867H79.4219V194.867H115.947L146.333 162.09L147.066 162.77L116.384 195.867Z" fill="white"/>
<path fill-rule="evenodd" clip-rule="evenodd" d="M255.697 73.8423H287.895V74.8423H256.087L229.637 99.2212L228.959 98.4859L255.697 73.8423Z" fill="white"/>
<path d="M288.901 39.6851H288.189V35.106C288.189 34.7251 288.201 34.3647 288.224 34.0249C288.163 34.0864 288.094 34.1509 288.018 34.2183C287.941 34.2856 287.593 34.5713 286.972 35.0752L286.585 34.5742L288.286 33.2603H288.901V39.6851Z" fill="white"/>
<path d="M295.607 36.4639C295.607 37.5742 295.431 38.4033 295.08 38.9512C294.731 39.499 294.196 39.7729 293.476 39.7729C292.784 39.7729 292.258 39.4932 291.898 38.9336C291.538 38.3711 291.357 37.5479 291.357 36.4639C291.357 35.3447 291.532 34.5142 291.88 33.9722C292.229 33.4302 292.761 33.1592 293.476 33.1592C294.173 33.1592 294.702 33.4419 295.062 34.0073C295.425 34.5728 295.607 35.3916 295.607 36.4639ZM292.096 36.4639C292.096 37.3984 292.206 38.0796 292.425 38.5073C292.645 38.9321 292.995 39.1445 293.476 39.1445C293.962 39.1445 294.313 38.9292 294.53 38.4985C294.75 38.0649 294.86 37.3867 294.86 36.4639C294.86 35.541 294.75 34.8657 294.53 34.438C294.313 34.0073 293.962 33.792 293.476 33.792C292.995 33.792 292.645 34.0044 292.425 34.4292C292.206 34.8511 292.096 35.5293 292.096 36.4639Z" fill="white"/>
<path d="M297.123 35.1763C297.123 35.6743 297.177 36.0479 297.286 36.2969C297.394 36.5459 297.57 36.6704 297.813 36.6704C298.293 36.6704 298.534 36.1724 298.534 35.1763C298.534 34.186 298.293 33.6909 297.813 33.6909C297.57 33.6909 297.394 33.814 297.286 34.0601C297.177 34.3062 297.123 34.6782 297.123 35.1763ZM299.136 35.1763C299.136 35.8442 299.023 36.3496 298.797 36.6924C298.575 37.0322 298.247 37.2021 297.813 37.2021C297.403 37.2021 297.083 37.0278 296.855 36.6792C296.629 36.3306 296.517 35.8296 296.517 35.1763C296.517 34.5112 296.625 34.0103 296.842 33.6733C297.062 33.3364 297.385 33.168 297.813 33.168C298.238 33.168 298.564 33.3423 298.793 33.6909C299.021 34.0396 299.136 34.5347 299.136 35.1763ZM300.99 37.7515C300.99 38.2524 301.044 38.6274 301.153 38.8765C301.261 39.1226 301.438 39.2456 301.685 39.2456C301.931 39.2456 302.112 39.124 302.229 38.8809C302.347 38.6348 302.405 38.2583 302.405 37.7515C302.405 37.2505 302.347 36.8799 302.229 36.6396C302.112 36.3965 301.931 36.2749 301.685 36.2749C301.438 36.2749 301.261 36.3965 301.153 36.6396C301.044 36.8799 300.99 37.2505 300.99 37.7515ZM303.007 37.7515C303.007 38.4165 302.895 38.9204 302.669 39.2632C302.446 39.603 302.118 39.7729 301.685 39.7729C301.269 39.7729 300.948 39.5986 300.722 39.25C300.5 38.9014 300.388 38.4019 300.388 37.7515C300.388 37.0864 300.497 36.5854 300.713 36.2485C300.933 35.9116 301.257 35.7432 301.685 35.7432C302.101 35.7432 302.424 35.916 302.656 36.2617C302.89 36.6045 303.007 37.1011 303.007 37.7515ZM301.874 33.2603L298.31 39.6851H297.664L301.228 33.2603H301.874Z" fill="white"/>
<path d="M310.271 39.6851H306.69V33.2603H310.271V33.9238H307.437V35.9937H310.1V36.6528H307.437V39.0171H310.271V39.6851Z" fill="white"/>
<path d="M312.645 39.6851L310.816 34.8687H311.599L312.636 37.7251C312.87 38.3931 313.008 38.8267 313.049 39.0259H313.084C313.116 38.8706 313.217 38.5498 313.387 38.0635C313.56 37.5742 313.945 36.5093 314.543 34.8687H315.325L313.497 39.6851H312.645Z" fill="white"/>
<path d="M318.133 39.7729C317.421 39.7729 316.859 39.5562 316.446 39.1226C316.036 38.689 315.831 38.0869 315.831 37.3164C315.831 36.54 316.021 35.9233 316.402 35.4663C316.786 35.0093 317.3 34.7808 317.944 34.7808C318.548 34.7808 319.025 34.98 319.377 35.3784C319.729 35.7739 319.904 36.2969 319.904 36.9473V37.4087H316.586C316.601 37.9741 316.743 38.4033 317.013 38.6963C317.285 38.9893 317.667 39.1357 318.16 39.1357C318.678 39.1357 319.191 39.0273 319.698 38.8105V39.4609C319.44 39.5723 319.195 39.6514 318.964 39.6982C318.735 39.748 318.458 39.7729 318.133 39.7729ZM317.936 35.3916C317.549 35.3916 317.24 35.5176 317.008 35.7695C316.78 36.0215 316.645 36.3701 316.604 36.8154H319.122C319.122 36.3555 319.02 36.0039 318.814 35.7607C318.609 35.5146 318.316 35.3916 317.936 35.3916Z" fill="white"/>
<path d="M323.35 34.7808C323.563 34.7808 323.755 34.7983 323.925 34.8335L323.824 35.5103C323.625 35.4663 323.449 35.4443 323.297 35.4443C322.907 35.4443 322.573 35.6025 322.295 35.9189C322.02 36.2354 321.882 36.6294 321.882 37.1011V39.6851H321.152V34.8687H321.754L321.838 35.7607H321.873C322.052 35.4473 322.267 35.2056 322.519 35.0356C322.771 34.8657 323.048 34.7808 323.35 34.7808Z" fill="white"/>
<path d="M324.062 34.8687H324.844L325.898 37.6152C326.13 38.2422 326.273 38.6948 326.329 38.9731H326.365C326.403 38.8237 326.481 38.5688 326.602 38.2085C326.725 37.8452 327.123 36.7319 327.797 34.8687H328.579L326.509 40.353C326.304 40.895 326.064 41.2788 325.789 41.5044C325.516 41.7329 325.182 41.8472 324.783 41.8472C324.561 41.8472 324.34 41.8223 324.123 41.7725V41.188C324.284 41.2231 324.464 41.2407 324.664 41.2407C325.165 41.2407 325.522 40.9595 325.736 40.397L326.004 39.7114L324.062 34.8687Z" fill="white"/>
<path d="M332.64 39.0391H332.6C332.263 39.5283 331.759 39.7729 331.088 39.7729C330.458 39.7729 329.968 39.5576 329.616 39.127C329.268 38.6963 329.093 38.084 329.093 37.29C329.093 36.4961 329.269 35.8794 329.621 35.4399C329.972 35.0005 330.461 34.7808 331.088 34.7808C331.742 34.7808 332.243 35.0181 332.591 35.4927H332.648L332.618 35.1455L332.6 34.8071V32.8472H333.33V39.6851H332.736L332.64 39.0391ZM331.181 39.1621C331.679 39.1621 332.039 39.0273 332.262 38.7578C332.487 38.4854 332.6 38.0474 332.6 37.4438V37.29C332.6 36.6074 332.486 36.1211 332.257 35.8311C332.032 35.5381 331.67 35.3916 331.172 35.3916C330.744 35.3916 330.416 35.5586 330.188 35.8926C329.962 36.2236 329.849 36.6924 329.849 37.2988C329.849 37.9141 329.962 38.3784 330.188 38.6919C330.413 39.0054 330.744 39.1621 331.181 39.1621Z" fill="white"/>
<path d="M337.843 39.6851L337.698 38.9995H337.663C337.422 39.3013 337.182 39.5063 336.942 39.6147C336.705 39.7202 336.407 39.7729 336.05 39.7729C335.572 39.7729 335.197 39.6499 334.925 39.4038C334.655 39.1577 334.521 38.8076 334.521 38.3535C334.521 37.3809 335.298 36.8711 336.854 36.8242L337.671 36.7979V36.499C337.671 36.1211 337.589 35.8428 337.425 35.6641C337.264 35.4824 337.005 35.3916 336.647 35.3916C336.246 35.3916 335.792 35.5146 335.285 35.7607L335.061 35.2025C335.298 35.0736 335.558 34.9726 335.839 34.8993C336.123 34.8261 336.407 34.7896 336.691 34.7896C337.266 34.7896 337.69 34.917 337.966 35.1719C338.244 35.4268 338.383 35.8354 338.383 36.3979V39.6851H337.843ZM336.195 39.1708C336.649 39.1708 337.005 39.0464 337.263 38.7974C337.523 38.5483 337.654 38.1996 337.654 37.7514V37.3163L336.924 37.3471C336.344 37.3676 335.925 37.4584 335.667 37.6195C335.413 37.7777 335.285 38.0254 335.285 38.3623C335.285 38.626 335.364 38.8267 335.522 38.9644C335.684 39.1021 335.908 39.1708 336.195 39.1708Z" fill="white"/>
<path d="M339.126 34.8687H339.908L340.963 37.6152C341.194 38.2422 341.338 38.6948 341.394 38.9731H341.429C341.467 38.8237 341.546 38.5688 341.666 38.2085C341.789 37.8452 342.188 36.7319 342.861 34.8687H343.644L341.574 40.353C341.369 40.895 341.128 41.2788 340.853 41.5044C340.581 41.7329 340.245 41.8472 339.847 41.8472C339.624 41.8472 339.404 41.8223 339.188 41.7725V41.188C339.349 41.2231 339.529 41.2407 339.728 41.2407C340.229 41.2407 340.586 40.9595 340.8 40.397L341.068 39.7114L339.126 34.8687Z" fill="white"/>
<path d="M347.493 39.6851H346.764V32.8472H347.493V39.6851Z" fill="white"/>
<path d="M353.197 37.2725C353.197 38.0576 353 38.6714 352.604 39.1138C352.208 39.5532 351.662 39.7729 350.965 39.7729C350.534 39.7729 350.152 39.6719 349.818 39.4697C349.484 39.2676 349.226 38.9775 349.044 38.5996C348.863 38.2217 348.772 37.7793 348.772 37.2725C348.772 36.4873 348.968 35.8765 349.361 35.4399C349.753 35.0005 350.298 34.7808 350.996 34.7808C351.669 34.7808 352.204 35.0049 352.6 35.4531C352.998 35.9014 353.197 36.5078 353.197 37.2725ZM349.528 37.2725C349.528 37.8877 349.651 38.3564 349.897 38.6787C350.143 39.001 350.505 39.1621 350.982 39.1621C351.46 39.1621 351.822 39.0024 352.068 38.6831C352.317 38.3608 352.441 37.8906 352.441 37.2725C352.441 36.6602 352.317 36.1958 352.068 35.8794C351.822 35.5601 351.457 35.4004 350.974 35.4004C350.496 35.4004 350.136 35.5571 349.893 35.8706C349.649 36.1841 349.528 36.6514 349.528 37.2725Z" fill="white"/>
<path d="M356.036 39.1709C356.165 39.1709 356.29 39.1621 356.41 39.1445C356.53 39.124 356.625 39.1035 356.695 39.083V39.6411C356.616 39.6792 356.499 39.71 356.344 39.7334C356.191 39.7598 356.054 39.7729 355.931 39.7729C354.999 39.7729 354.533 39.2822 354.533 38.3008V35.4355H353.843V35.084L354.533 34.7808L354.841 33.7524H355.263V34.8687H356.66V35.4355H355.263V38.27C355.263 38.5601 355.332 38.7827 355.469 38.938C355.607 39.0933 355.796 39.1709 356.036 39.1709Z" fill="white"/>
<path d="M359.218 39.1709C359.347 39.1709 359.471 39.1621 359.591 39.1445C359.711 39.124 359.807 39.1035 359.877 39.083V39.6411C359.798 39.6792 359.681 39.71 359.525 39.7334C359.373 39.7598 359.235 39.7729 359.112 39.7729C358.181 39.7729 357.715 39.2822 357.715 38.3008V35.4355H357.025V35.084L357.715 34.7808L358.022 33.7524H358.444V34.8687H359.842V35.4355H358.444V38.27C358.444 38.5601 358.513 38.7827 358.651 38.938C358.789 39.0933 358.978 39.1709 359.218 39.1709Z" fill="white"/>
<path d="M362.878 39.7729C362.167 39.7729 361.604 39.5562 361.191 39.1226C360.781 38.689 360.576 38.0869 360.576 37.3164C360.576 36.54 360.766 35.9233 361.147 35.4663C361.531 35.0093 362.045 34.7808 362.689 34.7808C363.293 34.7808 363.771 34.98 364.122 35.3784C364.474 35.7739 364.649 36.2969 364.649 36.9473V37.4087H361.332C361.346 37.9741 361.488 38.4033 361.758 38.6963C362.03 38.9893 362.413 39.1357 362.905 39.1357C363.423 39.1357 363.936 39.0273 364.443 38.8105V39.4609C364.185 39.5723 363.94 39.6514 363.709 39.6982C363.48 39.748 363.204 39.7729 362.878 39.7729ZM362.681 35.3916C362.294 35.3916 361.985 35.5176 361.753 35.7695C361.525 36.0215 361.39 36.3701 361.349 36.8154H363.867C363.867 36.3555 363.765 36.0039 363.56 35.7607C363.354 35.5146 363.062 35.3916 362.681 35.3916Z" fill="white"/>
<path d="M368.095 34.7808C368.309 34.7808 368.5 34.7983 368.67 34.8335L368.569 35.5103C368.37 35.4663 368.194 35.4443 368.042 35.4443C367.652 35.4443 367.318 35.6025 367.04 35.9189C366.765 36.2354 366.627 36.6294 366.627 37.1011V39.6851H365.897V34.8687H366.5L366.583 35.7607H366.618C366.797 35.4473 367.012 35.2056 367.264 35.0356C367.516 34.8657 367.793 34.7808 368.095 34.7808Z" fill="white"/>
<path d="M368.807 34.8687H369.589L370.644 37.6152C370.875 38.2422 371.019 38.6948 371.074 38.9731H371.109C371.147 38.8237 371.227 38.5688 371.347 38.2085C371.47 37.8452 371.868 36.7319 372.542 34.8687H373.324L371.254 40.353C371.049 40.895 370.809 41.2788 370.534 41.5044C370.261 41.7329 369.926 41.8472 369.527 41.8472C369.305 41.8472 369.085 41.8223 368.868 41.7725V41.188C369.029 41.2231 369.209 41.2407 369.409 41.2407C369.91 41.2407 370.267 40.9595 370.481 40.397L370.749 39.7114L368.807 34.8687Z" fill="white"/>
<path d="M379.406 39.6851L379.261 38.9995H379.226C378.986 39.3013 378.746 39.5063 378.505 39.6147C378.268 39.7202 377.971 39.7729 377.613 39.7729C377.136 39.7729 376.761 39.6499 376.488 39.4038C376.219 39.1577 376.084 38.8076 376.084 38.3535C376.084 37.3809 376.862 36.8711 378.417 36.8242L379.235 36.7979V36.499C379.235 36.1211 379.153 35.8428 378.989 35.6641C378.828 35.4824 378.568 35.3916 378.211 35.3916C377.81 35.3916 377.355 35.5146 376.849 35.7607L376.625 35.2025C376.862 35.0736 377.121 34.9726 377.402 34.8993C377.687 34.8261 377.971 34.7896 378.255 34.7896C378.829 34.7896 379.254 34.917 379.529 35.1719C379.808 35.4268 379.947 35.8354 379.947 36.3979V39.6851H379.406ZM377.758 39.1708C378.212 39.1708 378.568 39.0464 378.826 38.7974C379.087 38.5483 379.217 38.1996 379.217 37.7514V37.3163L378.488 37.3471C377.908 37.3676 377.489 37.4584 377.231 37.6195C376.976 37.7777 376.849 38.0254 376.849 38.3623C376.849 38.626 376.928 38.8267 377.086 38.9644C377.247 39.1021 377.471 39.1708 377.758 39.1708Z" fill="white"/>
<path d="M384.75 39.6851V36.5693C384.75 36.1768 384.661 35.8838 384.482 35.6904C384.303 35.4971 384.023 35.4004 383.643 35.4004C383.139 35.4004 382.77 35.5366 382.535 35.8091C382.301 36.0815 382.184 36.5312 382.184 37.1582V39.6851H381.454V34.8687H382.047L382.166 35.5278H382.201C382.351 35.2905 382.56 35.1074 382.83 34.9785C383.099 34.8467 383.399 34.7808 383.73 34.7808C384.311 34.7808 384.747 34.9214 385.04 35.2026C385.333 35.481 385.479 35.9277 385.479 36.543V39.6851H384.75Z" fill="white"/>
<path d="M390.261 39.0391H390.221C389.884 39.5283 389.38 39.7729 388.709 39.7729C388.08 39.7729 387.589 39.5576 387.237 39.127C386.889 38.6963 386.714 38.084 386.714 37.29C386.714 36.4961 386.89 35.8794 387.242 35.4399C387.593 35.0005 388.083 34.7808 388.709 34.7808C389.363 34.7808 389.864 35.0181 390.212 35.4927H390.27L390.239 35.1455L390.221 34.8071V32.8472H390.951V39.6851H390.357L390.261 39.0391ZM388.802 39.1621C389.3 39.1621 389.66 39.0273 389.883 38.7578C390.108 38.4854 390.221 38.0474 390.221 37.4438V37.29C390.221 36.6074 390.107 36.1211 389.878 35.8311C389.653 35.5381 389.291 35.3916 388.793 35.3916C388.365 35.3916 388.037 35.5586 387.809 35.8926C387.583 36.2236 387.47 36.6924 387.47 37.2988C387.47 37.9141 387.583 38.3784 387.809 38.6919C388.034 39.0054 388.365 39.1621 388.802 39.1621Z" fill="white"/>
<path d="M397.081 34.7896C397.714 34.7896 398.205 35.0063 398.553 35.4399C398.905 35.8706 399.081 36.4814 399.081 37.2725C399.081 38.0635 398.903 38.6787 398.549 39.1182C398.197 39.5547 397.708 39.7729 397.081 39.7729C396.768 39.7729 396.48 39.7158 396.22 39.6016C395.962 39.4844 395.745 39.3057 395.569 39.0654H395.517L395.363 39.6851H394.84V32.8472H395.569V34.5083C395.569 34.8804 395.558 35.2144 395.534 35.5103H395.569C395.909 35.0298 396.413 34.7896 397.081 34.7896ZM396.976 35.4004C396.478 35.4004 396.119 35.5439 395.899 35.8311C395.679 36.1152 395.569 36.5957 395.569 37.2725C395.569 37.9492 395.682 38.4341 395.908 38.7271C396.133 39.0171 396.495 39.1621 396.993 39.1621C397.441 39.1621 397.775 38.9995 397.995 38.6743C398.215 38.3462 398.325 37.876 398.325 37.2637C398.325 36.6367 398.215 36.1694 397.995 35.8618C397.775 35.5542 397.436 35.4004 396.976 35.4004Z" fill="white"/>
<path d="M401.045 34.8687V37.9932C401.045 38.3857 401.134 38.6787 401.313 38.8721C401.492 39.0654 401.771 39.1621 402.152 39.1621C402.656 39.1621 403.024 39.0244 403.255 38.749C403.49 38.4736 403.607 38.0239 403.607 37.3999V34.8687H404.336V39.6851H403.734L403.629 39.0391H403.589C403.44 39.2764 403.232 39.458 402.965 39.584C402.702 39.71 402.4 39.7729 402.06 39.7729C401.474 39.7729 401.035 39.6338 400.742 39.3555C400.452 39.0771 400.307 38.6318 400.307 38.0195V34.8687H401.045Z" fill="white"/>
<path d="M408.085 34.7808C408.299 34.7808 408.491 34.7983 408.661 34.8335L408.56 35.5103C408.36 35.4663 408.185 35.4443 408.032 35.4443C407.643 35.4443 407.309 35.6025 407.03 35.9189C406.755 36.2354 406.617 36.6294 406.617 37.1011V39.6851H405.888V34.8687H406.49L406.573 35.7607H406.608C406.787 35.4473 407.002 35.2056 407.254 35.0356C407.506 34.8657 407.783 34.7808 408.085 34.7808Z" fill="white"/>
<path d="M412.857 39.6851V36.5693C412.857 36.1768 412.768 35.8838 412.589 35.6904C412.411 35.4971 412.131 35.4004 411.75 35.4004C411.246 35.4004 410.877 35.5366 410.643 35.8091C410.408 36.0815 410.291 36.5312 410.291 37.1582V39.6851H409.562V34.8687H410.155L410.273 35.5278H410.309C410.458 35.2905 410.668 35.1074 410.938 34.9785C411.207 34.8467 411.508 34.7808 411.839 34.7808C412.419 34.7808 412.854 34.9214 413.147 35.2026C413.44 35.481 413.587 35.9277 413.587 36.543V39.6851H412.857Z" fill="white"/>
<path d="M415.819 39.6851H415.09V34.8687H415.819V39.6851ZM415.028 33.5635C415.028 33.3965 415.069 33.2749 415.151 33.1987C415.233 33.1196 415.336 33.0801 415.459 33.0801C415.576 33.0801 415.677 33.1196 415.762 33.1987C415.847 33.2778 415.89 33.3994 415.89 33.5635C415.89 33.7275 415.847 33.8506 415.762 33.9326C415.677 34.0117 415.576 34.0513 415.459 34.0513C415.336 34.0513 415.233 34.0117 415.151 33.9326C415.069 33.8506 415.028 33.7275 415.028 33.5635Z" fill="white"/>
<path d="M420.662 39.6851V36.5693C420.662 36.1768 420.573 35.8838 420.394 35.6904C420.215 35.4971 419.936 35.4004 419.555 35.4004C419.051 35.4004 418.682 35.5366 418.447 35.8091C418.213 36.0815 418.096 36.5312 418.096 37.1582V39.6851H417.366V34.8687H417.959L418.078 35.5278H418.113C418.263 35.2905 418.472 35.1074 418.742 34.9785C419.011 34.8467 419.312 34.7808 419.643 34.7808C420.223 34.7808 420.659 34.9214 420.952 35.2026C421.245 35.481 421.392 35.9277 421.392 36.543V39.6851H420.662Z" fill="white"/>
<path d="M426.836 34.8687V35.3301L425.944 35.4355C426.026 35.5381 426.1 35.6729 426.164 35.8398C426.229 36.0039 426.261 36.1899 426.261 36.3979C426.261 36.8696 426.1 37.2461 425.777 37.5273C425.455 37.8086 425.013 37.9492 424.45 37.9492C424.307 37.9492 424.172 37.9375 424.046 37.9141C423.735 38.0781 423.58 38.2847 423.58 38.5337C423.58 38.6655 423.634 38.7637 423.743 38.8281C423.851 38.8896 424.037 38.9204 424.301 38.9204H425.153C425.675 38.9204 426.075 39.0303 426.353 39.25C426.634 39.4697 426.775 39.7891 426.775 40.208C426.775 40.7412 426.561 41.147 426.133 41.4253C425.706 41.7065 425.082 41.8472 424.261 41.8472C423.631 41.8472 423.145 41.73 422.802 41.4956C422.462 41.2612 422.292 40.9302 422.292 40.5024C422.292 40.2095 422.386 39.9561 422.574 39.7422C422.761 39.5283 423.025 39.3833 423.365 39.3071C423.242 39.2515 423.138 39.165 423.053 39.0479C422.971 38.9307 422.93 38.7944 422.93 38.6392C422.93 38.4634 422.977 38.3096 423.07 38.1777C423.164 38.0459 423.312 37.9185 423.514 37.7954C423.265 37.6929 423.062 37.5186 422.903 37.2725C422.748 37.0264 422.67 36.7451 422.67 36.4287C422.67 35.9014 422.829 35.4956 423.145 35.2114C423.461 34.9243 423.91 34.7808 424.49 34.7808C424.742 34.7808 424.969 34.8101 425.171 34.8687H426.836ZM422.996 40.4937C422.996 40.7544 423.105 40.9521 423.325 41.0869C423.545 41.2217 423.86 41.2891 424.27 41.2891C424.882 41.2891 425.335 41.1968 425.628 41.0122C425.924 40.8306 426.072 40.583 426.072 40.2695C426.072 40.0088 425.991 39.8271 425.83 39.7246C425.669 39.625 425.366 39.5752 424.92 39.5752H424.046C423.715 39.5752 423.457 39.6543 423.272 39.8125C423.088 39.9707 422.996 40.1978 422.996 40.4937ZM423.391 36.4111C423.391 36.748 423.486 37.0029 423.677 37.1758C423.867 37.3486 424.132 37.4351 424.472 37.4351C425.184 37.4351 425.54 37.0894 425.54 36.3979C425.54 35.6743 425.18 35.3125 424.459 35.3125C424.116 35.3125 423.853 35.4048 423.668 35.5894C423.483 35.7739 423.391 36.0479 423.391 36.4111Z" fill="white"/>
<path d="M293.311 54.2969C293.987 54.2969 294.519 54.4653 294.906 54.8022C295.295 55.1362 295.49 55.5947 295.49 56.1777C295.49 56.8428 295.278 57.3643 294.853 57.7422C294.431 58.1201 293.848 58.3091 293.104 58.3091C292.38 58.3091 291.828 58.1934 291.447 57.9619V57.2588C291.652 57.3906 291.907 57.4946 292.212 57.5708C292.517 57.644 292.817 57.6807 293.113 57.6807C293.628 57.6807 294.028 57.5591 294.312 57.3159C294.6 57.0728 294.743 56.7212 294.743 56.2612C294.743 55.3647 294.194 54.9165 293.095 54.9165C292.817 54.9165 292.445 54.959 291.979 55.0439L291.601 54.8022L291.843 51.7964H295.038V52.4688H292.467L292.304 54.3979C292.641 54.3306 292.977 54.2969 293.311 54.2969Z" fill="white"/>
<path d="M297.077 53.7124C297.077 54.2104 297.131 54.584 297.239 54.833C297.348 55.082 297.523 55.2065 297.767 55.2065C298.247 55.2065 298.487 54.7085 298.487 53.7124C298.487 52.7222 298.247 52.2271 297.767 52.2271C297.523 52.2271 297.348 52.3501 297.239 52.5962C297.131 52.8423 297.077 53.2144 297.077 53.7124ZM299.089 53.7124C299.089 54.3804 298.977 54.8857 298.751 55.2285C298.528 55.5684 298.2 55.7383 297.767 55.7383C297.356 55.7383 297.037 55.564 296.809 55.2153C296.583 54.8667 296.47 54.3657 296.47 53.7124C296.47 53.0474 296.579 52.5464 296.795 52.2095C297.015 51.8726 297.339 51.7041 297.767 51.7041C298.191 51.7041 298.518 51.8784 298.747 52.2271C298.975 52.5757 299.089 53.0708 299.089 53.7124ZM300.944 56.2876C300.944 56.7886 300.998 57.1636 301.106 57.4126C301.215 57.6587 301.392 57.7817 301.638 57.7817C301.884 57.7817 302.066 57.6602 302.183 57.417C302.3 57.1709 302.359 56.7944 302.359 56.2876C302.359 55.7866 302.3 55.416 302.183 55.1758C302.066 54.9326 301.884 54.811 301.638 54.811C301.392 54.811 301.215 54.9326 301.106 55.1758C300.998 55.416 300.944 55.7866 300.944 56.2876ZM302.961 56.2876C302.961 56.9526 302.848 57.4565 302.623 57.7993C302.4 58.1392 302.072 58.3091 301.638 58.3091C301.222 58.3091 300.901 58.1348 300.676 57.7861C300.453 57.4375 300.342 56.938 300.342 56.2876C300.342 55.6226 300.45 55.1216 300.667 54.7847C300.887 54.4478 301.21 54.2793 301.638 54.2793C302.054 54.2793 302.378 54.4521 302.609 54.7979C302.844 55.1406 302.961 55.6372 302.961 56.2876ZM301.827 51.7964L298.263 58.2212H297.617L301.181 51.7964H301.827Z" fill="white"/>
<path d="M309.395 52.3721C308.688 52.3721 308.13 52.6079 307.72 53.0796C307.313 53.5483 307.109 54.1914 307.109 55.0088C307.109 55.8496 307.306 56.5 307.698 56.96C308.094 57.417 308.656 57.6455 309.386 57.6455C309.834 57.6455 310.345 57.5649 310.919 57.4038V58.0586C310.474 58.2256 309.925 58.3091 309.271 58.3091C308.325 58.3091 307.594 58.022 307.079 57.4478C306.566 56.8735 306.31 56.0576 306.31 55C306.31 54.3379 306.433 53.7578 306.679 53.2598C306.928 52.7617 307.285 52.3779 307.751 52.1084C308.22 51.8389 308.771 51.7041 309.403 51.7041C310.077 51.7041 310.666 51.8271 311.17 52.0732L310.854 52.7148C310.367 52.4863 309.881 52.3721 309.395 52.3721Z" fill="white"/>
<path d="M316.369 55.8086C316.369 56.5938 316.171 57.2075 315.775 57.6499C315.38 58.0894 314.833 58.3091 314.136 58.3091C313.706 58.3091 313.323 58.208 312.989 58.0059C312.655 57.8037 312.397 57.5137 312.216 57.1357C312.034 56.7578 311.943 56.3154 311.943 55.8086C311.943 55.0234 312.14 54.4126 312.532 53.9761C312.925 53.5366 313.47 53.3169 314.167 53.3169C314.841 53.3169 315.375 53.541 315.771 53.9893C316.169 54.4375 316.369 55.0439 316.369 55.8086ZM312.699 55.8086C312.699 56.4238 312.822 56.8926 313.068 57.2148C313.314 57.5371 313.676 57.6982 314.154 57.6982C314.631 57.6982 314.993 57.5386 315.239 57.2192C315.488 56.897 315.613 56.4268 315.613 55.8086C315.613 55.1963 315.488 54.7319 315.239 54.4155C314.993 54.0962 314.628 53.9365 314.145 53.9365C313.667 53.9365 313.307 54.0933 313.064 54.4067C312.821 54.7202 312.699 55.1875 312.699 55.8086Z" fill="white"/>
<path d="M320.948 58.2212V55.1055C320.948 54.7129 320.858 54.4199 320.68 54.2266C320.501 54.0332 320.221 53.9365 319.84 53.9365C319.336 53.9365 318.967 54.0728 318.733 54.3452C318.499 54.6177 318.381 55.0674 318.381 55.6943V58.2212H317.652V53.4048H318.245L318.364 54.064H318.399C318.548 53.8267 318.758 53.6436 319.027 53.5146C319.297 53.3828 319.597 53.3169 319.928 53.3169C320.508 53.3169 320.945 53.4575 321.238 53.7388C321.531 54.0171 321.677 54.4639 321.677 55.0791V58.2212H320.948Z" fill="white"/>
<path d="M324.736 57.707C324.865 57.707 324.989 57.6982 325.109 57.6807C325.229 57.6602 325.325 57.6396 325.395 57.6191V58.1772C325.316 58.2153 325.199 58.2461 325.043 58.2695C324.891 58.2959 324.753 58.3091 324.63 58.3091C323.699 58.3091 323.233 57.8184 323.233 56.8369V53.9717H322.543V53.6201L323.233 53.3169L323.541 52.2886H323.962V53.4048H325.36V53.9717H323.962V56.8062C323.962 57.0962 324.031 57.3188 324.169 57.4741C324.307 57.6294 324.496 57.707 324.736 57.707Z" fill="white"/>
<path d="M328.396 58.3091C327.685 58.3091 327.122 58.0923 326.709 57.6587C326.299 57.2251 326.094 56.623 326.094 55.8525C326.094 55.0762 326.284 54.4595 326.665 54.0024C327.049 53.5454 327.563 53.3169 328.208 53.3169C328.811 53.3169 329.289 53.5161 329.64 53.9146C329.992 54.3101 330.167 54.833 330.167 55.4834V55.9448H326.85C326.864 56.5103 327.006 56.9395 327.276 57.2324C327.548 57.5254 327.931 57.6719 328.423 57.6719C328.941 57.6719 329.454 57.5635 329.961 57.3467V57.9971C329.703 58.1084 329.458 58.1875 329.227 58.2344C328.999 58.2842 328.722 58.3091 328.396 58.3091ZM328.199 53.9277C327.812 53.9277 327.503 54.0537 327.271 54.3057C327.043 54.5576 326.908 54.9062 326.867 55.3516H329.385C329.385 54.8916 329.283 54.54 329.078 54.2969C328.873 54.0508 328.58 53.9277 328.199 53.9277Z" fill="white"/>
<path d="M334.522 56.9072C334.522 57.3555 334.355 57.7012 334.021 57.9443C333.688 58.1875 333.219 58.3091 332.615 58.3091C331.977 58.3091 331.479 58.208 331.121 58.0059V57.3291C331.353 57.4463 331.6 57.5386 331.864 57.606C332.13 57.6733 332.387 57.707 332.633 57.707C333.014 57.707 333.307 57.647 333.512 57.5269C333.717 57.4038 333.819 57.2178 333.819 56.9688C333.819 56.7812 333.737 56.6216 333.573 56.4897C333.412 56.355 333.096 56.1968 332.624 56.0151C332.176 55.8481 331.856 55.7031 331.666 55.5801C331.479 55.4541 331.338 55.312 331.244 55.1538C331.153 54.9956 331.108 54.8066 331.108 54.5869C331.108 54.1943 331.268 53.8853 331.587 53.6597C331.906 53.4312 332.344 53.3169 332.901 53.3169C333.419 53.3169 333.926 53.4224 334.421 53.6333L334.162 54.2266C333.679 54.0273 333.241 53.9277 332.848 53.9277C332.502 53.9277 332.242 53.9819 332.066 54.0903C331.89 54.1987 331.802 54.3481 331.802 54.5386C331.802 54.6675 331.834 54.7773 331.899 54.8682C331.966 54.959 332.073 55.0454 332.22 55.1274C332.366 55.2095 332.647 55.3281 333.063 55.4834C333.635 55.6914 334.02 55.9009 334.219 56.1118C334.421 56.3228 334.522 56.5879 334.522 56.9072Z" fill="white"/>
<path d="M337.269 57.707C337.398 57.707 337.522 57.6982 337.643 57.6807C337.763 57.6602 337.858 57.6396 337.928 57.6191V58.1772C337.849 58.2153 337.732 58.2461 337.577 58.2695C337.424 58.2959 337.287 58.3091 337.164 58.3091C336.232 58.3091 335.766 57.8184 335.766 56.8369V53.9717H335.076V53.6201L335.766 53.3169L336.074 52.2886H336.496V53.4048H337.893V53.9717H336.496V56.8062C336.496 57.0962 336.564 57.3188 336.702 57.4741C336.84 57.6294 337.029 57.707 337.269 57.707Z" fill="white"/>
<path d="M342.002 56.9072C342.002 57.3555 341.835 57.7012 341.501 57.9443C341.167 58.1875 340.698 58.3091 340.095 58.3091C339.456 58.3091 338.958 58.208 338.601 58.0059V57.3291C338.832 57.4463 339.08 57.5386 339.343 57.606C339.61 57.6733 339.866 57.707 340.112 57.707C340.493 57.707 340.786 57.647 340.991 57.5269C341.196 57.4038 341.299 57.2178 341.299 56.9688C341.299 56.7812 341.217 56.6216 341.053 56.4897C340.892 56.355 340.575 56.1968 340.104 56.0151C339.655 55.8481 339.336 55.7031 339.146 55.5801C338.958 55.4541 338.817 55.312 338.724 55.1538C338.633 54.9956 338.587 54.8066 338.587 54.5869C338.587 54.1943 338.747 53.8853 339.066 53.6597C339.386 53.4312 339.824 53.3169 340.38 53.3169C340.899 53.3169 341.406 53.4224 341.901 53.6333L341.642 54.2266C341.158 54.0273 340.72 53.9277 340.328 53.9277C339.982 53.9277 339.721 53.9819 339.545 54.0903C339.37 54.1987 339.282 54.3481 339.282 54.5386C339.282 54.6675 339.314 54.7773 339.378 54.8682C339.446 54.959 339.553 55.0454 339.699 55.1274C339.846 55.2095 340.127 55.3281 340.543 55.4834C341.114 55.6914 341.5 55.9009 341.699 56.1118C341.901 56.3228 342.002 56.5879 342.002 56.9072Z" fill="white"/>
<path d="M294.116 71.2207C294.793 71.2207 295.325 71.3892 295.711 71.7261C296.101 72.0601 296.296 72.5186 296.296 73.1016C296.296 73.7666 296.083 74.2881 295.659 74.666C295.237 75.0439 294.654 75.2329 293.91 75.2329C293.186 75.2329 292.634 75.1172 292.253 74.8857V74.1826C292.458 74.3145 292.713 74.4185 293.018 74.4946C293.322 74.5679 293.623 74.6045 293.918 74.6045C294.434 74.6045 294.834 74.4829 295.118 74.2397C295.405 73.9966 295.549 73.645 295.549 73.1851C295.549 72.2886 295 71.8403 293.901 71.8403C293.623 71.8403 293.25 71.8828 292.785 71.9678L292.407 71.7261L292.648 68.7202H295.843V69.3926H293.272L293.11 71.3218C293.447 71.2544 293.782 71.2207 294.116 71.2207Z" fill="white"/>
<path d="M297.882 70.6362C297.882 71.1343 297.937 71.5078 298.045 71.7568C298.153 72.0059 298.329 72.1304 298.572 72.1304C299.053 72.1304 299.293 71.6323 299.293 70.6362C299.293 69.646 299.053 69.1509 298.572 69.1509C298.329 69.1509 298.153 69.2739 298.045 69.52C297.937 69.7661 297.882 70.1382 297.882 70.6362ZM299.895 70.6362C299.895 71.3042 299.782 71.8096 299.557 72.1523C299.334 72.4922 299.006 72.6621 298.572 72.6621C298.162 72.6621 297.843 72.4878 297.614 72.1392C297.389 71.7905 297.276 71.2896 297.276 70.6362C297.276 69.9712 297.384 69.4702 297.601 69.1333C297.821 68.7964 298.145 68.6279 298.572 68.6279C298.997 68.6279 299.324 68.8022 299.552 69.1509C299.781 69.4995 299.895 69.9946 299.895 70.6362ZM301.75 73.2114C301.75 73.7124 301.804 74.0874 301.912 74.3364C302.021 74.5825 302.198 74.7056 302.444 74.7056C302.69 74.7056 302.872 74.584 302.989 74.3408C303.106 74.0947 303.165 73.7183 303.165 73.2114C303.165 72.7104 303.106 72.3398 302.989 72.0996C302.872 71.8564 302.69 71.7349 302.444 71.7349C302.198 71.7349 302.021 71.8564 301.912 72.0996C301.804 72.3398 301.75 72.7104 301.75 73.2114ZM303.767 73.2114C303.767 73.8765 303.654 74.3804 303.428 74.7231C303.206 75.063 302.877 75.2329 302.444 75.2329C302.028 75.2329 301.707 75.0586 301.481 74.71C301.259 74.3613 301.147 73.8618 301.147 73.2114C301.147 72.5464 301.256 72.0454 301.473 71.7085C301.692 71.3716 302.016 71.2031 302.444 71.2031C302.86 71.2031 303.184 71.376 303.415 71.7217C303.649 72.0645 303.767 72.561 303.767 73.2114ZM302.633 68.7202L299.069 75.145H298.423L301.987 68.7202H302.633Z" fill="white"/>
<path d="M310.292 75.145L308.113 69.4497H308.078C308.119 69.9009 308.139 70.437 308.139 71.0581V75.145H307.449V68.7202H308.574L310.609 74.02H310.644L312.696 68.7202H313.812V75.145H313.065V71.0054C313.065 70.5308 313.086 70.0151 313.127 69.4585H313.092L310.895 75.145H310.292Z" fill="white"/>
<path d="M318.431 75.145L318.286 74.4595H318.251C318.011 74.7612 317.771 74.9663 317.53 75.0747C317.293 75.1802 316.996 75.2329 316.638 75.2329C316.161 75.2329 315.786 75.1099 315.513 74.8638C315.244 74.6177 315.109 74.2676 315.109 73.8135C315.109 72.8408 315.887 72.3311 317.442 72.2842L318.26 72.2578V71.959C318.26 71.5811 318.178 71.3027 318.014 71.124C317.853 70.9424 317.593 70.8516 317.236 70.8516C316.834 70.8516 316.38 70.9746 315.874 71.2207L315.649 70.6626C315.887 70.5337 316.146 70.4326 316.427 70.3594C316.711 70.2861 316.996 70.2495 317.28 70.2495C317.854 70.2495 318.279 70.377 318.554 70.6318C318.833 70.8867 318.972 71.2954 318.972 71.8579V75.145H318.431ZM316.783 74.6309C317.237 74.6309 317.593 74.5063 317.851 74.2573C318.112 74.0083 318.242 73.6597 318.242 73.2114V72.7764L317.513 72.8071C316.933 72.8276 316.514 72.9185 316.256 73.0796C316.001 73.2378 315.874 73.4854 315.874 73.8223C315.874 74.0859 315.953 74.2866 316.111 74.4243C316.272 74.562 316.496 74.6309 316.783 74.6309Z" fill="white"/>
<path d="M322.676 70.2407C322.89 70.2407 323.082 70.2583 323.252 70.2935L323.151 70.9702C322.952 70.9263 322.776 70.9043 322.624 70.9043C322.234 70.9043 321.9 71.0625 321.622 71.3789C321.346 71.6953 321.208 72.0894 321.208 72.561V75.145H320.479V70.3286H321.081L321.165 71.2207H321.2C321.378 70.9072 321.594 70.6655 321.846 70.4956C322.098 70.3257 322.375 70.2407 322.676 70.2407Z" fill="white"/>
<path d="M324.874 72.6797C325 72.501 325.191 72.2666 325.449 71.9766L327.005 70.3286H327.871L325.919 72.3809L328.007 75.145H327.124L325.423 72.8687L324.874 73.3433V75.145H324.153V68.3071H324.874V71.9326C324.874 72.0938 324.862 72.3428 324.838 72.6797H324.874Z" fill="white"/>
<path d="M330.916 75.2329C330.204 75.2329 329.642 75.0161 329.229 74.5825C328.818 74.1489 328.613 73.5469 328.613 72.7764C328.613 72 328.804 71.3833 329.185 70.9263C329.568 70.4692 330.083 70.2407 330.727 70.2407C331.331 70.2407 331.808 70.4399 332.16 70.8384C332.511 71.2339 332.687 71.7568 332.687 72.4072V72.8687H329.369C329.384 73.4341 329.526 73.8633 329.795 74.1562C330.068 74.4492 330.45 74.5957 330.942 74.5957C331.461 74.5957 331.974 74.4873 332.48 74.2705V74.9209C332.223 75.0322 331.978 75.1113 331.747 75.1582C331.518 75.208 331.241 75.2329 330.916 75.2329ZM330.718 70.8516C330.332 70.8516 330.022 70.9775 329.791 71.2295C329.562 71.4814 329.428 71.8301 329.387 72.2754H331.905C331.905 71.8154 331.802 71.4639 331.597 71.2207C331.392 70.9746 331.099 70.8516 330.718 70.8516Z" fill="white"/>
<path d="M335.491 74.6309C335.62 74.6309 335.744 74.6221 335.864 74.6045C335.984 74.584 336.08 74.5635 336.15 74.543V75.1011C336.071 75.1392 335.954 75.1699 335.798 75.1934C335.646 75.2197 335.508 75.2329 335.385 75.2329C334.454 75.2329 333.988 74.7422 333.988 73.7607V70.8955H333.298V70.5439L333.988 70.2407L334.295 69.2124H334.717V70.3286H336.115V70.8955H334.717V73.73C334.717 74.02 334.786 74.2427 334.924 74.3979C335.062 74.5532 335.25 74.6309 335.491 74.6309Z" fill="white"/>
<path d="M337.846 75.145H337.117V70.3286H337.846V75.145ZM337.055 69.0234C337.055 68.8564 337.096 68.7349 337.178 68.6587C337.26 68.5796 337.363 68.54 337.486 68.54C337.603 68.54 337.704 68.5796 337.789 68.6587C337.874 68.7378 337.917 68.8594 337.917 69.0234C337.917 69.1875 337.874 69.3105 337.789 69.3926C337.704 69.4717 337.603 69.5112 337.486 69.5112C337.363 69.5112 337.26 69.4717 337.178 69.3926C337.096 69.3105 337.055 69.1875 337.055 69.0234Z" fill="white"/>
<path d="M342.689 75.145V72.0293C342.689 71.6367 342.6 71.3438 342.421 71.1504C342.242 70.957 341.962 70.8604 341.582 70.8604C341.078 70.8604 340.708 70.9966 340.474 71.269C340.24 71.5415 340.123 71.9912 340.123 72.6182V75.145H339.393V70.3286H339.986L340.105 70.9878H340.14C340.29 70.7505 340.499 70.5674 340.769 70.4385C341.038 70.3066 341.338 70.2407 341.669 70.2407C342.25 70.2407 342.686 70.3813 342.979 70.6626C343.272 70.9409 343.418 71.3877 343.418 72.0029V75.145H342.689Z" fill="white"/>
<path d="M348.863 70.3286V70.79L347.971 70.8955C348.053 70.998 348.126 71.1328 348.191 71.2998C348.255 71.4639 348.288 71.6499 348.288 71.8579C348.288 72.3296 348.126 72.7061 347.804 72.9873C347.482 73.2686 347.04 73.4092 346.477 73.4092C346.333 73.4092 346.199 73.3975 346.073 73.374C345.762 73.5381 345.607 73.7446 345.607 73.9937C345.607 74.1255 345.661 74.2236 345.77 74.2881C345.878 74.3496 346.064 74.3804 346.328 74.3804H347.18C347.702 74.3804 348.102 74.4902 348.38 74.71C348.661 74.9297 348.802 75.249 348.802 75.668C348.802 76.2012 348.588 76.6069 348.16 76.8853C347.732 77.1665 347.108 77.3071 346.288 77.3071C345.658 77.3071 345.172 77.1899 344.829 76.9556C344.489 76.7212 344.319 76.3901 344.319 75.9624C344.319 75.6694 344.413 75.416 344.601 75.2021C344.788 74.9883 345.052 74.8433 345.392 74.7671C345.269 74.7114 345.165 74.625 345.08 74.5078C344.998 74.3906 344.957 74.2544 344.957 74.0991C344.957 73.9233 345.003 73.7695 345.097 73.6377C345.191 73.5059 345.339 73.3784 345.541 73.2554C345.292 73.1528 345.088 72.9785 344.93 72.7324C344.775 72.4863 344.697 72.2051 344.697 71.8887C344.697 71.3613 344.855 70.9556 345.172 70.6714C345.488 70.3843 345.937 70.2407 346.517 70.2407C346.769 70.2407 346.996 70.27 347.198 70.3286H348.863ZM345.022 75.9536C345.022 76.2144 345.132 76.4121 345.352 76.5469C345.572 76.6816 345.887 76.749 346.297 76.749C346.909 76.749 347.362 76.6567 347.655 76.4722C347.951 76.2905 348.099 76.043 348.099 75.7295C348.099 75.4688 348.018 75.2871 347.857 75.1846C347.696 75.085 347.393 75.0352 346.947 75.0352H346.073C345.742 75.0352 345.484 75.1143 345.299 75.2725C345.115 75.4307 345.022 75.6577 345.022 75.9536ZM345.418 71.8711C345.418 72.208 345.513 72.4629 345.704 72.6357C345.894 72.8086 346.159 72.895 346.499 72.895C347.211 72.895 347.567 72.5493 347.567 71.8579C347.567 71.1343 347.207 70.7725 346.486 70.7725C346.143 70.7725 345.879 70.8647 345.695 71.0493C345.51 71.2339 345.418 71.5078 345.418 71.8711Z" fill="white"/>
<path d="M57.5664 191.395C58.1523 191.395 58.6167 191.531 58.9595 191.804C59.3022 192.076 59.4736 192.453 59.4736 192.933C59.4736 193.25 59.3755 193.538 59.1792 193.799C58.9829 194.06 58.6694 194.297 58.2388 194.511C58.7603 194.76 59.1309 195.022 59.3506 195.297C59.5703 195.57 59.6802 195.886 59.6802 196.247C59.6802 196.78 59.4941 197.206 59.1221 197.525C58.75 197.842 58.2402 198 57.5928 198C56.9072 198 56.3799 197.851 56.0107 197.552C55.6416 197.25 55.457 196.824 55.457 196.273C55.457 195.538 55.9053 194.965 56.8018 194.555C56.3975 194.326 56.1074 194.08 55.9316 193.816C55.7559 193.55 55.668 193.252 55.668 192.924C55.668 192.458 55.8394 192.088 56.1821 191.812C56.5278 191.534 56.9893 191.395 57.5664 191.395ZM56.1777 196.291C56.1777 196.642 56.2993 196.916 56.5425 197.112C56.7886 197.309 57.1328 197.407 57.5752 197.407C58.0117 197.407 58.3516 197.304 58.5947 197.099C58.8379 196.894 58.9595 196.613 58.9595 196.255C58.9595 195.971 58.8452 195.719 58.6167 195.5C58.3882 195.277 57.9897 195.062 57.4214 194.854C56.9849 195.041 56.6685 195.249 56.4722 195.478C56.2759 195.703 56.1777 195.974 56.1777 196.291ZM57.5576 191.988C57.1914 191.988 56.9043 192.076 56.6963 192.252C56.4883 192.428 56.3843 192.662 56.3843 192.955C56.3843 193.225 56.4707 193.456 56.6436 193.649C56.8164 193.843 57.1357 194.036 57.6016 194.229C58.0205 194.054 58.3164 193.865 58.4893 193.663C58.665 193.46 58.7529 193.225 58.7529 192.955C58.7529 192.659 58.646 192.425 58.4321 192.252C58.2212 192.076 57.9297 191.988 57.5576 191.988Z" fill="white"/>
<path d="M64.8481 194.691C64.8481 195.801 64.6724 196.63 64.3208 197.178C63.9722 197.726 63.4375 198 62.7168 198C62.0254 198 61.4995 197.72 61.1392 197.161C60.7788 196.598 60.5986 195.775 60.5986 194.691C60.5986 193.572 60.7729 192.741 61.1216 192.199C61.4702 191.657 62.002 191.386 62.7168 191.386C63.4141 191.386 63.9429 191.669 64.3032 192.234C64.6665 192.8 64.8481 193.619 64.8481 194.691ZM61.3369 194.691C61.3369 195.625 61.4468 196.307 61.6665 196.734C61.8862 197.159 62.2363 197.372 62.7168 197.372C63.2031 197.372 63.5547 197.156 63.7715 196.726C63.9912 196.292 64.1011 195.614 64.1011 194.691C64.1011 193.768 63.9912 193.093 63.7715 192.665C63.5547 192.234 63.2031 192.019 62.7168 192.019C62.2363 192.019 61.8862 192.231 61.6665 192.656C61.4468 193.078 61.3369 193.756 61.3369 194.691Z" fill="white"/>
<path d="M66.3643 193.403C66.3643 193.901 66.4185 194.275 66.5269 194.524C66.6353 194.773 66.811 194.897 67.0542 194.897C67.5347 194.897 67.7749 194.399 67.7749 193.403C67.7749 192.413 67.5347 191.918 67.0542 191.918C66.811 191.918 66.6353 192.041 66.5269 192.287C66.4185 192.533 66.3643 192.905 66.3643 193.403ZM68.377 193.403C68.377 194.071 68.2642 194.577 68.0386 194.919C67.8159 195.259 67.4878 195.429 67.0542 195.429C66.644 195.429 66.3247 195.255 66.0962 194.906C65.8706 194.558 65.7578 194.057 65.7578 193.403C65.7578 192.738 65.8662 192.237 66.083 191.9C66.3027 191.563 66.6265 191.395 67.0542 191.395C67.479 191.395 67.8057 191.569 68.0342 191.918C68.2627 192.267 68.377 192.762 68.377 193.403ZM70.2314 195.979C70.2314 196.479 70.2856 196.854 70.394 197.104C70.5024 197.35 70.6797 197.473 70.9258 197.473C71.1719 197.473 71.3535 197.351 71.4707 197.108C71.5879 196.862 71.6465 196.485 71.6465 195.979C71.6465 195.478 71.5879 195.107 71.4707 194.867C71.3535 194.624 71.1719 194.502 70.9258 194.502C70.6797 194.502 70.5024 194.624 70.394 194.867C70.2856 195.107 70.2314 195.478 70.2314 195.979ZM72.2485 195.979C72.2485 196.644 72.1357 197.147 71.9102 197.49C71.6875 197.83 71.3594 198 70.9258 198C70.5098 198 70.189 197.826 69.9634 197.477C69.7407 197.128 69.6294 196.629 69.6294 195.979C69.6294 195.313 69.7378 194.812 69.9546 194.476C70.1743 194.139 70.498 193.97 70.9258 193.97C71.3418 193.97 71.6655 194.143 71.897 194.489C72.1313 194.832 72.2485 195.328 72.2485 195.979ZM71.1147 191.487L67.5508 197.912H66.9048L70.4688 191.487H71.1147Z" fill="white"/>
<path d="M55.8828 209.912V203.487H56.6299V209.235H59.4643V209.912H55.8828Z" fill="white"/>
<path d="M61.1787 209.912H60.4492V205.096H61.1787V209.912ZM60.3877 203.791C60.3877 203.624 60.4287 203.502 60.5107 203.426C60.5928 203.347 60.6953 203.307 60.8184 203.307C60.9355 203.307 61.0366 203.347 61.1216 203.426C61.2065 203.505 61.249 203.626 61.249 203.791C61.249 203.955 61.2065 204.078 61.1216 204.16C61.0366 204.239 60.9355 204.278 60.8184 204.278C60.6953 204.278 60.5928 204.239 60.5107 204.16C60.4287 204.078 60.3877 203.955 60.3877 203.791Z" fill="white"/>
<path d="M64.5444 209.389C65.0307 209.389 65.3852 209.259 65.6079 208.998C65.8306 208.737 65.9492 208.298 65.9639 207.68V207.517C65.9639 206.843 65.8496 206.358 65.6211 206.062C65.3926 205.767 65.0307 205.619 64.5356 205.619C64.1079 205.619 63.7798 205.786 63.5513 206.12C63.3257 206.451 63.2129 206.919 63.2129 207.526C63.2129 208.132 63.3242 208.595 63.5469 208.915C63.7724 209.231 64.105 209.389 64.5444 209.389ZM64.4346 210C63.8135 210 63.3286 209.782 62.98 209.345C62.6313 208.909 62.457 208.299 62.457 207.517C62.457 206.729 62.6328 206.114 62.9844 205.671C63.3359 205.229 63.8252 205.008 64.4521 205.008C65.1113 205.008 65.6182 205.257 65.9726 205.755H66.0122L66.1177 205.096H66.6933V212.074H65.9639V210.013C65.9639 209.72 65.98 209.471 66.0122 209.266H65.9551C65.6182 209.755 65.1113 210 64.4346 210Z" fill="white"/>
<path d="M68.9307 205.096V208.22C68.9307 208.613 69.02 208.906 69.1987 209.099C69.3774 209.292 69.6572 209.389 70.0381 209.389C70.542 209.389 70.9097 209.251 71.1411 208.976C71.3755 208.701 71.4927 208.251 71.4927 207.627V205.096H72.2222V209.912H71.6201L71.5146 209.266H71.4751C71.3257 209.503 71.1177 209.685 70.8511 209.811C70.5874 209.937 70.2856 210 69.9458 210C69.3599 210 68.9204 209.861 68.6274 209.583C68.3374 209.304 68.1924 208.859 68.1924 208.247V205.096H68.9307Z" fill="white"/>
<path d="M74.5029 209.912H73.7734V205.096H74.5029V209.912ZM73.7119 203.791C73.7119 203.624 73.7529 203.502 73.835 203.426C73.917 203.347 74.0195 203.307 74.1426 203.307C74.2598 203.307 74.3608 203.347 74.4458 203.426C74.5308 203.505 74.5732 203.626 74.5732 203.791C74.5732 203.955 74.5308 204.078 74.4458 204.16C74.3608 204.239 74.2598 204.278 74.1426 204.278C74.0195 204.278 73.917 204.239 73.835 204.16C73.7529 204.078 73.7119 203.955 73.7119 203.791Z" fill="white"/>
<path d="M79.3277 209.266H79.2881C78.9512 209.755 78.4474 210 77.7765 210C77.1466 210 76.6558 209.785 76.3043 209.354C75.9557 208.923 75.7812 208.311 75.7812 207.517C75.7812 206.723 75.957 206.106 76.3086 205.667C76.6601 205.228 77.1495 205.008 77.7765 205.008C78.4298 205.008 78.9308 205.245 79.2794 205.72H79.3364L79.3057 205.373L79.2881 205.034V203.074H80.0176V209.912H79.4243L79.3277 209.266ZM77.8687 209.389C78.3668 209.389 78.7271 209.254 78.9498 208.985C79.1754 208.712 79.2881 208.274 79.2881 207.671V207.517C79.2881 206.834 79.1739 206.348 78.9454 206.058C78.7198 205.765 78.3579 205.619 77.8599 205.619C77.4321 205.619 77.104 205.786 76.8755 206.12C76.6499 206.451 76.5371 206.919 76.5371 207.526C76.5371 208.141 76.6499 208.605 76.8755 208.919C77.1011 209.232 77.4322 209.389 77.8687 209.389Z" fill="white"/>
<path d="M82.2988 209.912H81.5693V205.096H82.2988V209.912ZM81.5078 203.791C81.5078 203.624 81.5488 203.502 81.6309 203.426C81.7129 203.347 81.8154 203.307 81.9385 203.307C82.0557 203.307 82.1567 203.347 82.2417 203.426C82.3267 203.505 82.3691 203.626 82.3691 203.791C82.3691 203.955 82.3267 204.078 82.2417 204.16C82.1567 204.239 82.0557 204.278 81.9385 204.278C81.8154 204.278 81.7129 204.239 81.6309 204.16C81.5488 204.078 81.5078 203.955 81.5078 203.791Z" fill="white"/>
<path d="M85.4019 209.398C85.5308 209.398 85.6553 209.389 85.7754 209.372C85.8955 209.351 85.9907 209.331 86.061 209.31V209.868C85.9819 209.906 85.8648 209.937 85.7095 209.96C85.5571 209.987 85.4194 210 85.2964 210C84.3648 210 83.8989 209.509 83.8989 208.528V205.663H83.209V205.311L83.8989 205.008L84.2066 203.979H84.6284V205.096H86.0259V205.663H84.6284V208.497C84.6284 208.787 84.6973 209.01 84.835 209.165C84.9727 209.32 85.1616 209.398 85.4019 209.398Z" fill="white"/>
<path d="M86.2627 205.096H87.0449L88.0996 207.842C88.3311 208.469 88.4746 208.922 88.5303 209.2H88.5654C88.6035 209.051 88.6826 208.796 88.8027 208.436C88.9258 208.072 89.3242 206.959 89.998 205.096H90.7803L88.7104 210.58C88.5054 211.122 88.2651 211.506 87.9897 211.731C87.7173 211.96 87.3818 212.074 86.9834 212.074C86.7607 212.074 86.541 212.049 86.3242 212V211.415C86.4854 211.45 86.6655 211.468 86.8647 211.468C87.3657 211.468 87.7231 211.187 87.937 210.624L88.2051 209.938L86.2627 205.096Z" fill="white"/>
<defs>
<linearGradient id="paint0_linear_189:1271" x1="144.111" y1="160.013" x2="230.418" y2="86.9111" gradientUnits="userSpaceOnUse">
<stop stop-color="#48F6F8"/>
<stop offset="1" stop-color="#31B1B3"/>
</linearGradient>
<linearGradient id="paint1_linear_189:1271" x1="144.111" y1="160.012" x2="230.418" y2="86.9102" gradientUnits="userSpaceOnUse">
<stop stop-color="#48F6F8"/>
<stop offset="1" stop-color="#7ADADF"/>
</linearGradient>
<linearGradient id="paint2_linear_189:1271" x1="144.111" y1="160.013" x2="230.418" y2="86.9107" gradientUnits="userSpaceOnUse">
<stop stop-color="#48F6F8"/>
<stop offset="1" stop-color="#90FEFF"/>
</linearGradient>
<linearGradient id="paint3_linear_189:1271" x1="125.791" y1="175.351" x2="248.546" y2="71.3772" gradientUnits="userSpaceOnUse">
<stop stop-color="#DA22FF"/>
<stop offset="1" stop-color="#9733EE"/>
</linearGradient>
</defs>
</svg>
