<svg width="503" height="285" viewBox="0 0 503 285" fill="none" xmlns="http://www.w3.org/2000/svg">
<g clip-path="url(#clip0_189:1172)">
<g filter="url(#filter0_i_189:1172)">
<path d="M272.435 158.929C267.954 173.554 258.402 186.108 245.49 194.342C232.578 202.575 217.151 205.949 201.973 203.859C186.795 201.769 172.859 194.351 162.662 182.936C152.466 171.52 146.676 156.853 146.33 141.563C145.984 126.273 151.105 111.36 160.775 99.4968C170.445 87.6336 184.032 79.5959 199.1 76.8242C214.168 74.0525 229.732 76.7282 243.003 84.3715C256.274 92.0148 266.384 104.126 271.521 118.535L210.783 140.111L272.435 158.929Z" fill="url(#paint0_linear_189:1172)"/>
<path d="M272.435 158.929C268.219 172.692 259.502 184.647 247.678 192.883C235.854 201.119 221.606 205.161 207.21 204.364C192.813 203.566 179.101 197.974 168.263 188.482C157.425 178.99 150.088 166.145 147.424 152.001C144.76 137.856 146.923 123.229 153.567 110.456C160.211 97.6832 170.953 87.5022 184.076 81.5401C197.199 75.578 211.946 74.1791 225.959 77.5668C239.972 80.9546 252.443 88.9335 261.379 100.228L210.783 140.111L272.435 158.929Z" fill="url(#paint1_linear_189:1172)"/>
<path d="M272.435 158.929C268.49 171.807 260.596 183.126 249.866 191.29C239.136 199.454 226.11 204.052 212.624 204.436C199.138 204.821 185.871 200.972 174.691 193.433C163.512 185.894 154.984 175.043 150.309 162.411C145.633 149.778 145.046 135.999 148.63 123.016C152.214 110.033 159.788 98.4989 170.286 90.0394C180.784 81.5798 193.676 76.6209 207.146 75.8611C220.616 75.1013 233.986 78.579 245.372 85.8043L210.783 140.111L272.435 158.929Z" fill="url(#paint2_linear_189:1172)"/>
<g filter="url(#filter1_d_189:1172)">
<path d="M291.558 164.702C296.99 146.973 296.414 127.951 289.919 110.581L210.804 140.054L291.558 164.702Z" fill="url(#paint3_linear_189:1172)"/>
</g>
<g filter="url(#filter2_d_189:1172)">
<path d="M298.362 166.765C293.317 183.233 283.72 197.947 270.674 209.215C257.628 220.483 241.662 227.849 224.61 230.466C207.559 233.083 190.113 230.846 174.278 224.011C158.443 217.176 144.861 206.021 135.093 191.827C125.324 177.633 119.765 160.976 119.055 143.77C118.344 126.564 122.511 109.507 131.076 94.5584C139.641 79.6101 152.257 67.3768 167.475 59.2642C182.693 51.1516 199.895 47.4887 217.104 48.6965L210.673 140L298.362 166.765Z" fill="url(#paint4_linear_189:1172)"/>
</g>
</g>
<ellipse cx="225.228" cy="85.9589" rx="3.63837" ry="3.63176" fill="white"/>
<ellipse cx="246.912" cy="97.58" rx="3.63836" ry="3.63176" fill="white"/>
<ellipse cx="258.7" cy="112.108" rx="3.63841" ry="3.63176" fill="white"/>
<ellipse cx="282.714" cy="136.514" rx="3.63837" ry="3.63176" fill="white"/>
<ellipse cx="164.539" cy="184.452" rx="3.63839" ry="3.63174" fill="white"/>
<path d="M225.228 85.9592L268.161 43.1045H319.826" stroke="white"/>
<path d="M246.912 97.5811L281.522 63.0068H323.172" stroke="white"/>
<path d="M282.714 137.239L314.947 157.723H353.736" stroke="white"/>
<path d="M164.539 184.453L129.73 221.933H87.8412" stroke="white"/>
<path d="M258.701 112.108L289.018 84.2158H325.502" stroke="white"/>
<path d="M326.557 45.5381H325.766V40.4502C325.766 40.027 325.779 39.6266 325.805 39.249C325.736 39.3174 325.66 39.389 325.575 39.4639C325.491 39.5387 325.103 39.8561 324.413 40.416L323.983 39.8594L325.873 38.3994H326.557V45.5381ZM334.008 41.959C334.008 43.1927 333.812 44.1139 333.422 44.7227C333.035 45.3314 332.44 45.6357 331.64 45.6357C330.871 45.6357 330.287 45.3249 329.887 44.7031C329.486 44.0781 329.286 43.1634 329.286 41.959C329.286 40.7155 329.48 39.7926 329.867 39.1904C330.255 38.5882 330.845 38.2871 331.64 38.2871C332.414 38.2871 333.002 38.6012 333.402 39.2295C333.806 39.8577 334.008 40.7676 334.008 41.959ZM330.106 41.959C330.106 42.9974 330.229 43.7542 330.473 44.2295C330.717 44.7015 331.106 44.9375 331.64 44.9375C332.18 44.9375 332.571 44.6982 332.812 44.2197C333.056 43.738 333.178 42.9844 333.178 41.959C333.178 40.9336 333.056 40.1833 332.812 39.708C332.571 39.2295 332.18 38.9902 331.64 38.9902C331.106 38.9902 330.717 39.2262 330.473 39.6982C330.229 40.167 330.106 40.9206 330.106 41.959ZM335.692 40.5283C335.692 41.0817 335.753 41.4967 335.873 41.7734C335.993 42.0501 336.189 42.1885 336.459 42.1885C336.993 42.1885 337.26 41.6351 337.26 40.5283C337.26 39.4281 336.993 38.8779 336.459 38.8779C336.189 38.8779 335.993 39.0146 335.873 39.2881C335.753 39.5615 335.692 39.9749 335.692 40.5283ZM337.929 40.5283C337.929 41.2705 337.803 41.832 337.553 42.2129C337.305 42.5905 336.941 42.7793 336.459 42.7793C336.003 42.7793 335.648 42.5856 335.395 42.1982C335.144 41.8109 335.019 41.2542 335.019 40.5283C335.019 39.7894 335.139 39.2327 335.38 38.8584C335.624 38.484 335.984 38.2969 336.459 38.2969C336.931 38.2969 337.294 38.4906 337.548 38.8779C337.802 39.2653 337.929 39.8154 337.929 40.5283ZM339.989 43.3896C339.989 43.9463 340.049 44.363 340.17 44.6396C340.29 44.9131 340.487 45.0498 340.761 45.0498C341.034 45.0498 341.236 44.9147 341.366 44.6445C341.496 44.3711 341.562 43.9528 341.562 43.3896C341.562 42.833 341.496 42.4212 341.366 42.1543C341.236 41.8841 341.034 41.749 340.761 41.749C340.487 41.749 340.29 41.8841 340.17 42.1543C340.049 42.4212 339.989 42.833 339.989 43.3896ZM342.23 43.3896C342.23 44.1286 342.105 44.6885 341.854 45.0693C341.607 45.4469 341.243 45.6357 340.761 45.6357C340.299 45.6357 339.942 45.4421 339.691 45.0547C339.444 44.6673 339.32 44.1123 339.32 43.3896C339.32 42.6507 339.441 42.0941 339.682 41.7197C339.926 41.3454 340.285 41.1582 340.761 41.1582C341.223 41.1582 341.583 41.3503 341.84 41.7344C342.1 42.1152 342.23 42.667 342.23 43.3896ZM340.971 38.3994L337.011 45.5381H336.293L340.253 38.3994H340.971ZM350.302 45.5381H346.322V38.3994H350.302V39.1367H347.152V41.4365H350.111V42.1689H347.152V44.7959H350.302V45.5381ZM352.938 45.5381L350.907 40.1865H351.776L352.929 43.3604C353.189 44.1025 353.342 44.5843 353.388 44.8057H353.427C353.463 44.6331 353.575 44.2767 353.764 43.7363C353.956 43.1927 354.384 42.0094 355.048 40.1865H355.917L353.886 45.5381H352.938ZM359.037 45.6357C358.246 45.6357 357.621 45.3949 357.162 44.9131C356.706 44.4313 356.479 43.7624 356.479 42.9062C356.479 42.0436 356.69 41.3584 357.113 40.8506C357.54 40.3428 358.111 40.0889 358.827 40.0889C359.498 40.0889 360.028 40.3102 360.419 40.7529C360.81 41.1924 361.005 41.7734 361.005 42.4961V43.0088H357.318C357.335 43.637 357.493 44.1139 357.792 44.4395C358.095 44.765 358.52 44.9277 359.066 44.9277C359.643 44.9277 360.212 44.8073 360.775 44.5664V45.2891C360.489 45.4128 360.217 45.5007 359.96 45.5527C359.706 45.6081 359.398 45.6357 359.037 45.6357ZM358.817 40.7676C358.388 40.7676 358.044 40.9076 357.787 41.1875C357.533 41.4674 357.383 41.8548 357.338 42.3496H360.136C360.136 41.8385 360.022 41.4479 359.794 41.1777C359.566 40.9043 359.241 40.7676 358.817 40.7676ZM364.833 40.0889C365.071 40.0889 365.284 40.1084 365.473 40.1475L365.36 40.8994C365.139 40.8506 364.944 40.8262 364.774 40.8262C364.341 40.8262 363.97 41.002 363.661 41.3535C363.355 41.7051 363.202 42.1429 363.202 42.667V45.5381H362.392V40.1865H363.061L363.153 41.1777H363.192C363.391 40.8294 363.63 40.5609 363.91 40.3721C364.19 40.1833 364.498 40.0889 364.833 40.0889ZM365.624 40.1865H366.493L367.665 43.2383C367.922 43.9349 368.082 44.4378 368.144 44.7471H368.183C368.225 44.5811 368.313 44.2979 368.446 43.8975C368.583 43.4938 369.026 42.2568 369.774 40.1865H370.644L368.344 46.2803C368.116 46.8825 367.849 47.3089 367.543 47.5596C367.24 47.8135 366.868 47.9404 366.425 47.9404C366.177 47.9404 365.933 47.9128 365.692 47.8574V47.208C365.871 47.2471 366.072 47.2666 366.293 47.2666C366.85 47.2666 367.247 46.9541 367.484 46.3291L367.782 45.5674L365.624 40.1865ZM375.155 44.8203H375.111C374.737 45.3639 374.177 45.6357 373.432 45.6357C372.732 45.6357 372.187 45.3965 371.796 44.918C371.409 44.4395 371.215 43.7591 371.215 42.877C371.215 41.9948 371.41 41.3096 371.801 40.8213C372.191 40.333 372.735 40.0889 373.432 40.0889C374.158 40.0889 374.714 40.3525 375.102 40.8799H375.165L375.131 40.4941L375.111 40.1182V37.9404H375.922V45.5381H375.263L375.155 44.8203ZM373.534 44.957C374.088 44.957 374.488 44.8073 374.735 44.5078C374.986 44.2051 375.111 43.7184 375.111 43.0479V42.877C375.111 42.1185 374.984 41.5781 374.73 41.2559C374.48 40.9303 374.078 40.7676 373.524 40.7676C373.049 40.7676 372.685 40.9531 372.431 41.3242C372.18 41.6921 372.055 42.2129 372.055 42.8867C372.055 43.5703 372.18 44.0863 372.431 44.4346C372.681 44.7829 373.049 44.957 373.534 44.957ZM380.937 45.5381L380.775 44.7764H380.736C380.469 45.1117 380.202 45.3395 379.936 45.46C379.672 45.5771 379.341 45.6357 378.944 45.6357C378.414 45.6357 377.997 45.499 377.694 45.2256C377.395 44.9521 377.245 44.5632 377.245 44.0586C377.245 42.9779 378.109 42.4115 379.838 42.3594L380.746 42.3301V41.998C380.746 41.5781 380.655 41.2689 380.473 41.0703C380.294 40.8685 380.006 40.7676 379.608 40.7676C379.162 40.7676 378.658 40.9043 378.095 41.1777L377.846 40.5576C378.109 40.4144 378.397 40.3021 378.71 40.2207C379.026 40.1393 379.341 40.0986 379.657 40.0986C380.295 40.0986 380.767 40.2402 381.073 40.5234C381.382 40.8066 381.537 41.2607 381.537 41.8857V45.5381H380.937ZM379.105 44.9668C379.61 44.9668 380.006 44.8285 380.292 44.5518C380.582 44.2751 380.727 43.8877 380.727 43.3896V42.9062L379.916 42.9404C379.271 42.9632 378.806 43.0641 378.52 43.2432C378.236 43.4189 378.095 43.694 378.095 44.0684C378.095 44.3613 378.183 44.5843 378.358 44.7373C378.537 44.8903 378.786 44.9668 379.105 44.9668ZM382.362 40.1865H383.231L384.403 43.2383C384.66 43.9349 384.82 44.4378 384.882 44.7471H384.921C384.963 44.5811 385.051 44.2979 385.185 43.8975C385.321 43.4938 385.764 42.2568 386.513 40.1865H387.382L385.082 46.2803C384.854 46.8825 384.587 47.3089 384.281 47.5596C383.979 47.8135 383.606 47.9404 383.163 47.9404C382.916 47.9404 382.672 47.9128 382.431 47.8574V47.208C382.61 47.2471 382.81 47.2666 383.031 47.2666C383.588 47.2666 383.985 46.9541 384.223 46.3291L384.521 45.5674L382.362 40.1865ZM391.659 45.5381H390.849V37.9404H391.659V45.5381ZM397.997 42.8574C397.997 43.7298 397.777 44.4118 397.338 44.9033C396.898 45.3916 396.291 45.6357 395.517 45.6357C395.038 45.6357 394.613 45.5234 394.242 45.2988C393.871 45.0742 393.585 44.752 393.383 44.332C393.181 43.9121 393.08 43.4206 393.08 42.8574C393.08 41.985 393.298 41.3063 393.734 40.8213C394.171 40.333 394.776 40.0889 395.551 40.0889C396.299 40.0889 396.894 40.3379 397.333 40.8359C397.776 41.334 397.997 42.0078 397.997 42.8574ZM393.92 42.8574C393.92 43.541 394.057 44.0618 394.33 44.4199C394.604 44.778 395.006 44.957 395.536 44.957C396.067 44.957 396.469 44.7796 396.742 44.4248C397.019 44.0667 397.157 43.5443 397.157 42.8574C397.157 42.1771 397.019 41.6611 396.742 41.3096C396.469 40.9548 396.063 40.7773 395.526 40.7773C394.996 40.7773 394.595 40.9515 394.325 41.2998C394.055 41.6481 393.92 42.1673 393.92 42.8574ZM401.151 44.9668C401.295 44.9668 401.433 44.957 401.566 44.9375C401.7 44.9147 401.806 44.8919 401.884 44.8691V45.4893C401.796 45.5316 401.666 45.5658 401.493 45.5918C401.324 45.6211 401.171 45.6357 401.034 45.6357C399.999 45.6357 399.481 45.0905 399.481 44V40.8164H398.715V40.4258L399.481 40.0889L399.823 38.9463H400.292V40.1865H401.845V40.8164H400.292V43.9658C400.292 44.2881 400.368 44.5355 400.521 44.708C400.674 44.8805 400.884 44.9668 401.151 44.9668ZM404.687 44.9668C404.83 44.9668 404.968 44.957 405.102 44.9375C405.235 44.9147 405.341 44.8919 405.419 44.8691V45.4893C405.331 45.5316 405.201 45.5658 405.028 45.5918C404.859 45.6211 404.706 45.6357 404.569 45.6357C403.534 45.6357 403.017 45.0905 403.017 44V40.8164H402.25V40.4258L403.017 40.0889L403.358 38.9463H403.827V40.1865H405.38V40.8164H403.827V43.9658C403.827 44.2881 403.904 44.5355 404.057 44.708C404.21 44.8805 404.42 44.9668 404.687 44.9668ZM408.754 45.6357C407.963 45.6357 407.338 45.3949 406.879 44.9131C406.423 44.4313 406.195 43.7624 406.195 42.9062C406.195 42.0436 406.407 41.3584 406.83 40.8506C407.257 40.3428 407.828 40.0889 408.544 40.0889C409.215 40.0889 409.745 40.3102 410.136 40.7529C410.526 41.1924 410.722 41.7734 410.722 42.4961V43.0088H407.035C407.051 43.637 407.209 44.1139 407.509 44.4395C407.812 44.765 408.236 44.9277 408.783 44.9277C409.359 44.9277 409.929 44.8073 410.492 44.5664V45.2891C410.206 45.4128 409.934 45.5007 409.677 45.5527C409.423 45.6081 409.115 45.6357 408.754 45.6357ZM408.534 40.7676C408.104 40.7676 407.761 40.9076 407.504 41.1875C407.25 41.4674 407.1 41.8548 407.055 42.3496H409.853C409.853 41.8385 409.739 41.4479 409.511 41.1777C409.283 40.9043 408.957 40.7676 408.534 40.7676ZM414.55 40.0889C414.787 40.0889 415.001 40.1084 415.189 40.1475L415.077 40.8994C414.856 40.8506 414.66 40.8262 414.491 40.8262C414.058 40.8262 413.687 41.002 413.378 41.3535C413.072 41.7051 412.919 42.1429 412.919 42.667V45.5381H412.108V40.1865H412.777L412.87 41.1777H412.909C413.108 40.8294 413.347 40.5609 413.627 40.3721C413.907 40.1833 414.215 40.0889 414.55 40.0889ZM415.341 40.1865H416.21L417.382 43.2383C417.639 43.9349 417.799 44.4378 417.86 44.7471H417.899C417.942 44.5811 418.03 44.2979 418.163 43.8975C418.3 43.4938 418.743 42.2568 419.491 40.1865H420.36L418.061 46.2803C417.833 46.8825 417.566 47.3089 417.26 47.5596C416.957 47.8135 416.584 47.9404 416.142 47.9404C415.894 47.9404 415.65 47.9128 415.409 47.8574V47.208C415.588 47.2471 415.788 47.2666 416.01 47.2666C416.566 47.2666 416.964 46.9541 417.201 46.3291L417.499 45.5674L415.341 40.1865ZM427.118 45.5381L426.957 44.7764H426.918C426.651 45.1117 426.384 45.3395 426.117 45.46C425.854 45.5771 425.523 45.6357 425.126 45.6357C424.595 45.6357 424.179 45.499 423.876 45.2256C423.576 44.9521 423.427 44.5632 423.427 44.0586C423.427 42.9779 424.291 42.4115 426.02 42.3594L426.928 42.3301V41.998C426.928 41.5781 426.837 41.2689 426.654 41.0703C426.475 40.8685 426.187 40.7676 425.79 40.7676C425.344 40.7676 424.84 40.9043 424.276 41.1777L424.027 40.5576C424.291 40.4144 424.579 40.3021 424.892 40.2207C425.207 40.1393 425.523 40.0986 425.839 40.0986C426.477 40.0986 426.949 40.2402 427.255 40.5234C427.564 40.8066 427.719 41.2607 427.719 41.8857V45.5381H427.118ZM425.287 44.9668C425.792 44.9668 426.187 44.8285 426.474 44.5518C426.763 44.2751 426.908 43.8877 426.908 43.3896V42.9062L426.098 42.9404C425.453 42.9632 424.988 43.0641 424.701 43.2432C424.418 43.4189 424.276 43.694 424.276 44.0684C424.276 44.3613 424.364 44.5843 424.54 44.7373C424.719 44.8903 424.968 44.9668 425.287 44.9668ZM433.056 45.5381V42.0762C433.056 41.64 432.956 41.3145 432.758 41.0996C432.559 40.8848 432.248 40.7773 431.825 40.7773C431.265 40.7773 430.855 40.9287 430.595 41.2314C430.334 41.5342 430.204 42.0339 430.204 42.7305V45.5381H429.394V40.1865H430.053L430.185 40.9189H430.224C430.39 40.6553 430.622 40.4518 430.922 40.3086C431.221 40.1621 431.555 40.0889 431.923 40.0889C432.567 40.0889 433.052 40.2451 433.378 40.5576C433.703 40.8669 433.866 41.3633 433.866 42.0469V45.5381H433.056ZM439.179 44.8203H439.135C438.76 45.3639 438.201 45.6357 437.455 45.6357C436.755 45.6357 436.21 45.3965 435.819 44.918C435.432 44.4395 435.238 43.7591 435.238 42.877C435.238 41.9948 435.434 41.3096 435.824 40.8213C436.215 40.333 436.758 40.0889 437.455 40.0889C438.181 40.0889 438.738 40.3525 439.125 40.8799H439.188L439.154 40.4941L439.135 40.1182V37.9404H439.945V45.5381H439.286L439.179 44.8203ZM437.558 44.957C438.111 44.957 438.511 44.8073 438.759 44.5078C439.009 44.2051 439.135 43.7184 439.135 43.0479V42.877C439.135 42.1185 439.008 41.5781 438.754 41.2559C438.503 40.9303 438.101 40.7676 437.548 40.7676C437.073 40.7676 436.708 40.9531 436.454 41.3242C436.203 41.6921 436.078 42.2129 436.078 42.8867C436.078 43.5703 436.203 44.0863 436.454 44.4346C436.705 44.7829 437.073 44.957 437.558 44.957ZM446.757 40.0986C447.46 40.0986 448.005 40.3395 448.393 40.8213C448.783 41.2998 448.979 41.9785 448.979 42.8574C448.979 43.7363 448.782 44.4199 448.388 44.9082C447.997 45.3932 447.453 45.6357 446.757 45.6357C446.409 45.6357 446.09 45.5723 445.8 45.4453C445.513 45.3151 445.272 45.1165 445.077 44.8496H445.019L444.848 45.5381H444.267V37.9404H445.077V39.7861C445.077 40.1995 445.064 40.5706 445.038 40.8994H445.077C445.455 40.3656 446.015 40.0986 446.757 40.0986ZM446.64 40.7773C446.086 40.7773 445.688 40.9368 445.443 41.2559C445.199 41.5716 445.077 42.1055 445.077 42.8574C445.077 43.6094 445.202 44.1481 445.453 44.4736C445.704 44.7959 446.106 44.957 446.659 44.957C447.157 44.957 447.528 44.7764 447.772 44.415C448.017 44.0505 448.139 43.528 448.139 42.8477C448.139 42.151 448.017 41.6318 447.772 41.29C447.528 40.9482 447.151 40.7773 446.64 40.7773ZM451.161 40.1865V43.6582C451.161 44.0944 451.26 44.4199 451.459 44.6348C451.658 44.8496 451.968 44.957 452.392 44.957C452.951 44.957 453.36 44.804 453.617 44.498C453.878 44.1921 454.008 43.6924 454.008 42.999V40.1865H454.818V45.5381H454.149L454.032 44.8203H453.988C453.822 45.084 453.591 45.2858 453.295 45.4258C453.002 45.5658 452.667 45.6357 452.289 45.6357C451.638 45.6357 451.15 45.4811 450.824 45.1719C450.502 44.8626 450.341 44.3678 450.341 43.6875V40.1865H451.161ZM458.983 40.0889C459.221 40.0889 459.434 40.1084 459.623 40.1475L459.511 40.8994C459.289 40.8506 459.094 40.8262 458.925 40.8262C458.492 40.8262 458.121 41.002 457.812 41.3535C457.506 41.7051 457.353 42.1429 457.353 42.667V45.5381H456.542V40.1865H457.211L457.304 41.1777H457.343C457.541 40.8294 457.781 40.5609 458.061 40.3721C458.34 40.1833 458.648 40.0889 458.983 40.0889ZM464.286 45.5381V42.0762C464.286 41.64 464.187 41.3145 463.988 41.0996C463.79 40.8848 463.479 40.7773 463.056 40.7773C462.496 40.7773 462.086 40.9287 461.825 41.2314C461.565 41.5342 461.435 42.0339 461.435 42.7305V45.5381H460.624V40.1865H461.283L461.415 40.9189H461.454C461.62 40.6553 461.853 40.4518 462.152 40.3086C462.452 40.1621 462.785 40.0889 463.153 40.0889C463.798 40.0889 464.283 40.2451 464.608 40.5576C464.934 40.8669 465.097 41.3633 465.097 42.0469V45.5381H464.286ZM467.577 45.5381H466.767V40.1865H467.577V45.5381ZM466.698 38.7363C466.698 38.5508 466.744 38.4157 466.835 38.3311C466.926 38.2432 467.04 38.1992 467.177 38.1992C467.307 38.1992 467.419 38.2432 467.514 38.3311C467.608 38.4189 467.655 38.554 467.655 38.7363C467.655 38.9186 467.608 39.0553 467.514 39.1465C467.419 39.2344 467.307 39.2783 467.177 39.2783C467.04 39.2783 466.926 39.2344 466.835 39.1465C466.744 39.0553 466.698 38.9186 466.698 38.7363ZM472.958 45.5381V42.0762C472.958 41.64 472.859 41.3145 472.66 41.0996C472.462 40.8848 472.151 40.7773 471.728 40.7773C471.168 40.7773 470.757 40.9287 470.497 41.2314C470.237 41.5342 470.106 42.0339 470.106 42.7305V45.5381H469.296V40.1865H469.955L470.087 40.9189H470.126C470.292 40.6553 470.525 40.4518 470.824 40.3086C471.124 40.1621 471.457 40.0889 471.825 40.0889C472.47 40.0889 472.955 40.2451 473.28 40.5576C473.606 40.8669 473.769 41.3633 473.769 42.0469V45.5381H472.958ZM479.818 40.1865V40.6992L478.827 40.8164C478.918 40.9303 479 41.0801 479.071 41.2656C479.143 41.4479 479.179 41.6546 479.179 41.8857C479.179 42.4098 479 42.8281 478.642 43.1406C478.284 43.4531 477.792 43.6094 477.167 43.6094C477.007 43.6094 476.858 43.5964 476.718 43.5703C476.373 43.7526 476.2 43.9821 476.2 44.2588C476.2 44.4053 476.26 44.5143 476.381 44.5859C476.501 44.6543 476.708 44.6885 477.001 44.6885H477.948C478.528 44.6885 478.972 44.8105 479.281 45.0547C479.594 45.2988 479.75 45.6536 479.75 46.1191C479.75 46.7116 479.512 47.1624 479.037 47.4717C478.562 47.7842 477.868 47.9404 476.957 47.9404C476.257 47.9404 475.717 47.8102 475.336 47.5498C474.958 47.2894 474.77 46.9215 474.77 46.4463C474.77 46.1208 474.874 45.8392 475.082 45.6016C475.29 45.3639 475.583 45.2028 475.961 45.1182C475.824 45.0563 475.709 44.9603 475.614 44.8301C475.523 44.6999 475.478 44.5485 475.478 44.376C475.478 44.1807 475.53 44.0098 475.634 43.8633C475.738 43.7168 475.902 43.5752 476.127 43.4385C475.85 43.3245 475.624 43.1309 475.448 42.8574C475.276 42.584 475.189 42.2715 475.189 41.9199C475.189 41.334 475.365 40.8831 475.717 40.5674C476.068 40.2484 476.566 40.0889 477.211 40.0889C477.491 40.0889 477.743 40.1214 477.968 40.1865H479.818ZM475.551 46.4365C475.551 46.7262 475.673 46.946 475.917 47.0957C476.161 47.2454 476.511 47.3203 476.967 47.3203C477.647 47.3203 478.15 47.2178 478.476 47.0127C478.804 46.8109 478.969 46.5358 478.969 46.1875C478.969 45.8978 478.879 45.696 478.7 45.582C478.521 45.4714 478.184 45.416 477.689 45.416H476.718C476.35 45.416 476.063 45.5039 475.858 45.6797C475.653 45.8555 475.551 46.1077 475.551 46.4365ZM475.99 41.9004C475.99 42.2747 476.096 42.5579 476.308 42.75C476.519 42.9421 476.814 43.0381 477.191 43.0381C477.982 43.0381 478.378 42.654 478.378 41.8857C478.378 41.0817 477.978 40.6797 477.177 40.6797C476.796 40.6797 476.503 40.7822 476.298 40.9873C476.093 41.1924 475.99 41.4967 475.99 41.9004Z" fill="white"/>
<path d="M331.604 62.2695C332.355 62.2695 332.946 62.4567 333.376 62.8311C333.809 63.2021 334.025 63.7116 334.025 64.3594C334.025 65.0983 333.789 65.6777 333.317 66.0977C332.849 66.5176 332.201 66.7275 331.374 66.7275C330.57 66.7275 329.956 66.599 329.533 66.3418V65.5605C329.761 65.707 330.044 65.8226 330.383 65.9072C330.721 65.9886 331.055 66.0293 331.384 66.0293C331.957 66.0293 332.401 65.8942 332.717 65.624C333.036 65.3538 333.195 64.9632 333.195 64.4521C333.195 63.4561 332.585 62.958 331.364 62.958C331.055 62.958 330.642 63.0052 330.124 63.0996L329.704 62.8311L329.973 59.4912H333.522V60.2383H330.666L330.485 62.3818C330.86 62.307 331.232 62.2695 331.604 62.2695ZM335.788 61.6201C335.788 62.1735 335.848 62.5885 335.969 62.8652C336.089 63.1419 336.285 63.2803 336.555 63.2803C337.089 63.2803 337.355 62.7269 337.355 61.6201C337.355 60.5199 337.089 59.9697 336.555 59.9697C336.285 59.9697 336.089 60.1064 335.969 60.3799C335.848 60.6533 335.788 61.0667 335.788 61.6201ZM338.024 61.6201C338.024 62.3623 337.899 62.9238 337.648 63.3047C337.401 63.6823 337.036 63.8711 336.555 63.8711C336.099 63.8711 335.744 63.6774 335.49 63.29C335.24 62.9027 335.114 62.346 335.114 61.6201C335.114 60.8812 335.235 60.3245 335.476 59.9502C335.72 59.5758 336.079 59.3887 336.555 59.3887C337.027 59.3887 337.39 59.5824 337.644 59.9697C337.897 60.3571 338.024 60.9072 338.024 61.6201ZM340.085 64.4814C340.085 65.0381 340.145 65.4548 340.266 65.7314C340.386 66.0049 340.583 66.1416 340.856 66.1416C341.13 66.1416 341.332 66.0065 341.462 65.7363C341.592 65.4629 341.657 65.0446 341.657 64.4814C341.657 63.9248 341.592 63.513 341.462 63.2461C341.332 62.9759 341.13 62.8408 340.856 62.8408C340.583 62.8408 340.386 62.9759 340.266 63.2461C340.145 63.513 340.085 63.9248 340.085 64.4814ZM342.326 64.4814C342.326 65.2204 342.201 65.7803 341.95 66.1611C341.703 66.5387 341.338 66.7275 340.856 66.7275C340.394 66.7275 340.038 66.5339 339.787 66.1465C339.54 65.7591 339.416 65.2041 339.416 64.4814C339.416 63.7425 339.536 63.1859 339.777 62.8115C340.021 62.4372 340.381 62.25 340.856 62.25C341.319 62.25 341.678 62.4421 341.936 62.8262C342.196 63.207 342.326 63.7588 342.326 64.4814ZM341.066 59.4912L337.106 66.6299H336.389L340.349 59.4912H341.066ZM349.475 60.1309C348.69 60.1309 348.07 60.3929 347.614 60.917C347.162 61.4378 346.936 62.1523 346.936 63.0605C346.936 63.9948 347.154 64.7174 347.59 65.2285C348.029 65.7363 348.654 65.9902 349.465 65.9902C349.963 65.9902 350.531 65.9007 351.169 65.7217V66.4492C350.674 66.6348 350.064 66.7275 349.338 66.7275C348.286 66.7275 347.474 66.4085 346.901 65.7705C346.332 65.1325 346.047 64.2259 346.047 63.0508C346.047 62.3151 346.184 61.6706 346.457 61.1172C346.734 60.5638 347.131 60.1374 347.648 59.8379C348.169 59.5384 348.781 59.3887 349.484 59.3887C350.233 59.3887 350.887 59.5254 351.447 59.7988L351.096 60.5117C350.555 60.2578 350.015 60.1309 349.475 60.1309ZM357.224 63.9492C357.224 64.8216 357.004 65.5036 356.564 65.9951C356.125 66.4834 355.518 66.7275 354.743 66.7275C354.265 66.7275 353.84 66.6152 353.469 66.3906C353.098 66.166 352.811 65.8438 352.609 65.4238C352.408 65.0039 352.307 64.5124 352.307 63.9492C352.307 63.0768 352.525 62.3981 352.961 61.9131C353.397 61.4248 354.003 61.1807 354.777 61.1807C355.526 61.1807 356.12 61.4297 356.56 61.9277C357.002 62.4258 357.224 63.0996 357.224 63.9492ZM353.146 63.9492C353.146 64.6328 353.283 65.1536 353.557 65.5117C353.83 65.8698 354.232 66.0488 354.763 66.0488C355.293 66.0488 355.695 65.8714 355.969 65.5166C356.245 65.1585 356.384 64.6361 356.384 63.9492C356.384 63.2689 356.245 62.7529 355.969 62.4014C355.695 62.0465 355.29 61.8691 354.753 61.8691C354.222 61.8691 353.822 62.0433 353.552 62.3916C353.282 62.7399 353.146 63.2591 353.146 63.9492ZM362.312 66.6299V63.168C362.312 62.7318 362.212 62.4062 362.014 62.1914C361.815 61.9766 361.504 61.8691 361.081 61.8691C360.521 61.8691 360.111 62.0205 359.851 62.3232C359.59 62.626 359.46 63.1257 359.46 63.8223V66.6299H358.649V61.2783H359.309L359.44 62.0107H359.479C359.646 61.7471 359.878 61.5436 360.178 61.4004C360.477 61.2539 360.811 61.1807 361.179 61.1807C361.823 61.1807 362.308 61.3369 362.634 61.6494C362.959 61.9587 363.122 62.4551 363.122 63.1387V66.6299H362.312ZM366.521 66.0586C366.664 66.0586 366.802 66.0488 366.936 66.0293C367.069 66.0065 367.175 65.9837 367.253 65.9609V66.5811C367.165 66.6234 367.035 66.6576 366.862 66.6836C366.693 66.7129 366.54 66.7275 366.403 66.7275C365.368 66.7275 364.851 66.1823 364.851 65.0918V61.9082H364.084V61.5176L364.851 61.1807L365.192 60.0381H365.661V61.2783H367.214V61.9082H365.661V65.0576C365.661 65.3799 365.738 65.6273 365.891 65.7998C366.044 65.9723 366.254 66.0586 366.521 66.0586ZM370.588 66.7275C369.797 66.7275 369.172 66.4867 368.713 66.0049C368.257 65.5231 368.029 64.8542 368.029 63.998C368.029 63.1354 368.241 62.4502 368.664 61.9424C369.09 61.4346 369.662 61.1807 370.378 61.1807C371.049 61.1807 371.579 61.402 371.97 61.8447C372.36 62.2842 372.556 62.8652 372.556 63.5879V64.1006H368.869C368.885 64.7288 369.043 65.2057 369.343 65.5312C369.646 65.8568 370.07 66.0195 370.617 66.0195C371.193 66.0195 371.763 65.8991 372.326 65.6582V66.3809C372.04 66.5046 371.768 66.5924 371.511 66.6445C371.257 66.6999 370.949 66.7275 370.588 66.7275ZM370.368 61.8594C369.938 61.8594 369.595 61.9993 369.338 62.2793C369.084 62.5592 368.934 62.9466 368.889 63.4414H371.687C371.687 62.9303 371.573 62.5397 371.345 62.2695C371.117 61.9961 370.791 61.8594 370.368 61.8594ZM377.395 65.1699C377.395 65.668 377.209 66.0521 376.838 66.3223C376.467 66.5924 375.946 66.7275 375.275 66.7275C374.566 66.7275 374.012 66.6152 373.615 66.3906V65.6387C373.872 65.7689 374.147 65.8714 374.44 65.9463C374.737 66.0212 375.021 66.0586 375.295 66.0586C375.718 66.0586 376.044 65.9919 376.271 65.8584C376.499 65.7217 376.613 65.515 376.613 65.2383C376.613 65.0299 376.522 64.8525 376.34 64.7061C376.161 64.5563 375.809 64.3805 375.285 64.1787C374.787 63.9932 374.432 63.832 374.221 63.6953C374.012 63.5553 373.856 63.3975 373.752 63.2217C373.651 63.0459 373.601 62.8359 373.601 62.5918C373.601 62.1556 373.778 61.8122 374.133 61.5615C374.488 61.3076 374.974 61.1807 375.593 61.1807C376.169 61.1807 376.732 61.2979 377.282 61.5322L376.994 62.1914C376.457 61.9701 375.97 61.8594 375.534 61.8594C375.15 61.8594 374.86 61.9196 374.665 62.04C374.47 62.1605 374.372 62.3265 374.372 62.5381C374.372 62.6813 374.408 62.8034 374.479 62.9043C374.554 63.0052 374.673 63.1012 374.836 63.1924C374.999 63.2835 375.311 63.4154 375.773 63.5879C376.408 63.819 376.836 64.0518 377.058 64.2861C377.282 64.5205 377.395 64.8151 377.395 65.1699ZM380.446 66.0586C380.59 66.0586 380.728 66.0488 380.861 66.0293C380.995 66.0065 381.101 65.9837 381.179 65.9609V66.5811C381.091 66.6234 380.961 66.6576 380.788 66.6836C380.619 66.7129 380.466 66.7275 380.329 66.7275C379.294 66.7275 378.776 66.1823 378.776 65.0918V61.9082H378.01V61.5176L378.776 61.1807L379.118 60.0381H379.587V61.2783H381.14V61.9082H379.587V65.0576C379.587 65.3799 379.663 65.6273 379.816 65.7998C379.969 65.9723 380.179 66.0586 380.446 66.0586ZM385.705 65.1699C385.705 65.668 385.52 66.0521 385.148 66.3223C384.777 66.5924 384.257 66.7275 383.586 66.7275C382.876 66.7275 382.323 66.6152 381.926 66.3906V65.6387C382.183 65.7689 382.458 65.8714 382.751 65.9463C383.047 66.0212 383.332 66.0586 383.605 66.0586C384.029 66.0586 384.354 65.9919 384.582 65.8584C384.81 65.7217 384.924 65.515 384.924 65.2383C384.924 65.0299 384.833 64.8525 384.65 64.7061C384.471 64.5563 384.12 64.3805 383.596 64.1787C383.098 63.9932 382.743 63.832 382.531 63.6953C382.323 63.5553 382.167 63.3975 382.062 63.2217C381.962 63.0459 381.911 62.8359 381.911 62.5918C381.911 62.1556 382.089 61.8122 382.443 61.5615C382.798 61.3076 383.285 61.1807 383.903 61.1807C384.479 61.1807 385.043 61.2979 385.593 61.5322L385.305 62.1914C384.768 61.9701 384.281 61.8594 383.845 61.8594C383.461 61.8594 383.171 61.9196 382.976 62.04C382.78 62.1605 382.683 62.3265 382.683 62.5381C382.683 62.6813 382.718 62.8034 382.79 62.9043C382.865 63.0052 382.984 63.1012 383.146 63.1924C383.309 63.2835 383.622 63.4154 384.084 63.5879C384.719 63.819 385.147 64.0518 385.368 64.2861C385.593 64.5205 385.705 64.8151 385.705 65.1699Z" fill="white"/>
<path d="M332.522 81.5283C333.274 81.5283 333.865 81.7155 334.295 82.0898C334.728 82.4609 334.944 82.9704 334.944 83.6182C334.944 84.3571 334.708 84.9365 334.236 85.3564C333.768 85.7764 333.12 85.9863 332.293 85.9863C331.489 85.9863 330.875 85.8577 330.452 85.6006V84.8193C330.68 84.9658 330.963 85.0814 331.302 85.166C331.64 85.2474 331.974 85.2881 332.303 85.2881C332.876 85.2881 333.32 85.153 333.636 84.8828C333.955 84.6126 334.114 84.222 334.114 83.7109C334.114 82.7148 333.504 82.2168 332.283 82.2168C331.974 82.2168 331.561 82.264 331.043 82.3584L330.623 82.0898L330.892 78.75H334.441V79.4971H331.585L331.404 81.6406C331.779 81.5658 332.151 81.5283 332.522 81.5283ZM336.707 80.8789C336.707 81.4323 336.767 81.8473 336.888 82.124C337.008 82.4007 337.203 82.5391 337.474 82.5391C338.007 82.5391 338.274 81.9857 338.274 80.8789C338.274 79.7786 338.007 79.2285 337.474 79.2285C337.203 79.2285 337.008 79.3652 336.888 79.6387C336.767 79.9121 336.707 80.3255 336.707 80.8789ZM338.943 80.8789C338.943 81.6211 338.818 82.1826 338.567 82.5635C338.32 82.9411 337.955 83.1299 337.474 83.1299C337.018 83.1299 336.663 82.9362 336.409 82.5488C336.159 82.1615 336.033 81.6048 336.033 80.8789C336.033 80.14 336.154 79.5833 336.395 79.209C336.639 78.8346 336.998 78.6475 337.474 78.6475C337.946 78.6475 338.309 78.8411 338.562 79.2285C338.816 79.6159 338.943 80.166 338.943 80.8789ZM341.004 83.7402C341.004 84.2969 341.064 84.7135 341.185 84.9902C341.305 85.2637 341.502 85.4004 341.775 85.4004C342.049 85.4004 342.251 85.2653 342.381 84.9951C342.511 84.7217 342.576 84.3034 342.576 83.7402C342.576 83.1836 342.511 82.7718 342.381 82.5049C342.251 82.2347 342.049 82.0996 341.775 82.0996C341.502 82.0996 341.305 82.2347 341.185 82.5049C341.064 82.7718 341.004 83.1836 341.004 83.7402ZM343.245 83.7402C343.245 84.4792 343.12 85.0391 342.869 85.4199C342.622 85.7975 342.257 85.9863 341.775 85.9863C341.313 85.9863 340.957 85.7926 340.706 85.4053C340.459 85.0179 340.335 84.4629 340.335 83.7402C340.335 83.0013 340.455 82.4447 340.696 82.0703C340.94 81.696 341.3 81.5088 341.775 81.5088C342.238 81.5088 342.597 81.7008 342.854 82.085C343.115 82.4658 343.245 83.0176 343.245 83.7402ZM341.985 78.75L338.025 85.8887H337.308L341.268 78.75H341.985ZM350.496 85.8887L348.074 79.5605H348.035C348.081 80.0618 348.104 80.6576 348.104 81.3477V85.8887H347.337V78.75H348.587L350.848 84.6387H350.887L353.167 78.75H354.407V85.8887H353.577V81.2891C353.577 80.7617 353.6 80.1888 353.646 79.5703H353.606L351.165 85.8887H350.496ZM359.539 85.8887L359.378 85.127H359.339C359.072 85.4622 358.805 85.6901 358.538 85.8105C358.274 85.9277 357.944 85.9863 357.547 85.9863C357.016 85.9863 356.6 85.8496 356.297 85.5762C355.997 85.3027 355.848 84.9137 355.848 84.4092C355.848 83.3285 356.712 82.762 358.44 82.71L359.349 82.6807V82.3486C359.349 81.9287 359.257 81.6195 359.075 81.4209C358.896 81.2191 358.608 81.1182 358.211 81.1182C357.765 81.1182 357.26 81.2549 356.697 81.5283L356.448 80.9082C356.712 80.765 357 80.6527 357.312 80.5713C357.628 80.4899 357.944 80.4492 358.26 80.4492C358.898 80.4492 359.37 80.5908 359.676 80.874C359.985 81.1572 360.14 81.6113 360.14 82.2363V85.8887H359.539ZM357.708 85.3174C358.213 85.3174 358.608 85.179 358.895 84.9023C359.184 84.6257 359.329 84.2383 359.329 83.7402V83.2568L358.519 83.291C357.874 83.3138 357.409 83.4147 357.122 83.5938C356.839 83.7695 356.697 84.0446 356.697 84.4189C356.697 84.7119 356.785 84.9349 356.961 85.0879C357.14 85.2409 357.389 85.3174 357.708 85.3174ZM364.256 80.4395C364.493 80.4395 364.707 80.459 364.896 80.498L364.783 81.25C364.562 81.2012 364.367 81.1768 364.197 81.1768C363.764 81.1768 363.393 81.3525 363.084 81.7041C362.778 82.0557 362.625 82.4935 362.625 83.0176V85.8887H361.814V80.5371H362.483L362.576 81.5283H362.615C362.814 81.18 363.053 80.9115 363.333 80.7227C363.613 80.5339 363.921 80.4395 364.256 80.4395ZM366.697 83.1494C366.837 82.9508 367.05 82.6904 367.337 82.3682L369.065 80.5371H370.027L367.859 82.8174L370.179 85.8887H369.197L367.308 83.3594L366.697 83.8867V85.8887H365.896V78.291H366.697V82.3193C366.697 82.4984 366.684 82.7751 366.658 83.1494H366.697ZM373.411 85.9863C372.62 85.9863 371.995 85.7454 371.536 85.2637C371.08 84.7819 370.853 84.113 370.853 83.2568C370.853 82.3942 371.064 81.709 371.487 81.2012C371.914 80.6934 372.485 80.4395 373.201 80.4395C373.872 80.4395 374.402 80.6608 374.793 81.1035C375.184 81.543 375.379 82.124 375.379 82.8467V83.3594H371.692C371.709 83.9876 371.867 84.4645 372.166 84.79C372.469 85.1156 372.894 85.2783 373.44 85.2783C374.017 85.2783 374.586 85.1579 375.149 84.917V85.6396C374.863 85.7633 374.591 85.8512 374.334 85.9033C374.08 85.9587 373.772 85.9863 373.411 85.9863ZM373.191 81.1182C372.762 81.1182 372.418 81.2581 372.161 81.5381C371.907 81.818 371.757 82.2054 371.712 82.7002H374.51C374.51 82.1891 374.396 81.7985 374.168 81.5283C373.94 81.2549 373.615 81.1182 373.191 81.1182ZM378.494 85.3174C378.637 85.3174 378.776 85.3076 378.909 85.2881C379.043 85.2653 379.148 85.2425 379.227 85.2197V85.8398C379.139 85.8822 379.008 85.9163 378.836 85.9424C378.667 85.9717 378.514 85.9863 378.377 85.9863C377.342 85.9863 376.824 85.4411 376.824 84.3506V81.167H376.058V80.7764L376.824 80.4395L377.166 79.2969H377.635V80.5371H379.188V81.167H377.635V84.3164C377.635 84.6387 377.711 84.8861 377.864 85.0586C378.017 85.2311 378.227 85.3174 378.494 85.3174ZM381.111 85.8887H380.301V80.5371H381.111V85.8887ZM380.232 79.0869C380.232 78.9014 380.278 78.7663 380.369 78.6816C380.46 78.5938 380.574 78.5498 380.711 78.5498C380.841 78.5498 380.953 78.5938 381.048 78.6816C381.142 78.7695 381.189 78.9046 381.189 79.0869C381.189 79.2692 381.142 79.4059 381.048 79.4971C380.953 79.585 380.841 79.6289 380.711 79.6289C380.574 79.6289 380.46 79.585 380.369 79.4971C380.278 79.4059 380.232 79.2692 380.232 79.0869ZM386.492 85.8887V82.4268C386.492 81.9906 386.393 81.665 386.194 81.4502C385.996 81.2354 385.685 81.1279 385.262 81.1279C384.702 81.1279 384.292 81.2793 384.031 81.582C383.771 81.8848 383.641 82.3844 383.641 83.0811V85.8887H382.83V80.5371H383.489L383.621 81.2695H383.66C383.826 81.0059 384.059 80.8024 384.358 80.6592C384.658 80.5127 384.992 80.4395 385.359 80.4395C386.004 80.4395 386.489 80.5957 386.814 80.9082C387.14 81.2174 387.303 81.7139 387.303 82.3975V85.8887H386.492ZM393.353 80.5371V81.0498L392.361 81.167C392.452 81.2809 392.534 81.4307 392.605 81.6162C392.677 81.7985 392.713 82.0052 392.713 82.2363C392.713 82.7604 392.534 83.1787 392.176 83.4912C391.818 83.8037 391.326 83.96 390.701 83.96C390.542 83.96 390.392 83.9469 390.252 83.9209C389.907 84.1032 389.734 84.3327 389.734 84.6094C389.734 84.7559 389.795 84.8649 389.915 84.9365C390.035 85.0049 390.242 85.0391 390.535 85.0391H391.482C392.062 85.0391 392.506 85.1611 392.815 85.4053C393.128 85.6494 393.284 86.0042 393.284 86.4697C393.284 87.0622 393.047 87.513 392.571 87.8223C392.096 88.1348 391.403 88.291 390.491 88.291C389.791 88.291 389.251 88.1608 388.87 87.9004C388.493 87.64 388.304 87.2721 388.304 86.7969C388.304 86.4714 388.408 86.1898 388.616 85.9521C388.825 85.7145 389.118 85.5534 389.495 85.4688C389.358 85.4069 389.243 85.3109 389.148 85.1807C389.057 85.0505 389.012 84.8991 389.012 84.7266C389.012 84.5312 389.064 84.3604 389.168 84.2139C389.272 84.0674 389.437 83.9258 389.661 83.7891C389.384 83.6751 389.158 83.4814 388.982 83.208C388.81 82.9346 388.724 82.6221 388.724 82.2705C388.724 81.6846 388.899 81.2337 389.251 80.918C389.603 80.599 390.101 80.4395 390.745 80.4395C391.025 80.4395 391.277 80.472 391.502 80.5371H393.353ZM389.085 86.7871C389.085 87.0768 389.207 87.2965 389.451 87.4463C389.695 87.596 390.045 87.6709 390.501 87.6709C391.181 87.6709 391.684 87.5684 392.01 87.3633C392.339 87.1615 392.503 86.8864 392.503 86.5381C392.503 86.2484 392.413 86.0465 392.234 85.9326C392.055 85.8219 391.718 85.7666 391.224 85.7666H390.252C389.884 85.7666 389.598 85.8545 389.393 86.0303C389.188 86.2061 389.085 86.4583 389.085 86.7871ZM389.524 82.251C389.524 82.6253 389.63 82.9085 389.842 83.1006C390.053 83.2926 390.348 83.3887 390.726 83.3887C391.517 83.3887 391.912 83.0046 391.912 82.2363C391.912 81.4323 391.512 81.0303 390.711 81.0303C390.33 81.0303 390.037 81.1328 389.832 81.3379C389.627 81.543 389.524 81.8473 389.524 82.251Z" fill="white"/>
<path d="M362.054 154.152C362.705 154.152 363.221 154.304 363.602 154.606C363.982 154.909 364.173 155.327 364.173 155.861C364.173 156.213 364.064 156.534 363.846 156.823C363.628 157.113 363.279 157.377 362.801 157.614C363.38 157.891 363.792 158.182 364.036 158.488C364.28 158.791 364.402 159.143 364.402 159.543C364.402 160.135 364.196 160.609 363.782 160.964C363.369 161.315 362.802 161.491 362.083 161.491C361.321 161.491 360.735 161.325 360.325 160.993C359.915 160.658 359.71 160.184 359.71 159.572C359.71 158.755 360.208 158.119 361.204 157.663C360.755 157.409 360.433 157.136 360.237 156.843C360.042 156.547 359.944 156.216 359.944 155.852C359.944 155.334 360.135 154.922 360.516 154.616C360.9 154.307 361.412 154.152 362.054 154.152ZM360.511 159.592C360.511 159.982 360.646 160.287 360.916 160.505C361.189 160.723 361.572 160.832 362.063 160.832C362.549 160.832 362.926 160.718 363.196 160.49C363.466 160.262 363.602 159.95 363.602 159.553C363.602 159.237 363.475 158.957 363.221 158.713C362.967 158.465 362.524 158.226 361.893 157.995C361.408 158.203 361.056 158.435 360.838 158.688C360.62 158.939 360.511 159.24 360.511 159.592ZM362.044 154.812C361.637 154.812 361.318 154.909 361.087 155.104C360.856 155.3 360.74 155.56 360.74 155.886C360.74 156.185 360.836 156.442 361.028 156.657C361.22 156.872 361.575 157.087 362.093 157.302C362.558 157.106 362.887 156.896 363.079 156.672C363.274 156.447 363.372 156.185 363.372 155.886C363.372 155.557 363.253 155.297 363.016 155.104C362.781 154.909 362.457 154.812 362.044 154.812ZM366.106 156.384C366.106 156.937 366.167 157.352 366.287 157.629C366.408 157.906 366.603 158.044 366.873 158.044C367.407 158.044 367.674 157.491 367.674 156.384C367.674 155.284 367.407 154.733 366.873 154.733C366.603 154.733 366.408 154.87 366.287 155.144C366.167 155.417 366.106 155.83 366.106 156.384ZM368.343 156.384C368.343 157.126 368.217 157.688 367.967 158.068C367.719 158.446 367.355 158.635 366.873 158.635C366.417 158.635 366.062 158.441 365.809 158.054C365.558 157.666 365.433 157.11 365.433 156.384C365.433 155.645 365.553 155.088 365.794 154.714C366.038 154.34 366.398 154.152 366.873 154.152C367.345 154.152 367.708 154.346 367.962 154.733C368.216 155.121 368.343 155.671 368.343 156.384ZM370.403 159.245C370.403 159.802 370.464 160.218 370.584 160.495C370.704 160.769 370.901 160.905 371.175 160.905C371.448 160.905 371.65 160.77 371.78 160.5C371.91 160.227 371.976 159.808 371.976 159.245C371.976 158.688 371.91 158.277 371.78 158.01C371.65 157.74 371.448 157.604 371.175 157.604C370.901 157.604 370.704 157.74 370.584 158.01C370.464 158.277 370.403 158.688 370.403 159.245ZM372.645 159.245C372.645 159.984 372.519 160.544 372.269 160.925C372.021 161.302 371.657 161.491 371.175 161.491C370.713 161.491 370.356 161.298 370.105 160.91C369.858 160.523 369.734 159.968 369.734 159.245C369.734 158.506 369.855 157.95 370.096 157.575C370.34 157.201 370.7 157.014 371.175 157.014C371.637 157.014 371.997 157.206 372.254 157.59C372.514 157.971 372.645 158.522 372.645 159.245ZM371.385 154.255L367.425 161.394H366.707L370.667 154.255H371.385ZM378.934 161.394H378.104V154.992H375.843V154.255H381.194V154.992H378.934V161.394ZM385.442 161.394L385.281 160.632H385.242C384.975 160.967 384.708 161.195 384.441 161.315C384.178 161.433 383.847 161.491 383.45 161.491C382.92 161.491 382.503 161.354 382.2 161.081C381.901 160.808 381.751 160.419 381.751 159.914C381.751 158.833 382.615 158.267 384.344 158.215L385.252 158.186V157.854C385.252 157.434 385.161 157.124 384.979 156.926C384.799 156.724 384.511 156.623 384.114 156.623C383.668 156.623 383.164 156.76 382.601 157.033L382.352 156.413C382.615 156.27 382.903 156.158 383.216 156.076C383.532 155.995 383.847 155.954 384.163 155.954C384.801 155.954 385.273 156.096 385.579 156.379C385.888 156.662 386.043 157.116 386.043 157.741V161.394H385.442ZM383.611 160.822C384.116 160.822 384.511 160.684 384.798 160.407C385.088 160.131 385.232 159.743 385.232 159.245V158.762L384.422 158.796C383.777 158.819 383.312 158.92 383.025 159.099C382.742 159.274 382.601 159.549 382.601 159.924C382.601 160.217 382.688 160.44 382.864 160.593C383.043 160.746 383.292 160.822 383.611 160.822ZM389.007 158.654L387.146 156.042H388.069L389.48 158.093L390.887 156.042H391.8L389.939 158.654L391.897 161.394H390.979L389.48 159.226L387.967 161.394H387.049L389.007 158.654Z" fill="white"/>
<path d="M62.8516 218.347C63.5026 218.347 64.0186 218.498 64.3994 218.801C64.7803 219.104 64.9707 219.522 64.9707 220.056C64.9707 220.407 64.8617 220.728 64.6436 221.018C64.4255 221.307 64.0771 221.571 63.5986 221.809C64.1781 222.085 64.5898 222.377 64.834 222.683C65.0781 222.985 65.2002 223.337 65.2002 223.737C65.2002 224.33 64.9935 224.803 64.5801 225.158C64.1667 225.51 63.6003 225.686 62.8809 225.686C62.1191 225.686 61.5332 225.52 61.123 225.188C60.7129 224.852 60.5078 224.379 60.5078 223.767C60.5078 222.95 61.0059 222.313 62.002 221.857C61.5527 221.604 61.2305 221.33 61.0352 221.037C60.8398 220.741 60.7422 220.41 60.7422 220.046C60.7422 219.528 60.9326 219.117 61.3135 218.811C61.6976 218.501 62.2103 218.347 62.8516 218.347ZM61.3086 223.786C61.3086 224.177 61.4437 224.481 61.7139 224.699C61.9873 224.917 62.3698 225.026 62.8613 225.026C63.3464 225.026 63.724 224.912 63.9941 224.685C64.2643 224.457 64.3994 224.144 64.3994 223.747C64.3994 223.431 64.2725 223.151 64.0186 222.907C63.7646 222.66 63.3219 222.421 62.6904 222.189C62.2054 222.398 61.8538 222.629 61.6357 222.883C61.4176 223.133 61.3086 223.435 61.3086 223.786ZM62.8418 219.006C62.4349 219.006 62.1159 219.104 61.8848 219.299C61.6536 219.494 61.5381 219.755 61.5381 220.08C61.5381 220.38 61.6341 220.637 61.8262 220.852C62.0182 221.066 62.373 221.281 62.8906 221.496C63.3561 221.301 63.6849 221.091 63.877 220.866C64.0723 220.642 64.1699 220.38 64.1699 220.08C64.1699 219.751 64.0511 219.491 63.8135 219.299C63.5791 219.104 63.2552 219.006 62.8418 219.006ZM70.9424 222.009C70.9424 223.243 70.7471 224.164 70.3564 224.772C69.9691 225.381 69.375 225.686 68.5742 225.686C67.806 225.686 67.2217 225.375 66.8213 224.753C66.4209 224.128 66.2207 223.213 66.2207 222.009C66.2207 220.765 66.4144 219.842 66.8018 219.24C67.1891 218.638 67.7799 218.337 68.5742 218.337C69.349 218.337 69.9365 218.651 70.3369 219.279C70.7406 219.908 70.9424 220.817 70.9424 222.009ZM67.041 222.009C67.041 223.047 67.1631 223.804 67.4072 224.279C67.6514 224.751 68.0404 224.987 68.5742 224.987C69.1146 224.987 69.5052 224.748 69.7461 224.27C69.9902 223.788 70.1123 223.034 70.1123 222.009C70.1123 220.983 69.9902 220.233 69.7461 219.758C69.5052 219.279 69.1146 219.04 68.5742 219.04C68.0404 219.04 67.6514 219.276 67.4072 219.748C67.1631 220.217 67.041 220.97 67.041 222.009ZM72.627 220.578C72.627 221.132 72.6872 221.547 72.8076 221.823C72.9281 222.1 73.1234 222.238 73.3936 222.238C73.9274 222.238 74.1943 221.685 74.1943 220.578C74.1943 219.478 73.9274 218.928 73.3936 218.928C73.1234 218.928 72.9281 219.064 72.8076 219.338C72.6872 219.611 72.627 220.025 72.627 220.578ZM74.8633 220.578C74.8633 221.32 74.738 221.882 74.4873 222.263C74.2399 222.64 73.8753 222.829 73.3936 222.829C72.9378 222.829 72.583 222.635 72.3291 222.248C72.0785 221.861 71.9531 221.304 71.9531 220.578C71.9531 219.839 72.0736 219.283 72.3145 218.908C72.5586 218.534 72.9183 218.347 73.3936 218.347C73.8656 218.347 74.2285 218.54 74.4824 218.928C74.7363 219.315 74.8633 219.865 74.8633 220.578ZM76.9238 223.439C76.9238 223.996 76.984 224.413 77.1045 224.689C77.2249 224.963 77.4219 225.1 77.6953 225.1C77.9688 225.1 78.1706 224.965 78.3008 224.694C78.431 224.421 78.4961 224.003 78.4961 223.439C78.4961 222.883 78.431 222.471 78.3008 222.204C78.1706 221.934 77.9688 221.799 77.6953 221.799C77.4219 221.799 77.2249 221.934 77.1045 222.204C76.984 222.471 76.9238 222.883 76.9238 223.439ZM79.165 223.439C79.165 224.178 79.0397 224.738 78.7891 225.119C78.5417 225.497 78.1771 225.686 77.6953 225.686C77.2331 225.686 76.8766 225.492 76.626 225.104C76.3786 224.717 76.2549 224.162 76.2549 223.439C76.2549 222.701 76.3753 222.144 76.6162 221.77C76.8604 221.395 77.2201 221.208 77.6953 221.208C78.1576 221.208 78.5173 221.4 78.7744 221.784C79.0348 222.165 79.165 222.717 79.165 223.439ZM77.9053 218.449L73.9453 225.588H73.2275L77.1875 218.449H77.9053ZM60.9814 239.588V232.449H61.8115V238.836H64.9609V239.588H60.9814ZM66.8652 239.588H66.0547V234.236H66.8652V239.588ZM65.9863 232.786C65.9863 232.601 66.0319 232.465 66.123 232.381C66.2142 232.293 66.3281 232.249 66.4648 232.249C66.5951 232.249 66.7074 232.293 66.8018 232.381C66.8962 232.469 66.9434 232.604 66.9434 232.786C66.9434 232.968 66.8962 233.105 66.8018 233.196C66.7074 233.284 66.5951 233.328 66.4648 233.328C66.3281 233.328 66.2142 233.284 66.123 233.196C66.0319 233.105 65.9863 232.968 65.9863 232.786ZM70.6055 239.007C71.1458 239.007 71.5397 238.862 71.7871 238.572C72.0345 238.283 72.1663 237.794 72.1826 237.107V236.927C72.1826 236.178 72.0557 235.639 71.8018 235.311C71.5479 234.982 71.1458 234.817 70.5957 234.817C70.1204 234.817 69.7559 235.003 69.502 235.374C69.2513 235.742 69.126 236.263 69.126 236.937C69.126 237.61 69.2497 238.125 69.4971 238.479C69.7477 238.831 70.1172 239.007 70.6055 239.007ZM70.4834 239.686C69.7933 239.686 69.2546 239.443 68.8672 238.958C68.4798 238.473 68.2861 237.796 68.2861 236.927C68.2861 236.051 68.4814 235.368 68.8721 234.876C69.2627 234.384 69.8063 234.139 70.5029 234.139C71.2354 234.139 71.7985 234.415 72.1924 234.969H72.2363L72.3535 234.236H72.9932V241.99H72.1826V239.7C72.1826 239.375 72.2005 239.098 72.2363 238.87H72.1729C71.7985 239.414 71.2354 239.686 70.4834 239.686ZM75.4785 234.236V237.708C75.4785 238.144 75.5778 238.47 75.7764 238.685C75.9749 238.899 76.2858 239.007 76.709 239.007C77.2689 239.007 77.6774 238.854 77.9346 238.548C78.195 238.242 78.3252 237.742 78.3252 237.049V234.236H79.1357V239.588H78.4668L78.3496 238.87H78.3057C78.1396 239.134 77.9085 239.336 77.6123 239.476C77.3193 239.616 76.984 239.686 76.6064 239.686C75.9554 239.686 75.4671 239.531 75.1416 239.222C74.8193 238.912 74.6582 238.418 74.6582 237.737V234.236H75.4785ZM81.6699 239.588H80.8594V234.236H81.6699V239.588ZM80.791 232.786C80.791 232.601 80.8366 232.465 80.9277 232.381C81.0189 232.293 81.1328 232.249 81.2695 232.249C81.3997 232.249 81.512 232.293 81.6064 232.381C81.7008 232.469 81.748 232.604 81.748 232.786C81.748 232.968 81.7008 233.105 81.6064 233.196C81.512 233.284 81.3997 233.328 81.2695 233.328C81.1328 233.328 81.0189 233.284 80.9277 233.196C80.8366 233.105 80.791 232.968 80.791 232.786ZM87.0312 238.87H86.9873C86.613 239.414 86.0531 239.686 85.3076 239.686C84.6077 239.686 84.0625 239.446 83.6719 238.968C83.2845 238.489 83.0908 237.809 83.0908 236.927C83.0908 236.045 83.2861 235.359 83.6768 234.871C84.0674 234.383 84.611 234.139 85.3076 234.139C86.0335 234.139 86.5902 234.402 86.9775 234.93H87.041L87.0068 234.544L86.9873 234.168V231.99H87.7979V239.588H87.1387L87.0312 238.87ZM85.4102 239.007C85.9635 239.007 86.3639 238.857 86.6113 238.558C86.862 238.255 86.9873 237.768 86.9873 237.098V236.927C86.9873 236.168 86.8604 235.628 86.6064 235.306C86.3558 234.98 85.9538 234.817 85.4004 234.817C84.9251 234.817 84.5605 235.003 84.3066 235.374C84.056 235.742 83.9307 236.263 83.9307 236.937C83.9307 237.62 84.056 238.136 84.3066 238.484C84.5573 238.833 84.9251 239.007 85.4102 239.007ZM90.332 239.588H89.5215V234.236H90.332V239.588ZM89.4531 232.786C89.4531 232.601 89.4987 232.465 89.5898 232.381C89.681 232.293 89.7949 232.249 89.9316 232.249C90.0618 232.249 90.1742 232.293 90.2686 232.381C90.363 232.469 90.4102 232.604 90.4102 232.786C90.4102 232.968 90.363 233.105 90.2686 233.196C90.1742 233.284 90.0618 233.328 89.9316 233.328C89.7949 233.328 89.681 233.284 89.5898 233.196C89.4987 233.105 89.4531 232.968 89.4531 232.786ZM93.7793 239.017C93.9225 239.017 94.0609 239.007 94.1943 238.987C94.3278 238.965 94.4336 238.942 94.5117 238.919V239.539C94.4238 239.581 94.2936 239.616 94.1211 239.642C93.9518 239.671 93.7988 239.686 93.6621 239.686C92.627 239.686 92.1094 239.14 92.1094 238.05V234.866H91.3428V234.476L92.1094 234.139L92.4512 232.996H92.9199V234.236H94.4727V234.866H92.9199V238.016C92.9199 238.338 92.9964 238.585 93.1494 238.758C93.3024 238.93 93.5124 239.017 93.7793 239.017ZM94.7363 234.236H95.6055L96.7773 237.288C97.0345 237.985 97.194 238.488 97.2559 238.797H97.2949C97.3372 238.631 97.4251 238.348 97.5586 237.947C97.6953 237.544 98.138 236.307 98.8867 234.236H99.7559L97.4561 240.33C97.2282 240.932 96.9613 241.359 96.6553 241.609C96.3525 241.863 95.9798 241.99 95.5371 241.99C95.2897 241.99 95.0456 241.963 94.8047 241.907V241.258C94.9837 241.297 95.1839 241.316 95.4053 241.316C95.9619 241.316 96.359 241.004 96.5967 240.379L96.8945 239.617L94.7363 234.236Z" fill="white"/>
</g>
<defs>
<filter id="filter0_i_189:1172" x="118.977" y="48.4707" width="179.385" height="183.059" filterUnits="userSpaceOnUse" color-interpolation-filters="sRGB">
<feFlood flood-opacity="0" result="BackgroundImageFix"/>
<feBlend mode="normal" in="SourceGraphic" in2="BackgroundImageFix" result="shape"/>
<feColorMatrix in="SourceAlpha" type="matrix" values="0 0 0 0 0 0 0 0 0 0 0 0 0 0 0 0 0 0 127 0" result="hardAlpha"/>
<feOffset/>
<feGaussianBlur stdDeviation="2"/>
<feComposite in2="hardAlpha" operator="arithmetic" k2="-1" k3="1"/>
<feColorMatrix type="matrix" values="0 0 0 0 0 0 0 0 0 0 0 0 0 0 0 0 0 0 0.25 0"/>
<feBlend mode="normal" in2="shape" result="effect1_innerShadow_189:1172"/>
</filter>
<filter id="filter1_d_189:1172" x="184.804" y="84.5811" width="136.445" height="106.121" filterUnits="userSpaceOnUse" color-interpolation-filters="sRGB">
<feFlood flood-opacity="0" result="BackgroundImageFix"/>
<feColorMatrix in="SourceAlpha" type="matrix" values="0 0 0 0 0 0 0 0 0 0 0 0 0 0 0 0 0 0 127 0" result="hardAlpha"/>
<feOffset/>
<feGaussianBlur stdDeviation="13"/>
<feComposite in2="hardAlpha" operator="out"/>
<feColorMatrix type="matrix" values="0 0 0 0 0 0 0 0 0 0 0 0 0 0 0 0 0 0 0.43 0"/>
<feBlend mode="normal" in2="BackgroundImageFix" result="effect1_dropShadow_189:1172"/>
<feBlend mode="normal" in="SourceGraphic" in2="effect1_dropShadow_189:1172" result="shape"/>
</filter>
<filter id="filter2_d_189:1172" x="77.9766" y="7.4707" width="261.385" height="265.059" filterUnits="userSpaceOnUse" color-interpolation-filters="sRGB">
<feFlood flood-opacity="0" result="BackgroundImageFix"/>
<feColorMatrix in="SourceAlpha" type="matrix" values="0 0 0 0 0 0 0 0 0 0 0 0 0 0 0 0 0 0 127 0" result="hardAlpha"/>
<feOffset/>
<feGaussianBlur stdDeviation="20.5"/>
<feComposite in2="hardAlpha" operator="out"/>
<feColorMatrix type="matrix" values="0 0 0 0 0 0 0 0 0 0 0 0 0 0 0 0 0 0 0.29 0"/>
<feBlend mode="normal" in2="BackgroundImageFix" result="effect1_dropShadow_189:1172"/>
<feBlend mode="normal" in="SourceGraphic" in2="effect1_dropShadow_189:1172" result="shape"/>
</filter>
<linearGradient id="paint0_linear_189:1172" x1="161.589" y1="181.703" x2="259.828" y2="98.3419" gradientUnits="userSpaceOnUse">
<stop stop-color="#48F6F8"/>
<stop offset="1" stop-color="#31B1B3"/>
</linearGradient>
<linearGradient id="paint1_linear_189:1172" x1="161.589" y1="181.703" x2="259.828" y2="98.3419" gradientUnits="userSpaceOnUse">
<stop stop-color="#48F6F8"/>
<stop offset="1" stop-color="#7ADADF"/>
</linearGradient>
<linearGradient id="paint2_linear_189:1172" x1="161.589" y1="181.703" x2="259.828" y2="98.3419" gradientUnits="userSpaceOnUse">
<stop stop-color="#48F6F8"/>
<stop offset="1" stop-color="#90FEFF"/>
</linearGradient>
<linearGradient id="paint3_linear_189:1172" x1="146.367" y1="194.533" x2="275.045" y2="85.343" gradientUnits="userSpaceOnUse">
<stop stop-color="#60247B"/>
<stop offset="1" stop-color="#673DDD"/>
</linearGradient>
<linearGradient id="paint4_linear_189:1172" x1="140.703" y1="199.157" x2="280.43" y2="80.5916" gradientUnits="userSpaceOnUse">
<stop stop-color="#DA22FF"/>
<stop offset="1" stop-color="#9733EE"/>
</linearGradient>
<clipPath id="clip0_189:1172">
<rect width="503" height="285" fill="white"/>
</clipPath>
</defs>
</svg>
