<svg width="328" height="214" viewBox="0 0 328 214" fill="none" xmlns="http://www.w3.org/2000/svg">
<g clip-path="url(#clip0_189:1348)">
<path d="M156.976 165.402C165.467 137.677 164.566 107.931 154.414 80.7695L30.7334 126.857L156.976 165.402Z" fill="url(#paint0_linear_189:1348)"/>
<path d="M156.976 165.402C163.805 143.102 164.588 119.393 159.243 96.6924L30.7334 126.857L156.976 165.402Z" fill="url(#paint1_linear_189:1348)"/>
<path d="M156.976 165.402C161.112 151.897 163.047 137.818 162.708 123.7L30.7334 126.857L156.976 165.402Z" fill="url(#paint2_linear_189:1348)"/>
<path d="M228.914 50.1562C229.501 50.1562 229.963 50.3022 230.298 50.594C230.636 50.8834 230.805 51.2807 230.805 51.7858C230.805 52.3619 230.621 52.8138 230.252 53.1412C229.886 53.4687 229.38 53.6323 228.735 53.6323C228.106 53.6323 227.627 53.5321 227.297 53.3316V52.7224C227.475 52.8366 227.696 52.9267 227.961 52.9928C228.225 53.0562 228.486 53.0879 228.742 53.0879C229.189 53.0879 229.536 52.9825 229.784 52.7719C230.033 52.5612 230.157 52.2566 230.157 51.8581C230.157 51.0814 229.681 50.6931 228.727 50.6931C228.486 50.6931 228.163 50.7298 227.758 50.8035L227.43 50.594L227.64 47.9897H230.413V48.5723H228.182L228.041 50.2438C228.333 50.1854 228.624 50.1562 228.914 50.1562Z" fill="white"/>
<path d="M232.182 49.6501C232.182 50.0816 232.229 50.4052 232.323 50.621C232.417 50.8368 232.569 50.9446 232.781 50.9446C233.197 50.9446 233.405 50.5131 233.405 49.6501C233.405 48.7921 233.197 48.3632 232.781 48.3632C232.569 48.3632 232.417 48.4698 232.323 48.683C232.229 48.8962 232.182 49.2186 232.182 49.6501ZM233.928 49.6501C233.928 50.2288 233.831 50.6667 233.635 50.9637C233.441 51.2581 233.156 51.4053 232.781 51.4053C232.424 51.4053 232.147 51.2543 231.949 50.9522C231.753 50.6501 231.655 50.2162 231.655 49.6501C231.655 49.0739 231.75 48.6398 231.937 48.3479C232.128 48.0561 232.409 47.9102 232.781 47.9102C233.149 47.9102 233.432 48.0612 233.631 48.3632C233.829 48.6652 233.928 49.0943 233.928 49.6501ZM235.537 51.8812C235.537 52.3153 235.584 52.6402 235.678 52.8559C235.773 53.0691 235.926 53.1758 236.14 53.1758C236.353 53.1758 236.511 53.0704 236.613 52.8597C236.714 52.6465 236.765 52.3204 236.765 51.8812C236.765 51.4472 236.714 51.1261 236.613 50.9179C236.511 50.7073 236.353 50.602 236.14 50.602C235.926 50.602 235.773 50.7073 235.678 50.9179C235.584 51.1261 235.537 51.4472 235.537 51.8812ZM237.288 51.8812C237.288 52.4574 237.19 52.894 236.994 53.191C236.801 53.4854 236.516 53.6326 236.14 53.6326C235.779 53.6326 235.5 53.4816 235.305 53.1796C235.111 52.8775 235.015 52.4447 235.015 51.8812C235.015 51.305 235.109 50.871 235.297 50.5791C235.488 50.2872 235.768 50.1412 236.14 50.1412C236.501 50.1412 236.782 50.291 236.982 50.5905C237.186 50.8875 237.288 51.3178 237.288 51.8812ZM236.304 47.99L233.211 53.5565H232.651L235.743 47.99H236.304Z" fill="white"/>
<path d="M241.133 51.2413V53.5562H240.484V47.9897H242.013C242.697 47.9897 243.201 48.1205 243.527 48.382C243.855 48.6434 244.019 49.0368 244.019 49.5623C244.019 50.2983 243.646 50.7958 242.898 51.0547L244.412 53.5562H243.646L242.295 51.2413H241.133ZM241.133 50.6855H242.021C242.478 50.6855 242.814 50.5953 243.028 50.4151C243.241 50.2323 243.348 49.9595 243.348 49.5965C243.348 49.2284 243.239 48.9632 243.02 48.8008C242.804 48.6383 242.456 48.5571 241.975 48.5571H241.133V50.6855Z" fill="white"/>
<path d="M246.982 53.6324C246.364 53.6324 245.875 53.4445 245.517 53.0689C245.161 52.6932 244.983 52.1716 244.983 51.5041C244.983 50.8314 245.149 50.2971 245.479 49.9011C245.812 49.5052 246.258 49.3071 246.818 49.3071C247.341 49.3071 247.756 49.4798 248.061 49.825C248.366 50.1676 248.519 50.6208 248.519 51.1842V51.584H245.639C245.652 52.0739 245.776 52.4457 246.009 52.6996C246.246 52.9534 246.577 53.0803 247.004 53.0803C247.455 53.0803 247.899 52.9864 248.339 52.7985V53.362C248.116 53.4585 247.903 53.527 247.702 53.5676C247.504 53.6108 247.264 53.6324 246.982 53.6324ZM246.81 49.8364C246.474 49.8364 246.206 49.9456 246.006 50.1638C245.807 50.3822 245.691 50.6842 245.655 51.07H247.84C247.84 50.6715 247.751 50.3669 247.573 50.1562C247.395 49.943 247.141 49.8364 246.81 49.8364Z" fill="white"/>
<path d="M251.545 53.6324C251.274 53.6324 251.025 53.5829 250.798 53.4839C250.574 53.3824 250.386 53.2275 250.233 53.0194H250.188C250.218 53.2631 250.233 53.4941 250.233 53.7123V55.4295H249.601V49.3833H250.115L250.203 49.9544H250.233C250.396 49.7259 250.585 49.561 250.802 49.4594C251.018 49.3579 251.266 49.3071 251.545 49.3071C252.1 49.3071 252.527 49.4963 252.827 49.8744C253.129 50.2527 253.281 50.7832 253.281 51.4659C253.281 52.1513 253.126 52.6843 252.819 53.065C252.514 53.4433 252.089 53.6324 251.545 53.6324ZM251.454 49.844C251.026 49.844 250.718 49.962 250.527 50.1981C250.336 50.4341 250.238 50.8098 250.233 51.3251V51.4659C250.233 52.0523 250.331 52.4724 250.527 52.7262C250.723 52.9775 251.037 53.1032 251.469 53.1032C251.83 53.1032 252.112 52.9572 252.316 52.6653C252.521 52.3734 252.625 51.9711 252.625 51.4584C252.625 50.938 252.521 50.5395 252.316 50.2629C252.112 49.9836 251.825 49.844 251.454 49.844Z" fill="white"/>
<path d="M255.023 53.5561H254.39V47.6318H255.023V53.5561Z" fill="white"/>
<path d="M258.13 53.6324C257.513 53.6324 257.025 53.4445 256.666 53.0689C256.311 52.6932 256.133 52.1716 256.133 51.5041C256.133 50.8314 256.298 50.2971 256.628 49.9011C256.961 49.5052 257.407 49.3071 257.967 49.3071C258.49 49.3071 258.905 49.4798 259.21 49.825C259.515 50.1676 259.667 50.6208 259.667 51.1842V51.584H256.789C256.801 52.0739 256.924 52.4457 257.158 52.6996C257.394 52.9534 257.727 53.0803 258.154 53.0803C258.603 53.0803 259.048 52.9864 259.488 52.7985V53.362C259.264 53.4585 259.052 53.527 258.851 53.5676C258.654 53.6108 258.413 53.6324 258.13 53.6324ZM257.959 49.8364C257.624 49.8364 257.355 49.9456 257.154 50.1638C256.956 50.3822 256.839 50.6842 256.804 51.07H258.988C258.988 50.6715 258.9 50.3669 258.722 50.1562C258.544 49.943 258.29 49.8364 257.959 49.8364Z" fill="white"/>
<path d="M263.61 53.5562V50.8568C263.61 50.5166 263.533 50.2629 263.378 50.0953C263.223 49.9278 262.98 49.844 262.65 49.844C262.212 49.844 261.892 49.962 261.689 50.1981C261.485 50.4341 261.384 50.8238 261.384 51.367V53.5562H260.751V49.3833H261.266L261.368 49.9544H261.399C261.528 49.7488 261.71 49.5902 261.944 49.4785C262.178 49.3643 262.439 49.3071 262.726 49.3071C263.229 49.3071 263.608 49.429 263.862 49.6727C264.116 49.9138 264.244 50.3009 264.244 50.834V53.5562H263.61Z" fill="white"/>
<path d="M266.181 53.5564H265.548V49.3835H266.181V53.5564ZM265.494 48.2528C265.494 48.1081 265.53 48.0028 265.601 47.9367C265.672 47.8682 265.761 47.834 265.868 47.834C265.97 47.834 266.057 47.8682 266.131 47.9367C266.205 48.0053 266.242 48.1106 266.242 48.2528C266.242 48.3949 266.205 48.5015 266.131 48.5726C266.057 48.6411 265.97 48.6754 265.868 48.6754C265.761 48.6754 265.672 48.6411 265.601 48.5726C265.53 48.5015 265.494 48.3949 265.494 48.2528Z" fill="white"/>
<path d="M270.219 52.4178C270.219 52.8062 270.074 53.1057 269.785 53.3164C269.495 53.527 269.088 53.6324 268.564 53.6324C268.01 53.6324 267.578 53.5449 267.268 53.3697V52.7834C267.469 52.8848 267.684 52.9648 267.912 53.0232C268.144 53.0816 268.366 53.1108 268.579 53.1108C268.91 53.1108 269.164 53.0587 269.342 52.9547C269.52 52.8481 269.609 52.6869 269.609 52.4711C269.609 52.3087 269.538 52.1703 269.396 52.0561C269.256 51.9393 268.981 51.8023 268.572 51.6449C268.183 51.5002 267.906 51.3746 267.741 51.268C267.578 51.1589 267.456 51.0358 267.375 50.8987C267.296 50.7616 267.257 50.5979 267.257 50.4075C267.257 50.0674 267.395 49.7996 267.672 49.6041C267.949 49.4062 268.329 49.3071 268.813 49.3071C269.262 49.3071 269.702 49.3985 270.132 49.5813L269.907 50.0953C269.487 49.9227 269.107 49.8364 268.767 49.8364C268.466 49.8364 268.24 49.8834 268.088 49.9773C267.935 50.0712 267.859 50.2006 267.859 50.3656C267.859 50.4773 267.887 50.5725 267.943 50.6512C268.001 50.7298 268.094 50.8048 268.221 50.8758C268.348 50.9469 268.592 51.0497 268.953 51.1842C269.449 51.3645 269.784 51.5459 269.956 51.7287C270.132 51.9114 270.219 52.1411 270.219 52.4178Z" fill="white"/>
<path d="M274.113 53.5561V50.8566C274.113 50.5165 274.036 50.2627 273.88 50.0952C273.725 49.9277 273.482 49.8439 273.152 49.8439C272.712 49.8439 272.391 49.9632 272.187 50.2018C271.986 50.4404 271.886 50.8313 271.886 51.3745V53.5561H271.253V47.6318H271.886V49.4251C271.886 49.6408 271.876 49.8197 271.855 49.9619H271.893C272.018 49.7614 272.195 49.604 272.423 49.4898C272.655 49.373 272.918 49.3146 273.213 49.3146C273.724 49.3146 274.107 49.4365 274.361 49.6802C274.617 49.9213 274.746 50.3059 274.746 50.8339V53.5561H274.113Z" fill="white"/>
<path d="M279.428 53.1106C279.54 53.1106 279.648 53.103 279.752 53.0877C279.857 53.07 279.939 53.0522 280 53.0344V53.518C279.932 53.551 279.83 53.5776 279.696 53.5979C279.563 53.6207 279.444 53.6322 279.336 53.6322C278.528 53.6322 278.124 53.207 278.124 52.3567V49.8742H277.525V49.5697L278.124 49.3069L278.391 48.416H278.757V49.3831H279.97V49.8742H278.757V52.33C278.757 52.5813 278.817 52.7743 278.936 52.9088C279.056 53.0433 279.22 53.1106 279.428 53.1106Z" fill="white"/>
<path d="M283.699 53.5561V50.8566C283.699 50.5165 283.621 50.2627 283.466 50.0952C283.311 49.9277 283.068 49.8439 282.737 49.8439C282.298 49.8439 281.976 49.9632 281.773 50.2018C281.572 50.4404 281.471 50.8313 281.471 51.3745V53.5561H280.839V47.6318H281.471V49.4251C281.471 49.6408 281.462 49.8197 281.441 49.9619H281.479C281.604 49.7614 281.78 49.604 282.009 49.4898C282.241 49.373 282.504 49.3146 282.799 49.3146C283.31 49.3146 283.692 49.4365 283.946 49.6802C284.203 49.9213 284.331 50.3059 284.331 50.8339V53.5561H283.699Z" fill="white"/>
<path d="M287.402 53.6324C286.784 53.6324 286.295 53.4445 285.937 53.0689C285.581 52.6932 285.403 52.1716 285.403 51.5041C285.403 50.8314 285.569 50.2971 285.899 49.9011C286.232 49.5052 286.678 49.3071 287.238 49.3071C287.761 49.3071 288.176 49.4798 288.481 49.825C288.786 50.1676 288.938 50.6208 288.938 51.1842V51.584H286.059C286.072 52.0739 286.196 52.4457 286.429 52.6996C286.666 52.9534 286.997 53.0803 287.424 53.0803C287.875 53.0803 288.32 52.9864 288.759 52.7985V53.362C288.536 53.4585 288.323 53.527 288.122 53.5676C287.924 53.6108 287.684 53.6324 287.402 53.6324ZM287.23 49.8364C286.894 49.8364 286.626 49.9456 286.426 50.1638C286.227 50.3822 286.111 50.6842 286.075 51.07H288.26C288.26 50.6715 288.17 50.3669 287.993 50.1562C287.815 49.943 287.56 49.8364 287.23 49.8364Z" fill="white"/>
<path d="M229.406 59.7116C229.955 59.7116 230.381 59.8994 230.684 60.2751C230.988 60.6483 231.141 61.1775 231.141 61.8628C231.141 62.5482 230.987 63.0812 230.679 63.4619C230.375 63.8402 229.95 64.0292 229.406 64.0292C229.134 64.0292 228.885 63.9797 228.658 63.8807C228.435 63.7793 228.247 63.6243 228.094 63.4162H228.048L227.915 63.9531H227.461V58.0288H228.094V59.468C228.094 59.7904 228.084 60.0797 228.064 60.336H228.094C228.389 59.9198 228.826 59.7116 229.406 59.7116ZM229.314 60.2409C228.882 60.2409 228.571 60.3652 228.38 60.614C228.19 60.8602 228.094 61.2765 228.094 61.8628C228.094 62.4492 228.192 62.8693 228.388 63.1231C228.584 63.3744 228.898 63.5 229.33 63.5C229.719 63.5 230.009 63.3591 230.199 63.0774C230.389 62.7931 230.485 62.3857 230.485 61.8553C230.485 61.312 230.389 60.9072 230.199 60.6406C230.009 60.3741 229.714 60.2409 229.314 60.2409Z" fill="white"/>
<path d="M232.845 59.7803V62.4873C232.845 62.8275 232.924 63.0813 233.078 63.2489C233.233 63.4164 233.476 63.5002 233.807 63.5002C234.244 63.5002 234.563 63.3808 234.764 63.1422C234.967 62.9036 235.069 62.514 235.069 61.9734V59.7803H235.702V63.9532H235.18L235.088 63.3935H235.054C234.924 63.5991 234.743 63.7565 234.512 63.8657C234.283 63.9748 234.021 64.0294 233.726 64.0294C233.219 64.0294 232.837 63.9088 232.583 63.6677C232.331 63.4265 232.205 63.0407 232.205 62.5102V59.7803H232.845Z" fill="white"/>
<path d="M238.954 59.7041C239.14 59.7041 239.307 59.7194 239.454 59.7498L239.366 60.3361C239.194 60.2981 239.041 60.279 238.909 60.279C238.571 60.279 238.281 60.4161 238.04 60.6902C237.8 60.9644 237.681 61.3058 237.681 61.7145V63.9532H237.048V59.7803H237.57L237.643 60.5532H237.673C237.829 60.2816 238.015 60.0721 238.234 59.9249C238.453 59.7777 238.693 59.7041 238.954 59.7041Z" fill="white"/>
<path d="M243.095 63.9532V61.2537C243.095 60.9136 243.017 60.6598 242.863 60.4923C242.708 60.3248 242.465 60.241 242.134 60.241C241.697 60.241 241.376 60.359 241.173 60.5951C240.97 60.8311 240.868 61.2207 240.868 61.764V63.9532H240.235V59.7803H240.75L240.853 60.3514H240.884C241.013 60.1458 241.195 59.9872 241.428 59.8755C241.663 59.7613 241.923 59.7041 242.21 59.7041C242.714 59.7041 243.093 59.826 243.347 60.0696C243.601 60.3108 243.728 60.6979 243.728 61.231V63.9532H243.095Z" fill="white"/>
<path d="M245.666 63.9529H245.032V59.78H245.666V63.9529ZM244.979 58.6493C244.979 58.5046 245.015 58.3992 245.086 58.3332C245.157 58.2647 245.246 58.2305 245.353 58.2305C245.455 58.2305 245.543 58.2647 245.616 58.3332C245.69 58.4018 245.727 58.5071 245.727 58.6493C245.727 58.7914 245.69 58.898 245.616 58.9691C245.543 59.0376 245.455 59.0719 245.353 59.0719C245.246 59.0719 245.157 59.0376 245.086 58.9691C245.015 58.898 244.979 58.7914 244.979 58.6493Z" fill="white"/>
<path d="M249.868 63.9532V61.2537C249.868 60.9136 249.79 60.6598 249.634 60.4923C249.48 60.3248 249.237 60.241 248.906 60.241C248.469 60.241 248.149 60.359 247.946 60.5951C247.742 60.8311 247.64 61.2207 247.64 61.764V63.9532H247.008V59.7803H247.522L247.626 60.3514H247.656C247.785 60.1458 247.968 59.9872 248.201 59.8755C248.435 59.7613 248.696 59.7041 248.983 59.7041C249.486 59.7041 249.865 59.826 250.119 60.0696C250.374 60.3108 250.5 60.6979 250.5 61.231V63.9532H249.868Z" fill="white"/>
<path d="M255.226 59.7803V60.1801L254.452 60.2714C254.523 60.3603 254.587 60.477 254.642 60.6217C254.699 60.7639 254.726 60.925 254.726 61.1052C254.726 61.5139 254.587 61.8401 254.307 62.0837C254.027 62.3275 253.643 62.4493 253.156 62.4493C253.031 62.4493 252.914 62.4391 252.804 62.4188C252.535 62.561 252.4 62.74 252.4 62.9557C252.4 63.0699 252.448 63.155 252.541 63.2108C252.635 63.264 252.797 63.2907 253.026 63.2907H253.766C254.218 63.2907 254.565 63.3859 254.806 63.5763C255.051 63.7666 255.172 64.0433 255.172 64.4063C255.172 64.8683 254.987 65.2198 254.616 65.461C254.245 65.7046 253.703 65.8265 252.992 65.8265C252.445 65.8265 252.022 65.725 251.726 65.5219C251.431 65.3188 251.283 65.032 251.283 64.6614C251.283 64.4076 251.365 64.188 251.527 64.0027C251.69 63.8174 251.918 63.6918 252.213 63.6258C252.107 63.5775 252.016 63.5026 251.943 63.4011C251.872 63.2996 251.836 63.1816 251.836 63.047C251.836 62.8948 251.877 62.7615 251.958 62.6473C252.039 62.5331 252.167 62.4226 252.344 62.316C252.127 62.2272 251.95 62.0761 251.813 61.8629C251.678 61.6497 251.611 61.4061 251.611 61.1319C251.611 60.675 251.748 60.3235 252.022 60.0773C252.298 59.8285 252.686 59.7041 253.19 59.7041C253.408 59.7041 253.605 59.7295 253.781 59.7803H255.226ZM251.893 64.6537C251.893 64.8797 251.989 65.051 252.18 65.1678C252.37 65.2846 252.643 65.3429 252.999 65.3429C253.531 65.3429 253.923 65.263 254.177 65.103C254.434 64.9456 254.562 64.7312 254.562 64.4596C254.562 64.2337 254.493 64.0763 254.352 63.9875C254.213 63.9012 253.95 63.858 253.564 63.858H252.804C252.517 63.858 252.293 63.9266 252.134 64.0636C251.973 64.2007 251.893 64.3974 251.893 64.6537ZM252.237 61.1167C252.237 61.4086 252.319 61.6294 252.484 61.7792C252.65 61.9289 252.88 62.0038 253.175 62.0038C253.792 62.0038 254.101 61.7043 254.101 61.1052C254.101 60.4783 253.788 60.1649 253.163 60.1649C252.866 60.1649 252.637 60.2448 252.476 60.4047C252.317 60.5646 252.237 60.8019 252.237 61.1167Z" fill="white"/>
<path d="M260.057 64.0293C259.784 64.0293 259.535 63.9799 259.309 63.8808C259.086 63.7794 258.897 63.6245 258.745 63.4163H258.699C258.729 63.6601 258.745 63.8911 258.745 64.1093V65.8265H258.111V59.7803H258.627L258.714 60.3514H258.745C258.907 60.1229 259.097 59.958 259.313 59.8564C259.529 59.7549 259.776 59.7041 260.057 59.7041C260.61 59.7041 261.038 59.8932 261.338 60.2714C261.64 60.6497 261.791 61.1802 261.791 61.8629C261.791 62.5483 261.638 63.0813 261.33 63.462C261.025 63.8403 260.601 64.0293 260.057 64.0293ZM259.965 60.241C259.538 60.241 259.229 60.359 259.038 60.5951C258.848 60.8311 258.75 61.2068 258.745 61.722V61.8629C258.745 62.4493 258.843 62.8694 259.038 63.1232C259.234 63.3745 259.548 63.5001 259.98 63.5001C260.341 63.5001 260.623 63.3541 260.826 63.0623C261.033 62.7704 261.135 62.3681 261.135 61.8554C261.135 61.335 261.033 60.9365 260.826 60.6598C260.623 60.3806 260.336 60.241 259.965 60.241Z" fill="white"/>
<path d="M266.509 61.8629C266.509 62.5432 266.338 63.075 265.994 63.4583C265.65 63.839 265.177 64.0293 264.572 64.0293C264.198 64.0293 263.866 63.9418 263.577 63.7666C263.287 63.5915 263.063 63.3402 262.905 63.0128C262.748 62.6854 262.669 62.3021 262.669 61.8629C262.669 61.1827 262.839 60.6534 263.18 60.2752C263.52 59.8945 263.993 59.7041 264.599 59.7041C265.183 59.7041 265.647 59.8983 265.991 60.2867C266.336 60.675 266.509 61.2005 266.509 61.8629ZM263.325 61.8629C263.325 62.396 263.432 62.8021 263.645 63.0813C263.859 63.3606 264.173 63.5001 264.587 63.5001C265.001 63.5001 265.316 63.3618 265.529 63.0851C265.745 62.8059 265.853 62.3985 265.853 61.8629C265.853 61.3324 265.745 60.9301 265.529 60.656C265.316 60.3793 264.999 60.241 264.58 60.241C264.165 60.241 263.853 60.3768 263.642 60.6484C263.43 60.92 263.325 61.3248 263.325 61.8629Z" fill="white"/>
<path d="M271.23 61.8629C271.23 62.5432 271.058 63.075 270.715 63.4583C270.372 63.839 269.898 64.0293 269.293 64.0293C268.919 64.0293 268.587 63.9418 268.297 63.7666C268.007 63.5915 267.784 63.3402 267.627 63.0128C267.469 62.6854 267.39 62.3021 267.39 61.8629C267.39 61.1827 267.561 60.6534 267.901 60.2752C268.242 59.8945 268.715 59.7041 269.319 59.7041C269.904 59.7041 270.369 59.8983 270.711 60.2867C271.057 60.675 271.23 61.2005 271.23 61.8629ZM268.046 61.8629C268.046 62.396 268.152 62.8021 268.366 63.0813C268.579 63.3606 268.893 63.5001 269.308 63.5001C269.722 63.5001 270.036 63.3618 270.25 63.0851C270.466 62.8059 270.574 62.3985 270.574 61.8629C270.574 61.3324 270.466 60.9301 270.25 60.656C270.036 60.3793 269.719 60.241 269.3 60.241C268.886 60.241 268.573 60.3768 268.362 60.6484C268.152 60.92 268.046 61.3248 268.046 61.8629Z" fill="white"/>
<path d="M272.975 63.9531H272.343V58.0288H272.975V63.9531Z" fill="white"/>
<path d="M220.731 82.2305C220.731 82.5859 220.63 82.8765 220.43 83.1025C220.231 83.3283 219.949 83.4793 219.583 83.5555V83.586C220.031 83.6418 220.362 83.784 220.578 84.0124C220.794 84.2408 220.903 84.5403 220.903 84.911C220.903 85.4415 220.718 85.8502 220.349 86.1369C219.981 86.4212 219.457 86.5634 218.778 86.5634C218.483 86.5634 218.213 86.5405 217.966 86.4948C217.722 86.4517 217.485 86.3742 217.253 86.2626V85.661C217.494 85.7803 217.751 85.8717 218.023 85.9351C218.298 85.9961 218.557 86.0266 218.801 86.0266C219.765 86.0266 220.247 85.6496 220.247 84.8957C220.247 84.2205 219.715 83.883 218.653 83.883H218.103V83.3385H218.66C219.095 83.3385 219.44 83.2433 219.694 83.053C219.948 82.86 220.075 82.5935 220.075 82.2534C220.075 81.9818 219.981 81.7686 219.793 81.6137C219.607 81.4589 219.354 81.3815 219.034 81.3815C218.79 81.3815 218.56 81.4145 218.344 81.4805C218.128 81.5465 217.881 81.6683 217.603 81.846L217.283 81.4196C217.512 81.2394 217.775 81.0985 218.073 80.9969C218.373 80.8929 218.688 80.8408 219.019 80.8408C219.56 80.8408 219.981 80.9652 220.28 81.214C220.581 81.4602 220.731 81.7991 220.731 82.2305Z" fill="white"/>
<path d="M222.286 82.5808C222.286 83.0124 222.333 83.336 222.427 83.5517C222.522 83.7675 222.674 83.8754 222.885 83.8754C223.302 83.8754 223.511 83.4438 223.511 82.5808C223.511 81.7229 223.302 81.2939 222.885 81.2939C222.674 81.2939 222.522 81.4005 222.427 81.6137C222.333 81.827 222.286 82.1493 222.286 82.5808ZM224.033 82.5808C224.033 83.1596 223.935 83.5974 223.739 83.8943C223.546 84.1888 223.261 84.336 222.885 84.336C222.529 84.336 222.252 84.185 222.054 83.883C221.858 83.5809 221.76 83.1469 221.76 82.5808C221.76 82.0047 221.854 81.5706 222.043 81.2787C222.233 80.9868 222.514 80.8408 222.885 80.8408C223.254 80.8408 223.537 80.9918 223.736 81.2939C223.933 81.596 224.033 82.0249 224.033 82.5808ZM225.642 84.812C225.642 85.246 225.689 85.5709 225.783 85.7867C225.877 85.9999 226.031 86.1065 226.244 86.1065C226.458 86.1065 226.616 86.0012 226.717 85.7905C226.819 85.5772 226.87 85.2511 226.87 84.812C226.87 84.3779 226.819 84.0568 226.717 83.8487C226.616 83.638 226.458 83.5327 226.244 83.5327C226.031 83.5327 225.877 83.638 225.783 83.8487C225.689 84.0568 225.642 84.3779 225.642 84.812ZM227.392 84.812C227.392 85.3882 227.294 85.8248 227.099 86.1217C226.905 86.4162 226.621 86.5634 226.244 86.5634C225.883 86.5634 225.606 86.4124 225.409 86.1103C225.216 85.8082 225.12 85.3755 225.12 84.812C225.12 84.2358 225.213 83.8017 225.402 83.5098C225.593 83.218 225.874 83.072 226.244 83.072C226.605 83.072 226.886 83.2218 227.088 83.5213C227.291 83.8183 227.392 84.2485 227.392 84.812ZM226.408 80.9208L223.316 86.4872H222.755L225.848 80.9208H226.408Z" fill="white"/>
<path d="M233.055 86.4873L231.163 81.5529H231.133C231.168 81.9439 231.187 82.4083 231.187 82.9464V86.4873H230.588V80.9209H231.564L233.329 85.5126H233.36L235.141 80.9209H236.109V86.4873H235.461V82.9008C235.461 82.4896 235.478 82.0428 235.515 81.5606H235.484L233.577 86.4873H233.055Z" fill="white"/>
<path d="M240.118 86.4875L239.992 85.8936H239.962C239.752 86.155 239.544 86.3327 239.336 86.4266C239.13 86.518 238.872 86.5637 238.562 86.5637C238.147 86.5637 237.822 86.4571 237.586 86.2439C237.352 86.0307 237.234 85.7274 237.234 85.3339C237.234 84.4912 237.909 84.0496 239.26 84.009L239.969 83.9861V83.7272C239.969 83.3998 239.897 83.1586 239.755 83.0038C239.615 82.8464 239.391 82.7677 239.08 82.7677C238.732 82.7677 238.338 82.8743 237.898 83.0875L237.704 82.604C237.909 82.4923 238.135 82.4047 238.379 82.3413C238.625 82.2778 238.872 82.2461 239.118 82.2461C239.617 82.2461 239.985 82.3566 240.225 82.5773C240.466 82.7982 240.586 83.1523 240.586 83.6396V86.4875H240.118ZM238.688 86.0421C239.082 86.0421 239.391 85.9342 239.615 85.7184C239.84 85.5027 239.954 85.2007 239.954 84.8123V84.4354L239.32 84.462C238.817 84.4797 238.454 84.5585 238.23 84.6981C238.009 84.8351 237.898 85.0497 237.898 85.3416C237.898 85.5699 237.967 85.7438 238.104 85.8631C238.244 85.9824 238.439 86.0421 238.688 86.0421Z" fill="white"/>
<path d="M243.801 82.2383C243.987 82.2383 244.153 82.2535 244.301 82.284L244.212 82.8703C244.04 82.8323 243.887 82.8132 243.755 82.8132C243.416 82.8132 243.127 82.9503 242.885 83.2244C242.647 83.4985 242.527 83.84 242.527 84.2486V86.4874H241.895V82.3144H242.417L242.489 83.0874H242.519C242.675 82.8157 242.861 82.6063 243.08 82.4591C243.299 82.3119 243.539 82.2383 243.801 82.2383Z" fill="white"/>
<path d="M245.708 84.3514C245.817 84.1966 245.984 83.9935 246.207 83.7422L247.557 82.3144H248.308L246.615 84.0925L248.426 86.4873H247.66L246.184 84.5151L245.708 84.9263V86.4873H245.082V80.563H245.708V83.7041C245.708 83.8437 245.697 84.0595 245.677 84.3514H245.708Z" fill="white"/>
<path d="M250.951 86.5635C250.334 86.5635 249.845 86.3757 249.487 86C249.131 85.6243 248.953 85.1028 248.953 84.4352C248.953 83.7625 249.118 83.2282 249.449 82.8323C249.782 82.4363 250.228 82.2383 250.787 82.2383C251.311 82.2383 251.726 82.4109 252.03 82.7561C252.336 83.0988 252.488 83.5518 252.488 84.1153V84.5152H249.609C249.621 85.005 249.744 85.3769 249.979 85.6307C250.215 85.8845 250.547 86.0114 250.974 86.0114C251.424 86.0114 251.869 85.9175 252.309 85.7297V86.2932C252.085 86.3896 251.873 86.4582 251.672 86.4988C251.474 86.5419 251.233 86.5635 250.951 86.5635ZM250.78 82.7676C250.444 82.7676 250.176 82.8766 249.975 83.095C249.777 83.3132 249.659 83.6153 249.624 84.0011H251.809C251.809 83.6026 251.72 83.2981 251.542 83.0874C251.365 82.8741 251.11 82.7676 250.78 82.7676Z" fill="white"/>
<path d="M254.92 86.0417C255.032 86.0417 255.141 86.0341 255.245 86.0189C255.349 86.0011 255.432 85.9833 255.492 85.9656V86.4491C255.424 86.4821 255.322 86.5087 255.188 86.5291C255.056 86.5519 254.936 86.5633 254.829 86.5633C254.021 86.5633 253.616 86.1382 253.616 85.2878V82.8054H253.018V82.5008L253.616 82.2381L253.884 81.3472H254.25V82.3142H255.462V82.8054H254.25V85.2612C254.25 85.5125 254.31 85.7054 254.429 85.8399C254.548 85.9744 254.712 86.0417 254.92 86.0417Z" fill="white"/>
<path d="M256.965 86.4872H256.331V82.3143H256.965V86.4872ZM256.278 81.1835C256.278 81.0388 256.314 80.9335 256.385 80.8675C256.456 80.799 256.545 80.7646 256.651 80.7646C256.754 80.7646 256.842 80.799 256.915 80.8675C256.989 80.936 257.025 81.0414 257.025 81.1835C257.025 81.3256 256.989 81.4322 256.915 81.5033C256.842 81.5719 256.754 81.6061 256.651 81.6061C256.545 81.6061 256.456 81.5719 256.385 81.5033C256.314 81.4322 256.278 81.3256 256.278 81.1835Z" fill="white"/>
<path d="M261.167 86.4874V83.7879C261.167 83.4478 261.089 83.1939 260.933 83.0264C260.779 82.8589 260.536 82.7752 260.205 82.7752C259.768 82.7752 259.448 82.8932 259.245 83.1292C259.041 83.3653 258.939 83.7549 258.939 84.2981V86.4874H258.307V82.3144H258.821L258.924 82.8856H258.955C259.084 82.68 259.266 82.5213 259.5 82.4097C259.734 82.2954 259.994 82.2383 260.282 82.2383C260.785 82.2383 261.164 82.3601 261.418 82.6038C261.673 82.8449 261.799 83.232 261.799 83.765V86.4874H261.167Z" fill="white"/>
<path d="M266.524 82.3144V82.7142L265.75 82.8056C265.821 82.8944 265.884 83.0112 265.94 83.1559C265.996 83.2981 266.024 83.4592 266.024 83.6394C266.024 84.0481 265.884 84.3743 265.605 84.6179C265.325 84.8616 264.941 84.9835 264.454 84.9835C264.329 84.9835 264.211 84.9733 264.102 84.953C263.833 85.0951 263.698 85.274 263.698 85.4899C263.698 85.6041 263.746 85.6891 263.839 85.7449C263.933 85.7982 264.095 85.8249 264.323 85.8249H265.064C265.516 85.8249 265.863 85.92 266.104 86.1105C266.349 86.3008 266.47 86.5775 266.47 86.9403C266.47 87.4021 266.284 87.7539 265.914 87.9947C265.543 88.239 265.001 88.3603 264.29 88.3603C263.743 88.3603 263.32 88.259 263.024 88.0562C262.729 87.8526 262.581 87.5658 262.581 87.1959C262.581 86.942 262.663 86.722 262.825 86.5368C262.988 86.3516 263.216 86.226 263.511 86.1599C263.405 86.1117 263.314 86.0368 263.241 85.9353C263.169 85.8337 263.134 85.7157 263.134 85.5812C263.134 85.4289 263.175 85.2956 263.256 85.1814C263.337 85.0672 263.465 84.9568 263.641 84.8502C263.425 84.7613 263.248 84.6103 263.111 84.3971C262.976 84.1839 262.909 83.9402 262.909 83.6661C262.909 83.2092 263.046 82.8577 263.32 82.6114C263.595 82.3627 263.984 82.2383 264.487 82.2383C264.706 82.2383 264.903 82.2637 265.078 82.3144H266.524ZM263.191 87.1881C263.191 87.4142 263.287 87.5849 263.477 87.7019C263.667 87.8188 263.941 87.8769 264.297 87.8769C264.828 87.8769 265.221 87.7972 265.475 87.6369C265.732 87.4801 265.86 87.2652 265.86 86.994C265.86 86.7679 265.791 86.6105 265.65 86.5217C265.51 86.4354 265.248 86.3922 264.861 86.3922H264.102C263.815 86.3922 263.591 86.4608 263.431 86.5978C263.271 86.735 263.191 86.9316 263.191 87.1881ZM263.535 83.6509C263.535 83.9427 263.617 84.1636 263.782 84.3133C263.948 84.4631 264.178 84.538 264.473 84.538C265.09 84.538 265.399 84.2384 265.399 83.6394C265.399 83.0125 265.086 82.699 264.461 82.699C264.164 82.699 263.935 82.7789 263.774 82.9389C263.615 83.0988 263.535 83.3361 263.535 83.6509Z" fill="white"/>
<path d="M217.644 122.006H213.979V121.461L215.448 119.988C215.895 119.536 216.19 119.214 216.332 119.021C216.474 118.828 216.581 118.64 216.652 118.457C216.723 118.275 216.759 118.078 216.759 117.867C216.759 117.57 216.669 117.335 216.488 117.163C216.308 116.988 216.058 116.901 215.737 116.901C215.506 116.901 215.286 116.939 215.077 117.015C214.872 117.09 214.642 117.229 214.387 117.43L214.052 116.999C214.565 116.573 215.124 116.36 215.73 116.36C216.253 116.36 216.663 116.494 216.961 116.764C217.259 117.03 217.407 117.389 217.407 117.841C217.407 118.193 217.308 118.542 217.11 118.888C216.912 119.233 216.54 119.669 215.996 120.197L214.776 121.389V121.42H217.644V122.006Z" fill="white"/>
<path d="M218.99 118.1C218.99 118.531 219.037 118.855 219.131 119.071C219.225 119.287 219.378 119.394 219.588 119.394C220.005 119.394 220.214 118.963 220.214 118.1C220.214 117.242 220.005 116.813 219.588 116.813C219.378 116.813 219.225 116.92 219.131 117.133C219.037 117.346 218.99 117.668 218.99 118.1ZM220.736 118.1C220.736 118.678 220.638 119.116 220.442 119.413C220.25 119.708 219.965 119.855 219.588 119.855C219.233 119.855 218.956 119.704 218.757 119.402C218.561 119.099 218.464 118.665 218.464 118.1C218.464 117.523 218.558 117.089 218.746 116.797C218.937 116.505 219.217 116.36 219.588 116.36C219.957 116.36 220.24 116.511 220.439 116.813C220.638 117.115 220.736 117.543 220.736 118.1ZM222.345 120.331C222.345 120.765 222.392 121.09 222.487 121.305C222.58 121.518 222.735 121.625 222.948 121.625C223.162 121.625 223.319 121.52 223.421 121.31C223.523 121.096 223.573 120.77 223.573 120.331C223.573 119.896 223.523 119.576 223.421 119.367C223.319 119.157 223.162 119.052 222.948 119.052C222.735 119.052 222.58 119.157 222.487 119.367C222.392 119.576 222.345 119.896 222.345 120.331ZM224.095 120.331C224.095 120.907 223.998 121.343 223.802 121.641C223.609 121.935 223.324 122.082 222.948 122.082C222.587 122.082 222.309 121.931 222.113 121.629C221.92 121.327 221.823 120.895 221.823 120.331C221.823 119.754 221.917 119.32 222.105 119.028C222.296 118.736 222.577 118.591 222.948 118.591C223.309 118.591 223.59 118.741 223.791 119.04C223.994 119.337 224.095 119.767 224.095 120.331ZM223.112 116.44L220.02 122.006H219.459L222.552 116.44H223.112Z" fill="white"/>
<path d="M229.678 116.939C229.065 116.939 228.581 117.143 228.225 117.551C227.871 117.957 227.695 118.515 227.695 119.222C227.695 119.951 227.865 120.515 228.206 120.914C228.549 121.31 229.038 121.507 229.67 121.507C230.059 121.507 230.503 121.438 231.001 121.297V121.865C230.615 122.01 230.138 122.082 229.571 122.082C228.75 122.082 228.116 121.834 227.668 121.336C227.223 120.838 227.001 120.131 227.001 119.216C227.001 118.642 227.108 118.139 227.321 117.707C227.537 117.276 227.848 116.944 228.251 116.71C228.658 116.477 229.136 116.36 229.686 116.36C230.271 116.36 230.781 116.466 231.218 116.68L230.944 117.235C230.522 117.037 230.1 116.939 229.678 116.939Z" fill="white"/>
<path d="M235.729 119.916C235.729 120.596 235.558 121.128 235.215 121.511C234.871 121.892 234.397 122.082 233.793 122.082C233.419 122.082 233.087 121.995 232.797 121.819C232.507 121.644 232.284 121.393 232.126 121.065C231.969 120.738 231.89 120.355 231.89 119.916C231.89 119.235 232.06 118.706 232.401 118.328C232.741 117.947 233.214 117.757 233.819 117.757C234.403 117.757 234.868 117.951 235.21 118.34C235.557 118.728 235.729 119.254 235.729 119.916ZM232.546 119.916C232.546 120.448 232.652 120.855 232.866 121.134C233.079 121.414 233.393 121.553 233.807 121.553C234.222 121.553 234.536 121.414 234.75 121.138C234.966 120.859 235.073 120.451 235.073 119.916C235.073 119.385 234.966 118.983 234.75 118.709C234.536 118.432 234.219 118.294 233.8 118.294C233.386 118.294 233.073 118.43 232.862 118.701C232.651 118.973 232.546 119.377 232.546 119.916Z" fill="white"/>
<path d="M239.703 122.006V119.306C239.703 118.967 239.626 118.713 239.47 118.545C239.315 118.378 239.073 118.294 238.742 118.294C238.305 118.294 237.985 118.411 237.781 118.648C237.578 118.884 237.476 119.274 237.476 119.817V122.006H236.843V117.833H237.358L237.461 118.405H237.491C237.621 118.198 237.802 118.04 238.037 117.928C238.27 117.814 238.531 117.757 238.819 117.757C239.322 117.757 239.7 117.879 239.954 118.122C240.209 118.364 240.336 118.75 240.336 119.284V122.006H239.703Z" fill="white"/>
<path d="M242.99 121.561C243.102 121.561 243.21 121.553 243.314 121.537C243.418 121.52 243.501 121.502 243.562 121.484V121.968C243.493 122.001 243.392 122.028 243.257 122.048C243.125 122.071 243.005 122.082 242.899 122.082C242.09 122.082 241.686 121.657 241.686 120.807V118.324H241.087V118.02L241.686 117.757L241.953 116.866H242.319V117.833H243.531V118.324H242.319V120.78C242.319 121.031 242.379 121.224 242.498 121.359C242.618 121.493 242.782 121.561 242.99 121.561Z" fill="white"/>
<path d="M246.166 122.082C245.549 122.082 245.06 121.894 244.702 121.518C244.346 121.143 244.168 120.622 244.168 119.954C244.168 119.281 244.334 118.747 244.663 118.351C244.997 117.955 245.443 117.757 246.002 117.757C246.526 117.757 246.94 117.93 247.246 118.275C247.55 118.618 247.703 119.071 247.703 119.634V120.033H244.824C244.837 120.524 244.96 120.895 245.194 121.149C245.431 121.403 245.762 121.53 246.189 121.53C246.639 121.53 247.084 121.436 247.523 121.248V121.812C247.3 121.908 247.088 121.977 246.887 122.017C246.689 122.061 246.448 122.082 246.166 122.082ZM245.995 118.286C245.659 118.286 245.391 118.395 245.19 118.613C244.991 118.832 244.875 119.134 244.84 119.52H247.025C247.025 119.121 246.935 118.817 246.757 118.606C246.579 118.392 246.325 118.286 245.995 118.286Z" fill="white"/>
<path d="M251.482 120.868C251.482 121.256 251.337 121.556 251.047 121.766C250.757 121.977 250.35 122.082 249.827 122.082C249.273 122.082 248.84 121.995 248.531 121.819V121.233C248.731 121.335 248.946 121.414 249.175 121.473C249.406 121.531 249.628 121.561 249.842 121.561C250.172 121.561 250.427 121.509 250.605 121.404C250.782 121.297 250.872 121.136 250.872 120.921C250.872 120.759 250.801 120.62 250.658 120.506C250.519 120.389 250.244 120.252 249.834 120.095C249.445 119.95 249.168 119.825 249.003 119.718C248.84 119.609 248.718 119.486 248.637 119.348C248.558 119.211 248.519 119.047 248.519 118.858C248.519 118.517 248.657 118.249 248.934 118.054C249.212 117.856 249.592 117.757 250.074 117.757C250.525 117.757 250.965 117.848 251.394 118.031L251.169 118.545C250.749 118.372 250.369 118.286 250.029 118.286C249.729 118.286 249.503 118.333 249.35 118.427C249.198 118.521 249.122 118.651 249.122 118.815C249.122 118.927 249.149 119.022 249.205 119.101C249.264 119.18 249.357 119.254 249.483 119.326C249.611 119.397 249.855 119.5 250.216 119.634C250.711 119.814 251.045 119.996 251.219 120.178C251.394 120.361 251.482 120.591 251.482 120.868Z" fill="white"/>
<path d="M253.865 121.561C253.977 121.561 254.085 121.553 254.189 121.537C254.294 121.52 254.376 121.502 254.438 121.484V121.968C254.369 122.001 254.267 122.028 254.132 122.048C254 122.071 253.881 122.082 253.774 122.082C252.965 122.082 252.562 121.657 252.562 120.807V118.324H251.963V118.02L252.562 117.757L252.828 116.866H253.194V117.833H254.406V118.324H253.194V120.78C253.194 121.031 253.254 121.224 253.374 121.359C253.493 121.493 253.657 121.561 253.865 121.561Z" fill="white"/>
<path d="M257.972 120.868C257.972 121.256 257.827 121.556 257.537 121.766C257.248 121.977 256.842 122.082 256.317 122.082C255.763 122.082 255.331 121.995 255.021 121.819V121.233C255.221 121.335 255.437 121.414 255.666 121.473C255.897 121.531 256.12 121.561 256.333 121.561C256.664 121.561 256.918 121.509 257.096 121.404C257.274 121.297 257.362 121.136 257.362 120.921C257.362 120.759 257.291 120.62 257.149 120.506C257.009 120.389 256.735 120.252 256.325 120.095C255.936 119.95 255.659 119.825 255.494 119.718C255.331 119.609 255.209 119.486 255.128 119.348C255.049 119.211 255.01 119.047 255.01 118.858C255.01 118.517 255.148 118.249 255.425 118.054C255.702 117.856 256.082 117.757 256.566 117.757C257.015 117.757 257.455 117.848 257.885 118.031L257.66 118.545C257.241 118.372 256.861 118.286 256.52 118.286C256.219 118.286 255.994 118.333 255.841 118.427C255.688 118.521 255.612 118.651 255.612 118.815C255.612 118.927 255.64 119.022 255.696 119.101C255.754 119.18 255.847 119.254 255.975 119.326C256.101 119.397 256.345 119.5 256.706 119.634C257.203 119.814 257.537 119.996 257.709 120.178C257.885 120.361 257.972 120.591 257.972 120.868Z" fill="white"/>
<path d="M263.604 122.006L263.478 121.412H263.448C263.24 121.673 263.031 121.851 262.822 121.945C262.617 122.036 262.359 122.082 262.048 122.082C261.635 122.082 261.309 121.976 261.072 121.763C260.839 121.549 260.722 121.245 260.722 120.852C260.722 120.01 261.397 119.568 262.746 119.527L263.456 119.505V119.246C263.456 118.918 263.385 118.677 263.242 118.522C263.102 118.365 262.877 118.286 262.567 118.286C262.218 118.286 261.825 118.392 261.385 118.606L261.19 118.122C261.397 118.01 261.622 117.923 261.865 117.859C262.112 117.796 262.359 117.764 262.605 117.764C263.104 117.764 263.472 117.875 263.711 118.096C263.952 118.317 264.074 118.67 264.074 119.158V122.006H263.604ZM262.174 121.561C262.568 121.561 262.877 121.452 263.101 121.237C263.327 121.021 263.44 120.719 263.44 120.33V119.954L262.808 119.98C262.304 119.998 261.941 120.077 261.717 120.216C261.496 120.354 261.385 120.568 261.385 120.86C261.385 121.089 261.454 121.262 261.591 121.381C261.731 121.501 261.925 121.561 262.174 121.561Z" fill="white"/>
<path d="M268.242 122.006V119.306C268.242 118.967 268.164 118.713 268.009 118.545C267.854 118.378 267.611 118.294 267.28 118.294C266.844 118.294 266.523 118.411 266.32 118.648C266.117 118.884 266.014 119.274 266.014 119.817V122.006H265.382V117.833H265.896L266 118.405H266.03C266.159 118.198 266.342 118.04 266.575 117.928C266.809 117.814 267.07 117.757 267.357 117.757C267.86 117.757 268.239 117.879 268.493 118.122C268.748 118.364 268.874 118.75 268.874 119.284V122.006H268.242Z" fill="white"/>
<path d="M273.023 121.446H272.988C272.696 121.87 272.259 122.082 271.676 122.082C271.13 122.082 270.705 121.895 270.399 121.523C270.097 121.149 269.945 120.619 269.945 119.931C269.945 119.243 270.098 118.708 270.403 118.328C270.708 117.947 271.132 117.757 271.676 117.757C272.244 117.757 272.679 117.962 272.981 118.373H273.03L273.004 118.073L272.988 117.78V116.082H273.622V122.006H273.106L273.023 121.446ZM271.757 121.553C272.189 121.553 272.502 121.436 272.695 121.203C272.89 120.966 272.988 120.587 272.988 120.064V119.931C272.988 119.339 272.89 118.918 272.691 118.667C272.496 118.413 272.181 118.286 271.749 118.286C271.378 118.286 271.093 118.43 270.895 118.72C270.699 119.006 270.601 119.413 270.601 119.939C270.601 120.472 270.699 120.874 270.895 121.146C271.091 121.417 271.378 121.553 271.757 121.553Z" fill="white"/>
<path d="M277.63 122.006H276.997V116.082H277.63V122.006Z" fill="white"/>
<path d="M282.579 119.916C282.579 120.596 282.408 121.128 282.064 121.511C281.722 121.892 281.247 122.082 280.642 122.082C280.268 122.082 279.937 121.995 279.647 121.819C279.357 121.644 279.133 121.393 278.975 121.065C278.818 120.738 278.739 120.355 278.739 119.916C278.739 119.235 278.909 118.706 279.25 118.328C279.59 117.947 280.063 117.757 280.669 117.757C281.253 117.757 281.717 117.951 282.061 118.34C282.406 118.728 282.579 119.254 282.579 119.916ZM279.395 119.916C279.395 120.448 279.502 120.855 279.715 121.134C279.929 121.414 280.243 121.553 280.657 121.553C281.072 121.553 281.386 121.414 281.599 121.138C281.815 120.859 281.923 120.451 281.923 119.916C281.923 119.385 281.815 118.983 281.599 118.709C281.386 118.432 281.069 118.294 280.65 118.294C280.235 118.294 279.923 118.43 279.712 118.701C279.5 118.973 279.395 119.377 279.395 119.916Z" fill="white"/>
<path d="M285.043 121.561C285.154 121.561 285.263 121.553 285.367 121.537C285.471 121.52 285.554 121.502 285.614 121.484V121.968C285.546 122.001 285.444 122.028 285.31 122.048C285.177 122.071 285.058 122.082 284.951 122.082C284.143 122.082 283.738 121.657 283.738 120.807V118.324H283.14V118.02L283.738 117.757L284.006 116.866H284.372V117.833H285.584V118.324H284.372V120.78C284.372 121.031 284.432 121.224 284.551 121.359C284.67 121.493 284.834 121.561 285.043 121.561Z" fill="white"/>
<path d="M287.803 121.561C287.915 121.561 288.023 121.553 288.127 121.537C288.231 121.52 288.314 121.502 288.375 121.484V121.968C288.307 122.001 288.205 122.028 288.07 122.048C287.938 122.071 287.818 122.082 287.711 122.082C286.903 122.082 286.499 121.657 286.499 120.807V118.324H285.9V118.02L286.499 117.757L286.766 116.866H287.132V117.833H288.345V118.324H287.132V120.78C287.132 121.031 287.192 121.224 287.311 121.359C287.431 121.493 287.595 121.561 287.803 121.561Z" fill="white"/>
<path d="M290.979 122.082C290.362 122.082 289.873 121.894 289.515 121.518C289.159 121.143 288.981 120.622 288.981 119.954C288.981 119.281 289.146 118.747 289.477 118.351C289.81 117.955 290.256 117.757 290.815 117.757C291.339 117.757 291.754 117.93 292.058 118.275C292.364 118.618 292.516 119.071 292.516 119.634V120.033H289.637C289.65 120.524 289.773 120.895 290.007 121.149C290.243 121.403 290.575 121.53 291.002 121.53C291.452 121.53 291.897 121.436 292.337 121.248V121.812C292.113 121.908 291.9 121.977 291.7 122.017C291.501 122.061 291.262 122.082 290.979 122.082ZM290.808 118.286C290.472 118.286 290.204 118.395 290.003 118.613C289.805 118.832 289.688 119.134 289.652 119.52H291.837C291.837 119.121 291.749 118.817 291.571 118.606C291.392 118.392 291.139 118.286 290.808 118.286Z" fill="white"/>
<path d="M295.506 117.757C295.692 117.757 295.857 117.772 296.005 117.802L295.917 118.389C295.745 118.351 295.592 118.332 295.46 118.332C295.121 118.332 294.832 118.469 294.59 118.743C294.352 119.017 294.232 119.358 294.232 119.767V122.006H293.599V117.833H294.122L294.194 118.606H294.224C294.38 118.334 294.566 118.125 294.785 117.977C295.003 117.83 295.244 117.757 295.506 117.757Z" fill="white"/>
<path d="M296.124 117.833H296.803L297.718 120.213C297.918 120.756 298.043 121.148 298.091 121.389H298.122C298.154 121.259 298.224 121.039 298.328 120.726C298.435 120.412 298.78 119.447 299.365 117.833H300.044L298.247 122.585C298.069 123.054 297.861 123.387 297.623 123.582C297.386 123.78 297.095 123.879 296.749 123.879C296.556 123.879 296.365 123.857 296.177 123.814V123.308C296.317 123.338 296.473 123.353 296.646 123.353C297.081 123.353 297.391 123.11 297.577 122.623L297.809 122.028L296.124 117.833Z" fill="white"/>
<path d="M152.526 90.2604C152.526 91.8044 151.273 93.0554 149.728 93.0554C148.182 93.0554 146.929 91.8044 146.929 90.2604C146.929 88.7174 148.182 87.4663 149.728 87.4663C151.273 87.4663 152.526 88.7174 152.526 90.2604Z" fill="white"/>
<path d="M157.711 112.038C157.711 113.582 156.458 114.833 154.912 114.833C153.366 114.833 152.113 113.582 152.113 112.038C152.113 110.495 153.366 109.244 154.912 109.244C156.458 109.244 157.711 110.495 157.711 112.038Z" fill="white"/>
<path d="M158.181 141.316C158.181 142.86 156.928 144.111 155.381 144.111C153.836 144.111 152.583 142.86 152.583 141.316C152.583 139.773 153.836 138.521 155.381 138.521C156.928 138.521 158.181 139.773 158.181 141.316Z" fill="white"/>
<path fill-rule="evenodd" clip-rule="evenodd" d="M182.575 56.8516H222.498V57.718H182.934L150.034 90.5672L149.421 89.9547L182.575 56.8516Z" fill="white"/>
<path fill-rule="evenodd" clip-rule="evenodd" d="M181.356 85.0776H213.576V85.944H181.716L155.218 112.422L154.604 111.809L181.356 85.0776Z" fill="white"/>
<path fill-rule="evenodd" clip-rule="evenodd" d="M178.535 119.421H206.77V120.287H178.874L155.676 141.635L155.088 140.998L178.535 119.421Z" fill="white"/>
<path d="M162.246 2.616H159.334V0.899999H167.264V2.616H164.352V10H162.246V2.616ZM170.72 2.902C171.803 2.902 172.635 3.162 173.216 3.682C173.797 4.19333 174.087 4.969 174.087 6.009V10H172.189V9.129C171.808 9.779 171.097 10.104 170.057 10.104C169.52 10.104 169.052 10.013 168.653 9.831C168.263 9.649 167.964 9.39767 167.756 9.077C167.548 8.75633 167.444 8.39233 167.444 7.985C167.444 7.335 167.687 6.82367 168.172 6.451C168.666 6.07833 169.424 5.892 170.447 5.892H172.059C172.059 5.45 171.925 5.112 171.656 4.878C171.387 4.63533 170.984 4.514 170.447 4.514C170.074 4.514 169.706 4.57467 169.342 4.696C168.987 4.80867 168.683 4.96467 168.432 5.164L167.704 3.747C168.085 3.47833 168.54 3.27033 169.069 3.123C169.606 2.97567 170.157 2.902 170.72 2.902ZM170.564 8.739C170.911 8.739 171.218 8.661 171.487 8.505C171.756 8.34033 171.946 8.102 172.059 7.79V7.075H170.668C169.836 7.075 169.42 7.348 169.42 7.894C169.42 8.154 169.52 8.362 169.719 8.518C169.927 8.66533 170.209 8.739 170.564 8.739ZM180.368 10L178.834 7.855L177.248 10H175.038L177.729 6.477L175.129 3.006H177.404L178.886 5.047L180.407 3.006H182.565L179.965 6.425L182.669 10H180.368Z" fill="white"/>
</g>
<defs>
<linearGradient id="paint0_linear_189:1348" x1="-70.0008" y1="212.049" x2="131.211" y2="41.3615" gradientUnits="userSpaceOnUse">
<stop stop-color="#48F6F8"/>
<stop offset="0.58125" stop-color="#50FDFF"/>
<stop offset="1" stop-color="#673DDD"/>
</linearGradient>
<linearGradient id="paint1_linear_189:1348" x1="-70.0008" y1="212.049" x2="131.211" y2="41.3614" gradientUnits="userSpaceOnUse">
<stop stop-color="#48F6F8"/>
<stop offset="0.513542" stop-color="#48F6F8"/>
<stop offset="1" stop-color="#8A04FF"/>
</linearGradient>
<linearGradient id="paint2_linear_189:1348" x1="-70.0008" y1="212.049" x2="131.211" y2="41.3613" gradientUnits="userSpaceOnUse">
<stop stop-color="#48F6F8"/>
<stop offset="0.534375" stop-color="#48F6F8"/>
<stop offset="1" stop-color="#B33DDD"/>
</linearGradient>
<clipPath id="clip0_189:1348">
<rect width="328" height="214" fill="white"/>
</clipPath>
</defs>
</svg>
