<svg width="471" height="247" viewBox="0 0 471 247" fill="none" xmlns="http://www.w3.org/2000/svg">
<g clip-path="url(#clip0_189:1271)">
<path d="M238.888 158.152C234.958 171.005 226.579 182.037 215.252 189.273C203.926 196.508 190.393 199.473 177.079 197.636C163.765 195.8 151.54 189.281 142.596 179.249C133.652 169.217 128.573 156.328 128.27 142.891C127.966 129.454 132.459 116.349 140.941 105.924C149.423 95.4983 161.341 88.4347 174.559 85.999C187.776 83.5633 201.429 85.9146 213.071 92.6315C224.712 99.3485 233.58 109.992 238.087 122.654L184.808 141.615L238.888 158.152Z" fill="url(#paint0_linear_189:1271)"/>
<path d="M238.888 158.152C235.189 170.247 227.543 180.753 217.172 187.991C206.8 195.229 194.301 198.781 181.673 198.08C169.044 197.379 157.016 192.465 147.509 184.123C138.002 175.781 131.566 164.494 129.229 152.064C126.892 139.634 128.789 126.779 134.618 115.554C140.446 104.329 149.869 95.3823 161.38 90.1429C172.892 84.9034 185.827 83.674 198.119 86.6512C210.412 89.6283 221.351 96.6401 229.19 106.566L184.808 141.615L238.888 158.152Z" fill="url(#paint1_linear_189:1271)"/>
<path d="M238.888 158.152C235.427 169.469 228.503 179.416 219.091 186.591C209.678 193.765 198.252 197.806 186.422 198.144C174.592 198.482 162.954 195.1 153.148 188.474C143.341 181.849 135.861 172.313 131.759 161.212C127.658 150.11 127.143 138.002 130.287 126.592C133.431 115.182 140.075 105.046 149.284 97.612C158.492 90.1777 169.801 85.8198 181.617 85.1521C193.433 84.4845 205.161 87.5406 215.148 93.8901L184.808 141.615L238.888 158.152Z" fill="url(#paint2_linear_189:1271)"/>
<path d="M260.559 114.74C266.262 130.894 266.658 148.445 261.692 164.839C256.725 181.233 246.654 195.613 232.946 205.886C219.238 216.158 202.609 221.786 185.48 221.949C168.35 222.113 151.617 216.804 137.715 206.795C123.813 196.786 113.469 182.601 108.191 166.305C102.912 150.009 102.973 132.453 108.366 116.194C113.759 99.9351 124.202 85.8226 138.173 75.9116C152.145 66.0007 168.916 60.809 186.043 61.0926L184.711 141.517L260.559 114.74Z" fill="url(#paint3_linear_189:1271)"/>
<path d="M200.669 94.027C200.669 95.7896 199.24 97.2187 197.478 97.2187C195.715 97.2187 194.286 95.7896 194.286 94.027C194.286 92.2643 195.715 90.8354 197.478 90.8354C199.24 90.8354 200.669 92.2643 200.669 94.027Z" fill="white"/>
<path d="M219.692 104.24C219.692 106.003 218.263 107.432 216.5 107.432C214.738 107.432 213.309 106.003 213.309 104.24C213.309 102.477 214.738 101.048 216.5 101.048C218.263 101.048 219.692 102.477 219.692 104.24Z" fill="white"/>
<path d="M230.033 117.006C230.033 118.769 228.604 120.198 226.841 120.198C225.078 120.198 223.649 118.769 223.649 117.006C223.649 115.243 225.078 113.814 226.841 113.814C228.604 113.814 230.033 115.243 230.033 117.006Z" fill="white"/>
<path d="M147.434 180.582C147.434 182.345 146.005 183.774 144.242 183.774C142.48 183.774 141.051 182.345 141.051 180.582C141.051 178.82 142.48 177.391 144.242 177.391C146.005 177.391 147.434 178.82 147.434 180.582Z" fill="white"/>
<path fill-rule="evenodd" clip-rule="evenodd" d="M234.931 55.8662H280.459V56.8662H235.345L197.831 94.3803L197.124 93.6732L234.931 55.8662Z" fill="white"/>
<path fill-rule="evenodd" clip-rule="evenodd" d="M246.652 73.356H283.395V74.356H247.067L216.853 104.593L216.146 103.886L246.652 73.356Z" fill="white"/>
<path fill-rule="evenodd" clip-rule="evenodd" d="M113.927 214.02H76.9648V213.02H113.49L143.876 180.243L144.609 180.923L113.927 214.02Z" fill="white"/>
<path fill-rule="evenodd" clip-rule="evenodd" d="M253.24 91.9951H285.438V92.9951H253.63L227.18 117.374L226.502 116.639L253.24 91.9951Z" fill="white"/>
<path d="M286.444 57.8379H285.732V53.2588C285.732 52.8779 285.744 52.5175 285.767 52.1777C285.706 52.2392 285.637 52.3037 285.561 52.3711C285.484 52.4384 285.136 52.7241 284.515 53.228L284.128 52.727L285.829 51.4131H286.444V57.8379Z" fill="white"/>
<path d="M293.15 54.6167C293.15 55.727 292.974 56.5561 292.623 57.104C292.274 57.6518 291.739 57.9257 291.019 57.9257C290.327 57.9257 289.801 57.646 289.441 57.0864C289.081 56.5239 288.9 55.7007 288.9 54.6167C288.9 53.4975 289.075 52.667 289.423 52.125C289.772 51.583 290.304 51.312 291.019 51.312C291.716 51.312 292.245 51.5947 292.605 52.1601C292.968 52.7256 293.15 53.5444 293.15 54.6167ZM289.639 54.6167C289.639 55.5512 289.749 56.2324 289.968 56.6601C290.188 57.0849 290.538 57.2973 291.019 57.2973C291.505 57.2973 291.856 57.082 292.073 56.6513C292.293 56.2177 292.403 55.5395 292.403 54.6167C292.403 53.6938 292.293 53.0185 292.073 52.5908C291.856 52.1601 291.505 51.9448 291.019 51.9448C290.538 51.9448 290.188 52.1572 289.968 52.582C289.749 53.0039 289.639 53.6821 289.639 54.6167Z" fill="white"/>
<path d="M294.666 53.3291C294.666 53.8271 294.72 54.2007 294.829 54.4497C294.937 54.6987 295.113 54.8232 295.356 54.8232C295.836 54.8232 296.077 54.3252 296.077 53.3291C296.077 52.3388 295.836 51.8437 295.356 51.8437C295.113 51.8437 294.937 51.9668 294.829 52.2129C294.72 52.459 294.666 52.831 294.666 53.3291ZM296.679 53.3291C296.679 53.997 296.566 54.5024 296.34 54.8452C296.118 55.185 295.79 55.3549 295.356 55.3549C294.946 55.3549 294.626 55.1806 294.398 54.832C294.172 54.4834 294.06 53.9824 294.06 53.3291C294.06 52.664 294.168 52.1631 294.385 51.8261C294.605 51.4892 294.928 51.3208 295.356 51.3208C295.781 51.3208 296.107 51.4951 296.336 51.8437C296.564 52.1924 296.679 52.6875 296.679 53.3291ZM298.533 55.9043C298.533 56.4052 298.587 56.7802 298.696 57.0293C298.804 57.2754 298.981 57.3984 299.228 57.3984C299.474 57.3984 299.655 57.2768 299.772 57.0337C299.89 56.7876 299.948 56.4111 299.948 55.9043C299.948 55.4033 299.89 55.0327 299.772 54.7924C299.655 54.5493 299.474 54.4277 299.228 54.4277C298.981 54.4277 298.804 54.5493 298.696 54.7924C298.587 55.0327 298.533 55.4033 298.533 55.9043ZM300.55 55.9043C300.55 56.5693 300.438 57.0732 300.212 57.416C299.989 57.7558 299.661 57.9257 299.228 57.9257C298.812 57.9257 298.491 57.7514 298.265 57.4028C298.043 57.0542 297.931 56.5547 297.931 55.9043C297.931 55.2392 298.04 54.7382 298.256 54.4013C298.476 54.0644 298.8 53.896 299.228 53.896C299.644 53.896 299.967 54.0688 300.199 54.4145C300.433 54.7573 300.55 55.2539 300.55 55.9043ZM299.417 51.4131L295.853 57.8379H295.207L298.771 51.4131H299.417Z" fill="white"/>
<path d="M307.814 57.8379H304.233V51.4131H307.814V52.0766H304.98V54.1465H307.643V54.8056H304.98V57.1699H307.814V57.8379Z" fill="white"/>
<path d="M310.188 57.8379L308.359 53.0215H309.142L310.179 55.8779C310.413 56.5459 310.551 56.9795 310.592 57.1787H310.627C310.659 57.0234 310.76 56.7026 310.93 56.2163C311.103 55.727 311.488 54.6621 312.086 53.0215H312.868L311.04 57.8379H310.188Z" fill="white"/>
<path d="M315.676 57.9257C314.964 57.9257 314.402 57.709 313.989 57.2754C313.579 56.8418 313.374 56.2397 313.374 55.4692C313.374 54.6928 313.564 54.0761 313.945 53.6191C314.329 53.1621 314.843 52.9336 315.487 52.9336C316.091 52.9336 316.568 53.1328 316.92 53.5312C317.272 53.9267 317.447 54.4497 317.447 55.1001V55.5615H314.129C314.144 56.1269 314.286 56.5561 314.556 56.8491C314.828 57.1421 315.21 57.2885 315.703 57.2885C316.221 57.2885 316.734 57.1801 317.241 56.9633V57.6137C316.983 57.7251 316.738 57.8042 316.507 57.851C316.278 57.9008 316.001 57.9257 315.676 57.9257ZM315.479 53.5444C315.092 53.5444 314.783 53.6704 314.551 53.9223C314.323 54.1743 314.188 54.5229 314.147 54.9682H316.665C316.665 54.5083 316.563 54.1567 316.357 53.9135C316.152 53.6674 315.859 53.5444 315.479 53.5444Z" fill="white"/>
<path d="M320.893 52.9336C321.106 52.9336 321.298 52.9511 321.468 52.9863L321.367 53.6631C321.168 53.6191 320.992 53.5971 320.84 53.5971C320.45 53.5971 320.116 53.7553 319.838 54.0717C319.563 54.3882 319.425 54.7822 319.425 55.2539V57.8379H318.695V53.0215H319.297L319.381 53.9135H319.416C319.595 53.6001 319.81 53.3584 320.062 53.1884C320.314 53.0185 320.591 52.9336 320.893 52.9336Z" fill="white"/>
<path d="M321.605 53.0215H322.387L323.441 55.768C323.673 56.395 323.816 56.8476 323.872 57.1259H323.907C323.945 56.9765 324.024 56.7216 324.145 56.3613C324.268 55.998 324.666 54.8847 325.34 53.0215H326.122L324.052 58.5058C323.847 59.0478 323.607 59.4316 323.332 59.6572C323.059 59.8857 322.724 60 322.325 60C322.103 60 321.883 59.9751 321.666 59.9253V59.3408C321.827 59.3759 322.007 59.3935 322.207 59.3935C322.708 59.3935 323.065 59.1123 323.279 58.5498L323.547 57.8642L321.605 53.0215Z" fill="white"/>
<path d="M330.183 57.1919H330.143C329.806 57.6811 329.302 57.9257 328.631 57.9257C328.001 57.9257 327.511 57.7104 327.159 57.2798C326.811 56.8491 326.636 56.2368 326.636 55.4428C326.636 54.6489 326.812 54.0322 327.164 53.5927C327.515 53.1533 328.004 52.9336 328.631 52.9336C329.285 52.9336 329.786 53.1709 330.134 53.6455H330.191L330.161 53.2983L330.143 52.9599V51H330.873V57.8379H330.279L330.183 57.1919ZM328.724 57.3149C329.222 57.3149 329.582 57.1801 329.805 56.9106C330.03 56.6382 330.143 56.2002 330.143 55.5966V55.4428C330.143 54.7602 330.029 54.2739 329.8 53.9839C329.575 53.6909 329.213 53.5444 328.715 53.5444C328.287 53.5444 327.959 53.7114 327.731 54.0454C327.505 54.3764 327.392 54.8452 327.392 55.4516C327.392 56.0669 327.505 56.5312 327.731 56.8447C327.956 57.1582 328.287 57.3149 328.724 57.3149Z" fill="white"/>
<path d="M335.386 57.8379L335.241 57.1523H335.206C334.965 57.4541 334.725 57.6591 334.485 57.7675C334.248 57.873 333.95 57.9257 333.593 57.9257C333.115 57.9257 332.74 57.8027 332.468 57.5566C332.198 57.3105 332.064 56.9604 332.064 56.5063C332.064 55.5337 332.841 55.0239 334.397 54.977L335.214 54.9507V54.6518C335.214 54.2739 335.132 53.9956 334.968 53.8169C334.807 53.6352 334.548 53.5444 334.19 53.5444C333.789 53.5444 333.335 53.6674 332.828 53.9135L332.604 53.3554C332.841 53.2265 333.101 53.1255 333.382 53.0522C333.666 52.979 333.95 52.9424 334.234 52.9424C334.809 52.9424 335.233 53.0698 335.509 53.3247C335.787 53.5796 335.926 53.9882 335.926 54.5507V57.8379H335.386ZM333.738 57.3237C334.192 57.3237 334.548 57.1992 334.806 56.9502C335.066 56.7011 335.197 56.3525 335.197 55.9043V55.4692L334.467 55.5C333.887 55.5205 333.468 55.6113 333.21 55.7724C332.956 55.9306 332.828 56.1782 332.828 56.5151C332.828 56.7788 332.907 56.9795 333.065 57.1172C333.227 57.2549 333.451 57.3237 333.738 57.3237Z" fill="white"/>
<path d="M336.669 53.0215H337.451L338.506 55.768C338.737 56.395 338.881 56.8476 338.937 57.1259H338.972C339.01 56.9765 339.089 56.7216 339.209 56.3613C339.332 55.998 339.731 54.8847 340.404 53.0215H341.187L339.117 58.5058C338.912 59.0478 338.671 59.4316 338.396 59.6572C338.124 59.8857 337.788 60 337.39 60C337.167 60 336.947 59.9751 336.731 59.9253V59.3408C336.892 59.3759 337.072 59.3935 337.271 59.3935C337.772 59.3935 338.129 59.1123 338.343 58.5498L338.611 57.8642L336.669 53.0215Z" fill="white"/>
<path d="M345.036 57.8379H344.307V51H345.036V57.8379Z" fill="white"/>
<path d="M350.74 55.4253C350.74 56.2104 350.543 56.8242 350.147 57.2666C349.751 57.706 349.205 57.9257 348.508 57.9257C348.077 57.9257 347.695 57.8247 347.361 57.6225C347.027 57.4204 346.769 57.1303 346.587 56.7524C346.406 56.3745 346.315 55.9321 346.315 55.4253C346.315 54.6401 346.511 54.0293 346.904 53.5927C347.296 53.1533 347.841 52.9336 348.539 52.9336C349.212 52.9336 349.747 53.1577 350.143 53.6059C350.541 54.0542 350.74 54.6606 350.74 55.4253ZM347.071 55.4253C347.071 56.0405 347.194 56.5092 347.44 56.8315C347.686 57.1538 348.048 57.3149 348.525 57.3149C349.003 57.3149 349.365 57.1552 349.611 56.8359C349.86 56.5136 349.984 56.0434 349.984 55.4253C349.984 54.813 349.86 54.3486 349.611 54.0322C349.365 53.7129 349 53.5532 348.517 53.5532C348.039 53.5532 347.679 53.7099 347.436 54.0234C347.192 54.3369 347.071 54.8042 347.071 55.4253Z" fill="white"/>
<path d="M353.579 57.3238C353.708 57.3238 353.833 57.315 353.953 57.2974C354.073 57.2769 354.168 57.2564 354.238 57.2359V57.794C354.159 57.8321 354.042 57.8629 353.887 57.8863C353.734 57.9127 353.597 57.9258 353.474 57.9258C352.542 57.9258 352.076 57.4351 352.076 56.4537V53.5884H351.386V53.2369L352.076 52.9337L352.384 51.9053H352.806V53.0216H354.203V53.5884H352.806V56.4229C352.806 56.713 352.875 56.9356 353.012 57.0909C353.15 57.2462 353.339 57.3238 353.579 57.3238Z" fill="white"/>
<path d="M356.761 57.3238C356.89 57.3238 357.014 57.315 357.134 57.2974C357.254 57.2769 357.35 57.2564 357.42 57.2359V57.794C357.341 57.8321 357.224 57.8629 357.068 57.8863C356.916 57.9127 356.778 57.9258 356.655 57.9258C355.724 57.9258 355.258 57.4351 355.258 56.4537V53.5884H354.568V53.2369L355.258 52.9337L355.565 51.9053H355.987V53.0216H357.385V53.5884H355.987V56.4229C355.987 56.713 356.056 56.9356 356.194 57.0909C356.332 57.2462 356.521 57.3238 356.761 57.3238Z" fill="white"/>
<path d="M360.421 57.9257C359.71 57.9257 359.147 57.709 358.734 57.2754C358.324 56.8418 358.119 56.2397 358.119 55.4692C358.119 54.6928 358.309 54.0761 358.69 53.6191C359.074 53.1621 359.588 52.9336 360.232 52.9336C360.836 52.9336 361.314 53.1328 361.665 53.5312C362.017 53.9267 362.192 54.4497 362.192 55.1001V55.5615H358.875C358.889 56.1269 359.031 56.5561 359.301 56.8491C359.573 57.1421 359.956 57.2885 360.448 57.2885C360.966 57.2885 361.479 57.1801 361.986 56.9633V57.6137C361.728 57.7251 361.483 57.8042 361.252 57.851C361.023 57.9008 360.747 57.9257 360.421 57.9257ZM360.224 53.5444C359.837 53.5444 359.528 53.6704 359.296 53.9223C359.068 54.1743 358.933 54.5229 358.892 54.9682H361.41C361.41 54.5083 361.308 54.1567 361.103 53.9135C360.897 53.6674 360.605 53.5444 360.224 53.5444Z" fill="white"/>
<path d="M365.638 52.9336C365.852 52.9336 366.043 52.9511 366.213 52.9863L366.112 53.6631C365.913 53.6191 365.737 53.5971 365.585 53.5971C365.195 53.5971 364.861 53.7553 364.583 54.0717C364.308 54.3882 364.17 54.7822 364.17 55.2539V57.8379H363.44V53.0215H364.043L364.126 53.9135H364.161C364.34 53.6001 364.555 53.3584 364.807 53.1884C365.059 53.0185 365.336 52.9336 365.638 52.9336Z" fill="white"/>
<path d="M366.35 53.0215H367.132L368.187 55.768C368.418 56.395 368.562 56.8476 368.617 57.1259H368.652C368.69 56.9765 368.77 56.7216 368.89 56.3613C369.013 55.998 369.411 54.8847 370.085 53.0215H370.867L368.797 58.5058C368.592 59.0478 368.352 59.4316 368.077 59.6572C367.804 59.8857 367.469 60 367.07 60C366.848 60 366.628 59.9751 366.411 59.9253V59.3408C366.572 59.3759 366.752 59.3935 366.952 59.3935C367.453 59.3935 367.81 59.1123 368.024 58.5498L368.292 57.8642L366.35 53.0215Z" fill="white"/>
<path d="M376.949 57.8379L376.804 57.1523H376.769C376.529 57.4541 376.289 57.6591 376.048 57.7675C375.811 57.873 375.514 57.9257 375.156 57.9257C374.679 57.9257 374.304 57.8027 374.031 57.5566C373.762 57.3105 373.627 56.9604 373.627 56.5063C373.627 55.5337 374.405 55.0239 375.96 54.977L376.778 54.9507V54.6518C376.778 54.2739 376.696 53.9956 376.532 53.8169C376.371 53.6352 376.111 53.5444 375.754 53.5444C375.353 53.5444 374.898 53.6674 374.392 53.9135L374.168 53.3554C374.405 53.2265 374.664 53.1255 374.945 53.0522C375.23 52.979 375.514 52.9424 375.798 52.9424C376.372 52.9424 376.797 53.0698 377.072 53.3247C377.351 53.5796 377.49 53.9882 377.49 54.5507V57.8379H376.949ZM375.301 57.3237C375.755 57.3237 376.111 57.1992 376.369 56.9502C376.63 56.7011 376.76 56.3525 376.76 55.9043V55.4692L376.031 55.5C375.451 55.5205 375.032 55.6113 374.774 55.7724C374.519 55.9306 374.392 56.1782 374.392 56.5151C374.392 56.7788 374.471 56.9795 374.629 57.1172C374.79 57.2549 375.014 57.3237 375.301 57.3237Z" fill="white"/>
<path d="M382.293 57.8379V54.7221C382.293 54.3296 382.204 54.0366 382.025 53.8432C381.846 53.6499 381.566 53.5532 381.186 53.5532C380.682 53.5532 380.313 53.6894 380.078 53.9619C379.844 54.2343 379.727 54.684 379.727 55.311V57.8379H378.997V53.0215H379.59L379.709 53.6806H379.744C379.894 53.4433 380.103 53.2602 380.373 53.1313C380.642 52.9995 380.942 52.9336 381.273 52.9336C381.854 52.9336 382.29 53.0742 382.583 53.3554C382.876 53.6338 383.022 54.0805 383.022 54.6958V57.8379H382.293Z" fill="white"/>
<path d="M387.804 57.1919H387.764C387.427 57.6811 386.923 57.9257 386.252 57.9257C385.623 57.9257 385.132 57.7104 384.78 57.2798C384.432 56.8491 384.257 56.2368 384.257 55.4428C384.257 54.6489 384.433 54.0322 384.785 53.5927C385.136 53.1533 385.626 52.9336 386.252 52.9336C386.906 52.9336 387.407 53.1709 387.755 53.6455H387.813L387.782 53.2983L387.764 52.9599V51H388.494V57.8379H387.9L387.804 57.1919ZM386.345 57.3149C386.843 57.3149 387.203 57.1801 387.426 56.9106C387.651 56.6382 387.764 56.2002 387.764 55.5966V55.4428C387.764 54.7602 387.65 54.2739 387.421 53.9839C387.196 53.6909 386.834 53.5444 386.336 53.5444C385.908 53.5444 385.58 53.7114 385.352 54.0454C385.126 54.3764 385.013 54.8452 385.013 55.4516C385.013 56.0669 385.126 56.5312 385.352 56.8447C385.577 57.1582 385.908 57.3149 386.345 57.3149Z" fill="white"/>
<path d="M394.624 52.9424C395.257 52.9424 395.748 53.1591 396.096 53.5927C396.448 54.0234 396.624 54.6342 396.624 55.4253C396.624 56.2163 396.446 56.8315 396.092 57.271C395.74 57.7075 395.251 57.9257 394.624 57.9257C394.311 57.9257 394.023 57.8686 393.763 57.7544C393.505 57.6372 393.288 57.4585 393.112 57.2182H393.06L392.906 57.8379H392.383V51H393.112V52.6611C393.112 53.0332 393.101 53.3672 393.077 53.6631H393.112C393.452 53.1826 393.956 52.9424 394.624 52.9424ZM394.519 53.5532C394.021 53.5532 393.662 53.6967 393.442 53.9839C393.222 54.268 393.112 54.7485 393.112 55.4253C393.112 56.102 393.225 56.5869 393.451 56.8799C393.676 57.1699 394.038 57.3149 394.536 57.3149C394.984 57.3149 395.318 57.1523 395.538 56.8271C395.758 56.499 395.868 56.0288 395.868 55.4165C395.868 54.7895 395.758 54.3222 395.538 54.0146C395.318 53.707 394.979 53.5532 394.519 53.5532Z" fill="white"/>
<path d="M398.588 53.0215V56.146C398.588 56.5385 398.677 56.8315 398.856 57.0249C399.035 57.2182 399.314 57.3149 399.695 57.3149C400.199 57.3149 400.567 57.1772 400.798 56.9018C401.033 56.6264 401.15 56.1767 401.15 55.5527V53.0215H401.879V57.8379H401.277L401.172 57.1919H401.132C400.983 57.4292 400.775 57.6108 400.508 57.7368C400.245 57.8628 399.943 57.9257 399.603 57.9257C399.017 57.9257 398.578 57.7866 398.285 57.5083C397.995 57.2299 397.85 56.7846 397.85 56.1723V53.0215H398.588Z" fill="white"/>
<path d="M405.628 52.9336C405.842 52.9336 406.034 52.9511 406.204 52.9863L406.103 53.6631C405.903 53.6191 405.728 53.5971 405.575 53.5971C405.186 53.5971 404.852 53.7553 404.573 54.0717C404.298 54.3882 404.16 54.7822 404.16 55.2539V57.8379H403.431V53.0215H404.033L404.116 53.9135H404.151C404.33 53.6001 404.545 53.3584 404.797 53.1884C405.049 53.0185 405.326 52.9336 405.628 52.9336Z" fill="white"/>
<path d="M410.4 57.8379V54.7221C410.4 54.3296 410.311 54.0366 410.132 53.8432C409.954 53.6499 409.674 53.5532 409.293 53.5532C408.789 53.5532 408.42 53.6894 408.186 53.9619C407.951 54.2343 407.834 54.684 407.834 55.311V57.8379H407.105V53.0215H407.698L407.816 53.6806H407.852C408.001 53.4433 408.21 53.2602 408.48 53.1313C408.75 52.9995 409.05 52.9336 409.381 52.9336C409.961 52.9336 410.397 53.0742 410.69 53.3554C410.983 53.6338 411.13 54.0805 411.13 54.6958V57.8379H410.4Z" fill="white"/>
<path d="M413.362 57.8379H412.633V53.0215H413.362V57.8379ZM412.571 51.7163C412.571 51.5493 412.612 51.4277 412.694 51.3515C412.776 51.2724 412.879 51.2329 413.002 51.2329C413.119 51.2329 413.22 51.2724 413.305 51.3515C413.39 51.4306 413.433 51.5522 413.433 51.7163C413.433 51.8803 413.39 52.0034 413.305 52.0854C413.22 52.1645 413.119 52.2041 413.002 52.2041C412.879 52.2041 412.776 52.1645 412.694 52.0854C412.612 52.0034 412.571 51.8803 412.571 51.7163Z" fill="white"/>
<path d="M418.205 57.8379V54.7221C418.205 54.3296 418.116 54.0366 417.937 53.8432C417.758 53.6499 417.479 53.5532 417.098 53.5532C416.594 53.5532 416.225 53.6894 415.99 53.9619C415.756 54.2343 415.639 54.684 415.639 55.311V57.8379H414.909V53.0215H415.502L415.621 53.6806H415.656C415.806 53.4433 416.015 53.2602 416.285 53.1313C416.554 52.9995 416.855 52.9336 417.186 52.9336C417.766 52.9336 418.202 53.0742 418.495 53.3554C418.788 53.6338 418.935 54.0805 418.935 54.6958V57.8379H418.205Z" fill="white"/>
<path d="M424.379 53.0215V53.4829L423.487 53.5883C423.569 53.6909 423.643 53.8257 423.707 53.9926C423.772 54.1567 423.804 54.3427 423.804 54.5507C423.804 55.0224 423.643 55.3989 423.32 55.6801C422.998 55.9614 422.556 56.102 421.993 56.102C421.85 56.102 421.715 56.0903 421.589 56.0669C421.278 56.2309 421.123 56.4375 421.123 56.6865C421.123 56.8183 421.177 56.9165 421.286 56.9809C421.394 57.0424 421.58 57.0732 421.844 57.0732H422.696C423.218 57.0732 423.618 57.1831 423.896 57.4028C424.177 57.6225 424.318 57.9419 424.318 58.3608C424.318 58.894 424.104 59.2998 423.676 59.5781C423.249 59.8593 422.625 60 421.804 60C421.174 60 420.688 59.8828 420.345 59.6484C420.005 59.414 419.835 59.083 419.835 58.6552C419.835 58.3623 419.929 58.1089 420.117 57.895C420.304 57.6811 420.568 57.5361 420.908 57.4599C420.785 57.4043 420.681 57.3178 420.596 57.2007C420.514 57.0835 420.473 56.9472 420.473 56.792C420.473 56.6162 420.52 56.4624 420.613 56.3305C420.707 56.1987 420.855 56.0713 421.057 55.9482C420.808 55.8457 420.605 55.6714 420.446 55.4253C420.291 55.1792 420.213 54.8979 420.213 54.5815C420.213 54.0542 420.372 53.6484 420.688 53.3642C421.004 53.0771 421.453 52.9336 422.033 52.9336C422.285 52.9336 422.512 52.9629 422.714 53.0215H424.379ZM420.539 58.6465C420.539 58.9072 420.648 59.1049 420.868 59.2397C421.088 59.3745 421.403 59.4419 421.813 59.4419C422.425 59.4419 422.878 59.3496 423.171 59.165C423.467 58.9834 423.615 58.7358 423.615 58.4223C423.615 58.1616 423.534 57.9799 423.373 57.8774C423.212 57.7778 422.909 57.728 422.463 57.728H421.589C421.258 57.728 421 57.8071 420.815 57.9653C420.631 58.1235 420.539 58.3506 420.539 58.6465ZM420.934 54.5639C420.934 54.9008 421.029 55.1557 421.22 55.3286C421.41 55.5014 421.675 55.5879 422.015 55.5879C422.727 55.5879 423.083 55.2422 423.083 54.5507C423.083 53.8271 422.723 53.4653 422.002 53.4653C421.659 53.4653 421.396 53.5576 421.211 53.7422C421.026 53.9267 420.934 54.2007 420.934 54.5639Z" fill="white"/>
<path d="M290.854 72.4497C291.53 72.4497 292.062 72.6181 292.449 72.955C292.838 73.289 293.033 73.7475 293.033 74.3305C293.033 74.9956 292.821 75.5171 292.396 75.895C291.974 76.2729 291.391 76.4619 290.647 76.4619C289.923 76.4619 289.371 76.3462 288.99 76.1147V75.4116C289.195 75.5434 289.45 75.6474 289.755 75.7236C290.06 75.7968 290.36 75.8335 290.656 75.8335C291.171 75.8335 291.571 75.7119 291.855 75.4687C292.143 75.2256 292.286 74.874 292.286 74.414C292.286 73.5175 291.737 73.0693 290.638 73.0693C290.36 73.0693 289.988 73.1118 289.522 73.1967L289.144 72.955L289.386 69.9492H292.581V70.6216H290.01L289.847 72.5507C290.184 72.4834 290.52 72.4497 290.854 72.4497Z" fill="white"/>
<path d="M294.62 71.8652C294.62 72.3632 294.674 72.7368 294.782 72.9858C294.891 73.2348 295.066 73.3593 295.31 73.3593C295.79 73.3593 296.03 72.8613 296.03 71.8652C296.03 70.875 295.79 70.3799 295.31 70.3799C295.066 70.3799 294.891 70.5029 294.782 70.749C294.674 70.9951 294.62 71.3672 294.62 71.8652ZM296.632 71.8652C296.632 72.5332 296.52 73.0385 296.294 73.3813C296.071 73.7212 295.743 73.8911 295.31 73.8911C294.899 73.8911 294.58 73.7168 294.352 73.3681C294.126 73.0195 294.013 72.5185 294.013 71.8652C294.013 71.2002 294.122 70.6992 294.338 70.3623C294.558 70.0254 294.882 69.8569 295.31 69.8569C295.734 69.8569 296.061 70.0312 296.29 70.3799C296.518 70.7285 296.632 71.2236 296.632 71.8652ZM298.487 74.4404C298.487 74.9414 298.541 75.3164 298.649 75.5654C298.758 75.8115 298.935 75.9345 299.181 75.9345C299.427 75.9345 299.609 75.813 299.726 75.5698C299.843 75.3237 299.902 74.9472 299.902 74.4404C299.902 73.9394 299.843 73.5688 299.726 73.3286C299.609 73.0854 299.427 72.9638 299.181 72.9638C298.935 72.9638 298.758 73.0854 298.649 73.3286C298.541 73.5688 298.487 73.9394 298.487 74.4404ZM300.504 74.4404C300.504 75.1054 300.391 75.6093 300.166 75.9521C299.943 76.292 299.615 76.4619 299.181 76.4619C298.765 76.4619 298.444 76.2876 298.219 75.9389C297.996 75.5903 297.885 75.0908 297.885 74.4404C297.885 73.7754 297.993 73.2744 298.21 72.9375C298.43 72.6006 298.753 72.4321 299.181 72.4321C299.597 72.4321 299.921 72.6049 300.152 72.9507C300.387 73.2934 300.504 73.79 300.504 74.4404ZM299.37 69.9492L295.806 76.374H295.16L298.724 69.9492H299.37Z" fill="white"/>
<path d="M306.938 70.5249C306.231 70.5249 305.673 70.7607 305.263 71.2324C304.856 71.7011 304.652 72.3442 304.652 73.1616C304.652 74.0024 304.849 74.6528 305.241 75.1128C305.637 75.5698 306.199 75.7983 306.929 75.7983C307.377 75.7983 307.888 75.7177 308.462 75.5566V76.2114C308.017 76.3784 307.468 76.4619 306.814 76.4619C305.868 76.4619 305.137 76.1748 304.622 75.6006C304.109 75.0263 303.853 74.2104 303.853 73.1528C303.853 72.4907 303.976 71.9106 304.222 71.4126C304.471 70.9145 304.828 70.5307 305.294 70.2612C305.763 69.9917 306.314 69.8569 306.946 69.8569C307.62 69.8569 308.209 69.9799 308.713 70.226L308.397 70.8676C307.91 70.6391 307.424 70.5249 306.938 70.5249Z" fill="white"/>
<path d="M313.912 73.9614C313.912 74.7466 313.714 75.3603 313.318 75.8027C312.923 76.2422 312.376 76.4619 311.679 76.4619C311.249 76.4619 310.866 76.3608 310.532 76.1587C310.198 75.9565 309.94 75.6665 309.759 75.2885C309.577 74.9106 309.486 74.4682 309.486 73.9614C309.486 73.1762 309.683 72.5654 310.075 72.1289C310.468 71.6894 311.013 71.4697 311.71 71.4697C312.384 71.4697 312.918 71.6938 313.314 72.1421C313.712 72.5903 313.912 73.1967 313.912 73.9614ZM310.242 73.9614C310.242 74.5766 310.365 75.0454 310.611 75.3676C310.857 75.6899 311.219 75.851 311.697 75.851C312.174 75.851 312.536 75.6914 312.782 75.372C313.031 75.0498 313.156 74.5796 313.156 73.9614C313.156 73.3491 313.031 72.8847 312.782 72.5683C312.536 72.249 312.171 72.0893 311.688 72.0893C311.21 72.0893 310.85 72.2461 310.607 72.5595C310.364 72.873 310.242 73.3403 310.242 73.9614Z" fill="white"/>
<path d="M318.491 76.374V73.2583C318.491 72.8657 318.401 72.5727 318.223 72.3794C318.044 72.186 317.764 72.0893 317.383 72.0893C316.879 72.0893 316.51 72.2256 316.276 72.498C316.042 72.7705 315.924 73.2202 315.924 73.8471V76.374H315.195V71.5576H315.788L315.907 72.2168H315.942C316.091 71.9795 316.301 71.7964 316.57 71.6674C316.84 71.5356 317.14 71.4697 317.471 71.4697C318.051 71.4697 318.488 71.6103 318.781 71.8916C319.074 72.1699 319.22 72.6167 319.22 73.2319V76.374H318.491Z" fill="white"/>
<path d="M322.279 75.8598C322.408 75.8598 322.532 75.851 322.652 75.8335C322.772 75.813 322.868 75.7924 322.938 75.7719V76.33C322.859 76.3681 322.742 76.3989 322.586 76.4223C322.434 76.4487 322.296 76.4619 322.173 76.4619C321.242 76.4619 320.776 75.9712 320.776 74.9897V72.1245H320.086V71.7729L320.776 71.4697L321.084 70.4414H321.505V71.5576H322.903V72.1245H321.505V74.959C321.505 75.249 321.574 75.4716 321.712 75.6269C321.85 75.7822 322.039 75.8598 322.279 75.8598Z" fill="white"/>
<path d="M325.939 76.4619C325.228 76.4619 324.665 76.2451 324.252 75.8115C323.842 75.3779 323.637 74.7758 323.637 74.0053C323.637 73.229 323.827 72.6123 324.208 72.1552C324.592 71.6982 325.106 71.4697 325.751 71.4697C326.354 71.4697 326.832 71.6689 327.183 72.0674C327.535 72.4629 327.71 72.9858 327.71 73.6362V74.0976H324.393C324.407 74.6631 324.549 75.0923 324.819 75.3852C325.091 75.6782 325.474 75.8247 325.966 75.8247C326.484 75.8247 326.997 75.7163 327.504 75.4995V76.1499C327.246 76.2612 327.001 76.3403 326.77 76.3872C326.542 76.437 326.265 76.4619 325.939 76.4619ZM325.742 72.0805C325.355 72.0805 325.046 72.2065 324.814 72.4585C324.586 72.7104 324.451 73.059 324.41 73.5044H326.928C326.928 73.0444 326.826 72.6928 326.621 72.4497C326.416 72.2036 326.123 72.0805 325.742 72.0805Z" fill="white"/>
<path d="M332.065 75.06C332.065 75.5083 331.898 75.854 331.564 76.0971C331.231 76.3403 330.762 76.4619 330.158 76.4619C329.52 76.4619 329.022 76.3608 328.664 76.1587V75.4819C328.896 75.5991 329.143 75.6914 329.407 75.7588C329.673 75.8261 329.93 75.8598 330.176 75.8598C330.557 75.8598 330.85 75.7998 331.055 75.6797C331.26 75.5566 331.362 75.3706 331.362 75.1216C331.362 74.934 331.28 74.7744 331.116 74.6425C330.955 74.5078 330.639 74.3496 330.167 74.1679C329.719 74.0009 329.399 73.8559 329.209 73.7329C329.022 73.6069 328.881 73.4648 328.787 73.3066C328.696 73.1484 328.651 72.9594 328.651 72.7397C328.651 72.3471 328.811 72.0381 329.13 71.8125C329.449 71.584 329.887 71.4697 330.444 71.4697C330.962 71.4697 331.469 71.5752 331.964 71.7861L331.705 72.3794C331.222 72.1801 330.784 72.0805 330.391 72.0805C330.045 72.0805 329.785 72.1347 329.609 72.2431C329.433 72.3515 329.345 72.5009 329.345 72.6914C329.345 72.8203 329.377 72.9301 329.442 73.021C329.509 73.1118 329.616 73.1982 329.763 73.2802C329.909 73.3623 330.19 73.4809 330.606 73.6362C331.178 73.8442 331.563 74.0537 331.762 74.2646C331.964 74.4756 332.065 74.7407 332.065 75.06Z" fill="white"/>
<path d="M334.812 75.8598C334.941 75.8598 335.065 75.851 335.186 75.8335C335.306 75.813 335.401 75.7924 335.471 75.7719V76.33C335.392 76.3681 335.275 76.3989 335.12 76.4223C334.967 76.4487 334.83 76.4619 334.707 76.4619C333.775 76.4619 333.309 75.9712 333.309 74.9897V72.1245H332.619V71.7729L333.309 71.4697L333.617 70.4414H334.039V71.5576H335.436V72.1245H334.039V74.959C334.039 75.249 334.107 75.4716 334.245 75.6269C334.383 75.7822 334.572 75.8598 334.812 75.8598Z" fill="white"/>
<path d="M339.545 75.06C339.545 75.5083 339.378 75.854 339.044 76.0971C338.71 76.3403 338.241 76.4619 337.638 76.4619C336.999 76.4619 336.501 76.3608 336.144 76.1587V75.4819C336.375 75.5991 336.623 75.6914 336.886 75.7588C337.153 75.8261 337.409 75.8598 337.655 75.8598C338.036 75.8598 338.329 75.7998 338.534 75.6797C338.739 75.5566 338.842 75.3706 338.842 75.1216C338.842 74.934 338.76 74.7744 338.596 74.6425C338.435 74.5078 338.118 74.3496 337.647 74.1679C337.198 74.0009 336.879 73.8559 336.689 73.7329C336.501 73.6069 336.36 73.4648 336.267 73.3066C336.176 73.1484 336.13 72.9594 336.13 72.7397C336.13 72.3471 336.29 72.0381 336.609 71.8125C336.929 71.584 337.367 71.4697 337.923 71.4697C338.442 71.4697 338.949 71.5752 339.444 71.7861L339.185 72.3794C338.701 72.1801 338.263 72.0805 337.871 72.0805C337.525 72.0805 337.264 72.1347 337.088 72.2431C336.913 72.3515 336.825 72.5009 336.825 72.6914C336.825 72.8203 336.857 72.9301 336.921 73.021C336.989 73.1118 337.096 73.1982 337.242 73.2802C337.389 73.3623 337.67 73.4809 338.086 73.6362C338.657 73.8442 339.043 74.0537 339.242 74.2646C339.444 74.4756 339.545 74.7407 339.545 75.06Z" fill="white"/>
<path d="M291.659 89.3736C292.336 89.3736 292.868 89.542 293.254 89.8789C293.644 90.2129 293.839 90.6714 293.839 91.2544C293.839 91.9194 293.626 92.4409 293.202 92.8188C292.78 93.1967 292.197 93.3857 291.453 93.3857C290.729 93.3857 290.177 93.27 289.796 93.0385V92.3354C290.001 92.4673 290.256 92.5713 290.561 92.6474C290.865 92.7207 291.166 92.7573 291.461 92.7573C291.977 92.7573 292.377 92.6357 292.661 92.3925C292.948 92.1494 293.092 91.7978 293.092 91.3379C293.092 90.4414 292.543 89.9931 291.444 89.9931C291.166 89.9931 290.793 90.0356 290.328 90.1206L289.95 89.8789L290.191 86.873H293.386V87.5454H290.815L290.653 89.4746C290.99 89.4072 291.325 89.3736 291.659 89.3736Z" fill="white"/>
<path d="M295.425 88.7891C295.425 89.2872 295.48 89.6607 295.588 89.9097C295.696 90.1588 295.872 90.2833 296.115 90.2833C296.596 90.2833 296.836 89.7852 296.836 88.7891C296.836 87.7989 296.596 87.3038 296.115 87.3038C295.872 87.3038 295.696 87.4268 295.588 87.6729C295.48 87.919 295.425 88.2911 295.425 88.7891ZM297.438 88.7891C297.438 89.4571 297.325 89.9625 297.1 90.3052C296.877 90.6451 296.549 90.815 296.115 90.815C295.705 90.815 295.386 90.6407 295.157 90.2921C294.932 89.9434 294.819 89.4425 294.819 88.7891C294.819 88.1241 294.927 87.6231 295.144 87.2862C295.364 86.9493 295.688 86.7808 296.115 86.7808C296.54 86.7808 296.867 86.9551 297.095 87.3038C297.324 87.6524 297.438 88.1475 297.438 88.7891ZM299.293 91.3643C299.293 91.8653 299.347 92.2403 299.455 92.4893C299.564 92.7354 299.741 92.8585 299.987 92.8585C300.233 92.8585 300.415 92.7369 300.532 92.4937C300.649 92.2476 300.708 91.8712 300.708 91.3643C300.708 90.8633 300.649 90.4927 300.532 90.2525C300.415 90.0093 300.233 89.8878 299.987 89.8878C299.741 89.8878 299.564 90.0093 299.455 90.2525C299.347 90.4927 299.293 90.8633 299.293 91.3643ZM301.31 91.3643C301.31 92.0294 301.197 92.5333 300.971 92.876C300.749 93.2159 300.42 93.3858 299.987 93.3858C299.571 93.3858 299.25 93.2115 299.024 92.8629C298.802 92.5142 298.69 92.0147 298.69 91.3643C298.69 90.6993 298.799 90.1983 299.016 89.8614C299.235 89.5245 299.559 89.356 299.987 89.356C300.403 89.356 300.727 89.5289 300.958 89.8746C301.192 90.2174 301.31 90.7139 301.31 91.3643ZM300.176 86.8731L296.612 93.2979H295.966L299.53 86.8731H300.176Z" fill="white"/>
<path d="M307.835 93.2978L305.656 87.6025H305.621C305.662 88.0537 305.682 88.5898 305.682 89.2109V93.2978H304.992V86.873H306.117L308.152 92.1728H308.187L310.239 86.873H311.355V93.2978H310.608V89.1582C310.608 88.6836 310.629 88.168 310.67 87.6114H310.635L308.438 93.2978H307.835Z" fill="white"/>
<path d="M315.974 93.2978L315.829 92.6124H315.794C315.554 92.9141 315.314 93.1191 315.073 93.2275C314.836 93.333 314.539 93.3857 314.181 93.3857C313.704 93.3857 313.329 93.2627 313.056 93.0166C312.787 92.7705 312.652 92.4204 312.652 91.9663C312.652 90.9936 313.43 90.4839 314.985 90.437L315.803 90.4106V90.1118C315.803 89.7339 315.721 89.4555 315.557 89.2768C315.396 89.0952 315.136 89.0044 314.779 89.0044C314.377 89.0044 313.923 89.1275 313.417 89.3736L313.192 88.8154C313.43 88.6865 313.689 88.5854 313.97 88.5122C314.254 88.4389 314.539 88.4023 314.823 88.4023C315.397 88.4023 315.822 88.5298 316.097 88.7846C316.376 89.0395 316.515 89.4482 316.515 90.0107V93.2978H315.974ZM314.326 92.7837C314.78 92.7837 315.136 92.6591 315.394 92.4101C315.655 92.1611 315.785 91.8126 315.785 91.3643V90.9292L315.056 90.9599C314.476 90.9804 314.057 91.0713 313.799 91.2324C313.544 91.3906 313.417 91.6383 313.417 91.9752C313.417 92.2388 313.496 92.4394 313.654 92.5771C313.815 92.7148 314.039 92.7837 314.326 92.7837Z" fill="white"/>
<path d="M320.218 88.3936C320.432 88.3936 320.624 88.4112 320.794 88.4464L320.693 89.1231C320.494 89.0792 320.318 89.0572 320.166 89.0572C319.776 89.0572 319.442 89.2154 319.164 89.5318C318.888 89.8482 318.75 90.2423 318.75 90.7139V93.2979H318.021V88.4815H318.623L318.707 89.3736H318.742C318.92 89.0601 319.136 88.8184 319.388 88.6485C319.64 88.4786 319.917 88.3936 320.218 88.3936Z" fill="white"/>
<path d="M322.417 90.8326C322.543 90.6539 322.734 90.4195 322.992 90.1295L324.548 88.4815H325.414L323.462 90.5338L325.55 93.2979H324.667L322.966 91.0216L322.417 91.4962V93.2979H321.696V86.46H322.417V90.0855C322.417 90.2467 322.405 90.4957 322.381 90.8326H322.417Z" fill="white"/>
<path d="M328.459 93.3858C327.747 93.3858 327.185 93.169 326.772 92.7354C326.361 92.3018 326.156 91.6998 326.156 90.9293C326.156 90.1529 326.347 89.5362 326.728 89.0792C327.111 88.6221 327.626 88.3936 328.27 88.3936C328.874 88.3936 329.351 88.5928 329.703 88.9913C330.054 89.3868 330.23 89.9097 330.23 90.5601V91.0216H326.912C326.927 91.587 327.069 92.0162 327.338 92.3091C327.611 92.6021 327.993 92.7486 328.485 92.7486C329.004 92.7486 329.517 92.6402 330.023 92.4234V93.0738C329.766 93.1851 329.521 93.2642 329.29 93.3111C329.061 93.3609 328.784 93.3858 328.459 93.3858ZM328.261 89.0045C327.875 89.0045 327.565 89.1304 327.334 89.3824C327.105 89.6343 326.971 89.983 326.93 90.4283H329.448C329.448 89.9683 329.345 89.6168 329.14 89.3736C328.935 89.1275 328.642 89.0045 328.261 89.0045Z" fill="white"/>
<path d="M333.034 92.7837C333.163 92.7837 333.287 92.7749 333.407 92.7573C333.527 92.7368 333.623 92.7163 333.693 92.6958V93.2539C333.614 93.292 333.497 93.3227 333.341 93.3462C333.189 93.3725 333.051 93.3857 332.928 93.3857C331.997 93.3857 331.531 92.895 331.531 91.9135V89.0483H330.841V88.6967L331.531 88.3935L331.838 87.3652H332.26V88.4814H333.658V89.0483H332.26V91.8828C332.26 92.1728 332.329 92.3955 332.467 92.5507C332.605 92.706 332.793 92.7837 333.034 92.7837Z" fill="white"/>
<path d="M335.389 93.2979H334.66V88.4815H335.389V93.2979ZM334.598 87.1763C334.598 87.0093 334.639 86.8878 334.721 86.8116C334.803 86.7325 334.906 86.6929 335.029 86.6929C335.146 86.6929 335.247 86.7325 335.332 86.8116C335.417 86.8907 335.46 87.0123 335.46 87.1763C335.46 87.3404 335.417 87.4634 335.332 87.5455C335.247 87.6246 335.146 87.6641 335.029 87.6641C334.906 87.6641 334.803 87.6246 334.721 87.5455C334.639 87.4634 334.598 87.3404 334.598 87.1763Z" fill="white"/>
<path d="M340.232 93.2979V90.1822C340.232 89.7896 340.143 89.4967 339.964 89.3033C339.785 89.1099 339.505 89.0133 339.125 89.0133C338.621 89.0133 338.251 89.1495 338.017 89.4219C337.783 89.6944 337.666 90.1441 337.666 90.7711V93.2979H336.936V88.4815H337.529L337.648 89.1407H337.683C337.833 88.9034 338.042 88.7203 338.312 88.5914C338.581 88.4595 338.881 88.3936 339.212 88.3936C339.793 88.3936 340.229 88.5342 340.522 88.8155C340.815 89.0938 340.961 89.5406 340.961 90.1558V93.2979H340.232Z" fill="white"/>
<path d="M346.406 88.4815V88.9429L345.514 89.0484C345.596 89.1509 345.669 89.2857 345.734 89.4527C345.798 89.6168 345.831 89.8028 345.831 90.0108C345.831 90.4825 345.669 90.859 345.347 91.1402C345.025 91.4215 344.583 91.5621 344.02 91.5621C343.876 91.5621 343.742 91.5504 343.616 91.5269C343.305 91.691 343.15 91.8975 343.15 92.1466C343.15 92.2784 343.204 92.3765 343.313 92.441C343.421 92.5025 343.607 92.5333 343.871 92.5333H344.723C345.245 92.5333 345.645 92.6431 345.923 92.8629C346.204 93.0826 346.345 93.4019 346.345 93.8209C346.345 94.3541 346.131 94.7598 345.703 95.0382C345.275 95.3194 344.651 95.46 343.831 95.46C343.201 95.46 342.715 95.3428 342.372 95.1085C342.032 94.8741 341.862 94.543 341.862 94.1153C341.862 93.8223 341.956 93.5689 342.144 93.355C342.331 93.1412 342.595 92.9962 342.935 92.92C342.812 92.8643 342.708 92.7779 342.623 92.6607C342.541 92.5435 342.5 92.4073 342.5 92.252C342.5 92.0762 342.546 91.9224 342.64 91.7906C342.734 91.6588 342.882 91.5313 343.084 91.4083C342.835 91.3057 342.631 91.1314 342.473 90.8853C342.318 90.6392 342.24 90.358 342.24 90.0416C342.24 89.5142 342.398 89.1085 342.715 88.8243C343.031 88.5372 343.48 88.3936 344.06 88.3936C344.312 88.3936 344.539 88.4229 344.741 88.4815H346.406ZM342.565 94.1065C342.565 94.3673 342.675 94.565 342.895 94.6998C343.115 94.8345 343.43 94.9019 343.84 94.9019C344.452 94.9019 344.905 94.8096 345.198 94.6251C345.494 94.4434 345.642 94.1959 345.642 93.8824C345.642 93.6217 345.561 93.44 345.4 93.3375C345.239 93.2379 344.936 93.1881 344.49 93.1881H343.616C343.285 93.1881 343.027 93.2672 342.842 93.4254C342.658 93.5836 342.565 93.8106 342.565 94.1065ZM342.961 90.024C342.961 90.3609 343.056 90.6158 343.247 90.7886C343.437 90.9615 343.702 91.0479 344.042 91.0479C344.754 91.0479 345.11 90.7022 345.11 90.0108C345.11 89.2872 344.75 88.9254 344.029 88.9254C343.686 88.9254 343.422 89.0176 343.238 89.2022C343.053 89.3868 342.961 89.6607 342.961 90.024Z" fill="white"/>
<path d="M55.1094 209.548C55.6953 209.548 56.1597 209.684 56.5025 209.957C56.8452 210.229 57.0166 210.606 57.0166 211.086C57.0166 211.403 56.9185 211.691 56.7222 211.952C56.5259 212.213 56.2124 212.45 55.7818 212.664C56.3033 212.913 56.6739 213.175 56.8936 213.45C57.1133 213.723 57.2232 214.039 57.2232 214.4C57.2232 214.933 57.0371 215.359 56.6651 215.678C56.293 215.995 55.7832 216.153 55.1358 216.153C54.4502 216.153 53.9229 216.004 53.5537 215.705C53.1846 215.403 53 214.977 53 214.426C53 213.691 53.4483 213.118 54.3448 212.708C53.9405 212.479 53.6504 212.233 53.4746 211.969C53.2989 211.703 53.211 211.405 53.211 211.077C53.211 210.611 53.3824 210.241 53.7251 209.965C54.0708 209.687 54.5323 209.548 55.1094 209.548ZM53.7207 214.444C53.7207 214.795 53.8423 215.069 54.0855 215.265C54.3316 215.462 54.6758 215.56 55.1182 215.56C55.5547 215.56 55.8946 215.457 56.1377 215.252C56.3809 215.047 56.5025 214.766 56.5025 214.408C56.5025 214.124 56.3882 213.872 56.1597 213.653C55.9312 213.43 55.5327 213.215 54.9644 213.007C54.5279 213.194 54.2115 213.402 54.0152 213.631C53.8189 213.856 53.7207 214.127 53.7207 214.444ZM55.1006 210.141C54.7344 210.141 54.4473 210.229 54.2393 210.405C54.0313 210.581 53.9273 210.815 53.9273 211.108C53.9273 211.378 54.0137 211.609 54.1866 211.802C54.3594 211.996 54.6787 212.189 55.1446 212.382C55.5635 212.207 55.8594 212.018 56.0323 211.816C56.208 211.613 56.2959 211.378 56.2959 211.108C56.2959 210.812 56.189 210.578 55.9751 210.405C55.7642 210.229 55.4727 210.141 55.1006 210.141Z" fill="white"/>
<path d="M62.3911 212.844C62.3911 213.954 62.2154 214.783 61.8638 215.331C61.5152 215.879 60.9805 216.153 60.2598 216.153C59.5684 216.153 59.0425 215.873 58.6822 215.314C58.3218 214.751 58.1416 213.928 58.1416 212.844C58.1416 211.725 58.3159 210.894 58.6646 210.352C59.0132 209.81 59.545 209.539 60.2598 209.539C60.9571 209.539 61.4859 209.822 61.8462 210.387C62.2095 210.953 62.3911 211.772 62.3911 212.844ZM58.8799 212.844C58.8799 213.778 58.9898 214.46 59.2095 214.887C59.4292 215.312 59.7793 215.525 60.2598 215.525C60.7461 215.525 61.0977 215.309 61.3145 214.879C61.5342 214.445 61.6441 213.767 61.6441 212.844C61.6441 211.921 61.5342 211.246 61.3145 210.818C61.0977 210.387 60.7461 210.172 60.2598 210.172C59.7793 210.172 59.4292 210.384 59.2095 210.809C58.9898 211.231 58.8799 211.909 58.8799 212.844Z" fill="white"/>
<path d="M63.9073 211.556C63.9073 212.054 63.9615 212.428 64.0699 212.677C64.1783 212.926 64.354 213.05 64.5972 213.05C65.0777 213.05 65.3179 212.552 65.3179 211.556C65.3179 210.566 65.0777 210.071 64.5972 210.071C64.354 210.071 64.1783 210.194 64.0699 210.44C63.9615 210.686 63.9073 211.058 63.9073 211.556ZM65.92 211.556C65.92 212.224 65.8072 212.73 65.5816 213.072C65.3589 213.412 65.0308 213.582 64.5972 213.582C64.187 213.582 63.8677 213.408 63.6392 213.059C63.4136 212.711 63.3008 212.21 63.3008 211.556C63.3008 210.891 63.4092 210.39 63.626 210.053C63.8457 209.716 64.1695 209.548 64.5972 209.548C65.022 209.548 65.3487 209.722 65.5772 210.071C65.8057 210.42 65.92 210.915 65.92 211.556ZM67.7744 214.132C67.7744 214.632 67.8286 215.007 67.937 215.257C68.0454 215.503 68.2227 215.626 68.4688 215.626C68.7149 215.626 68.8965 215.504 69.0137 215.261C69.1309 215.015 69.1895 214.638 69.1895 214.132C69.1895 213.631 69.1309 213.26 69.0137 213.02C68.8965 212.777 68.7149 212.655 68.4688 212.655C68.2227 212.655 68.0454 212.777 67.937 213.02C67.8286 213.26 67.7744 213.631 67.7744 214.132ZM69.7915 214.132C69.7915 214.797 69.6787 215.3 69.4532 215.643C69.2305 215.983 68.9024 216.153 68.4688 216.153C68.0528 216.153 67.732 215.979 67.5064 215.63C67.2837 215.281 67.1724 214.782 67.1724 214.132C67.1724 213.466 67.2808 212.965 67.4976 212.629C67.7173 212.292 68.041 212.123 68.4688 212.123C68.8848 212.123 69.2085 212.296 69.44 212.642C69.6743 212.985 69.7915 213.481 69.7915 214.132ZM68.6577 209.64L65.0938 216.065H64.4478L68.0118 209.64H68.6577Z" fill="white"/>
<path d="M53.4258 228.065V221.64H54.1729V227.388H57.0073V228.065H53.4258Z" fill="white"/>
<path d="M58.7217 228.065H57.9922V223.249H58.7217V228.065ZM57.9307 221.944C57.9307 221.777 57.9717 221.655 58.0537 221.579C58.1358 221.5 58.2383 221.46 58.3614 221.46C58.4785 221.46 58.5796 221.5 58.6646 221.579C58.7495 221.658 58.792 221.779 58.792 221.944C58.792 222.108 58.7495 222.231 58.6646 222.313C58.5796 222.392 58.4785 222.431 58.3614 222.431C58.2383 222.431 58.1358 222.392 58.0537 222.313C57.9717 222.231 57.9307 222.108 57.9307 221.944Z" fill="white"/>
<path d="M62.0874 227.542C62.5737 227.542 62.9282 227.412 63.1509 227.151C63.3736 226.89 63.4922 226.451 63.5069 225.833V225.67C63.5069 224.996 63.3926 224.511 63.1641 224.215C62.9356 223.92 62.5737 223.772 62.0786 223.772C61.6509 223.772 61.3228 223.939 61.0943 224.273C60.8687 224.604 60.7559 225.072 60.7559 225.679C60.7559 226.285 60.8672 226.748 61.0899 227.068C61.3154 227.384 61.648 227.542 62.0874 227.542ZM61.9776 228.153C61.3565 228.153 60.8716 227.935 60.523 227.498C60.1743 227.062 60 226.452 60 225.67C60 224.882 60.1758 224.267 60.5274 223.824C60.8789 223.382 61.3682 223.161 61.9951 223.161C62.6543 223.161 63.1612 223.41 63.5156 223.908H63.5552L63.6607 223.249H64.2363V230.227H63.5069V228.166C63.5069 227.873 63.523 227.624 63.5552 227.419H63.4981C63.1612 227.908 62.6543 228.153 61.9776 228.153Z" fill="white"/>
<path d="M66.4737 223.249V226.373C66.4737 226.766 66.563 227.059 66.7417 227.252C66.9204 227.445 67.2002 227.542 67.5811 227.542C68.085 227.542 68.4527 227.404 68.6841 227.129C68.9185 226.854 69.0357 226.404 69.0357 225.78V223.249H69.7652V228.065H69.1631L69.0576 227.419H69.0181C68.8687 227.656 68.6607 227.838 68.3941 227.964C68.1304 228.09 67.8286 228.153 67.4888 228.153C66.9029 228.153 66.4634 228.014 66.1704 227.736C65.8804 227.457 65.7354 227.012 65.7354 226.4V223.249H66.4737Z" fill="white"/>
<path d="M72.0459 228.065H71.3164V223.249H72.0459V228.065ZM71.2549 221.944C71.2549 221.777 71.2959 221.655 71.378 221.579C71.46 221.5 71.5625 221.46 71.6856 221.46C71.8028 221.46 71.9038 221.5 71.9888 221.579C72.0738 221.658 72.1162 221.779 72.1162 221.944C72.1162 222.108 72.0738 222.231 71.9888 222.313C71.9038 222.392 71.8028 222.431 71.6856 222.431C71.5625 222.431 71.46 222.392 71.378 222.313C71.2959 222.231 71.2549 222.108 71.2549 221.944Z" fill="white"/>
<path d="M76.8706 227.419H76.8311C76.4942 227.908 75.9903 228.153 75.3194 228.153C74.6895 228.153 74.1987 227.938 73.8472 227.507C73.4986 227.076 73.3242 226.464 73.3242 225.67C73.3242 224.876 73.5 224.259 73.8516 223.82C74.2031 223.381 74.6924 223.161 75.3194 223.161C75.9727 223.161 76.4737 223.398 76.8223 223.873H76.8794L76.8487 223.526L76.8311 223.187V221.227H77.5606V228.065H76.9673L76.8706 227.419ZM75.4116 227.542C75.9097 227.542 76.27 227.407 76.4927 227.138C76.7183 226.865 76.8311 226.427 76.8311 225.824V225.67C76.8311 224.987 76.7168 224.501 76.4883 224.211C76.2627 223.918 75.9009 223.772 75.4029 223.772C74.9751 223.772 74.647 223.939 74.4185 224.273C74.1929 224.604 74.0801 225.072 74.0801 225.679C74.0801 226.294 74.1929 226.758 74.4185 227.072C74.6441 227.385 74.9751 227.542 75.4116 227.542Z" fill="white"/>
<path d="M79.8418 228.065H79.1123V223.249H79.8418V228.065ZM79.0508 221.944C79.0508 221.777 79.0918 221.655 79.1739 221.579C79.2559 221.5 79.3584 221.46 79.4815 221.46C79.5987 221.46 79.6997 221.5 79.7847 221.579C79.8697 221.658 79.9121 221.779 79.9121 221.944C79.9121 222.108 79.8697 222.231 79.7847 222.313C79.6997 222.392 79.5987 222.431 79.4815 222.431C79.3584 222.431 79.2559 222.392 79.1739 222.313C79.0918 222.231 79.0508 222.108 79.0508 221.944Z" fill="white"/>
<path d="M82.9448 227.551C83.0737 227.551 83.1983 227.542 83.3184 227.525C83.4385 227.504 83.5337 227.484 83.604 227.463V228.021C83.5249 228.059 83.4077 228.09 83.2524 228.113C83.1 228.14 82.9623 228.153 82.8393 228.153C81.9077 228.153 81.4418 227.662 81.4418 226.681V223.816H80.752V223.464L81.4418 223.161L81.7495 222.132H82.1713V223.249H83.5688V223.816H82.1713V226.65C82.1713 226.94 82.2403 227.163 82.378 227.318C82.5157 227.473 82.7045 227.551 82.9448 227.551Z" fill="white"/>
<path d="M83.8057 223.249H84.5879L85.6426 225.995C85.8741 226.622 86.0176 227.075 86.0733 227.353H86.1084C86.1465 227.204 86.2256 226.949 86.3457 226.589C86.4688 226.225 86.8672 225.112 87.541 223.249H88.3233L86.2534 228.733C86.0484 229.275 85.8081 229.659 85.5327 229.884C85.2603 230.113 84.9248 230.227 84.5264 230.227C84.3037 230.227 84.084 230.202 83.8672 230.153V229.568C84.0284 229.603 84.2085 229.621 84.4077 229.621C84.9087 229.621 85.2661 229.34 85.48 228.777L85.7481 228.091L83.8057 223.249Z" fill="white"/>
<path d="M200.192 2.048H197.056V0.199999H205.596V2.048H202.46V10H200.192V2.048ZM209.481 10.112C208.687 10.112 207.973 9.94867 207.339 9.622C206.713 9.286 206.223 8.824 205.869 8.236C205.514 7.648 205.337 6.98067 205.337 6.234C205.337 5.48733 205.514 4.82 205.869 4.232C206.223 3.644 206.713 3.18667 207.339 2.86C207.973 2.524 208.687 2.356 209.481 2.356C210.274 2.356 210.983 2.524 211.609 2.86C212.234 3.18667 212.724 3.644 213.079 4.232C213.433 4.82 213.611 5.48733 213.611 6.234C213.611 6.98067 213.433 7.648 213.079 8.236C212.724 8.824 212.234 9.286 211.609 9.622C210.983 9.94867 210.274 10.112 209.481 10.112ZM209.481 8.32C210.041 8.32 210.498 8.13333 210.853 7.76C211.217 7.37733 211.399 6.86867 211.399 6.234C211.399 5.59933 211.217 5.09533 210.853 4.722C210.498 4.33933 210.041 4.148 209.481 4.148C208.921 4.148 208.459 4.33933 208.095 4.722C207.731 5.09533 207.549 5.59933 207.549 6.234C207.549 6.86867 207.731 7.37733 208.095 7.76C208.459 8.13333 208.921 8.32 209.481 8.32ZM219.929 9.636C219.714 9.79467 219.448 9.916 219.131 10C218.823 10.0747 218.496 10.112 218.151 10.112C217.255 10.112 216.559 9.88333 216.065 9.426C215.579 8.96867 215.337 8.29667 215.337 7.41V4.316H214.175V2.636H215.337V0.802H217.521V2.636H219.397V4.316H217.521V7.382C217.521 7.69933 217.6 7.94667 217.758 8.124C217.927 8.292 218.16 8.376 218.459 8.376C218.804 8.376 219.098 8.28267 219.341 8.096L219.929 9.636ZM224.192 2.356C225.359 2.356 226.255 2.636 226.88 3.196C227.506 3.74667 227.818 4.582 227.818 5.702V10H225.774V9.062C225.364 9.762 224.598 10.112 223.478 10.112C222.9 10.112 222.396 10.014 221.966 9.818C221.546 9.622 221.224 9.35133 221 9.006C220.776 8.66067 220.664 8.26867 220.664 7.83C220.664 7.13 220.926 6.57933 221.448 6.178C221.98 5.77667 222.797 5.576 223.898 5.576H225.634C225.634 5.1 225.49 4.736 225.2 4.484C224.911 4.22267 224.477 4.092 223.898 4.092C223.497 4.092 223.1 4.15733 222.708 4.288C222.326 4.40933 221.999 4.57733 221.728 4.792L220.944 3.266C221.355 2.97667 221.845 2.75267 222.414 2.594C222.993 2.43533 223.586 2.356 224.192 2.356ZM224.024 8.642C224.398 8.642 224.729 8.558 225.018 8.39C225.308 8.21267 225.513 7.956 225.634 7.62V6.85H224.136C223.24 6.85 222.792 7.144 222.792 7.732C222.792 8.012 222.9 8.236 223.114 8.404C223.338 8.56267 223.642 8.642 224.024 8.642ZM229.795 -0.388001H231.979V10H229.795V-0.388001ZM241.345 10.168C240.57 10.168 239.819 10.0653 239.091 9.86C238.372 9.64533 237.794 9.37 237.355 9.034L238.125 7.326C238.545 7.634 239.044 7.88133 239.623 8.068C240.202 8.25467 240.78 8.348 241.359 8.348C242.003 8.348 242.479 8.25467 242.787 8.068C243.095 7.872 243.249 7.61533 243.249 7.298C243.249 7.06467 243.156 6.87333 242.969 6.724C242.792 6.56533 242.558 6.43933 242.269 6.346C241.989 6.25267 241.606 6.15 241.121 6.038C240.374 5.86067 239.763 5.68333 239.287 5.506C238.811 5.32867 238.4 5.044 238.055 4.652C237.719 4.26 237.551 3.73733 237.551 3.084C237.551 2.51467 237.705 2.00133 238.013 1.544C238.321 1.07733 238.783 0.708666 239.399 0.438C240.024 0.167333 240.785 0.0319998 241.681 0.0319998C242.306 0.0319998 242.918 0.106666 243.515 0.255999C244.112 0.405333 244.635 0.62 245.083 0.899999L244.383 2.622C243.478 2.10867 242.572 1.852 241.667 1.852C241.032 1.852 240.561 1.95467 240.253 2.16C239.954 2.36533 239.805 2.636 239.805 2.972C239.805 3.308 239.978 3.56 240.323 3.728C240.678 3.88667 241.214 4.04533 241.933 4.204C242.68 4.38133 243.291 4.55867 243.767 4.736C244.243 4.91333 244.649 5.19333 244.985 5.576C245.33 5.95867 245.503 6.47667 245.503 7.13C245.503 7.69 245.344 8.20333 245.027 8.67C244.719 9.12733 244.252 9.49133 243.627 9.762C243.002 10.0327 242.241 10.168 241.345 10.168ZM254.487 2.468V10H252.415V9.104C252.125 9.43067 251.78 9.68267 251.379 9.86C250.977 10.028 250.543 10.112 250.077 10.112C249.087 10.112 248.303 9.82733 247.725 9.258C247.146 8.68867 246.857 7.844 246.857 6.724V2.468H249.041V6.402C249.041 7.61533 249.549 8.222 250.567 8.222C251.089 8.222 251.509 8.054 251.827 7.718C252.144 7.37267 252.303 6.864 252.303 6.192V2.468H254.487ZM260.962 2.356C261.662 2.356 262.297 2.51933 262.866 2.846C263.445 3.16333 263.897 3.616 264.224 4.204C264.551 4.78267 264.714 5.45933 264.714 6.234C264.714 7.00867 264.551 7.69 264.224 8.278C263.897 8.85667 263.445 9.30933 262.866 9.636C262.297 9.95333 261.662 10.112 260.962 10.112C260.001 10.112 259.245 9.80867 258.694 9.202V12.716H256.51V2.468H258.596V3.336C259.137 2.68267 259.926 2.356 260.962 2.356ZM260.584 8.32C261.144 8.32 261.601 8.13333 261.956 7.76C262.32 7.37733 262.502 6.86867 262.502 6.234C262.502 5.59933 262.32 5.09533 261.956 4.722C261.601 4.33933 261.144 4.148 260.584 4.148C260.024 4.148 259.562 4.33933 259.198 4.722C258.843 5.09533 258.666 5.59933 258.666 6.234C258.666 6.86867 258.843 7.37733 259.198 7.76C259.562 8.13333 260.024 8.32 260.584 8.32ZM270.628 2.356C271.328 2.356 271.963 2.51933 272.532 2.846C273.111 3.16333 273.563 3.616 273.89 4.204C274.217 4.78267 274.38 5.45933 274.38 6.234C274.38 7.00867 274.217 7.69 273.89 8.278C273.563 8.85667 273.111 9.30933 272.532 9.636C271.963 9.95333 271.328 10.112 270.628 10.112C269.667 10.112 268.911 9.80867 268.36 9.202V12.716H266.176V2.468H268.262V3.336C268.803 2.68267 269.592 2.356 270.628 2.356ZM270.25 8.32C270.81 8.32 271.267 8.13333 271.622 7.76C271.986 7.37733 272.168 6.86867 272.168 6.234C272.168 5.59933 271.986 5.09533 271.622 4.722C271.267 4.33933 270.81 4.148 270.25 4.148C269.69 4.148 269.228 4.33933 268.864 4.722C268.509 5.09533 268.332 5.59933 268.332 6.234C268.332 6.86867 268.509 7.37733 268.864 7.76C269.228 8.13333 269.69 8.32 270.25 8.32ZM275.842 -0.388001H278.026V10H275.842V-0.388001ZM287.529 2.468L284.127 10.462C283.782 11.33 283.352 11.9413 282.839 12.296C282.335 12.6507 281.724 12.828 281.005 12.828C280.613 12.828 280.226 12.7673 279.843 12.646C279.46 12.5247 279.148 12.3567 278.905 12.142L279.703 10.588C279.871 10.7373 280.062 10.854 280.277 10.938C280.501 11.022 280.72 11.064 280.935 11.064C281.234 11.064 281.476 10.9893 281.663 10.84C281.85 10.7 282.018 10.462 282.167 10.126L282.195 10.056L278.933 2.468H281.187L283.301 7.578L285.429 2.468H287.529Z" fill="white"/>
</g>
<defs>
<linearGradient id="paint0_linear_189:1271" x1="141.654" y1="178.166" x2="227.961" y2="105.064" gradientUnits="userSpaceOnUse">
<stop stop-color="#48F6F8"/>
<stop offset="1" stop-color="#31B1B3"/>
</linearGradient>
<linearGradient id="paint1_linear_189:1271" x1="141.654" y1="178.165" x2="227.961" y2="105.063" gradientUnits="userSpaceOnUse">
<stop stop-color="#48F6F8"/>
<stop offset="1" stop-color="#7ADADF"/>
</linearGradient>
<linearGradient id="paint2_linear_189:1271" x1="141.654" y1="178.166" x2="227.961" y2="105.063" gradientUnits="userSpaceOnUse">
<stop stop-color="#48F6F8"/>
<stop offset="1" stop-color="#90FEFF"/>
</linearGradient>
<linearGradient id="paint3_linear_189:1271" x1="123.334" y1="193.504" x2="246.089" y2="89.53" gradientUnits="userSpaceOnUse">
<stop stop-color="#9E22FF"/>
<stop offset="1" stop-color="#6F33EE"/>
</linearGradient>
<clipPath id="clip0_189:1271">
<rect width="471" height="247" fill="white"/>
</clipPath>
</defs>
</svg>
