<svg width="464" height="285" viewBox="0 0 464 285" fill="none" xmlns="http://www.w3.org/2000/svg">
<g clip-path="url(#clip0_189:1173)">
<g filter="url(#filter0_d_189:1173)">
<path d="M238.492 208.607C249.517 172.566 248.348 133.896 235.165 98.5868L74.5781 158.5L238.492 208.607Z" fill="url(#paint0_linear_189:1173)"/>
</g>
<g filter="url(#filter1_d_189:1173)">
<path d="M238.492 208.607C247.36 179.618 248.376 148.796 241.436 119.287L74.5781 158.5L238.492 208.607Z" fill="url(#paint1_linear_189:1173)"/>
</g>
<g filter="url(#filter2_d_189:1173)">
<path d="M238.492 208.607C243.862 191.052 246.375 172.748 245.936 154.395L74.5781 158.5L238.492 208.607Z" fill="url(#paint2_linear_189:1173)"/>
</g>
<path d="M331.861 59.7129C332.613 59.7129 333.204 59.9001 333.633 60.2744C334.066 60.6455 334.283 61.1549 334.283 61.8027C334.283 62.5417 334.047 63.1211 333.575 63.541C333.106 63.9609 332.458 64.1709 331.631 64.1709C330.827 64.1709 330.214 64.0423 329.791 63.7852V63.0039C330.018 63.1504 330.302 63.266 330.64 63.3506C330.979 63.432 331.312 63.4727 331.641 63.4727C332.214 63.4727 332.658 63.3376 332.974 63.0674C333.293 62.7972 333.453 62.4066 333.453 61.8955C333.453 60.8994 332.842 60.4014 331.622 60.4014C331.312 60.4014 330.899 60.4486 330.381 60.543L329.961 60.2744L330.23 56.9346H333.78V57.6816H330.923L330.743 59.8252C331.117 59.7503 331.49 59.7129 331.861 59.7129ZM336.045 59.0635C336.045 59.6169 336.106 60.0319 336.226 60.3086C336.347 60.5853 336.542 60.7236 336.812 60.7236C337.346 60.7236 337.613 60.1702 337.613 59.0635C337.613 57.9632 337.346 57.4131 336.812 57.4131C336.542 57.4131 336.347 57.5498 336.226 57.8232C336.106 58.0967 336.045 58.5101 336.045 59.0635ZM338.282 59.0635C338.282 59.8057 338.156 60.3672 337.906 60.748C337.658 61.1257 337.294 61.3145 336.812 61.3145C336.356 61.3145 336.001 61.1208 335.748 60.7334C335.497 60.346 335.372 59.7894 335.372 59.0635C335.372 58.3245 335.492 57.7679 335.733 57.3936C335.977 57.0192 336.337 56.832 336.812 56.832C337.284 56.832 337.647 57.0257 337.901 57.4131C338.155 57.8005 338.282 58.3506 338.282 59.0635ZM340.342 61.9248C340.342 62.4814 340.403 62.8981 340.523 63.1748C340.643 63.4482 340.84 63.585 341.114 63.585C341.387 63.585 341.589 63.4499 341.719 63.1797C341.849 62.9062 341.915 62.488 341.915 61.9248C341.915 61.3682 341.849 60.9564 341.719 60.6895C341.589 60.4193 341.387 60.2842 341.114 60.2842C340.84 60.2842 340.643 60.4193 340.523 60.6895C340.403 60.9564 340.342 61.3682 340.342 61.9248ZM342.583 61.9248C342.583 62.6637 342.458 63.2236 342.208 63.6045C341.96 63.9821 341.596 64.1709 341.114 64.1709C340.652 64.1709 340.295 63.9772 340.044 63.5898C339.797 63.2025 339.673 62.6475 339.673 61.9248C339.673 61.1859 339.794 60.6292 340.035 60.2549C340.279 59.8805 340.639 59.6934 341.114 59.6934C341.576 59.6934 341.936 59.8854 342.193 60.2695C342.453 60.6504 342.583 61.2021 342.583 61.9248ZM341.324 56.9346L337.364 64.0732H336.646L340.606 56.9346H341.324ZM347.505 61.1045V64.0732H346.675V56.9346H348.633C349.509 56.9346 350.155 57.1022 350.572 57.4375C350.992 57.7728 351.202 58.2773 351.202 58.9512C351.202 59.8952 350.723 60.5332 349.766 60.8652L351.705 64.0732H350.723L348.995 61.1045H347.505ZM347.505 60.3916H348.643C349.229 60.3916 349.659 60.276 349.932 60.0449C350.206 59.8105 350.342 59.4606 350.342 58.9951C350.342 58.5231 350.202 58.1829 349.922 57.9746C349.646 57.7663 349.2 57.6621 348.584 57.6621H347.505V60.3916ZM354.996 64.1709C354.205 64.1709 353.58 63.93 353.121 63.4482C352.665 62.9665 352.437 62.2975 352.437 61.4414C352.437 60.5788 352.649 59.8936 353.072 59.3857C353.498 58.8779 354.069 58.624 354.786 58.624C355.456 58.624 355.987 58.8454 356.377 59.2881C356.768 59.7275 356.963 60.3086 356.963 61.0312V61.5439H353.277C353.293 62.1722 353.451 62.6491 353.75 62.9746C354.053 63.3001 354.478 63.4629 355.025 63.4629C355.601 63.4629 356.171 63.3424 356.734 63.1016V63.8242C356.447 63.9479 356.176 64.0358 355.918 64.0879C355.665 64.1432 355.357 64.1709 354.996 64.1709ZM354.776 59.3027C354.346 59.3027 354.003 59.4427 353.746 59.7227C353.492 60.0026 353.342 60.39 353.296 60.8848H356.094C356.094 60.3737 355.98 59.9831 355.752 59.7129C355.525 59.4395 355.199 59.3027 354.776 59.3027ZM360.84 64.1709C360.492 64.1709 360.173 64.1074 359.883 63.9805C359.597 63.8503 359.356 63.6517 359.161 63.3848H359.102C359.141 63.6973 359.161 63.9935 359.161 64.2734V66.4756H358.35V58.7217H359.009L359.122 59.4541H359.161C359.369 59.1611 359.611 58.9495 359.888 58.8193C360.165 58.6891 360.482 58.624 360.84 58.624C361.55 58.624 362.097 58.8665 362.481 59.3516C362.868 59.8366 363.062 60.5169 363.062 61.3926C363.062 62.2715 362.865 62.9551 362.471 63.4434C362.081 63.9284 361.537 64.1709 360.84 64.1709ZM360.723 59.3125C360.176 59.3125 359.781 59.4639 359.537 59.7666C359.292 60.0693 359.167 60.5511 359.161 61.2119V61.3926C359.161 62.1445 359.286 62.6833 359.537 63.0088C359.787 63.3311 360.189 63.4922 360.743 63.4922C361.205 63.4922 361.566 63.305 361.827 62.9307C362.09 62.5563 362.222 62.0404 362.222 61.3828C362.222 60.7155 362.09 60.2044 361.827 59.8496C361.566 59.4915 361.198 59.3125 360.723 59.3125ZM365.293 64.0732H364.483V56.4756H365.293V64.0732ZM369.273 64.1709C368.482 64.1709 367.857 63.93 367.398 63.4482C366.942 62.9665 366.714 62.2975 366.714 61.4414C366.714 60.5788 366.926 59.8936 367.349 59.3857C367.776 58.8779 368.347 58.624 369.063 58.624C369.734 58.624 370.264 58.8454 370.655 59.2881C371.045 59.7275 371.241 60.3086 371.241 61.0312V61.5439H367.554C367.57 62.1722 367.728 62.6491 368.028 62.9746C368.331 63.3001 368.755 63.4629 369.302 63.4629C369.878 63.4629 370.448 63.3424 371.011 63.1016V63.8242C370.725 63.9479 370.453 64.0358 370.196 64.0879C369.942 64.1432 369.634 64.1709 369.273 64.1709ZM369.053 59.3027C368.624 59.3027 368.28 59.4427 368.023 59.7227C367.769 60.0026 367.619 60.39 367.574 60.8848H370.372C370.372 60.3737 370.258 59.9831 370.03 59.7129C369.802 59.4395 369.476 59.3027 369.053 59.3027ZM376.29 64.0732V60.6113C376.29 60.1751 376.19 59.8496 375.992 59.6348C375.793 59.4199 375.482 59.3125 375.059 59.3125C374.499 59.3125 374.089 59.4639 373.829 59.7666C373.568 60.0693 373.438 60.569 373.438 61.2656V64.0732H372.627V58.7217H373.287L373.418 59.4541H373.458C373.624 59.1904 373.856 58.987 374.156 58.8438C374.455 58.6973 374.789 58.624 375.157 58.624C375.801 58.624 376.286 58.7803 376.612 59.0928C376.937 59.402 377.1 59.8984 377.1 60.582V64.0732H376.29ZM379.581 64.0732H378.77V58.7217H379.581V64.0732ZM378.702 57.2715C378.702 57.0859 378.747 56.9508 378.838 56.8662C378.93 56.7783 379.043 56.7344 379.18 56.7344C379.31 56.7344 379.423 56.7783 379.517 56.8662C379.611 56.9541 379.659 57.0892 379.659 57.2715C379.659 57.4538 379.611 57.5905 379.517 57.6816C379.423 57.7695 379.31 57.8135 379.18 57.8135C379.043 57.8135 378.93 57.7695 378.838 57.6816C378.747 57.5905 378.702 57.4538 378.702 57.2715ZM384.751 62.6133C384.751 63.1113 384.566 63.4954 384.195 63.7656C383.824 64.0358 383.303 64.1709 382.632 64.1709C381.923 64.1709 381.369 64.0586 380.972 63.834V63.082C381.229 63.2122 381.504 63.3148 381.797 63.3896C382.094 63.4645 382.378 63.502 382.652 63.502C383.075 63.502 383.401 63.4352 383.628 63.3018C383.856 63.165 383.97 62.9583 383.97 62.6816C383.97 62.4733 383.879 62.2959 383.697 62.1494C383.518 61.9997 383.166 61.8239 382.642 61.6221C382.144 61.4365 381.789 61.2754 381.578 61.1387C381.369 60.9987 381.213 60.8408 381.109 60.665C381.008 60.4893 380.958 60.2793 380.958 60.0352C380.958 59.599 381.135 59.2555 381.49 59.0049C381.845 58.751 382.331 58.624 382.95 58.624C383.526 58.624 384.089 58.7412 384.639 58.9756L384.351 59.6348C383.814 59.4134 383.327 59.3027 382.891 59.3027C382.507 59.3027 382.217 59.363 382.022 59.4834C381.827 59.6038 381.729 59.7699 381.729 59.9814C381.729 60.1247 381.765 60.2467 381.836 60.3477C381.911 60.4486 382.03 60.5446 382.193 60.6357C382.356 60.7269 382.668 60.8587 383.13 61.0312C383.765 61.2624 384.193 61.4951 384.415 61.7295C384.639 61.9639 384.751 62.2585 384.751 62.6133ZM389.737 64.0732V60.6113C389.737 60.1751 389.638 59.8496 389.439 59.6348C389.24 59.4199 388.93 59.3125 388.506 59.3125C387.943 59.3125 387.531 59.4655 387.271 59.7715C387.014 60.0775 386.885 60.5788 386.885 61.2754V64.0732H386.075V56.4756H386.885V58.7754C386.885 59.0521 386.872 59.2816 386.846 59.4639H386.895C387.055 59.2067 387.281 59.0049 387.574 58.8584C387.87 58.7087 388.207 58.6338 388.584 58.6338C389.239 58.6338 389.729 58.79 390.054 59.1025C390.383 59.4118 390.547 59.9049 390.547 60.582V64.0732H389.737ZM396.543 63.502C396.687 63.502 396.825 63.4922 396.958 63.4727C397.092 63.4499 397.198 63.4271 397.276 63.4043V64.0244C397.188 64.0667 397.058 64.1009 396.885 64.127C396.716 64.1562 396.563 64.1709 396.426 64.1709C395.391 64.1709 394.874 63.6257 394.874 62.5352V59.3516H394.107V58.9609L394.874 58.624L395.215 57.4814H395.684V58.7217H397.237V59.3516H395.684V62.501C395.684 62.8232 395.761 63.0706 395.914 63.2432C396.067 63.4157 396.277 63.502 396.543 63.502ZM402.012 64.0732V60.6113C402.012 60.1751 401.913 59.8496 401.714 59.6348C401.516 59.4199 401.205 59.3125 400.782 59.3125C400.219 59.3125 399.807 59.4655 399.546 59.7715C399.289 60.0775 399.161 60.5788 399.161 61.2754V64.0732H398.35V56.4756H399.161V58.7754C399.161 59.0521 399.148 59.2816 399.122 59.4639H399.17C399.33 59.2067 399.556 59.0049 399.849 58.8584C400.145 58.7087 400.482 58.6338 400.86 58.6338C401.514 58.6338 402.004 58.79 402.33 59.1025C402.658 59.4118 402.823 59.9049 402.823 60.582V64.0732H402.012ZM406.753 64.1709C405.962 64.1709 405.337 63.93 404.878 63.4482C404.423 62.9665 404.195 62.2975 404.195 61.4414C404.195 60.5788 404.406 59.8936 404.83 59.3857C405.256 58.8779 405.827 58.624 406.543 58.624C407.214 58.624 407.745 58.8454 408.135 59.2881C408.526 59.7275 408.721 60.3086 408.721 61.0312V61.5439H405.035C405.051 62.1722 405.209 62.6491 405.508 62.9746C405.811 63.3001 406.236 63.4629 406.783 63.4629C407.359 63.4629 407.929 63.3424 408.492 63.1016V63.8242C408.205 63.9479 407.933 64.0358 407.676 64.0879C407.422 64.1432 407.115 64.1709 406.753 64.1709ZM406.534 59.3027C406.104 59.3027 405.761 59.4427 405.503 59.7227C405.25 60.0026 405.1 60.39 405.054 60.8848H407.852C407.852 60.3737 407.738 59.9831 407.51 59.7129C407.282 59.4395 406.957 59.3027 406.534 59.3027ZM332.491 72.6338C333.194 72.6338 333.739 72.8747 334.126 73.3564C334.517 73.835 334.712 74.5137 334.712 75.3926C334.712 76.2715 334.515 76.9551 334.122 77.4434C333.731 77.9284 333.187 78.1709 332.491 78.1709C332.142 78.1709 331.823 78.1074 331.534 77.9805C331.247 77.8503 331.006 77.6517 330.811 77.3848H330.752L330.582 78.0732H330V70.4756H330.811V72.3213C330.811 72.7347 330.798 73.1058 330.772 73.4346H330.811C331.189 72.9007 331.749 72.6338 332.491 72.6338ZM332.374 73.3125C331.82 73.3125 331.421 73.472 331.177 73.791C330.933 74.1068 330.811 74.6406 330.811 75.3926C330.811 76.1445 330.936 76.6833 331.187 77.0088C331.438 77.3311 331.84 77.4922 332.393 77.4922C332.891 77.4922 333.262 77.3115 333.506 76.9502C333.75 76.5856 333.873 76.0632 333.873 75.3828C333.873 74.6862 333.75 74.167 333.506 73.8252C333.262 73.4834 332.885 73.3125 332.374 73.3125ZM336.895 72.7217V76.1934C336.895 76.6296 336.994 76.9551 337.193 77.1699C337.391 77.3848 337.702 77.4922 338.125 77.4922C338.685 77.4922 339.094 77.3392 339.351 77.0332C339.611 76.7272 339.742 76.2275 339.742 75.5342V72.7217H340.552V78.0732H339.883L339.766 77.3555H339.722C339.556 77.6191 339.325 77.821 339.029 77.9609C338.736 78.1009 338.401 78.1709 338.023 78.1709C337.372 78.1709 336.884 78.0163 336.558 77.707C336.236 77.3978 336.075 76.903 336.075 76.2227V72.7217H336.895ZM344.717 72.624C344.955 72.624 345.168 72.6436 345.357 72.6826L345.245 73.4346C345.023 73.3857 344.828 73.3613 344.659 73.3613C344.226 73.3613 343.855 73.5371 343.545 73.8887C343.239 74.2402 343.086 74.6781 343.086 75.2021V78.0732H342.276V72.7217H342.945L343.038 73.7129H343.077C343.275 73.3646 343.514 73.096 343.794 72.9072C344.074 72.7184 344.382 72.624 344.717 72.624ZM350.02 78.0732V74.6113C350.02 74.1751 349.921 73.8496 349.722 73.6348C349.524 73.4199 349.213 73.3125 348.79 73.3125C348.23 73.3125 347.819 73.4639 347.559 73.7666C347.299 74.0693 347.168 74.569 347.168 75.2656V78.0732H346.358V72.7217H347.017L347.149 73.4541H347.188C347.354 73.1904 347.587 72.987 347.886 72.8438C348.186 72.6973 348.519 72.624 348.887 72.624C349.532 72.624 350.017 72.7803 350.342 73.0928C350.668 73.402 350.831 73.8984 350.831 74.582V78.0732H350.02ZM353.311 78.0732H352.5V72.7217H353.311V78.0732ZM352.432 71.2715C352.432 71.0859 352.478 70.9508 352.569 70.8662C352.66 70.7783 352.774 70.7344 352.911 70.7344C353.041 70.7344 353.153 70.7783 353.248 70.8662C353.342 70.9541 353.389 71.0892 353.389 71.2715C353.389 71.4538 353.342 71.5905 353.248 71.6816C353.153 71.7695 353.041 71.8135 352.911 71.8135C352.774 71.8135 352.66 71.7695 352.569 71.6816C352.478 71.5905 352.432 71.4538 352.432 71.2715ZM358.692 78.0732V74.6113C358.692 74.1751 358.593 73.8496 358.394 73.6348C358.195 73.4199 357.885 73.3125 357.461 73.3125C356.902 73.3125 356.491 73.4639 356.231 73.7666C355.971 74.0693 355.84 74.569 355.84 75.2656V78.0732H355.03V72.7217H355.689L355.821 73.4541H355.86C356.026 73.1904 356.259 72.987 356.558 72.8438C356.858 72.6973 357.191 72.624 357.559 72.624C358.204 72.624 358.689 72.7803 359.014 73.0928C359.34 73.402 359.502 73.8984 359.502 74.582V78.0732H358.692ZM365.552 72.7217V73.2344L364.561 73.3516C364.652 73.4655 364.734 73.6152 364.805 73.8008C364.877 73.9831 364.913 74.1898 364.913 74.4209C364.913 74.945 364.734 75.3633 364.375 75.6758C364.017 75.9883 363.526 76.1445 362.901 76.1445C362.741 76.1445 362.592 76.1315 362.452 76.1055C362.107 76.2878 361.934 76.5173 361.934 76.7939C361.934 76.9404 361.994 77.0495 362.115 77.1211C362.235 77.1895 362.442 77.2236 362.735 77.2236H363.682C364.262 77.2236 364.706 77.3457 365.015 77.5898C365.328 77.834 365.484 78.1888 365.484 78.6543C365.484 79.2467 365.246 79.6976 364.771 80.0068C364.296 80.3193 363.602 80.4756 362.691 80.4756C361.991 80.4756 361.451 80.3454 361.07 80.085C360.692 79.8245 360.503 79.4567 360.503 78.9814C360.503 78.6559 360.608 78.3743 360.816 78.1367C361.024 77.8991 361.317 77.738 361.695 77.6533C361.558 77.5915 361.443 77.4954 361.348 77.3652C361.257 77.235 361.211 77.0837 361.211 76.9111C361.211 76.7158 361.264 76.5449 361.368 76.3984C361.472 76.252 361.636 76.1104 361.861 75.9736C361.584 75.8597 361.358 75.666 361.182 75.3926C361.01 75.1191 360.923 74.8066 360.923 74.4551C360.923 73.8691 361.099 73.4183 361.451 73.1025C361.802 72.7835 362.3 72.624 362.945 72.624C363.225 72.624 363.477 72.6566 363.702 72.7217H365.552ZM361.285 78.9717C361.285 79.2614 361.407 79.4811 361.651 79.6309C361.895 79.7806 362.245 79.8555 362.701 79.8555C363.381 79.8555 363.884 79.7529 364.209 79.5479C364.538 79.346 364.703 79.071 364.703 78.7227C364.703 78.4329 364.613 78.2311 364.434 78.1172C364.255 78.0065 363.918 77.9512 363.423 77.9512H362.452C362.084 77.9512 361.797 78.0391 361.592 78.2148C361.387 78.3906 361.285 78.6429 361.285 78.9717ZM361.724 74.4355C361.724 74.8099 361.83 75.0931 362.042 75.2852C362.253 75.4772 362.548 75.5732 362.925 75.5732C363.716 75.5732 364.112 75.1891 364.112 74.4209C364.112 73.6169 363.711 73.2148 362.911 73.2148C362.53 73.2148 362.237 73.3174 362.032 73.5225C361.827 73.7275 361.724 74.0319 361.724 74.4355ZM371.739 78.1709C371.39 78.1709 371.071 78.1074 370.782 77.9805C370.495 77.8503 370.254 77.6517 370.059 77.3848H370C370.04 77.6973 370.059 77.9935 370.059 78.2734V80.4756H369.249V72.7217H369.908L370.02 73.4541H370.059C370.267 73.1611 370.51 72.9495 370.787 72.8193C371.063 72.6891 371.381 72.624 371.739 72.624C372.448 72.624 372.995 72.8665 373.379 73.3516C373.767 73.8366 373.96 74.5169 373.96 75.3926C373.96 76.2715 373.764 76.9551 373.37 77.4434C372.979 77.9284 372.435 78.1709 371.739 78.1709ZM371.622 73.3125C371.075 73.3125 370.679 73.4639 370.435 73.7666C370.191 74.0693 370.066 74.5511 370.059 75.2119V75.3926C370.059 76.1445 370.184 76.6833 370.435 77.0088C370.686 77.3311 371.088 77.4922 371.641 77.4922C372.103 77.4922 372.465 77.305 372.725 76.9307C372.989 76.5563 373.121 76.0404 373.121 75.3828C373.121 74.7155 372.989 74.2044 372.725 73.8496C372.465 73.4915 372.097 73.3125 371.622 73.3125ZM380 75.3926C380 76.265 379.781 76.9469 379.341 77.4385C378.902 77.9268 378.295 78.1709 377.52 78.1709C377.042 78.1709 376.617 78.0586 376.246 77.834C375.875 77.6094 375.588 77.2871 375.386 76.8672C375.184 76.4473 375.083 75.9557 375.083 75.3926C375.083 74.5202 375.302 73.8415 375.738 73.3564C376.174 72.8682 376.779 72.624 377.554 72.624C378.303 72.624 378.897 72.873 379.336 73.3711C379.779 73.8691 380 74.543 380 75.3926ZM375.923 75.3926C375.923 76.0762 376.06 76.597 376.333 76.9551C376.607 77.3132 377.009 77.4922 377.54 77.4922C378.07 77.4922 378.472 77.3148 378.746 76.96C379.022 76.6019 379.161 76.0794 379.161 75.3926C379.161 74.7122 379.022 74.1963 378.746 73.8447C378.472 73.4899 378.067 73.3125 377.53 73.3125C376.999 73.3125 376.599 73.4867 376.329 73.835C376.058 74.1833 375.923 74.7025 375.923 75.3926ZM386.045 75.3926C386.045 76.265 385.826 76.9469 385.386 77.4385C384.947 77.9268 384.34 78.1709 383.565 78.1709C383.086 78.1709 382.662 78.0586 382.291 77.834C381.919 77.6094 381.633 77.2871 381.431 76.8672C381.229 76.4473 381.128 75.9557 381.128 75.3926C381.128 74.5202 381.347 73.8415 381.783 73.3564C382.219 72.8682 382.824 72.624 383.599 72.624C384.348 72.624 384.942 72.873 385.381 73.3711C385.824 73.8691 386.045 74.543 386.045 75.3926ZM381.968 75.3926C381.968 76.0762 382.105 76.597 382.378 76.9551C382.652 77.3132 383.054 77.4922 383.584 77.4922C384.115 77.4922 384.517 77.3148 384.791 76.96C385.067 76.6019 385.206 76.0794 385.206 75.3926C385.206 74.7122 385.067 74.1963 384.791 73.8447C384.517 73.4899 384.112 73.3125 383.575 73.3125C383.044 73.3125 382.644 73.4867 382.374 73.835C382.103 74.1833 381.968 74.7025 381.968 75.3926ZM388.282 78.0732H387.471V70.4756H388.282V78.0732Z" fill="white"/>
<path d="M321.206 101.424C321.206 101.88 321.077 102.252 320.82 102.542C320.566 102.832 320.205 103.025 319.736 103.123V103.162C320.309 103.234 320.734 103.416 321.011 103.709C321.287 104.002 321.426 104.386 321.426 104.861C321.426 105.542 321.19 106.066 320.718 106.434C320.246 106.798 319.575 106.98 318.706 106.98C318.328 106.98 317.982 106.951 317.666 106.893C317.354 106.837 317.049 106.738 316.753 106.595V105.823C317.062 105.976 317.391 106.093 317.739 106.175C318.091 106.253 318.423 106.292 318.735 106.292C319.969 106.292 320.586 105.809 320.586 104.842C320.586 103.976 319.906 103.543 318.545 103.543H317.842V102.845H318.555C319.111 102.845 319.552 102.723 319.878 102.479C320.203 102.231 320.366 101.889 320.366 101.453C320.366 101.105 320.246 100.831 320.005 100.633C319.767 100.434 319.443 100.335 319.033 100.335C318.721 100.335 318.426 100.377 318.149 100.462C317.873 100.547 317.557 100.703 317.202 100.931L316.792 100.384C317.085 100.153 317.422 99.972 317.803 99.8418C318.187 99.7083 318.59 99.6416 319.014 99.6416C319.707 99.6416 320.246 99.8011 320.63 100.12C321.014 100.436 321.206 100.87 321.206 101.424ZM323.198 101.873C323.198 102.426 323.258 102.841 323.379 103.118C323.499 103.395 323.695 103.533 323.965 103.533C324.499 103.533 324.766 102.98 324.766 101.873C324.766 100.773 324.499 100.223 323.965 100.223C323.695 100.223 323.499 100.359 323.379 100.633C323.258 100.906 323.198 101.32 323.198 101.873ZM325.435 101.873C325.435 102.615 325.309 103.177 325.059 103.558C324.811 103.935 324.447 104.124 323.965 104.124C323.509 104.124 323.154 103.93 322.9 103.543C322.65 103.156 322.524 102.599 322.524 101.873C322.524 101.134 322.645 100.577 322.886 100.203C323.13 99.8288 323.49 99.6416 323.965 99.6416C324.437 99.6416 324.8 99.8353 325.054 100.223C325.308 100.61 325.435 101.16 325.435 101.873ZM327.495 104.734C327.495 105.291 327.555 105.708 327.676 105.984C327.796 106.258 327.993 106.395 328.267 106.395C328.54 106.395 328.742 106.259 328.872 105.989C329.002 105.716 329.067 105.298 329.067 104.734C329.067 104.178 329.002 103.766 328.872 103.499C328.742 103.229 328.54 103.094 328.267 103.094C327.993 103.094 327.796 103.229 327.676 103.499C327.555 103.766 327.495 104.178 327.495 104.734ZM329.736 104.734C329.736 105.473 329.611 106.033 329.36 106.414C329.113 106.792 328.748 106.98 328.267 106.98C327.804 106.98 327.448 106.787 327.197 106.399C326.95 106.012 326.826 105.457 326.826 104.734C326.826 103.995 326.947 103.439 327.188 103.064C327.432 102.69 327.791 102.503 328.267 102.503C328.729 102.503 329.089 102.695 329.346 103.079C329.606 103.46 329.736 104.012 329.736 104.734ZM328.477 99.7441L324.517 106.883H323.799L327.759 99.7441H328.477ZM336.987 106.883L334.565 100.555H334.526C334.572 101.056 334.595 101.652 334.595 102.342V106.883H333.828V99.7441H335.078L337.339 105.633H337.378L339.658 99.7441H340.898V106.883H340.068V102.283C340.068 101.756 340.091 101.183 340.137 100.564H340.098L337.656 106.883H336.987ZM346.03 106.883L345.869 106.121H345.83C345.563 106.456 345.296 106.684 345.029 106.805C344.766 106.922 344.435 106.98 344.038 106.98C343.507 106.98 343.091 106.844 342.788 106.57C342.489 106.297 342.339 105.908 342.339 105.403C342.339 104.323 343.203 103.756 344.932 103.704L345.84 103.675V103.343C345.84 102.923 345.749 102.614 345.566 102.415C345.387 102.213 345.099 102.112 344.702 102.112C344.256 102.112 343.752 102.249 343.188 102.522L342.939 101.902C343.203 101.759 343.491 101.647 343.804 101.565C344.119 101.484 344.435 101.443 344.751 101.443C345.389 101.443 345.861 101.585 346.167 101.868C346.476 102.151 346.631 102.605 346.631 103.23V106.883H346.03ZM344.199 106.312C344.704 106.312 345.099 106.173 345.386 105.896C345.675 105.62 345.82 105.232 345.82 104.734V104.251L345.01 104.285C344.365 104.308 343.9 104.409 343.613 104.588C343.33 104.764 343.188 105.039 343.188 105.413C343.188 105.706 343.276 105.929 343.452 106.082C343.631 106.235 343.88 106.312 344.199 106.312ZM350.747 101.434C350.985 101.434 351.198 101.453 351.387 101.492L351.274 102.244C351.053 102.195 350.858 102.171 350.688 102.171C350.256 102.171 349.884 102.347 349.575 102.698C349.269 103.05 349.116 103.488 349.116 104.012V106.883H348.306V101.531H348.975L349.067 102.522H349.106C349.305 102.174 349.544 101.906 349.824 101.717C350.104 101.528 350.412 101.434 350.747 101.434ZM353.188 104.144C353.328 103.945 353.542 103.685 353.828 103.362L355.557 101.531H356.519L354.351 103.812L356.67 106.883H355.688L353.799 104.354L353.188 104.881V106.883H352.388V99.2852H353.188V103.313C353.188 103.493 353.175 103.769 353.149 104.144H353.188ZM359.902 106.98C359.111 106.98 358.486 106.74 358.027 106.258C357.572 105.776 357.344 105.107 357.344 104.251C357.344 103.388 357.555 102.703 357.979 102.195C358.405 101.688 358.976 101.434 359.692 101.434C360.363 101.434 360.894 101.655 361.284 102.098C361.675 102.537 361.87 103.118 361.87 103.841V104.354H358.184C358.2 104.982 358.358 105.459 358.657 105.784C358.96 106.11 359.385 106.272 359.932 106.272C360.508 106.272 361.077 106.152 361.641 105.911V106.634C361.354 106.757 361.082 106.845 360.825 106.897C360.571 106.953 360.264 106.98 359.902 106.98ZM359.683 102.112C359.253 102.112 358.91 102.252 358.652 102.532C358.398 102.812 358.249 103.2 358.203 103.694H361.001C361.001 103.183 360.887 102.793 360.659 102.522C360.431 102.249 360.106 102.112 359.683 102.112ZM364.985 106.312C365.129 106.312 365.267 106.302 365.4 106.282C365.534 106.259 365.64 106.237 365.718 106.214V106.834C365.63 106.876 365.5 106.91 365.327 106.937C365.158 106.966 365.005 106.98 364.868 106.98C363.833 106.98 363.315 106.435 363.315 105.345V102.161H362.549V101.771L363.315 101.434L363.657 100.291H364.126V101.531H365.679V102.161H364.126V105.311C364.126 105.633 364.202 105.88 364.355 106.053C364.508 106.225 364.718 106.312 364.985 106.312ZM367.603 106.883H366.792V101.531H367.603V106.883ZM366.724 100.081C366.724 99.8955 366.769 99.7604 366.86 99.6758C366.951 99.5879 367.065 99.5439 367.202 99.5439C367.332 99.5439 367.445 99.5879 367.539 99.6758C367.633 99.7637 367.681 99.8988 367.681 100.081C367.681 100.263 367.633 100.4 367.539 100.491C367.445 100.579 367.332 100.623 367.202 100.623C367.065 100.623 366.951 100.579 366.86 100.491C366.769 100.4 366.724 100.263 366.724 100.081ZM372.983 106.883V103.421C372.983 102.985 372.884 102.659 372.686 102.444C372.487 102.229 372.176 102.122 371.753 102.122C371.193 102.122 370.783 102.273 370.522 102.576C370.262 102.879 370.132 103.379 370.132 104.075V106.883H369.321V101.531H369.98L370.112 102.264H370.151C370.317 102 370.55 101.797 370.85 101.653C371.149 101.507 371.483 101.434 371.851 101.434C372.495 101.434 372.98 101.59 373.306 101.902C373.631 102.212 373.794 102.708 373.794 103.392V106.883H372.983ZM379.844 101.531V102.044L378.853 102.161C378.944 102.275 379.025 102.425 379.097 102.61C379.168 102.793 379.204 102.999 379.204 103.23C379.204 103.755 379.025 104.173 378.667 104.485C378.309 104.798 377.817 104.954 377.192 104.954C377.033 104.954 376.883 104.941 376.743 104.915C376.398 105.097 376.226 105.327 376.226 105.604C376.226 105.75 376.286 105.859 376.406 105.931C376.527 105.999 376.733 106.033 377.026 106.033H377.974C378.553 106.033 378.997 106.155 379.307 106.399C379.619 106.644 379.775 106.998 379.775 107.464C379.775 108.056 379.538 108.507 379.062 108.816C378.587 109.129 377.894 109.285 376.982 109.285C376.283 109.285 375.742 109.155 375.361 108.895C374.984 108.634 374.795 108.266 374.795 107.791C374.795 107.465 374.899 107.184 375.107 106.946C375.316 106.709 375.609 106.548 375.986 106.463C375.85 106.401 375.734 106.305 375.64 106.175C375.549 106.045 375.503 105.893 375.503 105.721C375.503 105.525 375.555 105.354 375.659 105.208C375.763 105.062 375.928 104.92 376.152 104.783C375.876 104.669 375.649 104.476 375.474 104.202C375.301 103.929 375.215 103.616 375.215 103.265C375.215 102.679 375.391 102.228 375.742 101.912C376.094 101.593 376.592 101.434 377.236 101.434C377.516 101.434 377.769 101.466 377.993 101.531H379.844ZM375.576 107.781C375.576 108.071 375.698 108.291 375.942 108.44C376.187 108.59 376.536 108.665 376.992 108.665C377.673 108.665 378.175 108.562 378.501 108.357C378.83 108.156 378.994 107.881 378.994 107.532C378.994 107.243 378.905 107.041 378.726 106.927C378.547 106.816 378.21 106.761 377.715 106.761H376.743C376.375 106.761 376.089 106.849 375.884 107.024C375.679 107.2 375.576 107.452 375.576 107.781ZM376.016 103.245C376.016 103.619 376.121 103.903 376.333 104.095C376.545 104.287 376.839 104.383 377.217 104.383C378.008 104.383 378.403 103.999 378.403 103.23C378.403 102.426 378.003 102.024 377.202 102.024C376.821 102.024 376.528 102.127 376.323 102.332C376.118 102.537 376.016 102.841 376.016 103.245Z" fill="white"/>
<path d="M317.192 153.057H312.5V152.358L314.38 150.469C314.953 149.889 315.33 149.476 315.513 149.229C315.695 148.981 315.832 148.74 315.923 148.506C316.014 148.271 316.06 148.019 316.06 147.749C316.06 147.368 315.944 147.067 315.713 146.846C315.482 146.621 315.161 146.509 314.751 146.509C314.455 146.509 314.173 146.558 313.906 146.655C313.643 146.753 313.348 146.93 313.022 147.188L312.593 146.636C313.25 146.089 313.966 145.815 314.741 145.815C315.412 145.815 315.938 145.988 316.318 146.333C316.699 146.675 316.89 147.135 316.89 147.715C316.89 148.167 316.763 148.615 316.509 149.058C316.255 149.5 315.78 150.06 315.083 150.737L313.521 152.266V152.305H317.192V153.057ZM318.916 148.047C318.916 148.6 318.976 149.015 319.097 149.292C319.217 149.569 319.412 149.707 319.683 149.707C320.216 149.707 320.483 149.154 320.483 148.047C320.483 146.947 320.216 146.396 319.683 146.396C319.412 146.396 319.217 146.533 319.097 146.807C318.976 147.08 318.916 147.493 318.916 148.047ZM321.152 148.047C321.152 148.789 321.027 149.351 320.776 149.731C320.529 150.109 320.164 150.298 319.683 150.298C319.227 150.298 318.872 150.104 318.618 149.717C318.368 149.329 318.242 148.773 318.242 148.047C318.242 147.308 318.363 146.751 318.604 146.377C318.848 146.003 319.207 145.815 319.683 145.815C320.155 145.815 320.518 146.009 320.771 146.396C321.025 146.784 321.152 147.334 321.152 148.047ZM323.213 150.908C323.213 151.465 323.273 151.882 323.394 152.158C323.514 152.432 323.711 152.568 323.984 152.568C324.258 152.568 324.46 152.433 324.59 152.163C324.72 151.89 324.785 151.471 324.785 150.908C324.785 150.352 324.72 149.94 324.59 149.673C324.46 149.403 324.258 149.268 323.984 149.268C323.711 149.268 323.514 149.403 323.394 149.673C323.273 149.94 323.213 150.352 323.213 150.908ZM325.454 150.908C325.454 151.647 325.329 152.207 325.078 152.588C324.831 152.965 324.466 153.154 323.984 153.154C323.522 153.154 323.166 152.961 322.915 152.573C322.668 152.186 322.544 151.631 322.544 150.908C322.544 150.169 322.664 149.613 322.905 149.238C323.149 148.864 323.509 148.677 323.984 148.677C324.447 148.677 324.806 148.869 325.063 149.253C325.324 149.634 325.454 150.186 325.454 150.908ZM324.194 145.918L320.234 153.057H319.517L323.477 145.918H324.194ZM332.603 146.558C331.818 146.558 331.198 146.82 330.742 147.344C330.29 147.865 330.063 148.579 330.063 149.487C330.063 150.422 330.282 151.144 330.718 151.655C331.157 152.163 331.782 152.417 332.593 152.417C333.091 152.417 333.659 152.327 334.297 152.148V152.876C333.802 153.062 333.192 153.154 332.466 153.154C331.414 153.154 330.602 152.835 330.029 152.197C329.46 151.559 329.175 150.653 329.175 149.478C329.175 148.742 329.312 148.097 329.585 147.544C329.862 146.991 330.259 146.564 330.776 146.265C331.297 145.965 331.909 145.815 332.612 145.815C333.361 145.815 334.015 145.952 334.575 146.226L334.224 146.938C333.683 146.685 333.143 146.558 332.603 146.558ZM340.352 150.376C340.352 151.248 340.132 151.93 339.692 152.422C339.253 152.91 338.646 153.154 337.871 153.154C337.393 153.154 336.968 153.042 336.597 152.817C336.226 152.593 335.939 152.271 335.737 151.851C335.535 151.431 335.435 150.939 335.435 150.376C335.435 149.504 335.653 148.825 336.089 148.34C336.525 147.852 337.131 147.607 337.905 147.607C338.654 147.607 339.248 147.856 339.688 148.354C340.13 148.853 340.352 149.526 340.352 150.376ZM336.274 150.376C336.274 151.06 336.411 151.58 336.685 151.938C336.958 152.297 337.36 152.476 337.891 152.476C338.421 152.476 338.823 152.298 339.097 151.943C339.373 151.585 339.512 151.063 339.512 150.376C339.512 149.696 339.373 149.18 339.097 148.828C338.823 148.473 338.418 148.296 337.881 148.296C337.35 148.296 336.95 148.47 336.68 148.818C336.41 149.167 336.274 149.686 336.274 150.376ZM345.439 153.057V149.595C345.439 149.159 345.34 148.833 345.142 148.618C344.943 148.403 344.632 148.296 344.209 148.296C343.649 148.296 343.239 148.447 342.979 148.75C342.718 149.053 342.588 149.552 342.588 150.249V153.057H341.777V147.705H342.437L342.568 148.438H342.607C342.773 148.174 343.006 147.97 343.306 147.827C343.605 147.681 343.939 147.607 344.307 147.607C344.951 147.607 345.436 147.764 345.762 148.076C346.087 148.385 346.25 148.882 346.25 149.565V153.057H345.439ZM349.648 152.485C349.792 152.485 349.93 152.476 350.063 152.456C350.197 152.433 350.303 152.41 350.381 152.388V153.008C350.293 153.05 350.163 153.084 349.99 153.11C349.821 153.14 349.668 153.154 349.531 153.154C348.496 153.154 347.979 152.609 347.979 151.519V148.335H347.212V147.944L347.979 147.607L348.32 146.465H348.789V147.705H350.342V148.335H348.789V151.484C348.789 151.807 348.866 152.054 349.019 152.227C349.172 152.399 349.382 152.485 349.648 152.485ZM353.716 153.154C352.925 153.154 352.3 152.913 351.841 152.432C351.385 151.95 351.157 151.281 351.157 150.425C351.157 149.562 351.369 148.877 351.792 148.369C352.218 147.861 352.79 147.607 353.506 147.607C354.176 147.607 354.707 147.829 355.098 148.271C355.488 148.711 355.684 149.292 355.684 150.015V150.527H351.997C352.013 151.156 352.171 151.632 352.471 151.958C352.773 152.284 353.198 152.446 353.745 152.446C354.321 152.446 354.891 152.326 355.454 152.085V152.808C355.168 152.931 354.896 153.019 354.639 153.071C354.385 153.127 354.077 153.154 353.716 153.154ZM353.496 148.286C353.066 148.286 352.723 148.426 352.466 148.706C352.212 148.986 352.062 149.373 352.017 149.868H354.814C354.814 149.357 354.701 148.966 354.473 148.696C354.245 148.423 353.919 148.286 353.496 148.286ZM360.522 151.597C360.522 152.095 360.337 152.479 359.966 152.749C359.595 153.019 359.074 153.154 358.403 153.154C357.694 153.154 357.14 153.042 356.743 152.817V152.065C357 152.196 357.275 152.298 357.568 152.373C357.865 152.448 358.149 152.485 358.423 152.485C358.846 152.485 359.172 152.419 359.399 152.285C359.627 152.148 359.741 151.942 359.741 151.665C359.741 151.457 359.65 151.279 359.468 151.133C359.289 150.983 358.937 150.807 358.413 150.605C357.915 150.42 357.56 150.259 357.349 150.122C357.14 149.982 356.984 149.824 356.88 149.648C356.779 149.473 356.729 149.263 356.729 149.019C356.729 148.582 356.906 148.239 357.261 147.988C357.616 147.734 358.102 147.607 358.721 147.607C359.297 147.607 359.86 147.725 360.41 147.959L360.122 148.618C359.585 148.397 359.098 148.286 358.662 148.286C358.278 148.286 357.988 148.346 357.793 148.467C357.598 148.587 357.5 148.753 357.5 148.965C357.5 149.108 357.536 149.23 357.607 149.331C357.682 149.432 357.801 149.528 357.964 149.619C358.127 149.71 358.439 149.842 358.901 150.015C359.536 150.246 359.964 150.479 360.186 150.713C360.41 150.947 360.522 151.242 360.522 151.597ZM363.574 152.485C363.717 152.485 363.856 152.476 363.989 152.456C364.123 152.433 364.229 152.41 364.307 152.388V153.008C364.219 153.05 364.089 153.084 363.916 153.11C363.747 153.14 363.594 153.154 363.457 153.154C362.422 153.154 361.904 152.609 361.904 151.519V148.335H361.138V147.944L361.904 147.607L362.246 146.465H362.715V147.705H364.268V148.335H362.715V151.484C362.715 151.807 362.791 152.054 362.944 152.227C363.097 152.399 363.307 152.485 363.574 152.485ZM368.833 151.597C368.833 152.095 368.647 152.479 368.276 152.749C367.905 153.019 367.384 153.154 366.714 153.154C366.004 153.154 365.451 153.042 365.054 152.817V152.065C365.311 152.196 365.586 152.298 365.879 152.373C366.175 152.448 366.46 152.485 366.733 152.485C367.157 152.485 367.482 152.419 367.71 152.285C367.938 152.148 368.052 151.942 368.052 151.665C368.052 151.457 367.961 151.279 367.778 151.133C367.599 150.983 367.248 150.807 366.724 150.605C366.226 150.42 365.871 150.259 365.659 150.122C365.451 149.982 365.295 149.824 365.19 149.648C365.09 149.473 365.039 149.263 365.039 149.019C365.039 148.582 365.216 148.239 365.571 147.988C365.926 147.734 366.413 147.607 367.031 147.607C367.607 147.607 368.171 147.725 368.721 147.959L368.433 148.618C367.896 148.397 367.409 148.286 366.973 148.286C366.589 148.286 366.299 148.346 366.104 148.467C365.908 148.587 365.811 148.753 365.811 148.965C365.811 149.108 365.846 149.23 365.918 149.331C365.993 149.432 366.112 149.528 366.274 149.619C366.437 149.71 366.75 149.842 367.212 150.015C367.847 150.246 368.275 150.479 368.496 150.713C368.721 150.947 368.833 151.242 368.833 151.597ZM376.045 153.057L375.884 152.295H375.845C375.578 152.63 375.311 152.858 375.044 152.979C374.78 153.096 374.45 153.154 374.053 153.154C373.522 153.154 373.105 153.018 372.803 152.744C372.503 152.471 372.354 152.082 372.354 151.577C372.354 150.496 373.218 149.93 374.946 149.878L375.854 149.849V149.517C375.854 149.097 375.763 148.787 375.581 148.589C375.402 148.387 375.114 148.286 374.717 148.286C374.271 148.286 373.766 148.423 373.203 148.696L372.954 148.076C373.218 147.933 373.506 147.821 373.818 147.739C374.134 147.658 374.45 147.617 374.766 147.617C375.404 147.617 375.876 147.759 376.182 148.042C376.491 148.325 376.646 148.779 376.646 149.404V153.057H376.045ZM374.214 152.485C374.718 152.485 375.114 152.347 375.4 152.07C375.69 151.794 375.835 151.406 375.835 150.908V150.425L375.024 150.459C374.38 150.482 373.914 150.583 373.628 150.762C373.345 150.938 373.203 151.213 373.203 151.587C373.203 151.88 373.291 152.103 373.467 152.256C373.646 152.409 373.895 152.485 374.214 152.485ZM381.982 153.057V149.595C381.982 149.159 381.883 148.833 381.685 148.618C381.486 148.403 381.175 148.296 380.752 148.296C380.192 148.296 379.782 148.447 379.521 148.75C379.261 149.053 379.131 149.552 379.131 150.249V153.057H378.32V147.705H378.979L379.111 148.438H379.15C379.316 148.174 379.549 147.97 379.849 147.827C380.148 147.681 380.482 147.607 380.85 147.607C381.494 147.607 381.979 147.764 382.305 148.076C382.63 148.385 382.793 148.882 382.793 149.565V153.057H381.982ZM388.105 152.339H388.062C387.687 152.882 387.127 153.154 386.382 153.154C385.682 153.154 385.137 152.915 384.746 152.437C384.359 151.958 384.165 151.278 384.165 150.396C384.165 149.513 384.36 148.828 384.751 148.34C385.142 147.852 385.685 147.607 386.382 147.607C387.108 147.607 387.664 147.871 388.052 148.398H388.115L388.081 148.013L388.062 147.637V145.459H388.872V153.057H388.213L388.105 152.339ZM386.484 152.476C387.038 152.476 387.438 152.326 387.686 152.026C387.936 151.724 388.062 151.237 388.062 150.566V150.396C388.062 149.637 387.935 149.097 387.681 148.774C387.43 148.449 387.028 148.286 386.475 148.286C385.999 148.286 385.635 148.472 385.381 148.843C385.13 149.211 385.005 149.731 385.005 150.405C385.005 151.089 385.13 151.605 385.381 151.953C385.632 152.301 385.999 152.476 386.484 152.476ZM394.004 153.057H393.193V145.459H394.004V153.057ZM400.342 150.376C400.342 151.248 400.122 151.93 399.683 152.422C399.243 152.91 398.636 153.154 397.861 153.154C397.383 153.154 396.958 153.042 396.587 152.817C396.216 152.593 395.929 152.271 395.728 151.851C395.526 151.431 395.425 150.939 395.425 150.376C395.425 149.504 395.643 148.825 396.079 148.34C396.515 147.852 397.121 147.607 397.896 147.607C398.644 147.607 399.238 147.856 399.678 148.354C400.12 148.853 400.342 149.526 400.342 150.376ZM396.265 150.376C396.265 151.06 396.401 151.58 396.675 151.938C396.948 152.297 397.35 152.476 397.881 152.476C398.411 152.476 398.813 152.298 399.087 151.943C399.364 151.585 399.502 151.063 399.502 150.376C399.502 149.696 399.364 149.18 399.087 148.828C398.813 148.473 398.408 148.296 397.871 148.296C397.34 148.296 396.94 148.47 396.67 148.818C396.4 149.167 396.265 149.686 396.265 150.376ZM403.496 152.485C403.639 152.485 403.778 152.476 403.911 152.456C404.045 152.433 404.15 152.41 404.229 152.388V153.008C404.141 153.05 404.01 153.084 403.838 153.11C403.669 153.14 403.516 153.154 403.379 153.154C402.344 153.154 401.826 152.609 401.826 151.519V148.335H401.06V147.944L401.826 147.607L402.168 146.465H402.637V147.705H404.189V148.335H402.637V151.484C402.637 151.807 402.713 152.054 402.866 152.227C403.019 152.399 403.229 152.485 403.496 152.485ZM407.031 152.485C407.174 152.485 407.313 152.476 407.446 152.456C407.58 152.433 407.686 152.41 407.764 152.388V153.008C407.676 153.05 407.546 153.084 407.373 153.11C407.204 153.14 407.051 153.154 406.914 153.154C405.879 153.154 405.361 152.609 405.361 151.519V148.335H404.595V147.944L405.361 147.607L405.703 146.465H406.172V147.705H407.725V148.335H406.172V151.484C406.172 151.807 406.248 152.054 406.401 152.227C406.554 152.399 406.764 152.485 407.031 152.485ZM411.099 153.154C410.308 153.154 409.683 152.913 409.224 152.432C408.768 151.95 408.54 151.281 408.54 150.425C408.54 149.562 408.752 148.877 409.175 148.369C409.601 147.861 410.173 147.607 410.889 147.607C411.559 147.607 412.09 147.829 412.48 148.271C412.871 148.711 413.066 149.292 413.066 150.015V150.527H409.38C409.396 151.156 409.554 151.632 409.854 151.958C410.156 152.284 410.581 152.446 411.128 152.446C411.704 152.446 412.274 152.326 412.837 152.085V152.808C412.55 152.931 412.279 153.019 412.021 153.071C411.768 153.127 411.46 153.154 411.099 153.154ZM410.879 148.286C410.449 148.286 410.106 148.426 409.849 148.706C409.595 148.986 409.445 149.373 409.399 149.868H412.197C412.197 149.357 412.083 148.966 411.855 148.696C411.628 148.423 411.302 148.286 410.879 148.286ZM416.895 147.607C417.132 147.607 417.345 147.627 417.534 147.666L417.422 148.418C417.201 148.369 417.005 148.345 416.836 148.345C416.403 148.345 416.032 148.521 415.723 148.872C415.417 149.224 415.264 149.661 415.264 150.186V153.057H414.453V147.705H415.122L415.215 148.696H415.254C415.452 148.348 415.692 148.079 415.972 147.891C416.252 147.702 416.559 147.607 416.895 147.607ZM417.686 147.705H418.555L419.727 150.757C419.984 151.453 420.143 151.956 420.205 152.266H420.244C420.286 152.1 420.374 151.816 420.508 151.416C420.645 151.012 421.087 149.775 421.836 147.705H422.705L420.405 153.799C420.177 154.401 419.91 154.827 419.604 155.078C419.302 155.332 418.929 155.459 418.486 155.459C418.239 155.459 417.995 155.431 417.754 155.376V154.727C417.933 154.766 418.133 154.785 418.354 154.785C418.911 154.785 419.308 154.473 419.546 153.848L419.844 153.086L417.686 147.705Z" fill="white"/>
<ellipse cx="229.081" cy="110.926" rx="3.634" ry="3.63293" fill="white"/>
<ellipse cx="235.811" cy="139.235" rx="3.63403" ry="3.63292" fill="white"/>
<ellipse cx="236.422" cy="177.296" rx="3.634" ry="3.63292" fill="white"/>
<path d="M229.081 110.926L271.963 68.0576H323.567" stroke="white"/>
<path d="M235.811 139.336L270.38 104.751H311.981" stroke="white"/>
<path d="M236.422 177.296L266.704 149.396H303.144" stroke="white"/>
</g>
<defs>
<filter id="filter0_d_189:1173" x="67.5781" y="91.5869" width="185.407" height="124.021" filterUnits="userSpaceOnUse" color-interpolation-filters="sRGB">
<feFlood flood-opacity="0" result="BackgroundImageFix"/>
<feColorMatrix in="SourceAlpha" type="matrix" values="0 0 0 0 0 0 0 0 0 0 0 0 0 0 0 0 0 0 127 0" result="hardAlpha"/>
<feOffset/>
<feGaussianBlur stdDeviation="3.5"/>
<feComposite in2="hardAlpha" operator="out"/>
<feColorMatrix type="matrix" values="0 0 0 0 0 0 0 0 0 0 0 0 0 0 0 0 0 0 0.07 0"/>
<feBlend mode="normal" in2="BackgroundImageFix" result="effect1_dropShadow_189:1173"/>
<feBlend mode="normal" in="SourceGraphic" in2="effect1_dropShadow_189:1173" result="shape"/>
</filter>
<filter id="filter1_d_189:1173" x="48.5781" y="93.2871" width="223.407" height="141.32" filterUnits="userSpaceOnUse" color-interpolation-filters="sRGB">
<feFlood flood-opacity="0" result="BackgroundImageFix"/>
<feColorMatrix in="SourceAlpha" type="matrix" values="0 0 0 0 0 0 0 0 0 0 0 0 0 0 0 0 0 0 127 0" result="hardAlpha"/>
<feOffset/>
<feGaussianBlur stdDeviation="13"/>
<feComposite in2="hardAlpha" operator="out"/>
<feColorMatrix type="matrix" values="0 0 0 0 0 0 0 0 0 0 0 0 0 0 0 0 0 0 0.43 0"/>
<feBlend mode="normal" in2="BackgroundImageFix" result="effect1_dropShadow_189:1173"/>
<feBlend mode="normal" in="SourceGraphic" in2="effect1_dropShadow_189:1173" result="shape"/>
</filter>
<filter id="filter2_d_189:1173" x="35.5781" y="115.396" width="249.407" height="132.212" filterUnits="userSpaceOnUse" color-interpolation-filters="sRGB">
<feFlood flood-opacity="0" result="BackgroundImageFix"/>
<feColorMatrix in="SourceAlpha" type="matrix" values="0 0 0 0 0 0 0 0 0 0 0 0 0 0 0 0 0 0 127 0" result="hardAlpha"/>
<feOffset/>
<feGaussianBlur stdDeviation="19.5"/>
<feComposite in2="hardAlpha" operator="out"/>
<feColorMatrix type="matrix" values="0 0 0 0 0 0 0 0 0 0 0 0 0 0 0 0 0 0 0.17 0"/>
<feBlend mode="normal" in2="BackgroundImageFix" result="effect1_dropShadow_189:1173"/>
<feBlend mode="normal" in="SourceGraphic" in2="effect1_dropShadow_189:1173" result="shape"/>
</filter>
<linearGradient id="paint0_linear_189:1173" x1="-56.2166" y1="269.248" x2="205.302" y2="47.669" gradientUnits="userSpaceOnUse">
<stop stop-color="#48F6F8"/>
<stop offset="0.58125" stop-color="#50FDFF"/>
<stop offset="1" stop-color="#673DDD"/>
</linearGradient>
<linearGradient id="paint1_linear_189:1173" x1="-56.2166" y1="269.248" x2="205.302" y2="47.669" gradientUnits="userSpaceOnUse">
<stop stop-color="#48F6F8"/>
<stop offset="0.513542" stop-color="#48F6F8"/>
<stop offset="1" stop-color="#8A04FF"/>
</linearGradient>
<linearGradient id="paint2_linear_189:1173" x1="-56.2166" y1="269.248" x2="205.302" y2="47.669" gradientUnits="userSpaceOnUse">
<stop stop-color="#48F6F8"/>
<stop offset="0.534375" stop-color="#48F6F8"/>
<stop offset="1" stop-color="#B33DDD"/>
</linearGradient>
<clipPath id="clip0_189:1173">
<rect width="463.6" height="285" fill="white"/>
</clipPath>
</defs>
</svg>
