<svg width="374" height="294" viewBox="0 0 374 294" fill="none" xmlns="http://www.w3.org/2000/svg">
<path d="M336.828 213.09C325.952 218.27 308.32 218.27 297.426 213.09C286.533 207.91 286.542 199.501 297.426 194.321C308.311 189.142 325.935 189.142 336.828 194.321C347.722 199.501 347.713 207.901 336.828 213.09Z" fill="#E8EBEF"/>
<path d="M105.144 116.908C91.3647 124.859 80.2034 144.188 80.2034 160.074C80.2034 175.959 91.3647 182.408 105.144 174.465C118.923 166.522 130.084 147.184 130.084 131.299C130.084 115.414 118.914 108.956 105.144 116.908ZM103.036 162.12C101.336 163.191 99.392 163.811 97.386 163.924C92.5483 163.924 92.0213 158.217 92.0213 155.766C92.0213 146.183 99.036 134.053 107.338 129.262C109.033 128.188 110.975 127.567 112.979 127.457C117.825 127.457 118.344 133.164 118.344 135.616C118.301 145.19 111.295 157.328 103.036 162.12Z" fill="#844EB6"/>
<path d="M113.627 127.51C113.398 127.479 113.167 127.461 112.936 127.458C111.722 127.499 110.527 127.766 109.411 128.244C109.521 129.019 109.576 129.8 109.575 130.583C109.575 140.157 102.561 152.296 94.2586 157.078C93.5804 157.472 92.8728 157.813 92.1421 158.097C92.3009 159.539 92.811 160.921 93.628 162.12C94.0525 162.701 94.6131 163.17 95.2606 163.484C95.9082 163.799 96.6231 163.95 97.3427 163.925C99.3494 163.816 101.295 163.195 102.992 162.12C111.294 157.329 118.3 145.191 118.3 135.616C118.3 133.285 117.825 128.028 113.627 127.51Z" fill="#580C9E"/>
<path d="M122.74 115.147L110.369 108.007C105.834 105.357 99.5791 105.719 92.6681 109.673C78.846 117.624 67.7278 136.954 67.7278 152.839C67.7278 160.695 70.4577 166.229 74.8807 168.871L75.0017 168.957H75.0708L87.2688 175.993H87.3293C85.2067 174.672 83.5046 172.773 82.4224 170.52C81.4739 168.581 80.8411 166.503 80.5478 164.364C80.3226 162.913 80.2071 161.447 80.2023 159.979C80.2023 144.085 91.3636 124.755 105.143 116.813C106.417 116.083 107.746 115.45 109.116 114.922C111.117 114.108 113.234 113.615 115.388 113.463C117.944 113.262 120.503 113.814 122.748 115.052L122.74 115.147Z" fill="#A9B1BC"/>
<path d="M102.69 55.0164L91.0539 48.2998L73.5257 58.4093L32.8455 202.782L44.4906 209.499L61.7769 199.519L102.69 55.0164Z" fill="#A9B1BC"/>
<path d="M61.7768 199.519L44.4905 209.499L85.2312 65.0915L102.69 55.0166L61.7768 199.519Z" fill="#844EB6"/>
<path d="M44.4906 209.499L85.2313 65.0913L73.5257 58.4092L32.8455 202.782L44.4906 209.499Z" fill="#580C9E"/>
<path d="M37.38 93.6413C23.6097 101.592 12.4397 120.922 12.4397 136.807C12.4397 152.692 23.627 159.15 37.38 151.207C51.133 143.265 62.3203 123.927 62.3203 108.041C62.3203 92.1564 51.2021 85.6988 37.38 93.6413ZM35.2548 138.853C33.556 139.926 31.6113 140.547 29.605 140.658C24.7587 140.658 24.2403 134.951 24.2403 132.499C24.2403 122.925 31.2464 110.787 39.5483 105.995C41.246 104.921 43.1914 104.299 45.1981 104.191C50.0359 104.191 50.5628 109.898 50.5628 112.349C50.5628 121.924 43.5481 134.062 35.2548 138.853Z" fill="#844EB6"/>
<path d="M45.8899 104.243C45.6607 104.212 45.4299 104.195 45.1987 104.191C43.9816 104.233 42.783 104.502 41.6655 104.986C41.7756 105.758 41.8304 106.537 41.8296 107.317C41.8296 116.891 34.8235 129.029 26.5216 133.812C25.848 134.203 25.1463 134.543 24.4224 134.831C24.5799 136.277 25.0933 137.662 25.9169 138.862C26.3423 139.442 26.9033 139.909 27.5509 140.222C28.1984 140.535 28.9128 140.684 29.6316 140.658C31.6378 140.547 33.5825 139.926 35.2814 138.854C43.5746 134.062 50.5894 121.924 50.5894 112.35C50.5635 110.019 50.0797 104.761 45.8899 104.243Z" fill="#580C9E"/>
<path d="M55.0034 91.8804L42.6326 84.7407C38.1145 82.1076 31.86 82.4702 24.9489 86.4674C11.1268 94.4099 0 113.74 0 129.633C0 137.489 2.73851 143.023 7.15295 145.665L7.27389 145.751H7.343L19.5238 152.839H19.5929C17.468 151.522 15.7629 149.626 14.6774 147.374C13.73 145.432 13.0973 143.351 12.8027 141.21C12.5772 139.759 12.4617 138.293 12.4572 136.825C12.4572 120.931 23.6272 101.601 37.3975 93.6588C38.6739 92.932 40.0021 92.3001 41.3713 91.7681C43.3747 90.9536 45.4944 90.4612 47.6518 90.3092C50.205 90.1089 52.761 90.6612 55.0034 91.8977V91.8804Z" fill="#A9B1BC"/>
<path d="M232.142 254.4L240.305 269.81C246.804 268.781 253.069 266.609 258.81 263.395L239.07 258.966C237.057 260.115 234.673 253.959 232.142 254.4Z" fill="#03D1D1"/>
<path opacity="0.2" d="M232.142 254.4L240.305 269.81C246.804 268.781 253.069 266.609 258.81 263.395L239.07 258.966C237.057 260.115 234.673 253.959 232.142 254.4Z" fill="#580C9E"/>
<path d="M215.409 245.292C219.357 243.012 224.765 242.123 229.879 242.589L234.242 217.553L229.879 209.783L207.366 212.736L183.178 248.132L183.929 249.211L210.589 251.145C211.021 249.004 212.576 246.94 215.409 245.292Z" fill="#03D1D1"/>
<path opacity="0.7" d="M215.409 245.292C219.357 243.012 224.765 242.123 229.879 242.589L234.242 217.553L229.879 209.783L207.366 212.736L183.178 248.132L183.929 249.211L210.589 251.145C211.021 249.004 212.576 246.94 215.409 245.292Z" fill="#580C9E"/>
<path d="M234.241 200.537V196.117L229.878 211.985L229.887 216.405L234.241 200.537Z" fill="#03D1D1"/>
<path opacity="0.7" d="M234.241 200.537V196.117L229.878 211.985L229.887 216.405L234.241 200.537Z" fill="#580C9E"/>
<path d="M215.409 214.687C219.357 212.417 224.765 211.519 229.879 211.985L234.242 196.117C209.897 193.899 187.039 203.473 183.186 217.519C183.074 217.916 182.953 218.46 182.884 218.857L210.597 220.541C211.02 218.4 212.575 216.328 215.409 214.687Z" fill="#03D1D1"/>
<path opacity="0.6" d="M215.409 214.687C219.357 212.417 224.765 211.519 229.879 211.985L234.242 196.117C209.897 193.899 187.039 203.473 183.186 217.519C183.074 217.916 182.953 218.46 182.884 218.857L210.597 220.541C211.02 218.4 212.575 216.328 215.409 214.687Z" fill="#580C9E"/>
<path d="M210.597 238.593V220.541L182.884 218.857V236.909L210.597 238.593Z" fill="#03D1D1"/>
<path opacity="0.8" d="M210.597 238.593V220.541L182.884 218.857V236.909L210.597 238.593Z" fill="#580C9E"/>
<path d="M239.096 219.108C242.447 221.05 244.072 223.597 243.976 226.135L271.871 226.42C272.269 213.427 256.486 202.575 234.241 200.521L229.878 216.388C233.108 216.634 236.25 217.561 239.096 219.108V219.108Z" fill="#03D1D1"/>
<path opacity="0.8" d="M239.096 219.108C242.447 221.05 244.072 223.597 243.976 226.135L271.871 226.42C272.269 213.427 256.486 202.575 234.241 200.521L229.878 216.388C233.108 216.634 236.25 217.561 239.096 219.108V219.108Z" fill="#F7F8F8"/>
<path d="M243.978 226.135V245.361L271.872 245.646V226.42L243.978 226.135Z" fill="#03D1D1"/>
<path opacity="0.6" d="M243.978 226.135V245.361L271.872 245.646V226.42L243.978 226.135Z" fill="#F7F8F8"/>
<path d="M243.986 226.135V245.214C243.986 242.745 242.362 240.267 239.097 238.377C236.505 236.875 233.257 242.944 229.888 242.633V216.405C237.507 217.053 244.124 220.895 243.986 226.135Z" fill="#03D1D1"/>
<path opacity="0.6" d="M243.986 226.135V245.214C243.986 242.745 242.362 240.267 239.097 238.377C236.505 236.875 233.257 242.944 229.888 242.633V216.405C237.507 217.053 244.124 220.895 243.986 226.135Z" fill="#F7F8F8"/>
<path d="M243.994 234.699H210.51V257.197H243.994V234.699Z" fill="#E8EBEF"/>
<path d="M215.408 241.648C208.869 237.875 208.869 231.755 215.408 227.982C221.948 224.209 232.556 224.209 239.096 227.982C245.635 231.755 245.627 237.875 239.096 241.648C232.565 245.421 221.948 245.421 215.408 241.648Z" fill="#F3F5F7"/>
<path d="M243.977 245.361C243.89 247.77 242.249 257.12 239.096 258.95L258.836 263.379C267.475 258.406 271.69 252.665 271.898 245.629L243.977 245.361Z" fill="#A9B1BC"/>
<path d="M271.872 230.633V245.646L258.81 263.396V248.391L271.872 230.633Z" fill="#A9B1BC"/>
<path d="M243.977 230.348C243.89 232.756 242.249 235.148 239.096 236.987L258.836 248.374C267.475 243.401 271.69 237.66 271.898 230.624L243.977 230.348Z" fill="#844EB6"/>
<path d="M258.81 248.391V263.395L239.07 252.008L239.096 236.986L258.81 248.391Z" fill="#580C9E"/>
<path d="M258.81 253.131L240.305 259.545V269.81L258.81 263.396V253.131Z" fill="#03D1D1"/>
<path opacity="0.2" d="M258.81 253.131L240.305 259.545V269.81L258.81 263.396V253.131Z" fill="#580C9E"/>
<path d="M232.142 244.135L240.305 259.545C246.804 258.516 253.069 256.344 258.81 253.131L239.07 241.761C236.913 242.942 234.57 243.745 232.142 244.135V244.135Z" fill="#03D1D1"/>
<path d="M232.133 244.135V248.814L240.306 269.81V259.545L232.133 244.135Z" fill="#03D1D1"/>
<path opacity="0.4" d="M232.133 244.135V248.814L240.306 269.81V259.545L232.133 244.135Z" fill="#580C9E"/>
<path d="M219.356 257.301C215.659 255.16 210.104 253.96 210.596 251.171L182.633 237.764C182.633 237.764 182.633 244.411 182.633 245.335C182.693 258.285 199.712 269.447 222.596 270.829C228.517 271.236 234.466 270.905 240.305 269.845V262.325C234.578 263.292 223.883 259.891 219.356 257.301Z" fill="#03D1D1"/>
<path opacity="0.5" d="M219.356 257.301C215.659 255.16 210.104 253.96 210.596 251.171L182.633 237.764C182.633 237.764 182.633 244.411 182.633 245.335C182.693 258.285 199.712 269.447 222.596 270.829C228.517 271.236 234.466 270.905 240.305 269.845V262.325C234.578 263.292 223.883 259.891 219.356 257.301Z" fill="#580C9E"/>
<path d="M215.408 244.472C211.711 242.34 210.104 239.448 210.597 236.659L182.883 234.976C180.292 249.117 198.088 261.79 222.622 263.275C228.543 263.678 234.491 263.348 240.331 262.291L232.168 246.881C226.414 247.882 219.935 247.088 215.408 244.472Z" fill="#03D1D1"/>
<path opacity="0.3" d="M215.408 244.472C211.711 242.34 210.104 239.448 210.597 236.659L182.883 234.976C180.292 249.117 198.088 261.79 222.622 263.275C228.543 263.678 234.491 263.348 240.331 262.291L232.168 246.881C226.414 247.882 219.935 247.088 215.408 244.472Z" fill="#580C9E"/>
<path d="M114.266 205.502C114.987 200.151 114.67 194.711 113.333 189.479C111.899 183.772 109.013 179.801 105.601 177.712C102.189 175.623 95.9774 177.815 100.936 184.489C105.895 191.162 110.931 199.657 111.467 206.072L114.266 205.502Z" fill="#A9B1BC"/>
<path d="M113.308 206.123C113.251 206.122 113.195 206.11 113.143 206.087C113.091 206.064 113.044 206.031 113.005 205.991C112.965 205.95 112.934 205.901 112.914 205.849C112.893 205.796 112.883 205.739 112.884 205.683C113.126 193.881 107.589 182.011 102.518 179.283C102.416 179.229 102.339 179.137 102.305 179.027C102.271 178.916 102.282 178.797 102.336 178.695C102.39 178.594 102.482 178.517 102.592 178.483C102.703 178.449 102.822 178.46 102.924 178.514C108.254 181.363 114.033 193.596 113.783 205.7C113.783 205.76 113.771 205.82 113.746 205.875C113.722 205.93 113.686 205.979 113.641 206.019C113.596 206.059 113.543 206.089 113.485 206.107C113.428 206.125 113.367 206.13 113.308 206.123Z" fill="#F7F8F8"/>
<path d="M114.689 226.376C109.247 229.536 103.061 226.635 101.99 220.566C101.619 218.451 101.247 216.25 99.2863 215.05C97.6449 214.031 95.4334 213.901 94.0253 212.537C92.0211 210.586 93.1614 208.074 94.4227 206.097C95.5975 204.301 96.5478 202.203 95.442 200.149C94.7638 199.071 94.2266 197.91 93.8439 196.696C93.6576 196.089 93.6322 195.445 93.77 194.826C93.9078 194.207 94.2041 193.635 94.63 193.165C95.6666 192.18 97.2994 192.224 98.6902 192.56C100.945 193.163 103.02 194.303 104.737 195.884C105.955 196.929 106.647 197.991 108.4 198.31C109.696 198.543 111.044 198.31 112.322 198.612C113.128 198.83 113.878 199.218 114.522 199.75C115.166 200.281 115.688 200.944 116.054 201.694C117.324 204.172 116.918 207.055 116.719 209.723C116.521 212.391 116.27 214.799 115.959 217.329C115.7 219.47 115.406 221.645 115.095 223.743C115.044 224.071 114.983 226.221 114.689 226.376Z" fill="#844EB6"/>
<path d="M115.208 223.39C115.105 223.389 115.006 223.351 114.928 223.283C114.85 223.215 114.8 223.121 114.785 223.019C112.893 209.465 101.473 196.852 97.2223 194.685C97.1718 194.659 97.127 194.623 97.0903 194.58C97.0537 194.536 97.0259 194.486 97.0087 194.432C96.9914 194.378 96.985 194.321 96.9898 194.264C96.9946 194.208 97.0105 194.153 97.0366 194.102C97.0627 194.052 97.0985 194.007 97.1419 193.97C97.1853 193.934 97.2355 193.906 97.2897 193.889C97.3438 193.871 97.4008 193.865 97.4575 193.87C97.5141 193.874 97.5692 193.89 97.6197 193.916C102.121 196.213 113.679 208.843 115.64 222.907C115.655 223.02 115.624 223.135 115.555 223.225C115.485 223.316 115.382 223.375 115.269 223.39H115.208Z" fill="#F7F8F8"/>
<path d="M98.3279 208.714C98.2134 208.737 98.0944 208.713 97.9972 208.648C97.9 208.583 97.8325 208.483 97.8096 208.368C97.7867 208.254 97.8102 208.135 97.875 208.038C97.9398 207.941 98.0406 207.873 98.1551 207.85C101.581 206.523 105.27 206.015 108.928 206.365C108.984 206.37 109.039 206.385 109.09 206.411C109.14 206.437 109.184 206.473 109.221 206.516C109.257 206.56 109.284 206.61 109.301 206.664C109.317 206.718 109.322 206.775 109.317 206.832C109.311 206.888 109.294 206.944 109.268 206.994C109.241 207.044 109.204 207.089 109.16 207.125C109.116 207.161 109.065 207.188 109.01 207.204C108.956 207.221 108.898 207.226 108.841 207.22C105.318 206.916 101.771 207.424 98.4748 208.705C98.4263 208.714 98.377 208.717 98.3279 208.714Z" fill="#F7F8F8"/>
<path d="M115.899 229.571C115.131 229.054 114.496 228.363 114.046 227.554C113.595 226.746 113.342 225.842 113.307 224.918V94.4531C113.357 93.4997 113.631 92.5716 114.109 91.7447C114.586 90.9179 115.253 90.2159 116.055 89.6962L270.335 0.688077C271.152 0.25599 272.059 0.0208057 272.983 0.00131859C273.907 -0.0181685 274.823 0.178577 275.657 0.575841C276.425 1.08629 277.061 1.77219 277.512 2.57683C277.962 3.38147 278.215 4.28174 278.249 5.20323V135.711C278.199 136.664 277.924 137.593 277.447 138.419C276.969 139.246 276.303 139.948 275.501 140.468L121.221 229.476C120.403 229.907 119.495 230.141 118.571 230.157C117.647 230.174 116.731 229.973 115.899 229.571V229.571Z" fill="#03D1D1"/>
<path d="M128.787 100.177L114.101 91.7168C113.605 92.5364 113.328 93.47 113.298 94.4276V224.918C113.272 225.852 113.498 226.775 113.954 227.59C114.41 228.405 115.077 229.082 115.886 229.549C116.696 230.016 117.616 230.256 118.55 230.243C119.484 230.23 120.398 229.966 121.194 229.476L128.761 225.108L128.787 100.177Z" fill="#03D1D1"/>
<path opacity="0.2" d="M128.787 100.177L114.101 91.7168C113.605 92.5364 113.328 93.47 113.298 94.4276V224.918C113.272 225.852 113.498 226.775 113.954 227.59C114.41 228.405 115.077 229.082 115.886 229.549C116.696 230.016 117.616 230.256 118.55 230.243C119.484 230.23 120.398 229.966 121.194 229.476L128.761 225.108L128.787 100.177Z" fill="#580C9E"/>
<path d="M121.219 92.6747L275.483 3.62338C277.003 2.76006 278.23 3.45935 278.23 5.20325V135.711C278.181 136.664 277.906 137.593 277.429 138.419C276.951 139.246 276.284 139.948 275.483 140.468L121.219 229.476C119.708 230.339 118.481 229.64 118.481 227.888V97.4316C118.529 96.479 118.803 95.5513 119.279 94.7246C119.755 93.8978 120.42 93.1953 121.219 92.6747Z" fill="#03D1D1"/>
<g opacity="0.5">
<path opacity="0.5" d="M121.219 92.6747L275.483 3.62338C277.003 2.76006 278.23 3.45935 278.23 5.20325V135.711C278.181 136.664 277.906 137.593 277.429 138.419C276.951 139.246 276.284 139.948 275.483 140.468L121.219 229.476C119.708 230.339 118.481 229.64 118.481 227.888V97.4316C118.529 96.479 118.803 95.5513 119.279 94.7246C119.755 93.8978 120.42 93.1953 121.219 92.6747Z" fill="#F7F8F8"/>
</g>
<path opacity="0.4" d="M133.937 198.345C134.094 188.935 134.754 179.54 135.915 170.201C137.116 160.057 139.578 142.937 149.374 137.291C159.171 131.645 162.842 141.85 164.25 146.883C166.09 153.401 175.662 149.274 177.001 138.517C178.34 127.76 179.196 93.5297 190.668 86.908C202.14 80.2864 205.855 96.2232 207.159 100.669C209.751 109.406 217.267 106.997 219.729 101.205C222.191 95.4117 228.886 94.0045 231.417 102.146C233.948 110.287 235.521 119.636 243.728 114.836C250.924 110.623 247.615 102.948 254.638 99.2966C256.686 98.2434 260.763 98.8304 261.679 104.839C262.516 111.192 262.883 117.598 262.776 124.005L133.937 198.345Z" fill="#F7F8F8"/>
<path d="M133.938 198.984C133.769 198.981 133.609 198.913 133.491 198.793C133.373 198.674 133.307 198.513 133.307 198.345C133.465 188.903 134.125 179.477 135.285 170.106C136.253 161.93 138.525 142.79 149.055 136.712C152.174 134.917 154.99 134.511 157.435 135.504C160.692 136.825 163.119 140.485 164.865 146.727C165.383 148.557 166.592 149.507 168.26 149.377C171.611 149.118 175.559 144.966 176.371 138.456C176.587 136.73 176.795 134.364 177.028 131.627C178.307 116.839 180.484 92.0875 190.358 86.3723C193.39 84.6457 196.172 84.2486 198.642 85.25C204.076 87.4515 206.417 95.6962 207.532 99.6588C207.618 99.9782 207.696 100.263 207.774 100.522C208.732 103.794 210.503 105.702 212.758 105.797C215.238 105.961 217.898 103.924 219.142 100.988C220.524 97.7336 223.22 95.7221 225.915 95.8602C228.61 95.9983 230.857 98.2257 232.023 101.998C232.299 102.862 232.567 103.785 232.826 104.683C234.269 109.578 235.617 114.18 238.398 115.302C239.737 115.829 241.379 115.509 243.409 114.327C246.795 112.341 247.728 109.604 248.644 106.703C249.56 103.803 250.605 100.721 254.345 98.7782C255.031 98.4418 255.786 98.2712 256.55 98.2802C257.314 98.2892 258.065 98.4775 258.743 98.83C260.056 99.4948 261.74 101.075 262.302 104.787C263.143 111.177 263.512 117.62 263.408 124.065C263.409 124.149 263.393 124.232 263.36 124.309C263.328 124.386 263.28 124.456 263.219 124.514C263.158 124.571 263.085 124.616 263.006 124.644C262.927 124.672 262.843 124.684 262.76 124.678C262.592 124.673 262.432 124.603 262.316 124.482C262.199 124.36 262.135 124.198 262.138 124.03C262.248 117.661 261.884 111.292 261.049 104.977C260.565 101.791 259.218 100.488 258.172 99.961C257.674 99.7001 257.121 99.5596 256.559 99.5506C255.996 99.5416 255.439 99.6644 254.933 99.9092C251.65 101.636 250.778 104.278 249.853 107.101C248.868 110.096 247.849 113.196 244.048 115.423C241.655 116.813 239.659 117.15 237.932 116.476C234.58 115.147 233.137 110.234 231.608 105.037C231.349 104.174 231.09 103.25 230.813 102.37C229.811 99.1408 227.997 97.2329 225.855 97.1206C223.712 97.0084 221.466 98.7696 220.309 101.489C218.84 104.942 215.713 107.239 212.68 107.066C211.039 106.971 208.067 106.039 206.555 100.885C206.478 100.634 206.4 100.341 206.305 100.021C205.242 96.2573 203.022 88.4098 198.159 86.4414C196.077 85.5781 193.666 85.9493 190.988 87.486C181.658 92.8731 179.473 118.168 178.298 131.757C178.056 134.502 177.849 136.876 177.633 138.664C176.769 145.82 172.216 150.396 168.355 150.69C166.083 150.862 164.32 149.524 163.646 147.115C162.014 141.323 159.828 137.938 156.951 136.756C154.895 135.892 152.451 136.298 149.686 137.887C139.708 143.645 137.488 162.344 136.546 170.33C135.393 179.644 134.735 189.013 134.577 198.397C134.564 198.557 134.491 198.706 134.372 198.815C134.254 198.924 134.098 198.984 133.938 198.984V198.984Z" fill="#F3F5F7"/>
<path d="M152.199 137.17C152.091 137.17 151.988 137.127 151.912 137.051C151.835 136.975 151.793 136.872 151.793 136.764V135.97C151.784 135.912 151.788 135.853 151.805 135.797C151.821 135.741 151.849 135.69 151.887 135.645C151.925 135.601 151.972 135.566 152.025 135.542C152.078 135.517 152.136 135.505 152.194 135.505C152.253 135.505 152.31 135.517 152.363 135.542C152.416 135.566 152.464 135.601 152.502 135.645C152.54 135.69 152.568 135.741 152.584 135.797C152.6 135.853 152.605 135.912 152.596 135.97V136.764C152.596 136.87 152.554 136.972 152.48 137.048C152.406 137.124 152.305 137.167 152.199 137.17V137.17Z" fill="#F3F5F7"/>
<path d="M152.199 185.076C152.145 185.076 152.093 185.065 152.043 185.045C151.994 185.024 151.949 184.994 151.912 184.957C151.874 184.919 151.844 184.874 151.824 184.825C151.803 184.776 151.793 184.723 151.793 184.67V183.055C151.807 182.959 151.855 182.871 151.929 182.807C152.003 182.744 152.097 182.709 152.194 182.709C152.292 182.709 152.386 182.744 152.46 182.807C152.534 182.871 152.582 182.959 152.596 183.055V184.653C152.598 184.707 152.59 184.76 152.571 184.811C152.552 184.862 152.523 184.908 152.486 184.948C152.449 184.987 152.405 185.019 152.355 185.041C152.306 185.063 152.253 185.074 152.199 185.076V185.076ZM152.199 181.881C152.091 181.881 151.988 181.839 151.912 181.762C151.835 181.686 151.793 181.583 151.793 181.476V179.878C151.807 179.782 151.855 179.694 151.929 179.63C152.003 179.567 152.097 179.532 152.194 179.532C152.292 179.532 152.386 179.567 152.46 179.63C152.534 179.694 152.582 179.782 152.596 179.878V181.476C152.596 181.582 152.554 181.684 152.48 181.759C152.406 181.835 152.305 181.879 152.199 181.881V181.881ZM152.199 178.687C152.145 178.687 152.093 178.676 152.043 178.656C151.994 178.636 151.949 178.606 151.912 178.568C151.874 178.53 151.844 178.486 151.824 178.437C151.803 178.387 151.793 178.335 151.793 178.281V176.693C151.784 176.635 151.788 176.576 151.805 176.52C151.821 176.464 151.849 176.413 151.887 176.368C151.925 176.324 151.972 176.289 152.025 176.265C152.078 176.24 152.136 176.228 152.194 176.228C152.253 176.228 152.31 176.24 152.363 176.265C152.416 176.289 152.464 176.324 152.502 176.368C152.54 176.413 152.568 176.464 152.584 176.52C152.6 176.576 152.605 176.635 152.596 176.693V178.281C152.596 178.387 152.554 178.489 152.48 178.565C152.406 178.641 152.305 178.685 152.199 178.687V178.687ZM152.199 175.493C152.092 175.493 151.99 175.451 151.915 175.377C151.839 175.303 151.795 175.202 151.793 175.096V173.498C151.784 173.441 151.788 173.382 151.805 173.326C151.821 173.27 151.849 173.218 151.887 173.174C151.925 173.13 151.972 173.095 152.025 173.07C152.078 173.046 152.136 173.034 152.194 173.034C152.253 173.034 152.31 173.046 152.363 173.07C152.416 173.095 152.464 173.13 152.502 173.174C152.54 173.218 152.568 173.27 152.584 173.326C152.6 173.382 152.605 173.441 152.596 173.498V175.096C152.594 175.2 152.551 175.3 152.477 175.374C152.403 175.448 152.303 175.49 152.199 175.493V175.493ZM152.199 172.298C152.092 172.298 151.99 172.257 151.915 172.183C151.839 172.108 151.795 172.007 151.793 171.901V170.304C151.784 170.247 151.788 170.188 151.805 170.132C151.821 170.076 151.849 170.024 151.887 169.98C151.925 169.936 151.972 169.9 152.025 169.876C152.078 169.852 152.136 169.839 152.194 169.839C152.253 169.839 152.31 169.852 152.363 169.876C152.416 169.9 152.464 169.936 152.502 169.98C152.54 170.024 152.568 170.076 152.584 170.132C152.6 170.188 152.605 170.247 152.596 170.304V171.901C152.594 172.006 152.551 172.106 152.477 172.18C152.403 172.254 152.303 172.296 152.199 172.298V172.298ZM152.199 169.104C152.092 169.104 151.99 169.063 151.915 168.988C151.839 168.914 151.795 168.813 151.793 168.707V167.11C151.784 167.052 151.788 166.993 151.805 166.937C151.821 166.882 151.849 166.83 151.887 166.786C151.925 166.742 151.972 166.706 152.025 166.682C152.078 166.658 152.136 166.645 152.194 166.645C152.253 166.645 152.31 166.658 152.363 166.682C152.416 166.706 152.464 166.742 152.502 166.786C152.54 166.83 152.568 166.882 152.584 166.937C152.6 166.993 152.605 167.052 152.596 167.11V168.707C152.594 168.812 152.551 168.911 152.477 168.985C152.403 169.059 152.303 169.102 152.199 169.104V169.104ZM152.199 165.91C152.092 165.91 151.99 165.868 151.915 165.794C151.839 165.72 151.795 165.619 151.793 165.513V163.916C151.784 163.858 151.788 163.799 151.805 163.743C151.821 163.687 151.849 163.635 151.887 163.591C151.925 163.547 151.972 163.512 152.025 163.488C152.078 163.463 152.136 163.451 152.194 163.451C152.253 163.451 152.31 163.463 152.363 163.488C152.416 163.512 152.464 163.547 152.502 163.591C152.54 163.635 152.568 163.687 152.584 163.743C152.6 163.799 152.605 163.858 152.596 163.916V165.513C152.594 165.617 152.551 165.717 152.477 165.791C152.403 165.865 152.303 165.908 152.199 165.91V165.91ZM152.199 162.716C152.146 162.717 152.093 162.707 152.044 162.688C151.995 162.668 151.95 162.639 151.912 162.602C151.874 162.565 151.844 162.521 151.824 162.472C151.803 162.424 151.793 162.371 151.793 162.318V160.721C151.784 160.664 151.788 160.605 151.805 160.549C151.821 160.493 151.849 160.441 151.887 160.397C151.925 160.353 151.972 160.318 152.025 160.293C152.078 160.269 152.136 160.257 152.194 160.257C152.253 160.257 152.31 160.269 152.363 160.293C152.416 160.318 152.464 160.353 152.502 160.397C152.54 160.441 152.568 160.493 152.584 160.549C152.6 160.605 152.605 160.664 152.596 160.721V162.336C152.592 162.438 152.548 162.535 152.474 162.605C152.4 162.676 152.301 162.716 152.199 162.716V162.716ZM152.199 159.521C152.146 159.522 152.093 159.513 152.044 159.494C151.995 159.474 151.95 159.445 151.912 159.408C151.874 159.371 151.844 159.327 151.824 159.278C151.803 159.229 151.793 159.177 151.793 159.124V157.527C151.784 157.469 151.788 157.411 151.805 157.355C151.821 157.299 151.849 157.247 151.887 157.203C151.925 157.159 151.972 157.123 152.025 157.099C152.078 157.075 152.136 157.062 152.194 157.062C152.253 157.062 152.31 157.075 152.363 157.099C152.416 157.123 152.464 157.159 152.502 157.203C152.54 157.247 152.568 157.299 152.584 157.355C152.6 157.411 152.605 157.469 152.596 157.527V159.124C152.596 159.176 152.586 159.228 152.566 159.276C152.546 159.324 152.517 159.368 152.48 159.405C152.443 159.442 152.399 159.471 152.351 159.491C152.303 159.511 152.251 159.521 152.199 159.521V159.521ZM152.199 156.327C152.146 156.328 152.093 156.319 152.044 156.299C151.995 156.28 151.95 156.251 151.912 156.214C151.874 156.177 151.844 156.133 151.824 156.084C151.803 156.035 151.793 155.983 151.793 155.93V154.333C151.807 154.236 151.855 154.148 151.929 154.085C152.003 154.021 152.097 153.986 152.194 153.986C152.292 153.986 152.386 154.021 152.46 154.085C152.534 154.148 152.582 154.236 152.596 154.333V155.93C152.587 156.029 152.542 156.121 152.468 156.189C152.395 156.256 152.298 156.293 152.199 156.293V156.327ZM152.199 153.141C152.091 153.141 151.988 153.099 151.912 153.023C151.835 152.946 151.793 152.843 151.793 152.736V151.113C151.807 151.016 151.855 150.928 151.929 150.865C152.003 150.801 152.097 150.766 152.194 150.766C152.292 150.766 152.386 150.801 152.46 150.865C152.534 150.928 152.582 151.016 152.596 151.113V152.71C152.6 152.764 152.592 152.819 152.574 152.871C152.555 152.923 152.527 152.97 152.49 153.01C152.453 153.051 152.408 153.083 152.358 153.106C152.308 153.128 152.254 153.14 152.199 153.141V153.141ZM152.199 149.947C152.091 149.947 151.988 149.904 151.912 149.828C151.835 149.752 151.793 149.649 151.793 149.541V147.944C151.807 147.848 151.855 147.76 151.929 147.696C152.003 147.633 152.097 147.597 152.194 147.597C152.292 147.597 152.386 147.633 152.46 147.696C152.534 147.76 152.582 147.848 152.596 147.944V149.541C152.596 149.647 152.554 149.749 152.48 149.825C152.406 149.901 152.305 149.945 152.199 149.947V149.947ZM152.199 146.753C152.091 146.753 151.988 146.71 151.912 146.634C151.835 146.558 151.793 146.455 151.793 146.347V144.75C151.807 144.654 151.855 144.566 151.929 144.502C152.003 144.438 152.097 144.403 152.194 144.403C152.292 144.403 152.386 144.438 152.46 144.502C152.534 144.566 152.582 144.654 152.596 144.75V146.347C152.602 146.403 152.596 146.46 152.579 146.514C152.562 146.567 152.534 146.617 152.496 146.659C152.459 146.701 152.413 146.735 152.362 146.759C152.311 146.782 152.255 146.795 152.199 146.796V146.753ZM152.199 143.559C152.091 143.559 151.988 143.516 151.912 143.44C151.835 143.364 151.793 143.26 151.793 143.153V141.556C151.807 141.459 151.855 141.371 151.929 141.308C152.003 141.244 152.097 141.209 152.194 141.209C152.292 141.209 152.386 141.244 152.46 141.308C152.534 141.371 152.582 141.459 152.596 141.556V143.153C152.596 143.259 152.554 143.361 152.48 143.437C152.406 143.513 152.305 143.556 152.199 143.559V143.559ZM152.199 140.364C152.091 140.364 151.988 140.322 151.912 140.245C151.835 140.169 151.793 140.066 151.793 139.959V138.361C151.807 138.265 151.855 138.177 151.929 138.113C152.003 138.05 152.097 138.015 152.194 138.015C152.292 138.015 152.386 138.05 152.46 138.113C152.534 138.177 152.582 138.265 152.596 138.361V139.959C152.596 140.065 152.554 140.167 152.48 140.242C152.406 140.318 152.305 140.362 152.199 140.364V140.364Z" fill="#F3F5F7"/>
<path d="M152.199 187.475C152.146 187.475 152.093 187.465 152.044 187.444C151.995 187.424 151.95 187.394 151.912 187.356C151.875 187.319 151.845 187.274 151.824 187.225C151.804 187.176 151.793 187.123 151.793 187.07V186.267C151.808 186.17 151.856 186.082 151.93 186.019C152.004 185.955 152.098 185.92 152.195 185.92C152.293 185.92 152.387 185.955 152.461 186.019C152.534 186.082 152.583 186.17 152.597 186.267V187.07C152.597 187.176 152.555 187.278 152.481 187.353C152.407 187.429 152.306 187.473 152.199 187.475V187.475Z" fill="#F3F5F7"/>
<path d="M193.648 87.0291C193.543 87.0269 193.444 86.9843 193.369 86.9103C193.295 86.8363 193.253 86.7366 193.251 86.6319V85.829C193.242 85.7714 193.246 85.7126 193.263 85.6566C193.279 85.6007 193.307 85.5489 193.345 85.5048C193.383 85.4607 193.43 85.4253 193.483 85.4011C193.536 85.3768 193.594 85.3643 193.652 85.3643C193.711 85.3643 193.768 85.3768 193.821 85.4011C193.874 85.4253 193.922 85.4607 193.96 85.5048C193.998 85.5489 194.026 85.6007 194.042 85.6566C194.058 85.7126 194.063 85.7714 194.054 85.829V86.6319C194.052 86.738 194.008 86.839 193.932 86.9133C193.856 86.9875 193.754 87.0291 193.648 87.0291V87.0291Z" fill="#F3F5F7"/>
<path d="M193.648 161.913C193.542 161.911 193.441 161.867 193.367 161.791C193.292 161.716 193.251 161.614 193.251 161.507V159.884C193.242 159.827 193.246 159.768 193.263 159.712C193.279 159.656 193.307 159.604 193.345 159.56C193.383 159.516 193.43 159.481 193.483 159.456C193.536 159.432 193.594 159.42 193.652 159.42C193.711 159.42 193.768 159.432 193.821 159.456C193.874 159.481 193.922 159.516 193.96 159.56C193.998 159.604 194.026 159.656 194.042 159.712C194.058 159.768 194.063 159.827 194.054 159.884V161.473C194.059 161.529 194.052 161.586 194.034 161.639C194.015 161.692 193.986 161.741 193.948 161.782C193.91 161.824 193.863 161.857 193.812 161.879C193.76 161.902 193.704 161.913 193.648 161.913V161.913ZM193.648 158.659C193.542 158.656 193.441 158.613 193.367 158.537C193.292 158.461 193.251 158.359 193.251 158.253V156.621C193.265 156.525 193.313 156.437 193.387 156.373C193.461 156.309 193.555 156.274 193.652 156.274C193.75 156.274 193.844 156.309 193.918 156.373C193.991 156.437 194.04 156.525 194.054 156.621V158.253C194.054 158.306 194.044 158.359 194.023 158.408C194.003 158.457 193.973 158.502 193.935 158.54C193.897 158.577 193.853 158.607 193.803 158.628C193.754 158.648 193.701 158.659 193.648 158.659V158.659ZM193.648 155.395C193.543 155.395 193.442 155.353 193.367 155.279C193.293 155.204 193.251 155.103 193.251 154.998V153.366C193.265 153.27 193.313 153.182 193.387 153.118C193.461 153.055 193.555 153.02 193.652 153.02C193.75 153.02 193.844 153.055 193.918 153.118C193.991 153.182 194.04 153.27 194.054 153.366V154.998C194.059 155.054 194.052 155.11 194.034 155.163C194.015 155.216 193.986 155.264 193.948 155.305C193.909 155.345 193.863 155.378 193.811 155.399C193.76 155.421 193.704 155.431 193.648 155.43V155.395ZM193.648 152.14C193.543 152.138 193.444 152.096 193.369 152.022C193.295 151.948 193.253 151.848 193.251 151.743V150.112C193.265 150.015 193.313 149.927 193.387 149.864C193.461 149.8 193.555 149.765 193.652 149.765C193.75 149.765 193.844 149.8 193.918 149.864C193.991 149.927 194.04 150.015 194.054 150.112V151.743C194.052 151.849 194.008 151.95 193.932 152.025C193.856 152.099 193.754 152.141 193.648 152.14V152.14ZM193.648 148.886C193.543 148.884 193.444 148.841 193.369 148.767C193.295 148.693 193.253 148.593 193.251 148.489V146.857C193.265 146.761 193.313 146.673 193.387 146.609C193.461 146.545 193.555 146.51 193.652 146.51C193.75 146.51 193.844 146.545 193.918 146.609C193.991 146.673 194.04 146.761 194.054 146.857V148.523C194.043 148.623 193.996 148.716 193.921 148.783C193.846 148.85 193.749 148.886 193.648 148.886V148.886ZM193.648 145.631C193.543 145.629 193.444 145.586 193.369 145.512C193.295 145.438 193.253 145.339 193.251 145.234V143.602C193.265 143.506 193.313 143.418 193.387 143.354C193.461 143.291 193.555 143.256 193.652 143.256C193.75 143.256 193.844 143.291 193.918 143.354C193.991 143.418 194.04 143.506 194.054 143.602V145.234C194.052 145.34 194.008 145.441 193.932 145.515C193.856 145.59 193.754 145.631 193.648 145.631V145.631ZM193.648 142.376C193.542 142.374 193.441 142.33 193.367 142.255C193.292 142.179 193.251 142.077 193.251 141.971V140.348C193.242 140.29 193.246 140.231 193.263 140.175C193.279 140.119 193.307 140.067 193.345 140.023C193.383 139.979 193.43 139.944 193.483 139.92C193.536 139.895 193.594 139.883 193.652 139.883C193.711 139.883 193.768 139.895 193.821 139.92C193.874 139.944 193.922 139.979 193.96 140.023C193.998 140.067 194.026 140.119 194.042 140.175C194.058 140.231 194.063 140.29 194.054 140.348V141.971C194.054 142.024 194.044 142.077 194.023 142.126C194.003 142.175 193.973 142.22 193.935 142.258C193.897 142.295 193.853 142.325 193.803 142.345C193.754 142.366 193.701 142.376 193.648 142.376V142.376ZM193.648 139.122C193.542 139.119 193.441 139.076 193.367 139C193.292 138.924 193.251 138.822 193.251 138.716V137.093C193.242 137.035 193.246 136.976 193.263 136.92C193.279 136.864 193.307 136.813 193.345 136.769C193.383 136.725 193.43 136.689 193.483 136.665C193.536 136.641 193.594 136.628 193.652 136.628C193.711 136.628 193.768 136.641 193.821 136.665C193.874 136.689 193.922 136.725 193.96 136.769C193.998 136.813 194.026 136.864 194.042 136.92C194.058 136.976 194.063 137.035 194.054 137.093V138.716C194.054 138.769 194.044 138.822 194.023 138.871C194.003 138.92 193.973 138.965 193.935 139.003C193.897 139.04 193.853 139.07 193.803 139.091C193.754 139.111 193.701 139.122 193.648 139.122V139.122ZM193.648 135.867C193.542 135.865 193.441 135.821 193.367 135.745C193.292 135.669 193.251 135.567 193.251 135.461V133.847C193.242 133.789 193.246 133.73 193.263 133.674C193.279 133.618 193.307 133.567 193.345 133.523C193.383 133.478 193.43 133.443 193.483 133.419C193.536 133.395 193.594 133.382 193.652 133.382C193.711 133.382 193.768 133.395 193.821 133.419C193.874 133.443 193.922 133.478 193.96 133.523C193.998 133.567 194.026 133.618 194.042 133.674C194.058 133.73 194.063 133.789 194.054 133.847V135.47C194.052 135.576 194.008 135.677 193.932 135.751C193.856 135.825 193.754 135.867 193.648 135.867V135.867ZM193.648 132.612C193.542 132.61 193.441 132.566 193.367 132.49C193.292 132.415 193.251 132.313 193.251 132.206V130.583C193.242 130.526 193.246 130.467 193.263 130.411C193.279 130.355 193.307 130.303 193.345 130.259C193.383 130.215 193.43 130.18 193.483 130.155C193.536 130.131 193.594 130.119 193.652 130.119C193.711 130.119 193.768 130.131 193.821 130.155C193.874 130.18 193.922 130.215 193.96 130.259C193.998 130.303 194.026 130.355 194.042 130.411C194.058 130.467 194.063 130.526 194.054 130.583V132.206C194.054 132.26 194.044 132.313 194.023 132.362C194.003 132.411 193.973 132.456 193.935 132.493C193.897 132.531 193.853 132.561 193.803 132.581C193.754 132.602 193.701 132.612 193.648 132.612V132.612ZM193.648 129.358C193.542 129.355 193.441 129.312 193.367 129.236C193.292 129.16 193.251 129.058 193.251 128.952V127.329C193.242 127.271 193.246 127.212 193.263 127.156C193.279 127.1 193.307 127.049 193.345 127.004C193.383 126.96 193.43 126.925 193.483 126.901C193.536 126.876 193.594 126.864 193.652 126.864C193.711 126.864 193.768 126.876 193.821 126.901C193.874 126.925 193.922 126.96 193.96 127.004C193.998 127.049 194.026 127.1 194.042 127.156C194.058 127.212 194.063 127.271 194.054 127.329V128.952C194.054 129.005 194.044 129.058 194.023 129.107C194.003 129.156 193.973 129.201 193.935 129.239C193.897 129.276 193.853 129.306 193.803 129.327C193.754 129.347 193.701 129.358 193.648 129.358V129.358ZM193.648 126.094C193.543 126.094 193.442 126.052 193.367 125.978C193.293 125.903 193.251 125.802 193.251 125.697V124.065C193.265 123.969 193.313 123.881 193.387 123.817C193.461 123.754 193.555 123.719 193.652 123.719C193.75 123.719 193.844 123.754 193.918 123.817C193.991 123.881 194.04 123.969 194.054 124.065V125.697C194.05 125.801 194.005 125.899 193.929 125.97C193.853 126.041 193.752 126.079 193.648 126.077V126.094ZM193.648 122.839C193.543 122.839 193.442 122.798 193.367 122.723C193.293 122.649 193.251 122.548 193.251 122.442V120.811C193.265 120.714 193.313 120.626 193.387 120.563C193.461 120.499 193.555 120.464 193.652 120.464C193.75 120.464 193.844 120.499 193.918 120.563C193.991 120.626 194.04 120.714 194.054 120.811V122.442C194.054 122.495 194.044 122.548 194.023 122.596C194.003 122.645 193.972 122.689 193.935 122.726C193.897 122.763 193.852 122.792 193.803 122.812C193.754 122.831 193.701 122.841 193.648 122.839V122.839ZM193.648 119.585C193.543 119.583 193.444 119.54 193.369 119.466C193.295 119.392 193.253 119.292 193.251 119.188V117.556C193.265 117.46 193.313 117.372 193.387 117.308C193.461 117.244 193.555 117.209 193.652 117.209C193.75 117.209 193.844 117.244 193.918 117.308C193.991 117.372 194.04 117.46 194.054 117.556V119.17C194.055 119.224 194.046 119.278 194.026 119.328C194.006 119.379 193.976 119.424 193.938 119.463C193.9 119.501 193.855 119.532 193.805 119.553C193.756 119.574 193.702 119.585 193.648 119.585V119.585ZM193.648 116.33C193.543 116.328 193.444 116.285 193.369 116.211C193.295 116.137 193.253 116.038 193.251 115.933V114.301C193.265 114.205 193.313 114.117 193.387 114.053C193.461 113.99 193.555 113.955 193.652 113.955C193.75 113.955 193.844 113.99 193.918 114.053C193.991 114.117 194.04 114.205 194.054 114.301V115.933C194.052 116.039 194.008 116.14 193.932 116.214C193.856 116.289 193.754 116.33 193.648 116.33V116.33ZM193.648 113.075C193.543 113.073 193.444 113.031 193.369 112.957C193.295 112.883 193.253 112.783 193.251 112.678V111.047C193.265 110.95 193.313 110.862 193.387 110.798C193.461 110.735 193.555 110.7 193.652 110.7C193.75 110.7 193.844 110.735 193.918 110.798C193.991 110.862 194.04 110.95 194.054 111.047V112.678C194.052 112.784 194.008 112.885 193.932 112.96C193.856 113.034 193.754 113.075 193.648 113.075V113.075ZM193.648 109.821C193.542 109.818 193.441 109.775 193.367 109.699C193.292 109.623 193.251 109.521 193.251 109.415V107.792C193.242 107.734 193.246 107.675 193.263 107.619C193.279 107.563 193.307 107.512 193.345 107.468C193.383 107.423 193.43 107.388 193.483 107.364C193.536 107.34 193.594 107.327 193.652 107.327C193.711 107.327 193.768 107.34 193.821 107.364C193.874 107.388 193.922 107.423 193.96 107.468C193.998 107.512 194.026 107.563 194.042 107.619C194.058 107.675 194.063 107.734 194.054 107.792V109.415C194.054 109.468 194.044 109.521 194.023 109.57C194.003 109.619 193.973 109.664 193.935 109.702C193.897 109.739 193.853 109.769 193.803 109.79C193.754 109.81 193.701 109.821 193.648 109.821V109.821ZM193.648 106.566C193.542 106.564 193.441 106.52 193.367 106.444C193.292 106.368 193.251 106.266 193.251 106.16V104.537C193.242 104.479 193.246 104.421 193.263 104.365C193.279 104.309 193.307 104.257 193.345 104.213C193.383 104.169 193.43 104.133 193.483 104.109C193.536 104.085 193.594 104.072 193.652 104.072C193.711 104.072 193.768 104.085 193.821 104.109C193.874 104.133 193.922 104.169 193.96 104.213C193.998 104.257 194.026 104.309 194.042 104.365C194.058 104.421 194.063 104.479 194.054 104.537V106.16C194.054 106.213 194.044 106.266 194.023 106.315C194.003 106.365 193.973 106.409 193.935 106.447C193.897 106.485 193.853 106.515 193.803 106.535C193.754 106.555 193.701 106.566 193.648 106.566V106.566ZM193.648 103.311C193.542 103.309 193.441 103.265 193.367 103.189C193.292 103.114 193.251 103.012 193.251 102.905V101.282C193.242 101.225 193.246 101.166 193.263 101.11C193.279 101.054 193.307 101.002 193.345 100.958C193.383 100.914 193.43 100.879 193.483 100.854C193.536 100.83 193.594 100.818 193.652 100.818C193.711 100.818 193.768 100.83 193.821 100.854C193.874 100.879 193.922 100.914 193.96 100.958C193.998 101.002 194.026 101.054 194.042 101.11C194.058 101.166 194.063 101.225 194.054 101.282V102.905C194.054 102.959 194.044 103.011 194.023 103.061C194.003 103.11 193.973 103.155 193.935 103.192C193.897 103.23 193.853 103.26 193.803 103.28C193.754 103.301 193.701 103.311 193.648 103.311V103.311ZM193.648 100.056C193.542 100.054 193.441 100.01 193.367 99.9346C193.292 99.8588 193.251 99.7569 193.251 99.6507V98.0277C193.242 97.97 193.246 97.9112 193.263 97.8553C193.279 97.7993 193.307 97.7475 193.345 97.7034C193.383 97.6593 193.43 97.624 193.483 97.5997C193.536 97.5755 193.594 97.5629 193.652 97.5629C193.711 97.5629 193.768 97.5755 193.821 97.5997C193.874 97.624 193.922 97.6593 193.96 97.7034C193.998 97.7475 194.026 97.7993 194.042 97.8553C194.058 97.9112 194.063 97.97 194.054 98.0277V99.6507C194.054 99.704 194.044 99.7568 194.023 99.806C194.003 99.8552 193.973 99.9 193.935 99.9376C193.897 99.9753 193.853 100.005 193.803 100.026C193.754 100.046 193.701 100.056 193.648 100.056V100.056ZM193.648 96.8018C193.542 96.7995 193.441 96.7558 193.367 96.6799C193.292 96.6041 193.251 96.5022 193.251 96.396V94.7643C193.265 94.668 193.313 94.58 193.387 94.5163C193.461 94.4527 193.555 94.4176 193.652 94.4176C193.75 94.4176 193.844 94.4527 193.918 94.5163C193.991 94.58 194.04 94.668 194.054 94.7643V96.396C194.054 96.4493 194.044 96.5021 194.023 96.5513C194.003 96.6005 193.973 96.6453 193.935 96.6829C193.897 96.7206 193.853 96.7505 193.803 96.7709C193.754 96.7913 193.701 96.8018 193.648 96.8018V96.8018ZM193.648 93.5384C193.543 93.5384 193.442 93.4966 193.367 93.4221C193.293 93.3476 193.251 93.2466 193.251 93.1413V91.5442C193.265 91.4478 193.313 91.3598 193.387 91.2961C193.461 91.2325 193.555 91.1974 193.652 91.1974C193.75 91.1974 193.844 91.2325 193.918 91.2961C193.991 91.3598 194.04 91.4478 194.054 91.5442V93.1758C194.045 93.2766 193.998 93.3702 193.923 93.4376C193.848 93.5049 193.749 93.541 193.648 93.5384V93.5384ZM193.648 90.2837C193.543 90.2837 193.442 90.2419 193.367 90.1674C193.293 90.0929 193.251 89.9919 193.251 89.8866V88.2549C193.265 88.1586 193.313 88.0705 193.387 88.0069C193.461 87.9432 193.555 87.9082 193.652 87.9082C193.75 87.9082 193.844 87.9432 193.918 88.0069C193.991 88.0705 194.04 88.1586 194.054 88.2549V89.8866C194.054 89.9395 194.044 89.9918 194.023 90.0406C194.003 90.0894 193.972 90.1335 193.935 90.1705C193.897 90.2075 193.852 90.2366 193.803 90.256C193.754 90.2755 193.701 90.2849 193.648 90.2837V90.2837Z" fill="#F3F5F7"/>
<path d="M193.648 164.339C193.543 164.336 193.444 164.294 193.369 164.22C193.295 164.146 193.253 164.046 193.251 163.941V163.139C193.242 163.081 193.246 163.022 193.263 162.966C193.279 162.91 193.307 162.858 193.345 162.814C193.383 162.77 193.43 162.735 193.483 162.711C193.536 162.686 193.594 162.674 193.652 162.674C193.711 162.674 193.768 162.686 193.821 162.711C193.874 162.735 193.922 162.77 193.96 162.814C193.998 162.858 194.026 162.91 194.042 162.966C194.058 163.022 194.063 163.081 194.054 163.139V163.941C194.052 164.048 194.008 164.149 193.932 164.223C193.856 164.297 193.754 164.339 193.648 164.339V164.339Z" fill="#F3F5F7"/>
<path d="M225.327 97.9496C225.221 97.9473 225.12 97.9036 225.046 97.8277C224.971 97.7519 224.93 97.65 224.93 97.5438V96.7237C224.944 96.6273 224.992 96.5393 225.066 96.4756C225.14 96.412 225.234 96.377 225.332 96.377C225.429 96.377 225.523 96.412 225.597 96.4756C225.671 96.5393 225.719 96.6273 225.733 96.7237V97.587C225.723 97.687 225.675 97.7794 225.6 97.8464C225.525 97.9134 225.428 97.9502 225.327 97.9496Z" fill="#F3F5F7"/>
<path d="M225.327 143.758C225.222 143.755 225.122 143.713 225.048 143.639C224.974 143.565 224.932 143.465 224.929 143.361V141.72C224.944 141.624 224.992 141.536 225.066 141.472C225.139 141.409 225.234 141.373 225.331 141.373C225.429 141.373 225.523 141.409 225.596 141.472C225.67 141.536 225.719 141.624 225.733 141.72V143.343C225.734 143.397 225.724 143.451 225.704 143.501C225.684 143.551 225.655 143.597 225.617 143.636C225.579 143.674 225.534 143.705 225.484 143.726C225.434 143.747 225.381 143.758 225.327 143.758V143.758ZM225.327 140.486C225.222 140.483 225.122 140.441 225.048 140.367C224.974 140.293 224.932 140.193 224.929 140.089V138.448C224.944 138.352 224.992 138.264 225.066 138.2C225.139 138.137 225.234 138.101 225.331 138.101C225.429 138.101 225.523 138.137 225.596 138.2C225.67 138.264 225.719 138.352 225.733 138.448V140.089C225.73 140.195 225.687 140.296 225.611 140.37C225.535 140.444 225.433 140.486 225.327 140.486V140.486ZM225.327 137.214C225.222 137.211 225.122 137.169 225.048 137.095C224.974 137.021 224.932 136.921 224.929 136.817V135.176C224.944 135.08 224.992 134.992 225.066 134.928C225.139 134.865 225.234 134.83 225.331 134.83C225.429 134.83 225.523 134.865 225.596 134.928C225.67 134.992 225.719 135.08 225.733 135.176V136.817C225.73 136.923 225.687 137.024 225.611 137.098C225.535 137.172 225.433 137.214 225.327 137.214V137.214ZM225.327 133.942C225.222 133.94 225.122 133.897 225.048 133.823C224.974 133.749 224.932 133.649 224.929 133.545V131.904C224.944 131.808 224.992 131.72 225.066 131.656C225.139 131.593 225.234 131.558 225.331 131.558C225.429 131.558 225.523 131.593 225.596 131.656C225.67 131.72 225.719 131.808 225.733 131.904V133.545C225.73 133.651 225.687 133.752 225.611 133.826C225.535 133.9 225.433 133.942 225.327 133.942V133.942ZM225.327 130.67C225.222 130.668 225.122 130.625 225.048 130.551C224.974 130.477 224.932 130.377 224.929 130.273V128.667C224.944 128.57 224.992 128.482 225.066 128.419C225.139 128.355 225.234 128.32 225.331 128.32C225.429 128.32 225.523 128.355 225.596 128.419C225.67 128.482 225.719 128.57 225.733 128.667V130.307C225.722 130.407 225.675 130.5 225.6 130.567C225.525 130.634 225.427 130.67 225.327 130.67V130.67ZM225.327 127.398C225.222 127.396 225.122 127.353 225.048 127.279C224.974 127.205 224.932 127.105 224.929 127.001V125.36C224.944 125.264 224.992 125.176 225.066 125.112C225.139 125.049 225.234 125.014 225.331 125.014C225.429 125.014 225.523 125.049 225.596 125.112C225.67 125.176 225.719 125.264 225.733 125.36V127.001C225.73 127.107 225.687 127.208 225.611 127.282C225.535 127.356 225.433 127.398 225.327 127.398V127.398ZM225.327 124.126C225.222 124.124 225.122 124.081 225.048 124.007C224.974 123.933 224.932 123.833 224.929 123.729V122.088C224.944 121.992 224.992 121.904 225.066 121.84C225.139 121.777 225.234 121.742 225.331 121.742C225.429 121.742 225.523 121.777 225.596 121.84C225.67 121.904 225.719 121.992 225.733 122.088V123.729C225.73 123.835 225.687 123.936 225.611 124.01C225.535 124.084 225.433 124.126 225.327 124.126V124.126ZM225.327 120.854C225.222 120.852 225.122 120.809 225.048 120.735C224.974 120.661 224.932 120.561 224.929 120.457V118.816C224.944 118.72 224.992 118.632 225.066 118.568C225.139 118.505 225.234 118.47 225.331 118.47C225.429 118.47 225.523 118.505 225.596 118.568C225.67 118.632 225.719 118.72 225.733 118.816V120.457C225.738 120.513 225.731 120.569 225.712 120.623C225.694 120.676 225.665 120.725 225.627 120.766C225.589 120.808 225.542 120.841 225.491 120.863C225.439 120.886 225.383 120.897 225.327 120.897V120.854ZM225.327 117.582C225.222 117.58 225.122 117.537 225.048 117.463C224.974 117.389 224.932 117.289 224.929 117.185V115.544C224.944 115.448 224.992 115.36 225.066 115.296C225.139 115.233 225.234 115.198 225.331 115.198C225.429 115.198 225.523 115.233 225.596 115.296C225.67 115.36 225.719 115.448 225.733 115.544V117.185C225.73 117.291 225.687 117.392 225.611 117.466C225.535 117.54 225.433 117.582 225.327 117.582V117.582ZM225.327 114.31C225.222 114.308 225.122 114.265 225.048 114.191C224.974 114.117 224.932 114.017 224.929 113.913V112.264C224.944 112.167 224.992 112.079 225.066 112.016C225.139 111.952 225.234 111.917 225.331 111.917C225.429 111.917 225.523 111.952 225.596 112.016C225.67 112.079 225.719 112.167 225.733 112.264V113.904C225.733 113.957 225.722 114.01 225.702 114.059C225.681 114.109 225.652 114.153 225.614 114.191C225.576 114.229 225.531 114.259 225.482 114.279C225.433 114.299 225.38 114.31 225.327 114.31V114.31ZM225.327 111.038C225.222 111.036 225.122 110.993 225.048 110.919C224.974 110.845 224.932 110.745 224.929 110.641V109C224.944 108.904 224.992 108.816 225.066 108.752C225.139 108.689 225.234 108.654 225.331 108.654C225.429 108.654 225.523 108.689 225.596 108.752C225.67 108.816 225.719 108.904 225.733 109V110.641C225.73 110.747 225.687 110.848 225.611 110.922C225.535 110.996 225.433 111.038 225.327 111.038V111.038ZM225.327 107.766C225.221 107.764 225.119 107.72 225.045 107.644C224.971 107.568 224.929 107.466 224.929 107.36V105.728C224.921 105.671 224.925 105.612 224.941 105.556C224.958 105.5 224.986 105.448 225.024 105.404C225.062 105.36 225.109 105.325 225.162 105.3C225.215 105.276 225.273 105.264 225.331 105.264C225.389 105.264 225.447 105.276 225.5 105.3C225.553 105.325 225.6 105.36 225.638 105.404C225.676 105.448 225.705 105.5 225.721 105.556C225.737 105.612 225.741 105.671 225.733 105.728V107.36C225.733 107.468 225.69 107.571 225.614 107.647C225.538 107.723 225.434 107.766 225.327 107.766V107.766ZM225.327 104.494C225.221 104.492 225.119 104.448 225.045 104.372C224.971 104.296 224.929 104.194 224.929 104.088V102.456C224.921 102.399 224.925 102.34 224.941 102.284C224.958 102.228 224.986 102.176 225.024 102.132C225.062 102.088 225.109 102.053 225.162 102.029C225.215 102.004 225.273 101.992 225.331 101.992C225.389 101.992 225.447 102.004 225.5 102.029C225.553 102.053 225.6 102.088 225.638 102.132C225.676 102.176 225.705 102.228 225.721 102.284C225.737 102.34 225.741 102.399 225.733 102.456V104.088C225.733 104.196 225.69 104.299 225.614 104.375C225.538 104.451 225.434 104.494 225.327 104.494V104.494ZM225.327 101.222C225.221 101.22 225.119 101.176 225.045 101.1C224.971 101.024 224.929 100.922 224.929 100.816V99.1845C224.921 99.1269 224.925 99.0681 224.941 99.0121C224.958 98.9562 224.986 98.9044 225.024 98.8603C225.062 98.8162 225.109 98.7808 225.162 98.7565C225.215 98.7323 225.273 98.7197 225.331 98.7197C225.389 98.7197 225.447 98.7323 225.5 98.7565C225.553 98.7808 225.6 98.8162 225.638 98.8603C225.676 98.9044 225.705 98.9562 225.721 99.0121C225.737 99.0681 225.741 99.1269 225.733 99.1845V100.816C225.733 100.924 225.69 101.027 225.614 101.103C225.538 101.179 225.434 101.222 225.327 101.222V101.222Z" fill="#F3F5F7"/>
<path d="M225.327 146.2C225.221 146.198 225.12 146.154 225.046 146.078C224.971 146.002 224.93 145.9 224.93 145.794V144.991C224.944 144.895 224.992 144.807 225.066 144.743C225.14 144.68 225.234 144.645 225.332 144.645C225.429 144.645 225.523 144.68 225.597 144.743C225.671 144.807 225.719 144.895 225.733 144.991V145.794C225.733 145.847 225.723 145.9 225.702 145.949C225.682 145.999 225.652 146.043 225.614 146.081C225.577 146.119 225.532 146.149 225.483 146.169C225.433 146.189 225.381 146.2 225.327 146.2V146.2Z" fill="#F3F5F7"/>
<path d="M256.54 100.091C256.432 100.091 256.329 100.048 256.252 99.9717C256.176 99.8956 256.134 99.7924 256.134 99.6848V98.8819C256.148 98.7855 256.196 98.6975 256.27 98.6338C256.344 98.5702 256.438 98.5352 256.535 98.5352C256.633 98.5352 256.727 98.5702 256.801 98.6338C256.874 98.6975 256.923 98.7855 256.937 98.8819V99.6848C256.937 99.7909 256.895 99.8928 256.821 99.9687C256.747 100.045 256.646 100.088 256.54 100.091V100.091Z" fill="#F3F5F7"/>
<path d="M256.539 125.723C256.431 125.723 256.328 125.68 256.252 125.604C256.176 125.528 256.133 125.425 256.133 125.317V123.72C256.124 123.662 256.129 123.604 256.145 123.548C256.161 123.492 256.189 123.44 256.227 123.396C256.266 123.352 256.313 123.316 256.366 123.292C256.419 123.268 256.476 123.255 256.535 123.255C256.593 123.255 256.651 123.268 256.704 123.292C256.757 123.316 256.804 123.352 256.842 123.396C256.88 123.44 256.908 123.492 256.925 123.548C256.941 123.604 256.945 123.662 256.936 123.72V125.317C256.936 125.423 256.895 125.525 256.821 125.601C256.746 125.677 256.645 125.721 256.539 125.723V125.723ZM256.539 122.52C256.431 122.52 256.328 122.477 256.252 122.401C256.176 122.325 256.133 122.222 256.133 122.114V120.517C256.124 120.46 256.129 120.401 256.145 120.345C256.161 120.289 256.189 120.237 256.227 120.193C256.266 120.149 256.313 120.113 256.366 120.089C256.419 120.065 256.476 120.052 256.535 120.052C256.593 120.052 256.651 120.065 256.704 120.089C256.757 120.113 256.804 120.149 256.842 120.193C256.88 120.237 256.908 120.289 256.925 120.345C256.941 120.401 256.945 120.46 256.936 120.517V122.114C256.936 122.22 256.895 122.322 256.821 122.398C256.746 122.474 256.645 122.518 256.539 122.52V122.52ZM256.539 119.317C256.431 119.317 256.328 119.274 256.252 119.198C256.176 119.122 256.133 119.019 256.133 118.911V117.314C256.124 117.257 256.129 117.198 256.145 117.142C256.161 117.086 256.189 117.034 256.227 116.99C256.266 116.946 256.313 116.911 256.366 116.886C256.419 116.862 256.476 116.849 256.535 116.849C256.593 116.849 256.651 116.862 256.704 116.886C256.757 116.911 256.804 116.946 256.842 116.99C256.88 117.034 256.908 117.086 256.925 117.142C256.941 117.198 256.945 117.257 256.936 117.314V118.911C256.936 119.018 256.895 119.119 256.821 119.195C256.746 119.271 256.645 119.315 256.539 119.317V119.317ZM256.539 116.114C256.431 116.114 256.328 116.072 256.252 115.995C256.176 115.919 256.133 115.816 256.133 115.709V114.103C256.147 114.006 256.196 113.918 256.269 113.855C256.343 113.791 256.437 113.756 256.535 113.756C256.632 113.756 256.726 113.791 256.8 113.855C256.874 113.918 256.922 114.006 256.936 114.103V115.717C256.934 115.822 256.892 115.922 256.818 115.996C256.744 116.07 256.644 116.112 256.539 116.114V116.114ZM256.539 112.903C256.486 112.904 256.433 112.894 256.384 112.875C256.335 112.856 256.29 112.826 256.252 112.789C256.215 112.753 256.185 112.708 256.164 112.66C256.144 112.611 256.133 112.558 256.133 112.506V110.9C256.147 110.803 256.196 110.715 256.269 110.652C256.343 110.588 256.437 110.553 256.535 110.553C256.632 110.553 256.726 110.588 256.8 110.652C256.874 110.715 256.922 110.803 256.936 110.9V112.506C256.936 112.611 256.895 112.712 256.82 112.786C256.745 112.861 256.644 112.903 256.539 112.903V112.903ZM256.539 109.7C256.433 109.7 256.331 109.658 256.255 109.584C256.179 109.51 256.135 109.409 256.133 109.303V107.697C256.147 107.601 256.196 107.513 256.269 107.449C256.343 107.385 256.437 107.35 256.535 107.35C256.632 107.35 256.726 107.385 256.8 107.449C256.874 107.513 256.922 107.601 256.936 107.697V109.303C256.928 109.403 256.882 109.496 256.809 109.565C256.736 109.633 256.639 109.672 256.539 109.674V109.7ZM256.539 106.497C256.433 106.497 256.331 106.455 256.255 106.381C256.179 106.307 256.135 106.206 256.133 106.1V104.494C256.147 104.398 256.196 104.31 256.269 104.246C256.343 104.182 256.437 104.147 256.535 104.147C256.632 104.147 256.726 104.182 256.8 104.246C256.874 104.31 256.922 104.398 256.936 104.494V106.1C256.934 106.204 256.892 106.304 256.818 106.378C256.744 106.452 256.644 106.495 256.539 106.497V106.497ZM256.539 103.294C256.433 103.294 256.331 103.252 256.255 103.178C256.179 103.104 256.135 103.003 256.133 102.897V101.291C256.147 101.195 256.196 101.107 256.269 101.043C256.343 100.979 256.437 100.944 256.535 100.944C256.632 100.944 256.726 100.979 256.8 101.043C256.874 101.107 256.922 101.195 256.936 101.291V102.897C256.934 103.001 256.892 103.101 256.818 103.175C256.744 103.249 256.644 103.292 256.539 103.294V103.294Z" fill="#F3F5F7"/>
<path d="M256.539 128.122C256.486 128.123 256.433 128.114 256.384 128.094C256.335 128.075 256.29 128.046 256.252 128.009C256.215 127.972 256.185 127.928 256.164 127.879C256.144 127.83 256.133 127.778 256.133 127.725V126.939C256.124 126.882 256.129 126.823 256.145 126.767C256.161 126.711 256.189 126.659 256.227 126.615C256.266 126.571 256.313 126.536 256.366 126.511C256.419 126.487 256.476 126.475 256.535 126.475C256.593 126.475 256.651 126.487 256.704 126.511C256.757 126.536 256.804 126.571 256.842 126.615C256.88 126.659 256.908 126.711 256.925 126.767C256.941 126.823 256.945 126.882 256.936 126.939V127.742C256.932 127.845 256.888 127.941 256.814 128.012C256.74 128.083 256.641 128.122 256.539 128.122V128.122Z" fill="#F3F5F7"/>
<path d="M231.85 71.9032C231.85 71.1175 231.297 70.7981 230.614 71.1952L219.237 77.7306C218.877 77.9669 218.577 78.2847 218.363 78.6581C218.148 79.0315 218.024 79.4502 218.002 79.8802V89.0832C218.002 89.8688 218.555 90.1883 219.237 89.7911L223.461 87.3566L225.232 90.43C225.259 90.4739 225.297 90.5094 225.343 90.5323C225.389 90.5551 225.44 90.5644 225.491 90.5589C225.542 90.5535 225.59 90.5335 225.63 90.5015C225.67 90.4695 225.7 90.4267 225.716 90.3782L227.591 84.9738L230.614 83.2472C230.975 83.0137 231.276 82.6978 231.49 82.3255C231.705 81.9533 231.828 81.5353 231.85 81.1061V71.9032Z" fill="#F3F5F7"/>
<path d="M221.949 81.5464C221.835 81.5553 221.721 81.5382 221.614 81.4963C221.508 81.4544 221.413 81.3889 221.336 81.3046C221.17 81.0909 221.09 80.8231 221.111 80.5536C221.112 80.2018 221.188 79.8543 221.336 79.5348C221.487 79.1845 221.694 78.8609 221.949 78.5766C222.194 78.2883 222.486 78.0431 222.813 77.8514C223.073 77.6893 223.371 77.5971 223.677 77.5837C223.791 77.5771 223.906 77.5962 224.012 77.6395C224.118 77.6828 224.213 77.7493 224.29 77.8341C224.459 78.0466 224.542 78.3145 224.523 78.5852C224.517 78.9345 224.438 79.2787 224.29 79.5953C224.133 79.9455 223.927 80.2712 223.677 80.5622C223.429 80.8434 223.137 81.0825 222.813 81.2701C222.555 81.4375 222.256 81.5328 221.949 81.5464ZM221.673 86.1997C221.675 86.1452 221.69 86.0921 221.716 86.0443L226.657 76.0039L226.787 75.7794C226.84 75.7225 226.901 75.6731 226.968 75.6327L227.979 75.0542C227.998 75.0461 228.019 75.042 228.039 75.042C228.06 75.042 228.081 75.0461 228.1 75.0542C228.117 75.0583 228.131 75.0686 228.141 75.083C228.15 75.0974 228.154 75.1148 228.152 75.1319C228.151 75.1905 228.133 75.2474 228.1 75.2959L223.115 85.345C223.115 85.4313 223.029 85.4917 223.003 85.5349C222.956 85.5853 222.901 85.6264 222.839 85.6558L221.819 86.2515C221.733 86.3637 221.673 86.3033 221.673 86.1997V86.1997ZM223.4 79.8284C223.555 79.6045 223.642 79.3407 223.651 79.0687C223.666 78.9708 223.649 78.8707 223.604 78.7825C223.56 78.6942 223.488 78.6222 223.4 78.5766C223.295 78.5452 223.184 78.539 223.076 78.5585C222.968 78.578 222.866 78.6226 222.778 78.6888C222.525 78.8367 222.311 79.0442 222.156 79.2931C222 79.5228 221.913 79.7925 221.906 80.0701C221.892 80.1655 221.909 80.2628 221.954 80.3481C221.999 80.4334 222.07 80.5022 222.156 80.5449C222.261 80.5762 222.371 80.5831 222.479 80.5651C222.587 80.5472 222.689 80.5048 222.778 80.4413C223.045 80.2947 223.27 80.084 223.435 79.8284H223.4ZM226.147 83.696C226.032 83.7046 225.915 83.6865 225.807 83.6431C225.699 83.5997 225.603 83.5322 225.525 83.4457C225.356 83.2366 225.273 82.9713 225.292 82.7032C225.298 82.3566 225.377 82.0153 225.525 81.7018C225.681 81.349 225.891 81.0228 226.147 80.7349C226.393 80.4487 226.685 80.2064 227.011 80.0183C227.27 79.851 227.568 79.7556 227.875 79.742C227.99 79.736 228.105 79.7544 228.212 79.7961C228.319 79.8378 228.417 79.9017 228.497 79.9838C228.667 80.1955 228.751 80.464 228.73 80.7349C228.726 81.0843 228.646 81.4287 228.497 81.7449C228.337 82.0954 228.128 82.4211 227.875 82.7119C227.628 82.9956 227.336 83.2376 227.011 83.4284C226.761 83.584 226.476 83.6758 226.182 83.696H226.147ZM227.625 81.9694C227.783 81.7442 227.871 81.4765 227.875 81.2011C227.875 80.9507 227.797 80.7953 227.625 80.7262C227.52 80.6942 227.408 80.6876 227.3 80.7071C227.192 80.7266 227.09 80.7717 227.003 80.8385C226.747 80.9838 226.533 81.1918 226.381 81.4428C226.227 81.6673 226.14 81.9307 226.13 82.2025C226.13 82.4615 226.217 82.6255 226.381 82.686C226.486 82.7135 226.597 82.7177 226.704 82.6984C226.811 82.679 226.913 82.6365 227.003 82.5737C227.265 82.4327 227.49 82.2315 227.659 81.9867L227.625 81.9694Z" fill="#03D1D1"/>
<path opacity="0.4" d="M221.949 81.5464C221.835 81.5553 221.721 81.5382 221.614 81.4963C221.508 81.4544 221.413 81.3889 221.336 81.3046C221.17 81.0909 221.09 80.8231 221.111 80.5536C221.112 80.2018 221.188 79.8543 221.336 79.5348C221.487 79.1845 221.694 78.8609 221.949 78.5766C222.194 78.2883 222.486 78.0431 222.813 77.8514C223.073 77.6893 223.371 77.5971 223.677 77.5837C223.791 77.5771 223.906 77.5962 224.012 77.6395C224.118 77.6828 224.213 77.7493 224.29 77.8341C224.459 78.0466 224.542 78.3145 224.523 78.5852C224.517 78.9345 224.438 79.2787 224.29 79.5953C224.133 79.9455 223.927 80.2712 223.677 80.5622C223.429 80.8434 223.137 81.0825 222.813 81.2701C222.555 81.4375 222.256 81.5328 221.949 81.5464ZM221.673 86.1997C221.675 86.1452 221.69 86.0921 221.716 86.0443L226.657 76.0039L226.787 75.7794C226.84 75.7225 226.901 75.6731 226.968 75.6327L227.979 75.0542C227.998 75.0461 228.019 75.042 228.039 75.042C228.06 75.042 228.081 75.0461 228.1 75.0542C228.117 75.0583 228.131 75.0686 228.141 75.083C228.15 75.0974 228.154 75.1148 228.152 75.1319C228.151 75.1905 228.133 75.2474 228.1 75.2959L223.115 85.345C223.115 85.4313 223.029 85.4917 223.003 85.5349C222.956 85.5853 222.901 85.6264 222.839 85.6558L221.819 86.2515C221.733 86.3637 221.673 86.3033 221.673 86.1997V86.1997ZM223.4 79.8284C223.555 79.6045 223.642 79.3407 223.651 79.0687C223.666 78.9708 223.649 78.8707 223.604 78.7825C223.56 78.6942 223.488 78.6222 223.4 78.5766C223.295 78.5452 223.184 78.539 223.076 78.5585C222.968 78.578 222.866 78.6226 222.778 78.6888C222.525 78.8367 222.311 79.0442 222.156 79.2931C222 79.5228 221.913 79.7925 221.906 80.0701C221.892 80.1655 221.909 80.2628 221.954 80.3481C221.999 80.4334 222.07 80.5022 222.156 80.5449C222.261 80.5762 222.371 80.5831 222.479 80.5651C222.587 80.5472 222.689 80.5048 222.778 80.4413C223.045 80.2947 223.27 80.084 223.435 79.8284H223.4ZM226.147 83.696C226.032 83.7046 225.915 83.6865 225.807 83.6431C225.699 83.5997 225.603 83.5322 225.525 83.4457C225.356 83.2366 225.273 82.9713 225.292 82.7032C225.298 82.3566 225.377 82.0153 225.525 81.7018C225.681 81.349 225.891 81.0228 226.147 80.7349C226.393 80.4487 226.685 80.2064 227.011 80.0183C227.27 79.851 227.568 79.7556 227.875 79.742C227.99 79.736 228.105 79.7544 228.212 79.7961C228.319 79.8378 228.417 79.9017 228.497 79.9838C228.667 80.1955 228.751 80.464 228.73 80.7349C228.726 81.0843 228.646 81.4287 228.497 81.7449C228.337 82.0954 228.128 82.4211 227.875 82.7119C227.628 82.9956 227.336 83.2376 227.011 83.4284C226.761 83.584 226.476 83.6758 226.182 83.696H226.147ZM227.625 81.9694C227.783 81.7442 227.871 81.4765 227.875 81.2011C227.875 80.9507 227.797 80.7953 227.625 80.7262C227.52 80.6942 227.408 80.6876 227.3 80.7071C227.192 80.7266 227.09 80.7717 227.003 80.8385C226.747 80.9838 226.533 81.1918 226.381 81.4428C226.227 81.6673 226.14 81.9307 226.13 82.2025C226.13 82.4615 226.217 82.6255 226.381 82.686C226.486 82.7135 226.597 82.7177 226.704 82.6984C226.811 82.679 226.913 82.6365 227.003 82.5737C227.265 82.4327 227.49 82.2315 227.659 81.9867L227.625 81.9694Z" fill="#580C9E"/>
<path d="M262.569 73.4834C262.569 72.6978 262.016 72.3783 261.333 72.7668L249.956 79.3453C249.597 79.5809 249.298 79.8972 249.084 80.2691C248.869 80.6409 248.745 81.0578 248.721 81.4864V90.6807C248.721 91.4749 249.274 91.7944 249.956 91.3973L254.215 88.9541L255.995 92.0275C256.015 92.0737 256.048 92.113 256.09 92.1406C256.132 92.1682 256.182 92.183 256.232 92.183C256.283 92.183 256.332 92.1682 256.374 92.1406C256.416 92.113 256.45 92.0737 256.47 92.0275L258.344 86.6145L261.377 84.8878C261.736 84.6523 262.034 84.3359 262.249 83.9641C262.464 83.5923 262.588 83.1753 262.612 82.7468L262.569 73.4834Z" fill="#F3F5F7"/>
<path d="M252.669 83.1263C252.554 83.1336 252.438 83.1149 252.33 83.0715C252.222 83.0282 252.126 82.9614 252.047 82.8759C251.884 82.6644 251.804 82.4001 251.823 82.1334C251.828 81.7822 251.904 81.4356 252.047 81.1147C252.202 80.7613 252.412 80.4349 252.669 80.1478C252.917 79.864 253.209 79.6221 253.533 79.4313C253.792 79.267 254.091 79.1746 254.397 79.1636C254.513 79.1551 254.629 79.1732 254.737 79.2166C254.845 79.26 254.942 79.3275 255.019 79.414C255.19 79.6253 255.274 79.8941 255.252 80.1651C255.247 80.5117 255.167 80.853 255.019 81.1665C254.864 81.5193 254.654 81.8455 254.397 82.1334C254.152 82.4196 253.86 82.6619 253.533 82.85C253.275 83.0173 252.977 83.1127 252.669 83.1263ZM252.384 87.7795C252.387 87.7212 252.405 87.6646 252.436 87.6155L257.378 77.5751C257.411 77.4951 257.455 77.4197 257.507 77.3507C257.555 77.2911 257.613 77.2413 257.68 77.2039L258.699 76.6168C258.751 76.6168 258.786 76.5737 258.82 76.6168C258.855 76.66 258.863 76.6168 258.863 76.6945C258.865 76.7522 258.85 76.809 258.82 76.8586L253.853 86.9508C253.822 87.0177 253.784 87.0813 253.741 87.1407C253.697 87.1907 253.644 87.2317 253.585 87.2615L252.557 87.8572C252.488 87.8918 252.384 87.8745 252.384 87.7795ZM254.112 81.4082C254.266 81.1837 254.353 80.9203 254.363 80.6485C254.377 80.5507 254.361 80.4506 254.316 80.3624C254.271 80.2741 254.2 80.2021 254.112 80.1564C254.007 80.1251 253.896 80.1189 253.788 80.1384C253.68 80.1579 253.578 80.2025 253.49 80.2687C253.239 80.4169 253.029 80.6244 252.877 80.873C252.717 81.1009 252.629 81.3717 252.626 81.65C252.611 81.7455 252.628 81.8434 252.673 81.9289C252.718 82.0145 252.789 82.0832 252.877 82.1248C252.981 82.1561 253.09 82.1623 253.197 82.1428C253.304 82.1233 253.404 82.0786 253.49 82.0126C253.758 81.8721 253.985 81.6637 254.147 81.4082H254.112ZM256.859 85.2759C256.744 85.2826 256.628 85.2636 256.52 85.2203C256.413 85.1771 256.316 85.1105 256.237 85.0256C256.076 84.8126 255.997 84.5494 256.013 84.2831C256.019 83.9347 256.095 83.5912 256.237 83.273C256.397 82.9225 256.606 82.5969 256.859 82.3061C257.107 82.0249 257.399 81.7858 257.723 81.5982C257.983 81.4334 258.28 81.3383 258.587 81.3219C258.702 81.3142 258.817 81.3318 258.925 81.3735C259.032 81.4153 259.129 81.4802 259.209 81.5637C259.379 81.7723 259.462 82.0379 259.442 82.3061C259.438 82.6585 259.359 83.0059 259.209 83.3248C259.051 83.6737 258.841 83.9968 258.587 84.2831C258.341 84.5683 258.049 84.8105 257.723 84.9997C257.473 85.1573 257.189 85.2521 256.894 85.2759H256.859ZM258.345 83.5493C258.501 83.3196 258.588 83.0499 258.596 82.7723C258.608 82.677 258.591 82.5802 258.546 82.4952C258.501 82.4102 258.431 82.3412 258.345 82.2975C258.238 82.2698 258.125 82.2663 258.016 82.2872C257.907 82.3081 257.804 82.3529 257.714 82.4183C257.463 82.5624 257.252 82.7672 257.101 83.014C256.941 83.2392 256.851 83.5064 256.842 83.7824C256.842 84.0414 256.928 84.1968 257.101 84.2658C257.205 84.2933 257.314 84.2974 257.42 84.278C257.526 84.2586 257.627 84.2161 257.714 84.1536C257.979 84.0129 258.207 83.8117 258.38 83.5665L258.345 83.5493Z" fill="#03D1D1"/>
<path opacity="0.4" d="M252.669 83.1263C252.554 83.1336 252.438 83.1149 252.33 83.0715C252.222 83.0282 252.126 82.9614 252.047 82.8759C251.884 82.6644 251.804 82.4001 251.823 82.1334C251.828 81.7822 251.904 81.4356 252.047 81.1147C252.202 80.7613 252.412 80.4349 252.669 80.1478C252.917 79.864 253.209 79.6221 253.533 79.4313C253.792 79.267 254.091 79.1746 254.397 79.1636C254.513 79.1551 254.629 79.1732 254.737 79.2166C254.845 79.26 254.942 79.3275 255.019 79.414C255.19 79.6253 255.274 79.8941 255.252 80.1651C255.247 80.5117 255.167 80.853 255.019 81.1665C254.864 81.5193 254.654 81.8455 254.397 82.1334C254.152 82.4196 253.86 82.6619 253.533 82.85C253.275 83.0173 252.977 83.1127 252.669 83.1263ZM252.384 87.7795C252.387 87.7212 252.405 87.6646 252.436 87.6155L257.378 77.5751C257.411 77.4951 257.455 77.4197 257.507 77.3507C257.555 77.2911 257.613 77.2413 257.68 77.2039L258.699 76.6168C258.751 76.6168 258.786 76.5737 258.82 76.6168C258.855 76.66 258.863 76.6168 258.863 76.6945C258.865 76.7522 258.85 76.809 258.82 76.8586L253.853 86.9508C253.822 87.0177 253.784 87.0813 253.741 87.1407C253.697 87.1907 253.644 87.2317 253.585 87.2615L252.557 87.8572C252.488 87.8918 252.384 87.8745 252.384 87.7795ZM254.112 81.4082C254.266 81.1837 254.353 80.9203 254.363 80.6485C254.377 80.5507 254.361 80.4506 254.316 80.3624C254.271 80.2741 254.2 80.2021 254.112 80.1564C254.007 80.1251 253.896 80.1189 253.788 80.1384C253.68 80.1579 253.578 80.2025 253.49 80.2687C253.239 80.4169 253.029 80.6244 252.877 80.873C252.717 81.1009 252.629 81.3717 252.626 81.65C252.611 81.7455 252.628 81.8434 252.673 81.9289C252.718 82.0145 252.789 82.0832 252.877 82.1248C252.981 82.1561 253.09 82.1623 253.197 82.1428C253.304 82.1233 253.404 82.0786 253.49 82.0126C253.758 81.8721 253.985 81.6637 254.147 81.4082H254.112ZM256.859 85.2759C256.744 85.2826 256.628 85.2636 256.52 85.2203C256.413 85.1771 256.316 85.1105 256.237 85.0256C256.076 84.8126 255.997 84.5494 256.013 84.2831C256.019 83.9347 256.095 83.5912 256.237 83.273C256.397 82.9225 256.606 82.5969 256.859 82.3061C257.107 82.0249 257.399 81.7858 257.723 81.5982C257.983 81.4334 258.28 81.3383 258.587 81.3219C258.702 81.3142 258.817 81.3318 258.925 81.3735C259.032 81.4153 259.129 81.4802 259.209 81.5637C259.379 81.7723 259.462 82.0379 259.442 82.3061C259.438 82.6585 259.359 83.0059 259.209 83.3248C259.051 83.6737 258.841 83.9968 258.587 84.2831C258.341 84.5683 258.049 84.8105 257.723 84.9997C257.473 85.1573 257.189 85.2521 256.894 85.2759H256.859ZM258.345 83.5493C258.501 83.3196 258.588 83.0499 258.596 82.7723C258.608 82.677 258.591 82.5802 258.546 82.4952C258.501 82.4102 258.431 82.3412 258.345 82.2975C258.238 82.2698 258.125 82.2663 258.016 82.2872C257.907 82.3081 257.804 82.3529 257.714 82.4183C257.463 82.5624 257.252 82.7672 257.101 83.014C256.941 83.2392 256.851 83.5064 256.842 83.7824C256.842 84.0414 256.928 84.1968 257.101 84.2658C257.205 84.2933 257.314 84.2974 257.42 84.278C257.526 84.2586 257.627 84.2161 257.714 84.1536C257.979 84.0129 258.207 83.8117 258.38 83.5665L258.345 83.5493Z" fill="#580C9E"/>
<path d="M199.548 61.2069C199.548 60.4213 198.995 60.1018 198.312 60.499L186.935 67.0688C186.575 67.3052 186.275 67.6229 186.061 67.9964C185.846 68.3698 185.722 68.7884 185.7 69.2185V78.4215C185.7 79.2071 186.253 79.5265 186.935 79.1294L191.151 76.6948L192.93 79.7596C192.951 79.8058 192.984 79.8451 193.026 79.8727C193.068 79.9004 193.118 79.9151 193.168 79.9151C193.218 79.9151 193.268 79.9004 193.31 79.8727C193.352 79.8451 193.385 79.8058 193.406 79.7596L195.28 74.3552L198.312 72.6286C198.673 72.3951 198.974 72.0792 199.188 71.7069C199.403 71.3347 199.526 70.9167 199.548 70.4876V61.2069Z" fill="#F3F5F7"/>
<path d="M189.639 70.8244C189.526 70.832 189.411 70.8143 189.305 70.7725C189.199 70.7307 189.104 70.6659 189.026 70.5826C188.864 70.367 188.784 70.1007 188.801 69.8315C188.806 69.4803 188.883 69.1337 189.026 68.8128C189.181 68.4642 189.387 68.1411 189.639 67.8545C189.887 67.5682 190.178 67.3234 190.503 67.1293C190.764 66.9683 191.061 66.8762 191.367 66.8617C191.483 66.8532 191.599 66.8713 191.707 66.9147C191.815 66.9581 191.911 67.0256 191.989 67.1121C192.158 67.3246 192.241 67.5925 192.222 67.8632C192.216 68.2125 192.137 68.5567 191.989 68.8733C191.829 69.2238 191.62 69.5494 191.367 69.8402C191.119 70.1214 190.828 70.3605 190.503 70.5481C190.245 70.7154 189.947 70.8108 189.639 70.8244ZM189.363 75.4776C189.364 75.4218 189.382 75.3676 189.415 75.3223L194.356 65.2732C194.392 65.1943 194.435 65.119 194.486 65.0487C194.533 64.9892 194.592 64.9394 194.658 64.902L195.678 64.3236C195.697 64.315 195.717 64.3105 195.738 64.3105C195.759 64.3105 195.78 64.315 195.799 64.3236C195.799 64.3236 195.842 64.3236 195.842 64.4013C195.844 64.459 195.829 64.5161 195.799 64.5653L190.831 74.6575C190.801 74.7244 190.763 74.788 190.719 74.8474C190.678 74.8999 190.625 74.9414 190.564 74.9683L189.536 75.564C189.423 75.6244 189.363 75.6071 189.363 75.5035V75.4776ZM191.091 69.1063C191.245 68.8824 191.332 68.6187 191.341 68.3466C191.356 68.2487 191.34 68.1487 191.295 68.0605C191.25 67.9722 191.179 67.9002 191.091 67.8545C190.985 67.8232 190.874 67.817 190.766 67.8365C190.658 67.856 190.556 67.9006 190.469 67.9668C190.218 68.1153 190.007 68.3227 189.855 68.5711C189.695 68.7989 189.608 69.0698 189.605 69.3481C189.605 69.5984 189.683 69.7538 189.855 69.8229C189.959 69.8542 190.069 69.8604 190.176 69.8409C190.282 69.8214 190.383 69.7767 190.469 69.7107C190.747 69.5716 190.983 69.3598 191.151 69.0977L191.091 69.1063ZM193.838 72.974C193.722 72.9826 193.606 72.9645 193.498 72.9211C193.39 72.8777 193.293 72.8101 193.216 72.7237C193.054 72.5114 192.974 72.2477 192.991 71.9812C192.998 71.6358 193.075 71.2952 193.216 70.9797C193.371 70.627 193.581 70.3007 193.838 70.0128C194.083 69.7267 194.375 69.4843 194.702 69.2963C194.96 69.1289 195.258 69.0336 195.566 69.02C195.68 69.014 195.795 69.0324 195.903 69.0741C196.01 69.1157 196.107 69.1797 196.188 69.2617C196.355 69.4747 196.435 69.7431 196.412 70.0128C196.411 70.3617 196.334 70.7062 196.188 71.0229C196.028 71.3734 195.818 71.6991 195.566 71.9898C195.318 72.2732 195.026 72.5151 194.702 72.7064C194.454 72.8711 194.169 72.9719 193.872 72.9999L193.838 72.974ZM195.324 71.2474C195.479 71.0204 195.566 70.7538 195.574 70.479C195.588 70.3836 195.571 70.2863 195.526 70.201C195.481 70.1158 195.41 70.0469 195.324 70.0042C195.217 69.9721 195.105 69.9655 194.995 69.985C194.885 70.0045 194.782 70.0495 194.693 70.1164C194.441 70.2629 194.23 70.4708 194.08 70.7208C193.92 70.9428 193.83 71.2072 193.821 71.4805C193.821 71.7395 193.907 71.9035 194.08 71.9639C194.184 71.9914 194.293 71.9955 194.399 71.9761C194.505 71.9567 194.605 71.9142 194.693 71.8517C194.955 71.7183 195.183 71.5263 195.358 71.2905L195.324 71.2474Z" fill="#03D1D1"/>
<path opacity="0.4" d="M189.639 70.8244C189.526 70.832 189.411 70.8143 189.305 70.7725C189.199 70.7307 189.104 70.6659 189.026 70.5826C188.864 70.367 188.784 70.1007 188.801 69.8315C188.806 69.4803 188.883 69.1337 189.026 68.8128C189.181 68.4642 189.387 68.1411 189.639 67.8545C189.887 67.5682 190.178 67.3234 190.503 67.1293C190.764 66.9683 191.061 66.8762 191.367 66.8617C191.483 66.8532 191.599 66.8713 191.707 66.9147C191.815 66.9581 191.911 67.0256 191.989 67.1121C192.158 67.3246 192.241 67.5925 192.222 67.8632C192.216 68.2125 192.137 68.5567 191.989 68.8733C191.829 69.2238 191.62 69.5494 191.367 69.8402C191.119 70.1214 190.828 70.3605 190.503 70.5481C190.245 70.7154 189.947 70.8108 189.639 70.8244ZM189.363 75.4776C189.364 75.4218 189.382 75.3676 189.415 75.3223L194.356 65.2732C194.392 65.1943 194.435 65.119 194.486 65.0487C194.533 64.9892 194.592 64.9394 194.658 64.902L195.678 64.3236C195.697 64.315 195.717 64.3105 195.738 64.3105C195.759 64.3105 195.78 64.315 195.799 64.3236C195.799 64.3236 195.842 64.3236 195.842 64.4013C195.844 64.459 195.829 64.5161 195.799 64.5653L190.831 74.6575C190.801 74.7244 190.763 74.788 190.719 74.8474C190.678 74.8999 190.625 74.9414 190.564 74.9683L189.536 75.564C189.423 75.6244 189.363 75.6071 189.363 75.5035V75.4776ZM191.091 69.1063C191.245 68.8824 191.332 68.6187 191.341 68.3466C191.356 68.2487 191.34 68.1487 191.295 68.0605C191.25 67.9722 191.179 67.9002 191.091 67.8545C190.985 67.8232 190.874 67.817 190.766 67.8365C190.658 67.856 190.556 67.9006 190.469 67.9668C190.218 68.1153 190.007 68.3227 189.855 68.5711C189.695 68.7989 189.608 69.0698 189.605 69.3481C189.605 69.5984 189.683 69.7538 189.855 69.8229C189.959 69.8542 190.069 69.8604 190.176 69.8409C190.282 69.8214 190.383 69.7767 190.469 69.7107C190.747 69.5716 190.983 69.3598 191.151 69.0977L191.091 69.1063ZM193.838 72.974C193.722 72.9826 193.606 72.9645 193.498 72.9211C193.39 72.8777 193.293 72.8101 193.216 72.7237C193.054 72.5114 192.974 72.2477 192.991 71.9812C192.998 71.6358 193.075 71.2952 193.216 70.9797C193.371 70.627 193.581 70.3007 193.838 70.0128C194.083 69.7267 194.375 69.4843 194.702 69.2963C194.96 69.1289 195.258 69.0336 195.566 69.02C195.68 69.014 195.795 69.0324 195.903 69.0741C196.01 69.1157 196.107 69.1797 196.188 69.2617C196.355 69.4747 196.435 69.7431 196.412 70.0128C196.411 70.3617 196.334 70.7062 196.188 71.0229C196.028 71.3734 195.818 71.6991 195.566 71.9898C195.318 72.2732 195.026 72.5151 194.702 72.7064C194.454 72.8711 194.169 72.9719 193.872 72.9999L193.838 72.974ZM195.324 71.2474C195.479 71.0204 195.566 70.7538 195.574 70.479C195.588 70.3836 195.571 70.2863 195.526 70.201C195.481 70.1158 195.41 70.0469 195.324 70.0042C195.217 69.9721 195.105 69.9655 194.995 69.985C194.885 70.0045 194.782 70.0495 194.693 70.1164C194.441 70.2629 194.23 70.4708 194.08 70.7208C193.92 70.9428 193.83 71.2072 193.821 71.4805C193.821 71.7395 193.907 71.9035 194.08 71.9639C194.184 71.9914 194.293 71.9955 194.399 71.9761C194.505 71.9567 194.605 71.9142 194.693 71.8517C194.955 71.7183 195.183 71.5263 195.358 71.2905L195.324 71.2474Z" fill="#580C9E"/>
<path d="M158.246 110.209C158.246 109.423 157.694 109.104 157.011 109.492L145.634 116.071C145.274 116.307 144.974 116.625 144.76 116.998C144.545 117.372 144.421 117.791 144.398 118.221V127.415C144.398 128.209 144.951 128.529 145.634 128.131L149.858 125.697L151.629 128.762C151.655 128.806 151.692 128.842 151.738 128.865C151.783 128.889 151.834 128.899 151.885 128.894C151.936 128.89 151.984 128.871 152.025 128.84C152.065 128.809 152.096 128.766 152.113 128.719L153.988 123.306L157.011 121.579C157.371 121.344 157.671 121.028 157.885 120.656C158.1 120.284 158.224 119.867 158.246 119.438V110.209Z" fill="#F3F5F7"/>
<path d="M148.346 119.852C148.231 119.861 148.116 119.843 148.01 119.8C147.903 119.756 147.808 119.688 147.733 119.601C147.565 119.392 147.485 119.126 147.508 118.859C147.509 118.507 147.585 118.16 147.733 117.84C147.886 117.488 148.093 117.162 148.346 116.873C148.592 116.588 148.884 116.346 149.21 116.157C149.469 115.993 149.767 115.9 150.074 115.889C150.19 115.881 150.306 115.899 150.414 115.942C150.522 115.986 150.618 116.053 150.696 116.14C150.866 116.351 150.949 116.62 150.929 116.891C150.923 117.237 150.844 117.579 150.696 117.892C150.538 118.246 150.329 118.575 150.074 118.868C149.826 119.149 149.534 119.388 149.21 119.576C148.951 119.74 148.653 119.835 148.346 119.852ZM148.07 124.505C148.073 124.448 148.087 124.392 148.113 124.341L153.054 114.301C153.088 114.221 153.131 114.145 153.184 114.076C153.233 114.019 153.292 113.969 153.357 113.929L154.376 113.342C154.415 113.329 154.458 113.329 154.497 113.342C154.514 113.347 154.528 113.357 154.538 113.371C154.548 113.386 154.551 113.403 154.549 113.42C154.546 113.478 154.528 113.535 154.497 113.584L149.538 123.676C149.495 123.763 149.452 123.823 149.426 123.866C149.377 123.914 149.322 123.955 149.262 123.987L148.234 124.583C148.121 124.617 148.07 124.609 148.07 124.505V124.505ZM149.797 118.134C149.949 117.909 150.033 117.645 150.039 117.374C150.039 117.115 149.962 116.951 149.797 116.882C149.692 116.851 149.581 116.844 149.473 116.864C149.365 116.883 149.263 116.928 149.175 116.994C148.92 117.14 148.706 117.348 148.553 117.599C148.397 117.828 148.31 118.098 148.303 118.376C148.289 118.471 148.306 118.568 148.351 118.654C148.396 118.739 148.467 118.808 148.553 118.85C148.659 118.882 148.77 118.888 148.878 118.868C148.986 118.849 149.088 118.804 149.175 118.738C149.441 118.595 149.667 118.387 149.832 118.134H149.797ZM152.545 122.001C152.429 122.008 152.313 121.989 152.205 121.946C152.098 121.903 152.001 121.836 151.923 121.751C151.755 121.541 151.672 121.277 151.689 121.009C151.695 120.662 151.775 120.321 151.923 120.007C152.08 119.653 152.29 119.324 152.545 119.032C152.794 118.752 153.085 118.513 153.408 118.324C153.668 118.159 153.965 118.064 154.272 118.047C154.387 118.04 154.503 118.057 154.61 118.099C154.718 118.141 154.815 118.206 154.894 118.289C155.065 118.501 155.149 118.769 155.128 119.04C155.123 119.39 155.043 119.734 154.894 120.05C154.736 120.399 154.527 120.722 154.272 121.009C154.029 121.296 153.736 121.539 153.408 121.725C153.16 121.887 152.875 121.982 152.579 122.001H152.545ZM154.022 120.275C154.178 120.045 154.265 119.775 154.272 119.498C154.285 119.403 154.267 119.306 154.222 119.221C154.177 119.136 154.107 119.067 154.022 119.023C153.914 118.995 153.802 118.992 153.693 119.013C153.584 119.034 153.481 119.078 153.391 119.144C153.142 119.291 152.932 119.495 152.778 119.74C152.621 119.966 152.534 120.233 152.527 120.508C152.527 120.767 152.605 120.922 152.778 120.991C152.882 121.019 152.991 121.023 153.097 121.004C153.203 120.984 153.303 120.942 153.391 120.879C153.656 120.738 153.884 120.537 154.056 120.292L154.022 120.275Z" fill="#03D1D1"/>
<path opacity="0.4" d="M148.346 119.852C148.231 119.861 148.116 119.843 148.01 119.8C147.903 119.756 147.808 119.688 147.733 119.601C147.565 119.392 147.485 119.126 147.508 118.859C147.509 118.507 147.585 118.16 147.733 117.84C147.886 117.488 148.093 117.162 148.346 116.873C148.592 116.588 148.884 116.346 149.21 116.157C149.469 115.993 149.767 115.9 150.074 115.889C150.19 115.881 150.306 115.899 150.414 115.942C150.522 115.986 150.618 116.053 150.696 116.14C150.866 116.351 150.949 116.62 150.929 116.891C150.923 117.237 150.844 117.579 150.696 117.892C150.538 118.246 150.329 118.575 150.074 118.868C149.826 119.149 149.534 119.388 149.21 119.576C148.951 119.74 148.653 119.835 148.346 119.852ZM148.07 124.505C148.073 124.448 148.087 124.392 148.113 124.341L153.054 114.301C153.088 114.221 153.131 114.145 153.184 114.076C153.233 114.019 153.292 113.969 153.357 113.929L154.376 113.342C154.415 113.329 154.458 113.329 154.497 113.342C154.514 113.347 154.528 113.357 154.538 113.371C154.548 113.386 154.551 113.403 154.549 113.42C154.546 113.478 154.528 113.535 154.497 113.584L149.538 123.676C149.495 123.763 149.452 123.823 149.426 123.866C149.377 123.914 149.322 123.955 149.262 123.987L148.234 124.583C148.121 124.617 148.07 124.609 148.07 124.505V124.505ZM149.797 118.134C149.949 117.909 150.033 117.645 150.039 117.374C150.039 117.115 149.962 116.951 149.797 116.882C149.692 116.851 149.581 116.844 149.473 116.864C149.365 116.883 149.263 116.928 149.175 116.994C148.92 117.14 148.706 117.348 148.553 117.599C148.397 117.828 148.31 118.098 148.303 118.376C148.289 118.471 148.306 118.568 148.351 118.654C148.396 118.739 148.467 118.808 148.553 118.85C148.659 118.882 148.77 118.888 148.878 118.868C148.986 118.849 149.088 118.804 149.175 118.738C149.441 118.595 149.667 118.387 149.832 118.134H149.797ZM152.545 122.001C152.429 122.008 152.313 121.989 152.205 121.946C152.098 121.903 152.001 121.836 151.923 121.751C151.755 121.541 151.672 121.277 151.689 121.009C151.695 120.662 151.775 120.321 151.923 120.007C152.08 119.653 152.29 119.324 152.545 119.032C152.794 118.752 153.085 118.513 153.408 118.324C153.668 118.159 153.965 118.064 154.272 118.047C154.387 118.04 154.503 118.057 154.61 118.099C154.718 118.141 154.815 118.206 154.894 118.289C155.065 118.501 155.149 118.769 155.128 119.04C155.123 119.39 155.043 119.734 154.894 120.05C154.736 120.399 154.527 120.722 154.272 121.009C154.029 121.296 153.736 121.539 153.408 121.725C153.16 121.887 152.875 121.982 152.579 122.001H152.545ZM154.022 120.275C154.178 120.045 154.265 119.775 154.272 119.498C154.285 119.403 154.267 119.306 154.222 119.221C154.177 119.136 154.107 119.067 154.022 119.023C153.914 118.995 153.802 118.992 153.693 119.013C153.584 119.034 153.481 119.078 153.391 119.144C153.142 119.291 152.932 119.495 152.778 119.74C152.621 119.966 152.534 120.233 152.527 120.508C152.527 120.767 152.605 120.922 152.778 120.991C152.882 121.019 152.991 121.023 153.097 121.004C153.203 120.984 153.303 120.942 153.391 120.879C153.656 120.738 153.884 120.537 154.056 120.292L154.022 120.275Z" fill="#580C9E"/>
<path d="M148.027 196.16L156.364 191.351C157.582 190.652 158.558 190.954 158.558 192.025C158.468 192.693 158.222 193.33 157.841 193.887C157.46 194.443 156.954 194.902 156.364 195.228L148.036 200.036C146.818 200.736 145.833 200.434 145.833 199.363C145.927 198.696 146.174 198.06 146.555 197.505C146.935 196.949 147.439 196.489 148.027 196.16V196.16Z" fill="#F3F5F7"/>
<path d="M189.484 172.238L197.82 167.43C199.029 166.73 200.014 167.032 200.014 168.103C199.92 168.77 199.673 169.406 199.293 169.961C198.912 170.517 198.408 170.977 197.82 171.306L189.484 176.149C188.274 176.848 187.289 176.546 187.289 175.476C187.38 174.803 187.625 174.161 188.005 173.599C188.386 173.037 188.892 172.571 189.484 172.238Z" fill="#F3F5F7"/>
<path d="M221.162 153.987L229.499 149.179C230.708 148.479 231.693 148.781 231.693 149.852C231.599 150.519 231.352 151.155 230.971 151.71C230.591 152.266 230.087 152.726 229.499 153.055L221.162 157.864C219.953 158.563 218.968 158.269 218.968 157.199C219.061 156.531 219.308 155.893 219.689 155.336C220.069 154.779 220.574 154.317 221.162 153.987V153.987Z" fill="#F3F5F7"/>
<path d="M252.366 135.962L260.702 131.153C261.92 130.454 262.905 130.747 262.897 131.818C262.808 132.487 262.563 133.127 262.182 133.684C261.801 134.242 261.294 134.703 260.702 135.029L252.375 139.838C251.156 140.537 250.172 140.235 250.172 139.164C250.266 138.498 250.513 137.862 250.893 137.306C251.274 136.75 251.778 136.29 252.366 135.962V135.962Z" fill="#F3F5F7"/>
<path d="M310.369 88.6684C308.235 88.513 305.272 88.5044 302.343 93.2872C299.415 98.07 291.458 111.227 291.458 111.227L296.642 114.732L305.712 101.998C305.712 101.998 306.576 91.8195 308.252 90.395C309.928 88.9706 310.369 88.6684 310.369 88.6684Z" fill="#F28F8F"/>
<path d="M317.555 184.971L312.69 186.545L314.981 193.617L319.847 192.042L317.555 184.971Z" fill="#FFA8A7"/>
<path d="M314.005 190.54C314.036 191.12 313.888 191.696 313.582 192.189C312.808 193.476 311.895 194.675 310.861 195.763C309.401 197.326 307.215 199.217 305.678 200.538C304.814 201.297 304.771 202.445 306.015 202.843C308.33 203.411 310.775 203.071 312.848 201.893C314.403 201.03 316.614 197.214 317.902 196.627C319.387 195.962 320.225 195.625 320.726 194.9C321.106 194.511 321.342 194.004 321.397 193.464C321.452 192.923 321.322 192.379 321.029 191.922C320.329 190.618 319.301 188.615 318.843 188.84L318.973 189.245C318.636 190.307 315.742 191.542 314.256 191.248L314.005 190.54Z" fill="#580C9E"/>
<path d="M318.955 189.289C317.581 188.866 317.167 189.591 315.681 189.289L314.005 190.54C314.04 191.121 313.892 191.697 313.581 192.189C312.807 193.476 311.895 194.675 310.86 195.763C310.143 196.523 309.262 197.352 308.372 198.164C307.655 199.286 310.048 199.614 311.37 199.234C312.82 198.715 314.071 197.755 314.946 196.489C315.905 195.228 318.514 192.302 318.903 191.309C319.183 190.668 319.201 189.943 318.955 189.289V189.289Z" fill="#FFA8A7"/>
<path d="M335.3 117.788C334.592 112.608 333.002 106.565 330.912 97.2672C330.16 93.9089 329.184 90.8787 326.782 89.9463C326.782 89.9463 320.191 92.6571 320.191 97.5262C320.191 102.395 325.521 104.89 325.521 104.89L328.562 115.371L333.382 121.216C334.08 120.997 334.667 120.521 335.024 119.883C335.38 119.246 335.479 118.496 335.3 117.788V117.788Z" fill="#FFA8A7"/>
<path d="M325.001 196.506H320.034V203.732H325.001V196.506Z" fill="#FFA8A7"/>
<path d="M328.742 122.847C330.712 131.273 328.794 142.643 328.12 149.731C327.464 156.637 326.652 164.709 326.652 164.709C326.652 164.709 328.768 172.004 328.665 177.659C328.561 183.633 325.062 198.016 325.062 198.016C324.302 198.505 323.417 198.765 322.514 198.765C321.61 198.765 320.725 198.505 319.965 198.016C319.965 198.016 319.101 185.929 318.237 179.092C317.374 171.926 317.097 166.712 316.363 162.525C315.438 157.345 313.892 135.261 313.892 135.261L311.231 157.155C312.827 159.778 314.07 162.599 314.929 165.547C316.017 169.785 318.384 186.611 318.384 186.611C316.903 187.937 314.999 188.693 313.011 188.744C313.011 188.744 302.368 163.475 300.917 160.954C299.362 158.269 299.128 128.864 301.608 121.5L328.742 122.847Z" fill="#844EB6"/>
<path d="M319.647 88.7808C319.647 88.7808 325.936 89.5664 326.783 89.9463C320.191 94.5823 325.521 104.89 325.521 104.89L322.334 113.67L328.735 122.821C326.895 124.945 315.189 132.318 302.628 124.237C302.882 119.974 303.375 115.729 304.106 111.521C302.292 102.887 302.101 100.133 302.628 98.1046C304.106 92.3981 307.483 88.7549 311.362 88.5391L319.647 88.7808Z" fill="#03D1D1"/>
<path opacity="0.7" d="M319.647 88.7808C319.647 88.7808 325.936 89.5664 326.783 89.9463C320.191 94.5823 325.521 104.89 325.521 104.89L322.334 113.67L328.735 122.821C326.895 124.945 315.189 132.318 302.628 124.237C302.882 119.974 303.375 115.729 304.106 111.521C302.292 102.887 302.101 100.133 302.628 98.1046C304.106 92.3981 307.483 88.7549 311.362 88.5391L319.647 88.7808Z" fill="#F7F8F8"/>
<path d="M287.786 104.226L309.21 109.872L315.534 136.445L295.164 130.531L287.786 104.226Z" fill="#03D1D1"/>
<path d="M297.124 121.812C296.926 122.355 295.759 123.858 293.263 123.745L292.952 122.64L297.124 121.812Z" fill="#03D1D1"/>
<path opacity="0.2" d="M297.124 121.812C296.926 122.355 295.759 123.858 293.263 123.745L292.952 122.64L297.124 121.812Z" fill="#580C9E"/>
<path d="M301.92 122.623C302.006 123.331 303.466 124.643 305.928 125.463C308.736 126.404 313.029 125.904 313.029 125.904L312.649 124.583L301.92 122.623Z" fill="#03D1D1"/>
<path opacity="0.2" d="M301.92 122.623C302.006 123.331 303.466 124.643 305.928 125.463C308.736 126.404 313.029 125.904 313.029 125.904L312.649 124.583L301.92 122.623Z" fill="#580C9E"/>
<path d="M294.057 108.076L293.885 107.265C293.781 106.807 295.042 106.79 296.692 107.213L299.845 108.033C301.495 108.465 302.912 109.173 303.007 109.622L303.189 110.442L294.057 108.076Z" fill="#03D1D1"/>
<path opacity="0.3" d="M294.057 108.076L293.885 107.265C293.781 106.807 295.042 106.79 296.692 107.213L299.845 108.033C301.495 108.465 302.912 109.173 303.007 109.622L303.189 110.442L294.057 108.076Z" fill="#580C9E"/>
<path d="M292.571 104.994C292.511 104.717 293.021 104.64 293.712 104.83L294.964 105.175C294.964 105.175 294.584 103.448 297.366 104.027C298.105 104.13 298.804 104.423 299.396 104.877C299.988 105.331 300.452 105.93 300.744 106.617L302.074 106.997C302.817 107.204 303.482 107.601 303.569 107.86L303.724 108.369L292.692 105.468C292.692 105.468 292.632 105.279 292.571 104.994Z" fill="#844EB6"/>
<path d="M294.092 105.875C295.103 106.125 295.526 106.255 295.673 106.954C295.82 107.653 295.915 108.327 295.915 108.327L300.804 109.622C300.804 109.622 300.571 108.612 300.493 108.223C300.416 107.835 300.58 107.593 301.357 107.8L301.426 107.489L293.772 105.538L294.092 105.875Z" fill="#844EB6"/>
<path d="M293.955 108.154C293.955 108.154 293.877 107.791 293.774 107.29C293.67 106.79 294.931 106.824 296.581 107.29L299.743 108.111C301.393 108.542 302.801 109.25 302.905 109.699L303.078 110.519L293.955 108.154Z" fill="#844EB6"/>
<path d="M333.382 121.216L328.561 115.371C328.561 115.371 317.711 119.921 316 120.05C314.29 120.18 312.968 118.505 312.312 116.839C311.655 115.173 310.359 115.38 310.359 115.38C310.359 115.38 310.869 117.495 311.024 118.177C311.18 118.859 307.266 119.403 304.977 118.634C302.688 117.866 299.431 118.98 301.47 122.088C303.509 125.196 307.448 125.541 310.195 125.541C311.35 125.532 312.504 125.455 313.651 125.308C314.514 125.196 315.378 125.101 316.32 125.04C321.927 124.609 330.825 122.01 333.382 121.216Z" fill="#FFA8A7"/>
<path d="M289.964 111.995L290.914 115.388C291.104 116.035 293.592 117.227 295.164 117.659C296.737 118.09 298.464 118.6 297.756 120.801C297.065 122.83 294.473 123.296 293.152 123.236C291.83 123.175 290.033 121.923 289.316 119.886C288.452 117.296 288.901 114.533 288.538 112.979C288.176 111.425 289.178 111.097 289.964 111.995Z" fill="#FFA8A7"/>
<path d="M320.035 201.289V200.572C319.421 202.921 318.196 205.065 316.485 206.788C314.913 208.221 312.779 209.87 312.235 211.459C311.69 213.047 314.757 213.772 316.787 213.574C318.752 213.326 320.562 212.379 321.884 210.906C323.171 209.43 323.145 208.42 323.75 207.608C324.355 206.797 325.737 205.882 326.065 204.941C326.162 204.067 326.065 203.183 325.78 202.351C325.547 201.487 325.297 200.512 325.003 200.624V201.168C324.296 201.731 323.418 202.035 322.515 202.031C321.789 201.988 320.027 201.841 320.035 201.289Z" fill="#580C9E"/>
<path d="M325.002 201.116C324.64 201.513 324.458 200.538 323.335 200.572C322.609 200.572 321.391 201.125 321.391 200.572H320.035C319.421 202.921 318.196 205.065 316.485 206.788C316.104 207.133 315.698 207.487 315.284 207.85C314.42 208.782 314.688 209.577 316.649 209.758C318.61 209.939 320.329 208.748 321.832 206.926C323.086 205.104 324.149 203.157 325.002 201.116V201.116Z" fill="#FFA8A7"/>
<path d="M315.344 84.5332H314.169C311.168 84.5332 308.289 83.3417 306.167 81.2207C304.045 79.0998 302.852 76.2232 302.852 73.2237V72.0755C302.852 69.5271 303.865 67.0831 305.669 65.2811C307.472 63.4791 309.917 62.4668 312.467 62.4668H317.098C319.648 62.4668 322.094 63.4791 323.897 65.2811C325.7 67.0831 326.713 69.5271 326.713 72.0755V73.1633C326.713 76.1773 325.515 79.068 323.384 81.2C321.252 83.332 318.36 84.5309 315.344 84.5332V84.5332Z" fill="#580C9E"/>
<path d="M306.774 67.293C305.512 68.0354 303.957 71.2038 304.113 77.8427C304.242 83.4716 306.065 84.8615 306.981 85.2673C307.897 85.673 309.668 85.4227 311.387 85.1378V88.5133C311.387 88.5133 309.011 91.276 309.167 92.8299C309.322 94.3839 312.622 94.7465 314.816 93.227C316.423 91.9839 317.808 90.4776 318.911 88.7723L318.868 81.0025C318.868 81.0025 319.879 81.9866 321.598 80.4845C323.015 79.2499 323.49 77.1607 322.384 76.047C322.099 75.7804 321.754 75.5854 321.378 75.4783C321.003 75.3711 320.607 75.3548 320.224 75.4307C319.84 75.5066 319.481 75.6726 319.174 75.9148C318.868 76.1571 318.624 76.4687 318.462 76.824C316.206 76.7325 314.009 76.0797 312.069 74.9247C310.65 74.1559 309.432 73.0648 308.512 71.7392C307.592 70.4136 306.997 68.8906 306.774 67.293V67.293Z" fill="#FFA8A7"/>
<path d="M310.368 76.4352C310.361 76.5293 310.373 76.624 310.402 76.7136C310.432 76.8032 310.479 76.8861 310.541 76.9575C310.603 77.0289 310.678 77.0874 310.762 77.1296C310.847 77.1719 310.939 77.197 311.033 77.2035C311.226 77.2082 311.414 77.1365 311.555 77.0039C311.695 76.8714 311.778 76.6887 311.785 76.4956C311.793 76.3079 311.726 76.1246 311.599 75.9862C311.536 75.9177 311.46 75.8622 311.375 75.8229C311.291 75.7837 311.2 75.7614 311.107 75.7575C310.919 75.7495 310.735 75.8164 310.597 75.9435C310.458 76.0706 310.376 76.2474 310.368 76.4352V76.4352Z" fill="#580C9E"/>
<path d="M310.212 81.1836L308.571 81.7102C308.635 81.9281 308.782 82.1119 308.981 82.2217C309.18 82.3316 309.414 82.3588 309.633 82.2973C309.746 82.265 309.851 82.2101 309.942 82.1357C310.033 82.0614 310.108 81.9693 310.163 81.865C310.217 81.7608 310.249 81.6466 310.258 81.5294C310.266 81.4122 310.251 81.2946 310.212 81.1836V81.1836Z" fill="#F28F8F"/>
<path d="M304.597 74.2766L306.031 73.2837C305.905 73.0945 305.708 72.9629 305.485 72.9176C305.262 72.8724 305.03 72.9171 304.839 73.042C304.739 73.1047 304.653 73.1872 304.587 73.2844C304.52 73.3816 304.474 73.4914 304.451 73.607C304.428 73.7227 304.43 73.8417 304.455 73.9569C304.48 74.072 304.528 74.1808 304.597 74.2766V74.2766Z" fill="#580C9E"/>
<path d="M304.926 75.9175C304.925 76.0564 304.964 76.1927 305.04 76.3093C305.115 76.426 305.223 76.5179 305.35 76.5737C305.477 76.6294 305.618 76.6466 305.755 76.6229C305.892 76.5993 306.019 76.5359 306.12 76.4407C306.221 76.3454 306.292 76.2226 306.324 76.0874C306.356 75.9522 306.347 75.8107 306.299 75.6804C306.251 75.5501 306.166 75.4368 306.054 75.3546C305.942 75.2725 305.808 75.225 305.669 75.2182C305.574 75.2148 305.48 75.2302 305.391 75.2636C305.302 75.297 305.221 75.3477 305.152 75.4127C305.082 75.4778 305.027 75.5559 304.988 75.6426C304.95 75.7292 304.929 75.8227 304.926 75.9175V75.9175Z" fill="#580C9E"/>
<path d="M308.269 75.5205L308.157 79.7767L305.91 79.0774L308.269 75.5205Z" fill="#F28F8F"/>
<path d="M311.388 85.1373C313.202 84.8956 316.925 83.8251 317.504 82.3574C317.273 83.1037 316.817 83.7607 316.2 84.2395C315.085 85.1891 311.388 86.2596 311.388 86.2596V85.1373Z" fill="#F28F8F"/>
<path d="M324.216 108.481L319.257 115.198L322.333 113.67L324.216 108.481Z" fill="#03D1D1"/>
<path opacity="0.3" d="M324.216 108.481L319.257 115.198L322.333 113.67L324.216 108.481Z" fill="#F7F8F8"/>
</svg>
